<svg width="681" height="496" viewBox="0 0 681 496" fill="none" xmlns="http://www.w3.org/2000/svg">
<path d="M587.409 422.124L72.8213 406.445L213.21 73.5884L607.194 159.057L607.041 161.039L587.409 422.124ZM79.6274 402.077L583.176 417.419L602.331 162.684L215.946 78.8616L79.6274 402.077Z" fill="#F3F5FD"/>
<path d="M360.647 279.479L212.735 77.577L216.425 74.874L362.101 273.724L603.782 158.806L605.746 162.936L360.647 279.479Z" fill="#F3F5FD"/>
<path d="M584.061 421.699L361.182 279.193L77.1588 406.349L75.2905 402.174L361.566 274.009L586.524 417.846L584.061 421.699Z" fill="#F3F5FD"/>
<path d="M214.58 152.451C256.678 152.451 290.805 118.323 290.805 76.2253C290.805 34.1272 256.678 0 214.58 0C172.482 0 138.355 34.1272 138.355 76.2253C138.355 118.323 172.482 152.451 214.58 152.451Z" fill="#DEE8F5"/>
<path d="M604.764 237.097C646.862 237.097 680.99 202.969 680.99 160.871C680.99 118.773 646.862 84.646 604.764 84.646C562.666 84.646 528.539 118.773 528.539 160.871C528.539 202.969 562.666 237.097 604.764 237.097Z" fill="#DEE8F5"/>
<path d="M361.374 352.826C403.472 352.826 437.599 318.699 437.599 276.601C437.599 234.503 403.472 200.375 361.374 200.375C319.276 200.375 285.148 234.503 285.148 276.601C285.148 318.699 319.276 352.826 361.374 352.826Z" fill="#DEE8F5"/>
<path d="M76.2253 480.487C118.323 480.487 152.451 446.359 152.451 404.261C152.451 362.163 118.323 328.036 76.2253 328.036C34.1272 328.036 0 362.163 0 404.261C0 446.359 34.1272 480.487 76.2253 480.487Z" fill="#F3F5FD"/>
<path d="M585.293 495.997C627.391 495.997 661.518 461.87 661.518 419.772C661.518 377.674 627.391 343.546 585.293 343.546C543.195 343.546 509.068 377.674 509.068 419.772C509.068 461.87 543.195 495.997 585.293 495.997Z" fill="#DEE8F5"/>
<path d="M252.603 142.307L248.075 130.492C248.15 135.067 248.524 139.633 249.195 144.159C239.034 149.323 227.847 152.148 216.454 152.429C205.06 152.71 193.747 150.439 183.345 145.783C185.067 140.449 185.939 134.877 185.928 129.272C185.891 126.604 185.59 123.946 185.029 121.337L177.78 142.993C172.211 139.919 167.048 136.16 162.413 131.803L179.206 81.6772L179.327 81.7229C180.185 79.7419 181.414 77.9435 182.948 76.4253C186.752 72.6293 193.307 70.1824 201.302 70.1748C201.898 74.8322 230.2 74.8474 230.42 70.2815C231.495 70.2968 232.341 70.312 232.86 70.3349C245.192 70.8685 249.584 77.4391 250.651 86.609L267.649 130.942C263.124 135.339 258.07 139.157 252.603 142.307V142.307Z" fill="#9EBCEA"/>
<path d="M230.419 70.2794C230.203 74.8529 227.718 81.5736 220.048 82.0805C209.826 82.7536 201.898 74.8338 201.296 70.1719H201.322C211.389 70.1719 224.552 70.1886 230.419 70.2794Z" fill="#E98862"/>
<path d="M203.377 74.769C203.377 74.769 209.804 71.3625 208.369 53.8634L221.646 51.4014C221.646 51.4014 220.154 67.0901 226.871 72.0714L203.377 74.769Z" fill="#E98862"/>
<g opacity="0.15">
<path opacity="0.15" d="M224.15 68.7913L213.121 60.3531L221.784 60.2632C222.034 63.2285 222.837 66.1208 224.15 68.7913V68.7913Z" fill="black"/>
</g>
<path d="M200.835 47.0786C201.754 52.3877 204.652 57.4155 209.335 59.1298C214.438 61.1557 219.96 61.902 225.418 61.3038C239.953 60.1116 237.081 27.0634 230.177 20.6445C223.273 14.2255 203.025 18.2899 200.561 29.0292C199.291 34.58 199.961 42.0256 200.835 47.0786Z" fill="#E98862"/>
<path d="M234.975 21.7849C234.541 21.0964 233.934 20.5345 233.213 20.156C226.759 16.6458 214.797 15.43 209.05 17.1504C202.386 19.1445 194.028 24.7326 196.173 38.2801C196.263 38.8502 196.36 39.3998 196.461 39.9395C194.356 39.581 192.193 39.8085 190.209 40.5972C188.225 41.3859 186.497 42.7053 185.213 44.411C183.929 46.1167 183.139 48.1428 182.93 50.2675C182.72 52.3922 183.1 54.5335 184.026 56.4569C184.953 58.3803 186.391 60.0116 188.183 61.1722C189.975 62.3328 192.052 62.9779 194.186 63.0368C196.32 63.0958 198.429 62.5663 200.283 61.5064C202.136 60.4465 203.662 58.897 204.693 57.0277C205.682 57.8819 206.75 58.6397 207.883 59.2908C208.678 59.7634 208.874 59.3785 209.147 58.495C210.11 55.4117 211.053 43.2141 210.302 34.3575L225.964 33.8163L228.692 26.052L230.929 33.8163H236.265C236.973 29.6095 237.71 24.8408 234.975 21.7849Z" fill="#0F1011"/>
<path d="M221.627 42.9892C222.292 42.9892 222.831 42.4504 222.831 41.7856C222.831 41.1209 222.292 40.582 221.627 40.582C220.963 40.582 220.424 41.1209 220.424 41.7856C220.424 42.4504 220.963 42.9892 221.627 42.9892Z" fill="#0F1011"/>
<path d="M231.126 42.2104C231.791 42.2104 232.33 41.6715 232.33 41.0068C232.33 40.3421 231.791 39.8032 231.126 39.8032C230.462 39.8032 229.923 40.3421 229.923 41.0068C229.923 41.6715 230.462 42.2104 231.126 42.2104Z" fill="#0F1011"/>
<path d="M233.214 38.4399H233.207L230.017 38.4002C229.867 38.3982 229.724 38.3367 229.619 38.2292C229.514 38.1218 229.456 37.9771 229.458 37.827C229.466 37.6791 229.529 37.5397 229.635 37.4363C229.741 37.3329 229.882 37.2732 230.031 37.269L233.22 37.3087C233.37 37.3095 233.513 37.3699 233.619 37.4765C233.724 37.5831 233.783 37.7273 233.782 37.8773C233.782 38.0273 233.721 38.1709 233.614 38.2764C233.508 38.3819 233.364 38.4407 233.214 38.4399V38.4399Z" fill="#0F1011"/>
<path d="M219.027 39.6035C218.888 39.6038 218.754 39.5532 218.65 39.4611C218.547 39.3691 218.48 39.242 218.464 39.1042C218.448 38.9664 218.483 38.8275 218.562 38.7138C218.642 38.6 218.76 38.5195 218.895 38.4875L222.04 37.7306C222.112 37.7132 222.187 37.7102 222.261 37.7217C222.334 37.7333 222.405 37.7592 222.468 37.7979C222.531 37.8367 222.586 37.8875 222.63 37.9476C222.674 38.0076 222.705 38.0757 222.723 38.1479C222.74 38.2202 222.743 38.2951 222.732 38.3685C222.72 38.4419 222.694 38.5123 222.655 38.5757C222.617 38.6391 222.566 38.6942 222.506 38.7379C222.446 38.7817 222.378 38.8131 222.305 38.8305L219.16 39.5882C219.117 39.5986 219.072 39.6037 219.027 39.6035V39.6035Z" fill="#0F1011"/>
<path d="M215.363 44.7311C215.435 46.059 214.986 47.3627 214.112 48.3648C213.237 49.3668 212.007 49.9883 210.681 50.097C209.356 50.2058 208.04 49.7931 207.014 48.9469C205.988 48.1007 205.333 46.8877 205.187 45.5657C205.121 44.8953 205.19 44.2184 205.39 43.5753C205.591 42.9322 205.919 42.3361 206.355 41.8224C206.791 41.3087 207.326 40.888 207.927 40.5854C208.529 40.2827 209.186 40.1043 209.858 40.0607C213.496 39.9418 215.132 41.9237 215.363 44.7311Z" fill="#E98862"/>
<g opacity="0.15">
<path opacity="0.15" d="M226.972 48.4639C226.873 48.4639 226.776 48.4282 226.701 48.3633C226.626 48.2984 226.576 48.2085 226.561 48.1101C226.546 48.0117 226.568 47.9113 226.621 47.8271C226.674 47.7429 226.755 47.6805 226.85 47.6513L229.299 46.899L227.586 43.0839C227.563 43.0339 227.551 42.9799 227.55 42.9251C227.548 42.8703 227.557 42.8157 227.577 42.7645C227.596 42.7133 227.626 42.6665 227.664 42.6266C227.701 42.5868 227.746 42.5548 227.796 42.5324C227.847 42.5101 227.901 42.4978 227.955 42.4963C228.01 42.4947 228.065 42.504 228.116 42.5236C228.167 42.5432 228.214 42.5726 228.254 42.6103C228.294 42.648 228.326 42.6932 228.348 42.7432L230.254 46.9882C230.278 47.0419 230.29 47.1001 230.29 47.159C230.29 47.2179 230.278 47.2761 230.253 47.3298C230.229 47.3835 230.194 47.4313 230.149 47.4702C230.105 47.5091 230.053 47.5381 229.997 47.5553L227.1 48.4456C227.059 48.4582 227.015 48.4644 226.972 48.4639V48.4639Z" fill="black"/>
</g>
<path d="M222.184 51.2682C222.184 51.2682 226.63 51.7369 229.745 50.6484C229.745 50.6484 229.72 53.5755 226.203 53.8644C222.685 54.1533 222.184 51.2682 222.184 51.2682Z" fill="white"/>
<path d="M621.805 168.818C621.805 168.818 615.379 165.411 616.814 147.913L603.537 145.451C603.537 145.451 605.029 161.139 598.312 166.121L621.805 168.818Z" fill="#E98862"/>
<g opacity="0.15">
<path opacity="0.15" d="M601.036 162.841L612.065 154.402L603.402 154.312C603.152 157.278 602.349 160.17 601.036 162.841V162.841Z" fill="black"/>
</g>
<path d="M624.348 141.127C623.429 146.436 620.531 151.464 615.848 153.179C610.745 155.204 605.223 155.951 599.765 155.353C585.23 154.16 588.102 121.112 595.006 114.692C601.91 108.273 622.158 112.339 624.622 123.077C625.892 128.629 625.222 136.074 624.348 141.127Z" fill="#E98862"/>
<path d="M584.836 111.625C584.836 107.235 590.299 100.042 604.873 109.961L604.887 109.97C608.674 109.865 612.457 110.278 616.131 111.2C618.762 111.96 621.222 113.225 623.372 114.922V114.922C627.428 118.214 630.385 123.627 629.007 132.329C626.614 147.449 620.421 151.485 617.298 153.339C616.503 153.812 616.307 153.427 616.035 152.544C615.169 149.28 614.55 145.955 614.182 142.597C613.707 139.103 610.571 136.887 610.95 132.707C611.083 131.246 613.436 125.89 606.154 125.832C602.058 125.799 603.589 125.961 599.218 125.961C598.595 125.961 598.045 125.933 597.541 125.885H597.535C582.442 125.89 584.836 116.015 584.836 111.625Z" fill="#0F1011"/>
<path d="M609.82 138.78C609.748 140.108 610.198 141.411 611.072 142.413C611.947 143.415 613.177 144.036 614.503 144.144C615.828 144.253 617.143 143.84 618.169 142.994C619.195 142.148 619.85 140.936 619.996 139.614C620.062 138.943 619.993 138.267 619.792 137.624C619.592 136.981 619.264 136.385 618.828 135.871C618.392 135.357 617.857 134.937 617.255 134.634C616.654 134.332 615.997 134.153 615.325 134.11C611.687 133.991 610.051 135.97 609.82 138.78Z" fill="#E98862"/>
<path d="M612.062 122.586L615.822 123.963C615.822 123.963 614.489 142.743 613.437 147.876C612.385 153.01 609.442 156.353 606.106 156.642C600.985 157.081 597.273 157.116 593.516 155.773C589.279 154.26 589.873 142.891 589.873 142.891C589.873 142.891 603.506 144.369 607.278 142.557C611.051 140.745 612.062 122.586 612.062 122.586Z" fill="#0F1011"/>
<path d="M603.556 137.037C604.22 137.037 604.759 136.498 604.759 135.833C604.759 135.169 604.22 134.63 603.556 134.63C602.891 134.63 602.352 135.169 602.352 135.833C602.352 136.498 602.891 137.037 603.556 137.037Z" fill="#0F1011"/>
<path d="M594.056 136.258C594.721 136.258 595.26 135.719 595.26 135.055C595.26 134.39 594.721 133.851 594.056 133.851C593.391 133.851 592.853 134.39 592.853 135.055C592.853 135.719 593.391 136.258 594.056 136.258Z" fill="#0F1011"/>
<path d="M591.969 132.488C591.819 132.489 591.675 132.431 591.568 132.326C591.461 132.22 591.401 132.077 591.4 131.927C591.399 131.777 591.458 131.632 591.563 131.526C591.668 131.419 591.812 131.358 591.962 131.357L595.152 131.317H595.16C595.31 131.316 595.454 131.375 595.561 131.48C595.668 131.586 595.728 131.729 595.729 131.879C595.73 132.029 595.671 132.173 595.566 132.28C595.46 132.387 595.317 132.447 595.167 132.448L591.977 132.488H591.969Z" fill="#0F1011"/>
<path d="M606.155 133.651C606.11 133.652 606.066 133.646 606.022 133.636L602.877 132.879C602.731 132.844 602.605 132.753 602.527 132.625C602.449 132.497 602.424 132.343 602.46 132.197C602.495 132.051 602.586 131.925 602.714 131.847C602.842 131.769 602.996 131.744 603.142 131.779L606.287 132.536C606.421 132.569 606.539 132.65 606.618 132.763C606.697 132.877 606.731 133.015 606.715 133.152C606.699 133.29 606.633 133.416 606.53 133.508C606.426 133.6 606.293 133.651 606.155 133.651V133.651Z" fill="#0F1011"/>
<g opacity="0.15">
<path opacity="0.15" d="M598.211 142.512C598.31 142.512 598.407 142.477 598.482 142.412C598.557 142.347 598.607 142.257 598.622 142.159C598.636 142.06 598.615 141.96 598.562 141.876C598.509 141.791 598.428 141.729 598.333 141.7L595.884 140.947L597.596 137.136C597.638 137.036 597.638 136.924 597.598 136.824C597.558 136.724 597.481 136.643 597.382 136.599C597.284 136.555 597.172 136.551 597.071 136.587C596.969 136.624 596.886 136.699 596.839 136.796L594.933 141.041C594.909 141.095 594.896 141.153 594.896 141.212C594.897 141.271 594.909 141.329 594.933 141.383C594.958 141.436 594.993 141.484 595.037 141.523C595.082 141.562 595.134 141.591 595.19 141.608L598.087 142.498C598.127 142.509 598.169 142.514 598.211 142.512V142.512Z" fill="black"/>
</g>
<path d="M603 145.317C603 145.317 598.554 145.786 595.439 144.696C595.439 144.696 595.463 147.624 598.981 147.912C602.499 148.2 603 145.317 603 145.317Z" fill="white"/>
<path d="M659.286 214.128C654.781 218.748 649.707 222.777 644.186 226.118L640.389 214.775C639.829 217.382 639.528 220.037 639.491 222.703C639.489 224.666 639.594 226.628 639.803 228.58C630.155 233.561 619.556 236.429 608.712 236.992C597.868 237.554 587.029 235.799 576.917 231.842C577.131 229.464 577.282 226.834 577.343 223.923L574.661 230.92C569.016 228.496 563.689 225.391 558.798 221.674L574.768 180.032C575.835 170.87 580.226 164.299 592.551 163.766C593.077 163.743 593.916 163.727 594.998 163.712C595.211 168.278 623.521 168.263 624.116 163.605C632.112 163.613 638.667 166.06 642.463 169.864C644.002 171.376 645.231 173.172 646.084 175.154L646.214 175.108L659.286 214.128Z" fill="#8DDBE0"/>
<path d="M594.997 163.71C595.213 168.284 597.698 175.005 605.368 175.512C615.59 176.185 623.518 168.265 624.12 163.603H624.095C614.027 163.603 600.864 163.619 594.997 163.71Z" fill="#E98862"/>
<path d="M611.683 385.871C611.811 373.514 606.927 365.857 600.305 361.653C593.772 357.504 573.284 353.894 565.516 368.953C560.447 378.78 562.448 382.292 561.013 398.032C559.577 413.772 554.06 415.423 548.466 434.499C544.079 449.464 568.657 457.408 589.945 456.721C611.233 456.035 624.723 451.323 625.959 437.785C627.731 418.356 611.433 410.086 611.683 385.871Z" fill="#0F1011"/>
<path d="M599 420.034C599 420.034 592.606 416.568 594.198 399.083L580.945 396.5C580.945 396.5 582.292 412.202 575.533 417.12L599 420.034Z" fill="#E98862"/>
<g opacity="0.15">
<path opacity="0.15" d="M578.284 413.866L589.391 405.529L580.729 405.361C580.451 408.323 579.621 411.208 578.284 413.866Z" fill="black"/>
</g>
<path d="M601.799 392.368C600.832 397.668 597.889 402.669 593.19 404.34C588.067 406.32 582.538 407.015 577.084 406.366C562.561 405.041 565.739 372.021 572.698 365.662C579.657 359.303 599.871 363.557 602.236 374.316C603.456 379.883 602.718 387.323 601.799 392.368Z" fill="#E98862"/>
<path d="M581.056 388.087C581.72 388.087 582.259 387.548 582.259 386.883C582.259 386.219 581.72 385.68 581.056 385.68C580.391 385.68 579.852 386.219 579.852 386.883C579.852 387.548 580.391 388.087 581.056 388.087Z" fill="#0F1011"/>
<path d="M571.563 387.22C572.228 387.22 572.767 386.681 572.767 386.017C572.767 385.352 572.228 384.813 571.563 384.813C570.898 384.813 570.359 385.352 570.359 386.017C570.359 386.681 570.898 387.22 571.563 387.22Z" fill="#0F1011"/>
<path d="M569.505 383.432C569.355 383.432 569.211 383.373 569.105 383.267C568.999 383.16 568.939 383.017 568.939 382.867C568.939 382.717 568.999 382.573 569.105 382.467C569.211 382.361 569.355 382.301 569.505 382.301L572.696 382.29C572.842 382.295 572.981 382.357 573.083 382.462C573.185 382.568 573.241 382.709 573.241 382.856C573.241 383.002 573.185 383.143 573.083 383.249C572.981 383.354 572.842 383.416 572.696 383.421L569.505 383.432V383.432Z" fill="#0F1011"/>
<path d="M583.68 384.725C583.633 384.725 583.587 384.72 583.541 384.708L580.403 383.923C580.257 383.887 580.132 383.794 580.055 383.665C579.978 383.536 579.956 383.382 579.992 383.237C580.029 383.091 580.122 382.966 580.25 382.889C580.379 382.812 580.533 382.789 580.679 382.826L583.817 383.611C583.951 383.644 584.068 383.725 584.147 383.839C584.225 383.953 584.259 384.092 584.242 384.229C584.225 384.366 584.158 384.492 584.055 384.583C583.951 384.675 583.818 384.725 583.68 384.725V384.725Z" fill="#0F1011"/>
<path d="M580.411 396.362C580.411 396.362 575.962 396.789 572.856 395.676C572.856 395.676 572.856 398.603 576.369 398.924C579.881 399.245 580.411 396.362 580.411 396.362Z" fill="white"/>
<path d="M592.144 378.524C592.459 402.502 594.771 411.817 594.771 411.817C594.771 411.817 606.124 398.096 607.837 383.565C609.444 369.943 599.469 361.8 592.695 360.22C566.949 354.215 565.162 372.994 565.162 372.994C566.826 379.4 594.931 383.375 594.931 383.375" fill="#0F1011"/>
<path d="M587.088 392.129C587.004 392.808 587.058 393.497 587.246 394.155C587.434 394.813 587.752 395.426 588.182 395.959C588.611 396.491 589.143 396.932 589.746 397.255C590.35 397.578 591.011 397.776 591.693 397.839C592.374 397.901 593.061 397.825 593.713 397.617C594.364 397.409 594.967 397.071 595.486 396.625C596.005 396.179 596.429 395.634 596.733 395.021C597.037 394.408 597.214 393.74 597.255 393.057C597.327 392.387 597.264 391.71 597.07 391.065C596.875 390.42 596.553 389.821 596.122 389.304C595.691 388.786 595.16 388.36 594.561 388.052C593.962 387.744 593.307 387.559 592.636 387.509C588.997 387.358 587.343 389.322 587.088 392.129Z" fill="#E98862"/>
<g opacity="0.15">
<path opacity="0.15" d="M575.654 393.513C575.753 393.513 575.849 393.477 575.924 393.413C575.999 393.348 576.049 393.259 576.064 393.161C576.079 393.064 576.059 392.964 576.007 392.879C575.955 392.795 575.874 392.732 575.78 392.702L573.341 391.927L575.089 388.129C575.112 388.079 575.125 388.025 575.128 387.971C575.13 387.916 575.122 387.861 575.103 387.81C575.084 387.758 575.055 387.711 575.018 387.671C574.981 387.63 574.936 387.598 574.886 387.575C574.837 387.552 574.783 387.539 574.728 387.537C574.673 387.535 574.619 387.544 574.567 387.563C574.516 387.582 574.469 387.611 574.429 387.649C574.389 387.686 574.357 387.731 574.334 387.781L572.389 392.007C572.364 392.06 572.351 392.119 572.351 392.178C572.351 392.236 572.363 392.295 572.387 392.349C572.41 392.402 572.445 392.451 572.489 392.49C572.533 392.529 572.584 392.559 572.64 392.577L575.531 393.492C575.571 393.505 575.612 393.512 575.654 393.513Z" fill="black"/>
</g>
<path d="M617.653 466.913C617.093 469.522 616.791 472.18 616.754 474.848C616.741 479.426 617.323 483.987 618.484 488.416C608.38 493.289 597.326 495.877 586.108 495.996C574.89 496.115 563.784 493.761 553.579 489.102C554.19 484.782 554.533 480.429 554.607 476.067L550.232 487.471C544.698 484.599 539.537 481.058 534.865 476.929L552.031 432.177C553.091 423.015 557.481 416.444 569.814 415.91C570.34 415.887 571.179 415.872 572.261 415.849C572.475 420.423 600.784 420.408 601.379 415.743C609.375 415.75 615.931 418.205 619.727 422.001C621.264 423.517 622.493 425.316 623.348 427.298L623.477 427.253L639.065 473.796C634.519 478.33 629.417 482.269 623.881 485.519L617.653 466.913Z" fill="#367CFF"/>
<path d="M572.259 415.853C572.476 420.427 574.961 427.147 582.63 427.655C592.852 428.328 600.78 420.408 601.382 415.745H601.357C591.29 415.745 578.126 415.762 572.259 415.853Z" fill="#E98862"/>
<path d="M402.028 258.328C402.275 261.377 399.099 264.216 398.575 267.094C398.034 270.067 399.977 273.844 398.709 276.511C397.423 279.217 393.255 280.093 391.327 282.363C389.399 284.632 389.204 288.885 386.742 290.59C384.313 292.267 380.273 290.962 377.426 291.975C374.675 292.955 372.385 296.549 369.335 296.795C366.286 297.041 363.448 293.866 360.574 293.342C357.601 292.8 353.824 294.743 351.157 293.475C348.451 292.19 347.574 288.022 345.305 286.094C343.037 284.166 338.783 283.972 337.078 281.508C335.397 279.08 336.706 275.04 335.693 272.193C334.712 269.442 331.119 267.152 330.873 264.102C330.627 261.052 333.802 258.214 334.326 255.341C334.868 252.368 332.925 248.591 334.193 245.923C335.478 243.218 339.646 242.341 341.574 240.072C343.502 237.804 343.696 233.549 346.16 231.844C348.588 230.167 352.628 231.473 355.475 230.459C358.226 229.479 360.516 225.886 363.565 225.64C366.614 225.393 369.454 228.569 372.331 229.093C375.304 229.635 379.081 227.692 381.748 228.959C384.454 230.245 385.331 234.413 387.6 236.341C389.869 238.269 394.122 238.463 395.828 240.927C397.504 243.354 396.199 247.395 397.213 250.241C398.188 252.992 401.783 255.279 402.028 258.328Z" fill="#0F1011"/>
<path d="M352.988 294.182C352.988 294.182 359.417 290.781 357.997 273.28L371.277 270.831C371.277 270.831 369.77 286.518 376.483 291.505L352.988 294.182Z" fill="#E98862"/>
<g opacity="0.15">
<path opacity="0.15" d="M373.765 288.223L362.743 279.775L371.406 279.692C371.654 282.658 372.455 285.551 373.765 288.223V288.223Z" fill="black"/>
</g>
<path d="M350.471 266.488C351.385 271.798 354.282 276.828 358.959 278.547C364.061 280.578 369.583 281.329 375.043 280.735C389.578 279.556 386.732 246.505 379.838 240.079C372.943 233.654 352.688 237.701 350.214 248.436C348.937 253.988 349.6 261.434 350.471 266.488Z" fill="#E98862"/>
<path d="M371.266 262.417C371.93 262.417 372.469 261.878 372.469 261.213C372.469 260.549 371.93 260.01 371.266 260.01C370.601 260.01 370.062 260.549 370.062 261.213C370.062 261.878 370.601 262.417 371.266 262.417Z" fill="#0F1011"/>
<path d="M380.767 261.647C381.431 261.647 381.97 261.108 381.97 260.443C381.97 259.779 381.431 259.24 380.767 259.24C380.102 259.24 379.563 259.779 379.563 260.443C379.563 261.108 380.102 261.647 380.767 261.647Z" fill="#0F1011"/>
<path d="M382.856 257.879H382.848L379.659 257.835C379.585 257.835 379.511 257.819 379.443 257.79C379.374 257.76 379.313 257.718 379.261 257.665C379.209 257.611 379.168 257.549 379.14 257.479C379.113 257.41 379.099 257.337 379.1 257.262C379.1 257.188 379.115 257.114 379.144 257.045C379.174 256.977 379.216 256.915 379.269 256.863C379.323 256.811 379.386 256.77 379.455 256.743C379.525 256.716 379.599 256.702 379.673 256.704L382.863 256.747C383.01 256.753 383.148 256.816 383.249 256.922C383.351 257.029 383.406 257.17 383.405 257.317C383.405 257.463 383.347 257.604 383.244 257.709C383.142 257.814 383.002 257.875 382.856 257.879V257.879Z" fill="#0F1011"/>
<path d="M368.67 259.029C368.531 259.029 368.397 258.978 368.294 258.886C368.19 258.794 368.124 258.667 368.107 258.529C368.091 258.391 368.126 258.253 368.206 258.139C368.285 258.025 368.404 257.945 368.539 257.913L371.685 257.159C371.757 257.14 371.833 257.136 371.908 257.146C371.982 257.157 372.054 257.182 372.118 257.221C372.183 257.26 372.239 257.311 372.284 257.372C372.328 257.432 372.36 257.501 372.378 257.575C372.395 257.648 372.398 257.724 372.386 257.798C372.373 257.872 372.346 257.944 372.306 258.007C372.266 258.071 372.214 258.126 372.152 258.169C372.091 258.213 372.021 258.243 371.947 258.259L368.802 259.013C368.759 259.023 368.714 259.029 368.67 259.029V259.029Z" fill="#0F1011"/>
<path d="M371.815 270.697C371.815 270.697 376.26 271.17 379.376 270.087C379.376 270.087 379.349 273.015 375.831 273.3C372.313 273.585 371.815 270.697 371.815 270.697Z" fill="white"/>
<path d="M360.262 252.743C361.134 265.187 359.764 277.687 356.218 289.647C356.218 289.647 346.085 272.173 344.518 257.626C343.049 243.988 353.105 235.947 359.895 234.434C385.7 228.688 387.556 247.538 387.556 247.538C382.856 257.313 357.469 257.271 357.469 257.271" fill="#0F1011"/>
<path d="M365.183 266.398C365.249 267.724 364.797 269.023 363.922 270.022C363.047 271.02 361.818 271.638 360.494 271.745C359.171 271.853 357.858 271.441 356.834 270.596C355.809 269.752 355.154 268.542 355.006 267.223C354.941 266.552 355.01 265.876 355.212 265.233C355.413 264.59 355.741 263.994 356.177 263.481C356.614 262.968 357.149 262.548 357.751 262.245C358.353 261.943 359.009 261.765 359.681 261.722C363.32 261.606 364.955 263.587 365.183 266.398Z" fill="#E98862"/>
<g opacity="0.15">
<path opacity="0.15" d="M376.606 267.898C376.506 267.898 376.41 267.862 376.335 267.797C376.259 267.732 376.21 267.642 376.195 267.544C376.18 267.446 376.201 267.345 376.254 267.261C376.307 267.177 376.389 267.114 376.484 267.085L378.934 266.335L377.224 262.518C377.202 262.468 377.19 262.414 377.188 262.36C377.187 262.305 377.196 262.25 377.216 262.199C377.235 262.148 377.265 262.101 377.302 262.061C377.34 262.022 377.385 261.99 377.435 261.967C377.485 261.945 377.539 261.933 377.594 261.931C377.649 261.93 377.703 261.939 377.755 261.959C377.806 261.978 377.853 262.008 377.892 262.046C377.932 262.083 377.964 262.128 377.986 262.178L379.892 266.424C379.916 266.478 379.928 266.536 379.928 266.595C379.928 266.654 379.915 266.712 379.891 266.766C379.866 266.82 379.831 266.868 379.787 266.907C379.743 266.946 379.691 266.975 379.634 266.992L376.734 267.879C376.692 267.892 376.649 267.898 376.606 267.898Z" fill="black"/>
</g>
<path d="M411.074 334.395C400.835 343.192 388.445 349.116 375.17 351.562C361.894 354.009 348.207 352.891 335.504 348.321C335.433 345.817 335.134 343.324 334.612 340.874L332.509 347.163C326.797 344.829 321.393 341.803 316.417 338.153L328.788 301.214L328.918 301.252C329.773 299.272 331.003 297.476 332.539 295.962C336.335 292.159 342.89 289.712 350.887 289.704C351.481 294.361 379.791 294.384 380.005 289.811C381.087 289.826 381.925 289.841 382.451 289.872C394.777 290.398 399.167 296.976 400.235 306.138L411.074 334.395Z" fill="#0CBC8B"/>
<path d="M380.004 289.808C379.788 294.382 377.303 301.102 369.632 301.609C359.411 302.282 351.483 294.362 350.881 289.7H350.906C360.973 289.702 374.136 289.719 380.004 289.808Z" fill="#E98862"/>
<path d="M62.0513 414.388C62.0513 414.388 68.4778 410.981 67.0425 393.483L80.3194 391.021C80.3194 391.021 78.8277 406.709 85.5447 411.69L62.0513 414.388Z" fill="#E98862"/>
<g opacity="0.15">
<path opacity="0.15" d="M82.8242 408.41L71.7944 399.972L80.4574 399.882C80.7082 402.847 81.5109 405.74 82.8242 408.41V408.41Z" fill="black"/>
</g>
<path d="M59.5093 386.697C60.4286 392.006 63.3259 397.033 68.0092 398.748C73.5683 400.784 77.6898 400.921 84.0927 400.921C92.8396 400.921 92.5537 391.799 92.7961 382.607C93.0423 373.378 92.309 363.475 88.8515 360.262C81.9516 353.842 61.6993 357.908 59.2357 368.647C57.965 374.197 58.635 381.643 59.5093 386.697Z" fill="#E98862"/>
<path d="M98.8638 356.439C98.8638 352.049 93.4008 344.857 78.8265 354.774L78.8113 354.784C75.0252 354.678 71.2424 355.092 67.5688 356.014C60.9037 358.008 52.5456 363.594 54.6898 377.143C57.084 392.263 63.2773 396.299 66.3987 398.153C67.1945 398.626 67.3897 398.241 67.6626 397.358C68.5293 394.094 69.1492 390.769 69.5171 387.412C70.0614 384.144 70.3084 380.834 70.255 377.521C70.255 376.054 70.2634 370.705 77.5452 370.646C81.6408 370.612 80.1101 370.775 84.4817 370.775C85.1044 370.775 85.6555 370.747 86.1624 370.699H86.1678C101.256 370.705 98.8638 360.829 98.8638 356.439Z" fill="#0F1011"/>
<path d="M80.3013 382.607C80.966 382.607 81.5049 382.068 81.5049 381.403C81.5049 380.739 80.966 380.2 80.3013 380.2C79.6365 380.2 79.0977 380.739 79.0977 381.403C79.0977 382.068 79.6365 382.607 80.3013 382.607Z" fill="#0F1011"/>
<path d="M89.8008 381.828C90.4655 381.828 91.0044 381.289 91.0044 380.625C91.0044 379.96 90.4655 379.421 89.8008 379.421C89.136 379.421 88.5972 379.96 88.5972 380.625C88.5972 381.289 89.136 381.828 89.8008 381.828Z" fill="#0F1011"/>
<path d="M91.8877 378.058H91.8816L88.6916 378.018C88.5416 378.017 88.3981 377.957 88.2926 377.85C88.1872 377.743 88.1285 377.599 88.1294 377.449C88.1303 377.299 88.1908 377.155 88.2975 377.05C88.4042 376.945 88.5484 376.886 88.6984 376.887H88.7053L91.8946 376.926C92.0411 376.933 92.1795 376.995 92.2807 377.102C92.3818 377.208 92.4379 377.349 92.437 377.496C92.4361 377.642 92.3783 377.783 92.2759 377.888C92.1734 377.993 92.0343 378.054 91.8877 378.058V378.058Z" fill="#0F1011"/>
<path d="M77.7016 379.221C77.5634 379.221 77.4301 379.17 77.3269 379.078C77.2238 378.986 77.1578 378.859 77.1416 378.722C77.1254 378.585 77.16 378.446 77.2388 378.333C77.3177 378.219 77.4354 378.139 77.5697 378.106L80.7147 377.349C80.787 377.332 80.8619 377.329 80.9353 377.34C81.0087 377.352 81.0791 377.378 81.1425 377.417C81.2059 377.455 81.261 377.506 81.3047 377.566C81.3485 377.626 81.3799 377.694 81.3973 377.767C81.4148 377.839 81.4178 377.914 81.4062 377.987C81.3947 378.061 81.3688 378.131 81.33 378.194C81.2913 378.258 81.2404 378.313 81.1804 378.357C81.1203 378.4 81.0522 378.432 80.98 378.449L77.835 379.206C77.7912 379.216 77.7465 379.222 77.7016 379.221Z" fill="#0F1011"/>
<path d="M74.0369 384.349C74.1117 385.028 74.0497 385.715 73.8545 386.369C73.6593 387.023 73.3349 387.632 72.9006 388.158C72.4662 388.685 71.9306 389.119 71.3255 389.435C70.7204 389.752 70.0581 389.943 69.3777 389.999C68.6973 390.055 68.0126 389.973 67.3641 389.76C66.7156 389.547 66.1165 389.205 65.6021 388.756C65.0878 388.307 64.6687 387.76 64.3696 387.146C64.0705 386.532 63.8975 385.865 63.8608 385.183C63.7945 384.513 63.8637 383.836 64.0644 383.193C64.2651 382.55 64.5931 381.954 65.0289 381.44C65.4648 380.927 65.9995 380.506 66.6013 380.203C67.2031 379.901 67.8597 379.722 68.5319 379.678C72.1702 379.56 73.806 381.539 74.0369 384.349Z" fill="#E98862"/>
<g opacity="0.15">
<path opacity="0.15" d="M85.6459 388.082C85.5464 388.082 85.4502 388.046 85.3748 387.981C85.2994 387.917 85.2498 387.827 85.2351 387.728C85.2203 387.63 85.2413 387.529 85.2944 387.445C85.3474 387.361 85.4289 387.299 85.524 387.27L87.9731 386.518L86.2596 382.707C86.2144 382.606 86.211 382.492 86.2502 382.389C86.2893 382.286 86.3678 382.202 86.4684 382.157C86.569 382.112 86.6834 382.109 86.7865 382.148C86.8895 382.187 86.9728 382.265 87.018 382.366L88.9236 386.61C88.9479 386.664 88.9604 386.722 88.9603 386.781C88.9603 386.84 88.9477 386.898 88.9234 386.952C88.8991 387.005 88.8636 387.053 88.8194 387.092C88.7751 387.131 88.7231 387.16 88.6667 387.177L85.7702 388.068C85.7298 388.079 85.6879 388.084 85.6459 388.082V388.082Z" fill="black"/>
</g>
<path d="M80.8579 390.883C80.8579 390.883 85.3034 391.352 88.4187 390.264C88.4187 390.264 88.3943 393.191 84.8765 393.48C81.3587 393.768 80.8579 390.883 80.8579 390.883Z" fill="white"/>
<path d="M107.537 473.78L106.142 470.152C106.173 471.615 106.226 473.002 106.302 474.321C96.4006 478.56 85.7145 480.658 74.945 480.477C64.1756 480.296 53.5661 477.839 43.8128 473.269C43.9263 471.889 43.9881 470.449 43.9881 468.932C43.9495 466.264 43.6509 463.607 43.0963 460.997L39.689 471.173C34.1147 468.126 28.9442 464.392 24.2983 460.059L37.265 421.337L37.3946 421.383C38.2512 419.401 39.4804 417.603 41.0153 416.085C44.8113 412.289 51.3667 409.842 59.362 409.834C59.9641 414.492 88.2673 414.507 88.48 409.941C89.5624 409.956 90.4009 409.972 90.9268 409.995C103.26 410.528 107.651 417.099 108.71 426.261L123.277 464.236C118.435 468.041 113.15 471.246 107.537 473.78V473.78Z" fill="#262626"/>
<path d="M88.483 409.939C88.2673 414.513 85.7823 421.233 78.1118 421.74C67.89 422.413 59.9618 414.493 59.3604 409.832H59.3855C69.4526 409.832 82.6159 409.848 88.483 409.939Z" fill="#E98862"/>
</svg>
