<svg width="52" height="59" viewBox="0 0 52 59" fill="none" xmlns="http://www.w3.org/2000/svg">
<path fill-rule="evenodd" clip-rule="evenodd" d="M52 16.5865V51.6024C52 53.5575 51.2173 55.4326 49.8242 56.8151C48.4311 58.1975 46.5416 58.9742 44.5714 58.9742H42.7143V55.2883H44.5714C45.5565 55.2883 46.5013 54.9 47.1978 54.2087C47.8944 53.5175 48.2857 52.58 48.2857 51.6024V16.5865H40.8571C39.3795 16.5865 37.9624 16.004 36.9175 14.9671C35.8727 13.9303 35.2857 12.524 35.2857 11.0577V3.68589H14.8571C13.8721 3.68589 12.9273 4.07422 12.2307 4.76546C11.5342 5.4567 11.1429 6.39422 11.1429 7.37177V40.5448H7.42857V7.37177C7.42857 5.41666 8.21122 3.54162 9.60435 2.15914C10.9975 0.776667 12.887 0 14.8571 0L35.2857 0L52 16.5865ZM11.5737 54.7023C11.595 55.283 11.7385 55.8529 11.995 56.3754C12.2515 56.8978 12.6154 57.3612 13.0631 57.7357C13.546 58.1338 14.1329 58.4434 14.8386 58.6646C15.5443 58.8894 16.3651 59 17.3086 59C18.564 59 19.6263 58.8046 20.4954 58.4176C21.3757 58.0306 22.0406 57.4888 22.5011 56.7958C22.9695 56.0762 23.2113 55.2344 23.1957 54.3779C23.1957 53.5523 23.0286 52.8667 22.6943 52.3138C22.3545 51.7614 21.8741 51.3076 21.3014 50.9979C20.6447 50.6376 19.9373 50.3767 19.2029 50.2239L16.8963 49.6931C16.3513 49.5945 15.8365 49.3726 15.392 49.0444C15.2232 48.9143 15.0873 48.747 14.9951 48.5557C14.9029 48.3644 14.8569 48.1544 14.8609 47.9423C14.8609 47.3673 15.0874 46.8955 15.5443 46.527C16.0086 46.1547 16.6437 45.9667 17.4497 45.9667C17.9809 45.9667 18.4377 46.0515 18.824 46.2173C19.1781 46.3618 19.4908 46.591 19.734 46.8845C19.9626 47.1581 20.1161 47.4857 20.1797 47.8354H22.9654C22.9202 47.0852 22.6641 46.3625 22.2263 45.7492C21.7568 45.0876 21.1149 44.5653 20.3691 44.238C19.4571 43.841 18.4676 43.6496 17.472 43.6778C16.3837 43.6778 15.4217 43.8621 14.5897 44.2306C13.754 44.5956 13.104 45.1153 12.6286 45.7824C12.1569 46.4532 11.9229 47.2383 11.9229 48.1377C11.9229 48.8786 12.0714 49.5236 12.3797 50.0691C12.6843 50.6183 13.1189 51.0643 13.6834 51.4218C14.2517 51.772 14.9166 52.0374 15.6891 52.2069L17.9846 52.7377C18.7534 52.9183 19.3217 53.1542 19.7006 53.4491C19.8863 53.5886 20.0351 53.7709 20.1341 53.9803C20.2331 54.1896 20.2794 54.4197 20.2689 54.6507C20.276 55.0306 20.1659 55.4036 19.9531 55.7196C19.714 56.0432 19.3848 56.2904 19.006 56.4309C18.5937 56.6042 18.0811 56.6889 17.472 56.6889C17.0374 56.6889 16.64 56.641 16.2834 56.5415C15.955 56.4513 15.6439 56.3081 15.3623 56.1176C15.115 55.9588 14.9033 55.7512 14.7404 55.5077C14.5774 55.2642 14.4667 54.99 14.4151 54.7023H11.5737ZM5.94286 43.98H0V58.7236H2.938V53.7734H5.92057C6.98657 53.7734 7.89286 53.5633 8.63943 53.1358C9.39343 52.7045 9.96914 52.1221 10.3591 51.3886C10.764 50.619 10.9695 49.7614 10.9571 48.8933C10.9571 47.9718 10.7603 47.1388 10.3703 46.3979C9.98237 45.6615 9.38929 45.0512 8.66171 44.6398C7.91886 44.1975 7.01629 43.98 5.94286 43.98ZM7.96714 48.8933C7.98053 49.3789 7.87204 49.8602 7.65143 50.2939C7.45351 50.6715 7.14543 50.9811 6.76743 51.1822C6.33509 51.3947 5.85679 51.4984 5.37457 51.4845H2.92686V46.3021H5.37829C6.188 46.3021 6.82314 46.5233 7.28 46.9729C7.73686 47.4153 7.96714 48.0603 7.96714 48.8933ZM25.0863 58.7199V43.98H30.5054C32.0134 43.98 33.254 44.2675 34.2346 44.8425C35.2151 45.4212 35.9431 46.2542 36.426 47.3489C36.9089 48.4436 37.1503 49.7632 37.1503 51.3112C37.1503 52.8667 36.9089 54.201 36.4223 55.3067C35.9394 56.4162 35.2003 57.2603 34.216 57.8463C33.2354 58.4287 31.9986 58.7199 30.5017 58.7199H25.09H25.0863ZM30.1117 46.3574H28.0243V56.3351H30.1117C30.8026 56.3351 31.4006 56.2319 31.9057 56.0329C32.3949 55.8379 32.8231 55.5174 33.1463 55.104C33.4954 54.641 33.7446 54.1115 33.878 53.5486C34.0451 52.9293 34.1269 52.1995 34.1269 51.3665C34.1538 50.4228 34.0065 49.4822 33.6923 48.5911C33.452 47.9036 32.9881 47.3149 32.3737 46.9177C31.7869 46.5417 31.0366 46.3574 30.1117 46.3574Z" fill="#36DA93"/>
</svg>
