<svg width="52" height="78" viewBox="0 0 52 78" fill="none" xmlns="http://www.w3.org/2000/svg">
<path fill-rule="evenodd" clip-rule="evenodd" d="M14.3489 0C6.39617 0 0.000206389 6.67221 0.000206389 14.8459C0.000206389 19.8151 2.36619 24.2286 6.00292 26.9228C4.12859 28.3271 2.60932 30.151 1.56691 32.2482C0.524489 34.3455 -0.0120816 36.6578 0.000206389 38.9998C0.000206389 43.9722 2.36619 48.3825 6.00292 51.0767C4.12859 52.481 2.60932 54.3048 1.56691 56.4021C0.524489 58.4993 -0.0120816 60.8116 0.000206389 63.1536C0.000206389 71.3273 6.39617 77.9995 14.3489 77.9995C22.2983 77.9995 28.6975 71.3273 28.6975 63.1536V50.6022C31.2108 52.6977 34.3789 53.8465 37.6512 53.8489C45.6039 53.8457 51.9999 47.1735 51.9999 38.9998C52.0129 36.6576 51.4767 34.3451 50.4342 32.2477C49.3918 30.1503 47.8721 28.3266 45.9972 26.9228C47.8715 25.5186 49.3908 23.6947 50.4332 21.5975C51.4756 19.5002 52.0122 17.1879 51.9999 14.8459C51.9999 6.67221 45.6039 0 37.6512 0H14.3489ZM5.39192 14.8459C5.39192 9.67519 9.4284 5.53472 14.3489 5.53472H23.3026V24.1571H14.3489C9.4284 24.1571 5.39192 20.0134 5.39192 14.8459ZM37.6512 24.1539H28.6975V5.53147H37.6512C42.5749 5.53147 46.6082 9.67519 46.6082 14.8459C46.6082 20.0134 42.5749 24.1539 37.6512 24.1539ZM5.39517 38.9998C5.39517 33.8323 9.43165 29.6886 14.3521 29.6886H23.3058V48.311H14.3489C9.42515 48.311 5.39192 44.1672 5.39192 38.9998H5.39517ZM28.6975 38.9998C28.6975 33.8323 32.734 29.6886 37.6545 29.6886C42.5782 29.6886 46.6114 33.829 46.6114 38.9998C46.6114 44.1672 42.5782 48.311 37.6545 48.311C32.734 48.311 28.7008 44.1705 28.7008 38.9998H28.6975ZM5.39517 63.1536C5.39517 57.9861 9.43165 53.8457 14.3521 53.8457H23.3058V63.1536C23.3058 68.3243 19.2758 72.4648 14.3521 72.4648C9.43165 72.4648 5.39517 68.3243 5.39517 63.1536Z" fill="#36DA93"/>
</svg>
