<svg width="52" height="47" viewBox="0 0 52 47" fill="none" xmlns="http://www.w3.org/2000/svg">
<path d="M25.9967 46.7119H25.8642C25.6183 46.6928 25.3787 46.6249 25.1595 46.5122C24.9403 46.3994 24.7459 46.2441 24.5877 46.0553L0.435415 17.3171C0.247085 17.1023 0.114116 16.8449 0.0480434 16.5671C0.0480434 16.5334 0.0324444 16.4997 0.024645 16.4659C-0.0490061 16.0312 0.0437942 15.5847 0.284626 15.2151L0.334022 15.1424L9.77133 1.81657C9.93035 1.58791 10.1399 1.39879 10.3837 1.2638C10.6276 1.12882 10.8993 1.05157 11.1778 1.03804L25.8668 0H26.1241L40.8157 1.03804C41.0902 1.05211 41.3579 1.12806 41.5988 1.2602C41.8397 1.39234 42.0475 1.57723 42.2066 1.801L51.6621 15.1502C51.8177 15.3631 51.9234 15.6083 51.9711 15.8675C52.0188 16.1267 52.0074 16.3934 51.9377 16.6476C51.8665 16.8964 51.7403 17.126 51.5685 17.3197L27.4084 46.0527C27.117 46.3984 26.7095 46.6263 26.2619 46.6937C26.1741 46.7058 26.0855 46.7119 25.9967 46.7119ZM15.4571 17.9348L25.9967 40.6471L36.5364 17.9348H15.4571ZM40.5193 17.9348L33.3386 33.4094L46.3377 17.9348H40.5193ZM5.64803 17.9348L18.6471 33.4094L11.4742 17.9348H5.64803ZM42.0324 7.76974L41.3564 14.3898H46.7172L42.0324 7.76974ZM25.9967 4.85025L17.8645 14.3898H34.129L25.9967 4.85025ZM9.96112 7.76974L5.27626 14.3898H10.6371L9.96112 7.76974ZM29.8367 3.8174L37.8285 13.1935L38.7358 4.44022L29.8367 3.8174ZM22.1516 3.8174L13.2577 4.44022L14.1546 13.1935L22.1516 3.8174Z" fill="#36DA93"/>
</svg>
