<svg width="806" height="773" viewBox="0 0 806 773" fill="none" xmlns="http://www.w3.org/2000/svg">
<path opacity="0.03" d="M678.581 772.988C762.91 772.988 824.105 691.819 799.81 611.092C786.071 565.44 758.776 520.896 706.869 493.879C564.823 419.945 577.336 440.218 510.381 315.98C443.426 191.741 261.956 162.268 166.869 249.783C32.379 373.561 122.843 472.169 37.734 557.25C36.848 558.137 35.9734 559.028 35.11 559.924C-41.7903 639.744 16.0779 772.988 126.931 772.988H678.581Z" fill="#292A2E"/>
<path d="M318.609 334.848V268.627H635.182V334.847C635.178 369.474 623.817 403.145 602.839 430.699C581.86 458.253 552.423 478.17 519.037 487.398C514.137 488.773 509.82 491.713 506.746 495.768C503.671 499.823 502.007 504.771 502.007 509.86C502.007 514.948 503.671 519.896 506.746 523.952C509.82 528.007 514.137 530.946 519.037 532.321C552.424 541.549 581.862 561.467 602.84 589.022C623.819 616.577 635.18 650.249 635.182 684.877V751.099H318.609V684.877C318.613 650.25 329.975 616.58 350.953 589.026C371.931 561.472 401.368 541.554 434.754 532.326C439.655 530.951 443.972 528.013 447.047 523.957C450.122 519.902 451.786 514.953 451.786 509.865C451.786 504.776 450.122 499.827 447.047 495.772C443.972 491.717 439.655 488.778 434.754 487.403C401.368 478.175 371.931 458.258 350.952 430.704C329.974 403.15 318.613 369.479 318.609 334.852" fill="#47AFE4"/>
<path opacity="0.8" d="M318.609 334.848V268.627H635.182V334.847C635.178 369.474 623.817 403.145 602.839 430.699C581.86 458.253 552.423 478.17 519.037 487.398C514.137 488.773 509.82 491.713 506.746 495.768C503.671 499.823 502.007 504.771 502.007 509.86C502.007 514.948 503.671 519.896 506.746 523.952C509.82 528.007 514.137 530.946 519.037 532.321C552.424 541.549 581.862 561.467 602.84 589.022C623.819 616.577 635.18 650.249 635.182 684.877V751.099H318.609V684.877C318.613 650.25 329.974 616.58 350.953 589.026C371.931 561.472 401.368 541.554 434.754 532.326C439.655 530.951 443.972 528.013 447.047 523.957C450.122 519.902 451.786 514.953 451.786 509.865C451.786 504.776 450.122 499.827 447.047 495.772C443.972 491.717 439.655 488.778 434.754 487.403C401.368 478.175 371.931 458.258 350.952 430.704C329.974 403.15 318.613 369.479 318.609 334.852" fill="white"/>
<path d="M317.609 752.099H636.182V684.878C636.127 650.044 624.674 616.185 603.57 588.466C582.466 560.747 552.871 540.692 519.299 531.36C514.609 530.044 510.478 527.231 507.536 523.349C504.593 519.468 503.001 514.732 503.001 509.862C503.001 504.992 504.593 500.256 507.536 496.375C510.478 492.494 514.609 489.681 519.299 488.365C552.87 479.032 582.466 458.976 603.569 431.258C624.673 403.54 636.126 369.68 636.182 334.847V267.627H317.609V334.848C317.664 369.681 329.117 403.54 350.22 431.258C371.323 458.976 400.917 479.032 434.488 488.365C439.178 489.681 443.309 492.494 446.251 496.375C449.194 500.256 450.786 504.992 450.786 509.862C450.786 514.732 449.194 519.468 446.251 523.349C443.309 527.231 439.178 530.044 434.488 531.36C400.917 540.693 371.323 560.749 350.22 588.467C329.117 616.186 317.664 650.045 317.609 684.878V752.099ZM634.178 750.099H319.609V684.878C319.664 650.482 330.972 617.049 351.81 589.678C372.648 562.308 401.87 542.504 435.019 533.287C440.131 531.855 444.635 528.791 447.843 524.562C451.052 520.332 452.788 515.17 452.788 509.862C452.788 504.554 451.052 499.392 447.843 495.163C444.635 490.934 440.131 487.869 435.019 486.437C401.87 477.221 372.648 457.417 351.81 430.047C330.972 402.677 319.663 369.243 319.609 334.848V269.626H634.182V334.847C634.127 369.243 622.818 402.677 601.979 430.047C581.141 457.418 551.918 477.221 518.768 486.437C513.656 487.87 509.153 490.935 505.945 495.164C502.738 499.393 501.002 504.555 501.002 509.862C501.002 515.17 502.738 520.332 505.945 524.561C509.153 528.79 513.656 531.855 518.768 533.287C551.918 542.503 581.141 562.306 601.98 589.677C622.818 617.047 634.128 650.482 634.182 684.878L634.178 750.099Z" fill="#292A2E"/>
<path d="M300.218 256.573C300.217 259.723 301.45 262.748 303.653 265C305.857 267.252 308.855 268.552 312.005 268.621C312.097 268.627 312.183 268.627 312.276 268.627H640.978C641.071 268.627 641.157 268.627 641.249 268.621C644.422 268.55 647.44 267.231 649.646 264.95C651.853 262.669 653.071 259.609 653.035 256.436C652.999 253.263 651.713 250.232 649.456 248.001C647.198 245.77 644.152 244.519 640.978 244.52H312.28C310.697 244.519 309.128 244.83 307.665 245.436C306.202 246.041 304.872 246.929 303.752 248.048C302.632 249.168 301.743 250.497 301.137 251.959C300.531 253.422 300.218 254.989 300.218 256.573Z" fill="#292A2E"/>
<path d="M471.302 640.015V496.89C471.424 491.452 469.757 486.125 466.557 481.727C463.358 477.329 458.802 474.102 453.59 472.542C397.576 457.133 345.465 406.902 342.904 349.204C342.768 346.11 345.487 344.071 348.585 344.071H605.21C608.31 344.071 611.027 346.11 610.891 349.204C608.33 406.902 556.218 457.133 500.204 472.542C492.277 474.735 482.488 484.446 482.488 497.248V640.025C482.488 650.322 486.367 659.065 493.649 666.345C499.662 672.357 590.211 751.098 590.211 751.098H363.581C363.581 751.098 454.966 671.458 459.998 666.425C467.281 659.149 471.302 650.31 471.302 640.015Z" fill="#FAFAFA"/>
<path d="M300.133 760.001C300.132 763.152 301.365 766.177 303.568 768.429C305.772 770.681 308.77 771.98 311.92 772.049C312.012 772.055 312.098 772.055 312.19 772.055H640.892C640.984 772.055 641.07 772.055 641.162 772.049C644.335 771.978 647.353 770.659 649.559 768.378C651.766 766.097 652.984 763.038 652.948 759.864C652.912 756.691 651.627 753.66 649.369 751.429C647.112 749.198 644.066 747.947 640.892 747.947H312.19C308.993 747.948 305.926 749.218 303.665 751.478C301.404 753.739 300.133 756.805 300.133 760.001Z" fill="#292A2E"/>
<path d="M218.539 771.326C140.928 771.326 78.0113 708.43 78.0113 630.844C78.0113 553.257 140.928 490.361 218.539 490.361C296.15 490.361 359.066 553.257 359.066 630.844C359.066 708.43 296.15 771.326 218.539 771.326Z" fill="white"/>
<path d="M177.545 765.961C252.074 788.553 331.096 746.328 353.7 671.824C376.304 597.319 334.061 518.323 259.533 495.73C185.005 473.137 105.979 515.359 83.3793 589.863C60.7792 664.367 103.017 743.364 177.545 765.961ZM259.119 497.09C332.894 519.458 374.711 597.658 352.335 671.41C329.959 745.161 251.735 786.965 177.959 764.596C104.182 742.227 62.3672 664.028 84.7422 590.277C107.117 516.525 185.343 474.721 259.119 497.09Z" fill="#292A2E"/>
<path opacity="0.45" d="M218.539 754.526C150.209 754.526 94.8164 699.152 94.8164 630.844C94.8164 562.536 150.209 507.161 218.539 507.161C286.869 507.161 342.261 562.536 342.261 630.844C342.261 699.152 286.869 754.526 218.539 754.526Z" fill="#3FCDA3"/>
<path d="M218.539 638.28C214.43 638.28 211.099 634.951 211.099 630.844C211.099 626.737 214.43 623.407 218.539 623.407C222.647 623.407 225.978 626.737 225.978 630.844C225.978 634.951 222.647 638.28 218.539 638.28Z" fill="#292A2E"/>
<path d="M126.831 680.434C126.921 680.461 127.015 680.47 127.108 680.461C127.201 680.452 127.292 680.424 127.374 680.38L218.875 631.471C218.989 631.41 219.084 631.32 219.15 631.209C219.217 631.099 219.252 630.972 219.252 630.843L219.283 558.732C219.283 558.543 219.208 558.362 219.074 558.228C218.94 558.095 218.759 558.02 218.57 558.02C218.381 558.02 218.199 558.095 218.065 558.228C217.932 558.362 217.857 558.543 217.857 558.732L217.826 630.416L126.702 679.124C126.578 679.19 126.476 679.292 126.41 679.417C126.343 679.541 126.315 679.682 126.329 679.822C126.343 679.963 126.398 680.096 126.487 680.205C126.577 680.314 126.696 680.394 126.831 680.435V680.434Z" fill="#292A2E"/>
<path d="M591.121 429.188C591.121 429.188 594.041 444.321 608.215 445.164C622.389 446.008 619.315 457.297 619.315 457.297H565.149V430.242L591.121 429.188Z" fill="#3FCDA3"/>
<path d="M560.217 383.665C560.217 383.665 556.155 398.533 568.501 405.544C580.847 412.555 573.101 421.329 573.101 421.329L524.501 397.427L536.446 373.151L560.217 383.665Z" fill="#3FCDA3"/>
<path d="M565.359 393.497L601.981 255.36C604.761 240.099 600.581 233.485 594.133 227.059C582.811 215.769 535.897 191.741 535.897 191.741L479.615 191.588C464.691 191.588 450.015 206.299 450.015 221.217C450.015 236.136 465.187 248.788 480.115 248.788L549.423 255.706L530.636 382.189L565.359 393.497Z" fill="#262626"/>
<path d="M530.636 382.184L538.032 332.39L575.502 355.239L565.359 393.496L530.636 382.184Z" fill="#0C0C0C"/>
<path d="M522.142 219.694C522.142 219.694 545.802 224.966 569.234 248.39C583.441 262.593 582.276 288.294 580.145 337.726L556.872 303.362L531.346 257.339L522.142 219.694Z" fill="#0C0C0C"/>
<path d="M440.223 191.571L478.445 191.391L478.46 191.89H490.034C490.034 191.89 519.024 218.56 542.366 235.366C559.344 247.589 569.701 259.242 570.597 271.943C572.782 302.904 597.422 434.951 597.422 434.951L560.339 440.564L527.798 282.758C527.798 282.758 476.911 259.308 465.141 251.147C454.058 243.462 446.229 240.491 442.562 232.105C436.227 217.623 440.223 191.571 440.223 191.571Z" fill="#262626"/>
<path d="M483.104 201.197L545.111 202.017L510.328 222.786L481.381 207.845C480.683 207.47 480.131 206.873 479.813 206.147C479.496 205.422 479.431 204.61 479.63 203.844C479.828 203.077 480.279 202.4 480.909 201.92C481.539 201.439 482.312 201.185 483.104 201.197Z" fill="#292A2E"/>
<path opacity="0.2" d="M483.104 201.197L545.111 202.017L510.328 222.786L481.381 207.845C480.683 207.47 480.131 206.873 479.813 206.147C479.496 205.422 479.431 204.61 479.63 203.844C479.828 203.077 480.279 202.4 480.909 201.92C481.539 201.439 482.312 201.185 483.104 201.197Z" fill="white"/>
<path d="M544.756 89.9912L562.293 146.801L597.422 192.78L576.901 216.329L535.108 169.698C533.182 168.176 531.676 166.189 530.732 163.924L530.08 162.349L505.943 103.962L544.756 89.9912Z" fill="#3FCDA3"/>
<path d="M517.738 29.6865C517.738 29.6865 524.805 24.3542 526.556 12.0801C527.912 2.5761 519.143 8.73314 519.143 8.73314C519.143 8.73314 520.052 1.88132 515.06 2.5611C510.068 3.24089 507.269 10.4396 507.269 10.4396" fill="#0C0C0C"/>
<path d="M489.245 3.3623C489.245 3.3623 464.465 6.01846 473.423 39.5858L475.616 39.7327L480.067 40.0326" fill="#0C0C0C"/>
<path d="M513.588 74.643C513.479 74.629 512.27 94.6836 488.965 92.9371C472.831 91.7285 467.079 74.617 466.709 74.617C468.449 74.2471 470.598 73.6863 471.453 73.4933C473.315 73.0614 475.001 72.073 476.288 70.6595C477.574 69.2461 478.399 67.4746 478.653 65.5809C479.125 62.7388 478.324 48.1964 478.571 45.3203L503.336 50.8456C502.99 56.9196 500.568 71.0011 509.057 73.4933C510.469 73.9042 511.99 74.2831 513.588 74.643Z" fill="#E98862"/>
<path opacity="0.52" d="M503.681 67.737C503.293 66.4871 503.044 65.1985 502.936 63.8942C502.664 60.9182 502.718 57.9213 503.098 54.9571C498.064 54.2769 493.322 52.1988 489.411 48.959C488.951 50.6584 486.422 58.0751 487.122 59.6886C488.448 62.7426 494.667 67.737 503.681 67.737Z" fill="#0C0C0C"/>
<path d="M498.572 63.7669C488.801 62.8912 477.108 56.7202 476.939 43.4624L476.787 31.4992C476.618 18.2414 483.447 7.40689 495.934 7.24594C508.421 7.085 517.892 17.7166 518.06 30.9774L518.128 36.2757C518.118 38.0947 517.985 39.911 517.728 41.712C517.087 46.4754 516.095 53.7201 512.86 58.6196C509.809 63.2411 504.814 64.3268 498.572 63.7669Z" fill="#E98862"/>
<path opacity="0.52" d="M503.105 51.6495C505.121 51.7409 507.131 51.357 508.971 50.5288C509.045 50.4939 509.102 50.432 509.13 50.3559C509.159 50.2799 509.158 50.1956 509.126 50.1209C509.094 50.0461 509.034 49.9865 508.959 49.9547C508.884 49.9228 508.8 49.9212 508.724 49.95C504.758 51.6405 501.157 51.3925 498.311 49.2342C498.254 49.1888 498.194 49.1464 498.132 49.1073C498.059 49.0656 497.973 49.0545 497.893 49.0764C497.812 49.0982 497.743 49.1512 497.702 49.2237C497.66 49.2963 497.649 49.3823 497.671 49.463C497.692 49.5437 497.745 49.6125 497.818 49.6541C497.841 49.6681 497.878 49.6971 497.93 49.7361C499.426 50.8748 501.228 51.5411 503.105 51.6495Z" fill="#0C0C0C"/>
<path opacity="0.52" d="M503.011 54.6361C503.375 54.6582 503.74 54.6495 504.103 54.6101C504.186 54.6014 504.262 54.5599 504.315 54.495C504.368 54.43 504.392 54.3468 504.384 54.2637C504.375 54.1806 504.333 54.1044 504.268 54.0518C504.203 53.9992 504.12 53.9746 504.037 53.9833C503.466 54.0884 502.879 54.0704 502.315 53.9306C501.752 53.7908 501.225 53.5323 500.769 53.1726C500.71 53.1134 500.63 53.0802 500.546 53.0801C500.463 53.08 500.383 53.1131 500.323 53.1721C500.264 53.2311 500.231 53.3111 500.231 53.3946C500.231 53.4782 500.264 53.5583 500.323 53.6174C501.074 54.2573 502.024 54.6173 503.011 54.6361Z" fill="#0C0C0C"/>
<path d="M513.937 38.8201C513.088 38.8201 512.399 38.1318 512.399 37.2826C512.399 36.4335 513.088 35.7451 513.937 35.7451C514.787 35.7451 515.475 36.4335 515.475 37.2826C515.475 38.1318 514.787 38.8201 513.937 38.8201Z" fill="#0C0C0C"/>
<path d="M498.909 37.8778C498.06 37.8778 497.371 37.1894 497.371 36.3402C497.371 35.4911 498.06 34.8027 498.909 34.8027C499.759 34.8027 500.447 35.4911 500.447 36.3402C500.447 37.1894 499.759 37.8778 498.909 37.8778Z" fill="#0C0C0C"/>
<path d="M477.766 47.4915C473.971 47.5405 470.843 43.5208 470.795 39.727C470.747 35.9332 473.795 33.8029 477.595 33.7539L479.581 36.2761L481.031 47.4555L477.766 47.4915Z" fill="#E98862"/>
<path d="M481.541 41.3961C481.541 41.3961 482.823 22.636 488.513 21.4774C492.303 20.7057 501.493 26.076 510.006 24.4565C513.73 23.7467 517.266 24.6684 517.625 26.4268C517.768 27.1266 520.088 17.1168 514.256 9.52223C509.613 3.47615 494.417 1.7687 487.504 3.75207C468.362 9.24132 476.809 34.5762 476.809 34.5762L477.662 41.0442L481.541 41.3961Z" fill="#0C0C0C"/>
<g opacity="0.52">
<path opacity="0.52" d="M505.399 47.2216H505.423C506.646 47.2096 508.696 47.0526 508.687 46.1379C508.679 45.3802 506.522 37.2208 506.276 36.2931C506.249 36.2206 506.196 36.1609 506.127 36.1254C506.058 36.09 505.979 36.0814 505.904 36.1014C505.829 36.1213 505.764 36.1683 505.722 36.2333C505.68 36.2983 505.664 36.3766 505.676 36.453C506.635 40.0669 508.062 45.6291 508.068 46.1439C507.236 46.5078 506.327 46.6639 505.42 46.5988C505.338 46.5964 505.258 46.6269 505.198 46.6835C505.138 46.7401 505.103 46.8182 505.1 46.9007C505.098 46.9831 505.128 47.0632 505.185 47.1232C505.242 47.1832 505.32 47.2182 505.402 47.2206L505.399 47.2216Z" fill="#0C0C0C"/>
</g>
<path d="M509.571 28.9447C510.856 28.5914 512.213 28.5914 513.498 28.9447C514.13 29.1145 514.732 29.378 515.285 29.7264C515.831 30.0683 516.333 30.4773 516.777 30.944C516.859 31.0272 516.906 31.1389 516.908 31.2559C516.91 31.3728 516.867 31.486 516.787 31.5717C516.707 31.6575 516.598 31.7092 516.481 31.7161C516.364 31.723 516.249 31.6846 516.16 31.6088L516.133 31.5848C515.723 31.2041 515.266 30.8767 514.773 30.6101C514.289 30.3456 513.769 30.1556 513.228 30.0463C512.164 29.8239 511.061 29.8857 510.028 30.2253L509.984 30.2403C509.814 30.3004 509.626 30.2905 509.463 30.2126C509.3 30.1347 509.175 29.9952 509.115 29.8249C509.054 29.6545 509.064 29.4673 509.142 29.3042C509.22 29.1412 509.36 29.0158 509.53 28.9557L509.571 28.9447Z" fill="#0C0C0C"/>
<path d="M500.47 29.7169C499.492 29.2424 498.406 29.0354 497.322 29.1171C496.772 29.1526 496.23 29.2716 495.715 29.47C495.192 29.6683 494.696 29.9316 494.238 30.2537L494.208 30.2727C494.11 30.3367 493.991 30.3602 493.876 30.3382C493.761 30.3163 493.659 30.2506 493.591 30.155C493.523 30.0594 493.495 29.9413 493.513 29.8255C493.53 29.7097 493.592 29.6052 493.685 29.5339C494.187 29.1298 494.739 28.7909 495.326 28.5253C495.921 28.2536 496.553 28.0726 497.201 27.9884C498.522 27.8088 499.867 27.9891 501.093 28.5103C501.259 28.5821 501.389 28.7168 501.456 28.8848C501.522 29.0528 501.519 29.2403 501.447 29.406C501.375 29.5717 501.241 29.7021 501.073 29.7684C500.904 29.8348 500.717 29.8317 500.551 29.7599L500.513 29.7419L500.47 29.7169Z" fill="#0C0C0C"/>
<path d="M501.093 9.60845C500.229 5.47517 501.806 1.64886 504.615 1.06216C507.424 0.475463 510.401 3.35055 511.265 7.48383C512.129 11.6171 510.552 15.4434 507.743 16.0301C504.934 16.6168 501.956 13.7417 501.093 9.60845Z" fill="#0C0C0C"/>
<path d="M542.542 118.716C541.808 127.336 536.603 181.122 535.898 191.74H440.265C439.715 182.163 437.248 140.285 435.165 121.556C433.176 103.684 430.387 95.551 432.678 89.9978C436.719 80.2009 449.578 75.8283 458.289 74.6497C463.607 73.9299 471.606 73.4141 471.606 73.4141C471.606 73.4141 472.283 87.1097 488.432 87.8715C510.415 88.9091 508.947 73.4141 509.056 73.4141C512.617 73.4141 532.003 76.0022 536.85 79.1612C539.614 80.8412 541.892 83.2114 543.461 86.0387C545.03 88.866 545.836 92.053 545.799 95.2861C545.891 101.717 543.376 108.938 542.542 118.716Z" fill="#3FCDA3"/>
<path d="M537.693 170.546C537.761 170.546 537.827 170.52 537.877 170.474C537.927 170.428 537.958 170.365 537.964 170.297L541.587 128.871C541.591 128.835 541.588 128.799 541.577 128.764C541.567 128.73 541.55 128.697 541.527 128.669C541.504 128.641 541.475 128.618 541.443 128.602C541.411 128.585 541.376 128.574 541.34 128.571C541.304 128.567 541.267 128.57 541.233 128.58C541.198 128.59 541.165 128.608 541.137 128.631C541.109 128.654 541.086 128.683 541.069 128.715C541.053 128.747 541.043 128.783 541.04 128.819L537.416 170.245C537.413 170.281 537.417 170.317 537.428 170.351C537.439 170.385 537.456 170.417 537.479 170.444C537.502 170.471 537.53 170.494 537.562 170.51C537.594 170.527 537.629 170.537 537.664 170.54L537.693 170.546Z" fill="#0C0C0C"/>
<path d="M530.759 194.61L517.628 183.959L519.837 184.584C520.554 184.771 521.316 184.679 521.968 184.326C522.621 183.974 523.115 183.387 523.351 182.684C523.46 182.317 523.493 181.932 523.448 181.552C523.404 181.172 523.282 180.805 523.09 180.473C522.899 180.142 522.642 179.853 522.335 179.624C522.029 179.395 521.678 179.231 521.306 179.141L493.72 172.434L491.347 181.219C490.611 183.947 490.706 186.832 491.621 189.506C492.535 192.18 494.228 194.519 496.481 196.225L506.703 203.936C507.226 204.347 507.875 204.564 508.541 204.552C509.206 204.539 509.847 204.297 510.354 203.867C510.804 203.468 511.114 202.936 511.24 202.349C511.366 201.762 511.301 201.149 511.054 200.602C511.086 200.593 511.116 200.577 511.142 200.556C511.167 200.536 511.189 200.51 511.204 200.48C511.22 200.451 511.229 200.419 511.231 200.385C511.234 200.352 511.23 200.319 511.219 200.288L513.102 201.714C513.684 202.174 514.418 202.395 515.157 202.334C515.896 202.272 516.584 201.932 517.082 201.383C517.51 200.877 517.746 200.237 517.748 199.574C517.75 198.911 517.518 198.269 517.093 197.761C517.122 197.756 517.151 197.746 517.177 197.732L517.951 198.317C518.474 198.728 519.124 198.945 519.789 198.933C520.454 198.92 521.095 198.678 521.602 198.247C522.148 197.764 522.486 197.088 522.544 196.361C522.603 195.634 522.377 194.913 521.915 194.349C521.925 194.332 521.934 194.315 521.942 194.298L527.41 198.732C527.681 198.952 527.993 199.116 528.327 199.216C528.662 199.315 529.013 199.348 529.36 199.312C529.707 199.276 530.044 199.172 530.351 199.005C530.658 198.839 530.929 198.614 531.149 198.343C531.369 198.072 531.533 197.761 531.633 197.426C531.732 197.092 531.765 196.741 531.729 196.394C531.693 196.047 531.589 195.71 531.422 195.403C531.256 195.097 531.031 194.825 530.76 194.606L530.759 194.61Z" fill="#E98862"/>
<path opacity="0.2" d="M521.607 194.457C521.578 194.447 521.55 194.431 521.527 194.411L516.266 190.043C516.214 189.997 516.181 189.933 516.176 189.864C516.17 189.796 516.192 189.727 516.236 189.674C516.28 189.621 516.343 189.587 516.412 189.58C516.481 189.572 516.549 189.592 516.604 189.635L521.866 194.004C521.914 194.044 521.946 194.1 521.957 194.161C521.968 194.222 521.957 194.285 521.926 194.339C521.895 194.393 521.846 194.435 521.788 194.456C521.729 194.478 521.665 194.478 521.607 194.457Z" fill="#0A0A0A"/>
<path opacity="0.2" d="M516.97 197.759C516.942 197.748 516.915 197.733 516.892 197.715L512.73 194.316C512.679 194.27 512.648 194.207 512.642 194.139C512.637 194.071 512.658 194.004 512.701 193.951C512.745 193.898 512.806 193.864 512.874 193.856C512.942 193.847 513.01 193.865 513.065 193.906L517.227 197.305C517.275 197.345 517.307 197.4 517.318 197.461C517.33 197.522 517.319 197.585 517.288 197.639C517.258 197.693 517.209 197.735 517.151 197.757C517.093 197.779 517.029 197.779 516.97 197.759Z" fill="#0A0A0A"/>
<path opacity="0.2" d="M510.881 200.61C510.851 200.599 510.823 200.583 510.798 200.562L508.87 198.908C508.844 198.886 508.822 198.858 508.807 198.827C508.791 198.796 508.782 198.762 508.779 198.728C508.777 198.693 508.781 198.658 508.792 198.626C508.803 198.593 508.82 198.562 508.843 198.536C508.865 198.51 508.893 198.488 508.924 198.473C508.955 198.457 508.989 198.448 509.023 198.445C509.058 198.442 509.092 198.447 509.125 198.458C509.158 198.469 509.189 198.486 509.215 198.508L511.143 200.161C511.19 200.201 511.221 200.257 511.231 200.318C511.241 200.378 511.229 200.441 511.198 200.494C511.167 200.548 511.119 200.588 511.061 200.61C511.003 200.631 510.939 200.631 510.881 200.611V200.61Z" fill="#0A0A0A"/>
<path d="M414.702 168.524L414.802 168.076L432.255 90.9004L466.788 98.7039L453.164 158.949L507.743 172.352L501.027 203.143L428.297 189.273C428.131 189.24 427.897 189.191 427.726 189.154C425.515 188.655 423.425 187.725 421.574 186.418C419.723 185.111 418.148 183.452 416.939 181.536C415.729 179.62 414.909 177.485 414.525 175.252C414.141 173.02 414.201 170.733 414.702 168.524Z" fill="#3FCDA3"/>
<path d="M508.01 172.408C508.025 172.34 508.012 172.268 507.975 172.208C507.937 172.149 507.878 172.106 507.81 172.089L453.477 158.75L462.312 119.742C462.328 119.672 462.315 119.598 462.277 119.537C462.238 119.476 462.177 119.433 462.107 119.417C462.036 119.401 461.962 119.414 461.901 119.452C461.84 119.491 461.797 119.552 461.781 119.622L452.887 158.89C452.871 158.959 452.883 159.032 452.92 159.093C452.958 159.154 453.018 159.198 453.087 159.215L507.424 172.554C507.424 172.554 507.06 174.142 506.957 174.675C506.952 174.743 506.973 174.811 507.016 174.864C507.06 174.917 507.122 174.951 507.19 174.959C507.258 174.967 507.327 174.949 507.382 174.907C507.436 174.866 507.473 174.804 507.483 174.737C507.608 174.153 508.01 172.408 508.01 172.408Z" fill="#0C0C0C"/>
<path d="M505.881 215.398L526.865 150.918C527.234 149.785 527.952 148.798 528.916 148.097C529.881 147.397 531.042 147.02 532.234 147.02H617.723C618.614 147.019 619.492 147.23 620.286 147.635C621.08 148.039 621.767 148.626 622.291 149.346C622.815 150.067 623.16 150.902 623.299 151.782C623.439 152.662 623.367 153.562 623.092 154.409L602.107 218.889C601.739 220.022 601.021 221.01 600.057 221.71C599.092 222.411 597.931 222.788 596.738 222.787H511.249C510.358 222.787 509.48 222.576 508.686 222.172C507.892 221.767 507.205 221.18 506.682 220.46C506.158 219.739 505.813 218.905 505.674 218.025C505.534 217.145 505.606 216.245 505.881 215.398Z" fill="#292A2E"/>
<path opacity="0.2" d="M505.881 215.398L526.865 150.918C527.234 149.785 527.952 148.798 528.916 148.097C529.881 147.397 531.042 147.02 532.234 147.02H617.723C618.614 147.019 619.492 147.23 620.286 147.635C621.08 148.039 621.767 148.626 622.291 149.346C622.815 150.067 623.16 150.902 623.299 151.782C623.439 152.662 623.367 153.562 623.092 154.409L602.107 218.889C601.739 220.022 601.021 221.01 600.057 221.71C599.092 222.411 597.931 222.788 596.738 222.787H511.249C510.358 222.787 509.48 222.576 508.686 222.172C507.892 221.767 507.205 221.18 506.682 220.46C506.158 219.739 505.813 218.905 505.674 218.025C505.534 217.145 505.606 216.245 505.881 215.398Z" fill="white"/>
<path d="M566.949 193.866C561.997 193.866 557.982 189.853 557.982 184.903C557.982 179.952 561.997 175.939 566.949 175.939C571.9 175.939 575.915 179.952 575.915 184.903C575.915 189.853 571.9 193.866 566.949 193.866Z" fill="white"/>
</svg>
