<svg width="64" height="64" viewBox="0 0 64 64" fill="none" xmlns="http://www.w3.org/2000/svg">
<path d="M32 64C14.3264 64 0 49.6736 0 32C0 14.3264 14.3264 0 32 0C49.6736 0 64 14.3264 64 32C63.9808 49.664 49.664 63.9808 32 64ZM6.4 32.5504C6.47273 39.3157 9.22063 45.7771 14.0431 50.5225C18.8656 55.2678 25.3705 57.9112 32.1361 57.8748C38.9017 57.8385 45.3778 55.1253 50.149 50.3284C54.9202 45.5315 57.5985 39.0409 57.5985 32.2752C57.5985 25.5095 54.9202 19.0189 50.149 14.222C45.3778 9.42507 38.9017 6.71194 32.1361 6.67557C25.3705 6.6392 18.8656 9.28256 14.0431 14.0279C9.22063 18.7733 6.47273 25.2347 6.4 32V32.5504ZM25.6 46.4V17.6L44.8 32L25.6 46.4Z" fill="white"/>
</svg>
