<svg width="701" height="621" viewBox="0 0 701 621" fill="none" xmlns="http://www.w3.org/2000/svg">
<path d="M290.959 225.17C290.959 225.17 292.003 169.335 241.524 169.335C188.307 169.335 198.162 131.551 146.823 134.635C112.123 136.722 103.123 173.37 83.1704 178.785C63.2173 184.2 44.4313 190.771 44.4313 224.113L290.959 225.17Z" fill="white"/>
<path d="M181.878 503.89C181.878 503.89 182.648 462.699 145.408 462.699C106.145 462.699 113.416 434.823 75.5424 437.099C49.9424 438.639 43.3054 465.677 28.5813 469.672C13.8573 473.667 0.000274658 478.515 0.000274658 503.115L181.878 503.89Z" fill="white"/>
<path d="M700.509 315.108C700.509 315.108 701.435 265.499 656.587 265.499C609.306 265.499 618.062 231.93 572.454 234.674C541.628 236.528 533.632 269.088 515.901 273.899C498.17 278.71 481.483 284.548 481.483 314.171L700.509 315.108Z" fill="white"/>
<path opacity="0.1" d="M290.959 225.17C290.959 225.17 292.003 169.335 241.524 169.335C188.307 169.335 198.162 131.551 146.823 134.635C112.123 136.722 103.123 173.37 83.1704 178.785C63.2173 184.2 44.4313 190.771 44.4313 224.113L290.959 225.17Z" fill="#367CFF"/>
<path opacity="0.1" d="M181.878 503.89C181.878 503.89 182.648 462.699 145.408 462.699C106.145 462.699 113.416 434.823 75.5424 437.099C49.9424 438.639 43.3054 465.677 28.5813 469.672C13.8573 473.667 0.000274658 478.515 0.000274658 503.115L181.878 503.89Z" fill="#367CFF"/>
<path opacity="0.1" d="M700.509 315.108C700.509 315.108 701.435 265.499 656.587 265.499C609.306 265.499 618.062 231.93 572.454 234.674C541.628 236.528 533.632 269.088 515.901 273.899C498.17 278.71 481.483 284.548 481.483 314.171L700.509 315.108Z" fill="#367CFF"/>
<path d="M176.008 104.812C176.397 104.187 176.655 103.49 176.765 102.762C176.876 102.034 176.837 101.291 176.651 100.579C176.465 99.8669 176.136 99.2 175.684 98.6191C175.232 98.0382 174.666 97.5554 174.021 97.2004C172.749 96.5565 171.279 96.4197 169.91 96.8177C168.541 97.2157 167.374 98.1188 166.645 99.3444L162.777 105.557L164.648 83.7214C165.048 80.9214 163.762 77.2344 160.595 76.9864C158.049 76.6174 155.974 73.1954 152.926 74.7004C152.898 74.6924 128.988 93.5304 128.612 96.1244L127.139 130.689C125.539 141.695 162.939 139.489 162.939 139.489L176.008 104.812Z" fill="#E98862"/>
<g opacity="0.1">
<path opacity="0.1" d="M176.008 104.812C176.397 104.187 176.655 103.49 176.765 102.762C176.876 102.034 176.837 101.291 176.651 100.579C176.465 99.8669 176.136 99.2 175.684 98.6191C175.232 98.0382 174.666 97.5554 174.021 97.2004C172.749 96.5565 171.279 96.4197 169.91 96.8177C168.541 97.2157 167.374 98.1188 166.645 99.3444L162.777 105.557L164.648 83.7214C165.048 80.9214 163.762 77.2344 160.595 76.9864C158.049 76.6174 155.974 73.1954 152.926 74.7004C152.898 74.6924 128.988 93.5304 128.612 96.1244L127.139 130.689C125.539 141.695 162.939 139.489 162.939 139.489L176.008 104.812Z" fill="#0C0C0C"/>
</g>
<path d="M431.608 274.368C431.608 274.368 433.755 306.584 441.003 318.268C461.868 351.916 467.913 389.768 447.018 409.545C426.123 429.322 292.848 429.599 282.751 384.113C274.251 345.819 292.493 341.701 296.931 310.113C298.939 295.819 304.464 265.847 304.464 265.847" fill="#0A0A0A"/>
<path d="M317.247 377.444C317.478 377.414 320.03 419.774 369.242 416.081C403.31 413.529 415.457 377.381 416.242 377.381C412.568 376.6 406.383 375.465 404.752 374.595C399.387 371.712 392.752 368.713 391.021 358.295C390.021 352.295 391.715 321.573 391.194 315.495L338.9 327.167C339.631 339.997 344.745 369.742 326.82 375.006C323.834 375.883 320.62 376.683 317.247 377.444Z" fill="#E98862"/>
<path opacity="0.5" d="M338.163 362.856C338.982 360.217 339.509 357.495 339.736 354.74C340.311 348.454 340.196 342.124 339.394 335.862C350.021 334.428 360.034 330.041 368.294 323.2C369.265 326.786 374.605 342.456 373.126 345.864C370.334 352.306 357.201 362.856 338.163 362.856Z" fill="#0C0C0C"/>
<path d="M344.925 349.658C365.543 351.658 392.219 343.406 397.745 315.95L402.731 291.176C408.258 263.72 398.317 238.56 372.465 233.356C346.613 228.156 322.811 246.522 317.285 273.978L315.077 284.946C312.957 295.481 308.14 346.099 344.925 349.658Z" fill="#E98862"/>
<path d="M330.259 316.823C336.958 320.23 344.601 321.307 351.98 319.884C352.236 319.836 352.5 319.861 352.742 319.957C352.983 320.053 353.193 320.216 353.345 320.427C353.497 320.638 353.586 320.888 353.602 321.148C353.617 321.407 353.558 321.666 353.431 321.893C351.231 325.77 346.013 332.393 337.062 329.693C331.281 327.949 329.096 322.002 328.286 318.324C328.231 318.07 328.25 317.805 328.34 317.561C328.43 317.317 328.588 317.103 328.795 316.946C329.002 316.788 329.25 316.693 329.509 316.671C329.769 316.65 330.029 316.702 330.259 316.823Z" fill="white"/>
<path d="M329.841 287.03C328.053 287.03 326.604 285.581 326.604 283.793C326.604 282.006 328.053 280.556 329.841 280.556C331.629 280.556 333.078 282.006 333.078 283.793C333.078 285.581 331.629 287.03 329.841 287.03Z" fill="#0C0C0C"/>
<path d="M360.946 292.476C359.158 292.476 357.709 291.027 357.709 289.239C357.709 287.452 359.158 286.002 360.946 286.002C362.734 286.002 364.183 287.452 364.183 289.239C364.183 291.027 362.734 292.476 360.946 292.476Z" fill="#0C0C0C"/>
<path opacity="0.1" d="M358.031 313.681C354.638 313.276 352.128 310.931 352.425 308.442C352.722 305.953 355.713 304.264 359.106 304.669C362.499 305.074 365.009 307.419 364.712 309.908C364.415 312.397 361.424 314.086 358.031 313.681Z" fill="#0C0C0C"/>
<path opacity="0.1" d="M322.179 303.73C321.879 306.215 318.885 307.902 315.491 307.502C314.904 307.432 314.327 307.301 313.768 307.111C313.61 304.148 313.601 301.297 313.688 298.658C314.63 298.423 315.608 298.366 316.571 298.489C319.965 298.89 322.473 301.234 322.179 303.73Z" fill="#0C0C0C"/>
<path opacity="0.5" d="M337.171 311.411L337.12 311.403C336.073 311.185 335.038 310.909 334.02 310.576C332.502 310.068 330.52 309.234 330.792 307.861C331.106 306.296 338.792 290.28 339.665 288.461C339.742 288.302 339.879 288.18 340.045 288.122C340.212 288.063 340.395 288.073 340.554 288.15C340.713 288.226 340.835 288.363 340.894 288.53C340.952 288.696 340.942 288.879 340.865 289.038C337.588 295.859 332.31 307.073 332.098 308.127C332.264 308.618 334.782 309.577 337.381 310.101C337.553 310.132 337.706 310.228 337.808 310.371C337.909 310.513 337.95 310.689 337.922 310.862C337.895 311.034 337.8 311.189 337.66 311.292C337.519 311.396 337.343 311.439 337.17 311.414L337.171 311.411Z" fill="#0C0C0C"/>
<path d="M423.359 300.069L400.183 295.542C382.676 288.221 377.71 257.71 377.71 257.71C377.71 257.71 356.102 278.286 304.464 265.844C304.464 265.844 315.681 193.758 391.93 215.639C416.516 222.694 433.93 247.754 431.34 280.946C429.525 304.207 423.359 300.069 423.359 300.069Z" fill="#0A0A0A"/>
<path d="M394.456 323.992C402.312 325.573 410.373 318.45 411.956 310.592C413.539 302.734 408.04 297.121 400.184 295.54L395.076 299.989L387.704 322.63L394.456 323.992Z" fill="#E98862"/>
<path d="M334.097 275.687C332.131 274.297 329.832 273.453 327.434 273.24C326.231 273.126 325.017 273.193 323.834 273.44C322.639 273.684 321.48 274.077 320.383 274.609L320.348 274.625C320.226 274.679 320.089 274.683 319.964 274.636C319.84 274.59 319.738 274.497 319.682 274.376C319.625 274.256 319.618 274.118 319.662 273.993C319.705 273.867 319.796 273.764 319.915 273.704C321.077 273.09 322.312 272.625 323.591 272.32C324.878 272.007 326.205 271.89 327.528 271.971C330.206 272.12 332.796 272.983 335.028 274.471C335.196 274.585 335.311 274.761 335.349 274.961C335.387 275.16 335.344 275.366 335.23 275.533C335.116 275.701 334.94 275.816 334.741 275.854C334.542 275.892 334.336 275.849 334.168 275.735L334.15 275.722L334.097 275.687Z" fill="#0C0C0C"/>
<path d="M355.267 278.613C357.899 278.09 360.623 278.283 363.155 279.171C364.407 279.602 365.586 280.219 366.655 281C367.719 281.771 368.682 282.673 369.521 283.685C369.61 283.785 369.655 283.916 369.648 284.05C369.641 284.183 369.582 284.309 369.483 284.399C369.384 284.489 369.254 284.537 369.12 284.531C368.987 284.526 368.861 284.469 368.769 284.371L368.742 284.343C367.933 283.432 367.012 282.625 366.002 281.943C365.002 281.261 363.905 280.734 362.748 280.38C360.451 279.66 358.004 279.56 355.656 280.091L355.598 280.105C355.401 280.153 355.193 280.121 355.02 280.015C354.847 279.91 354.723 279.74 354.675 279.543C354.628 279.346 354.66 279.138 354.766 278.965C354.871 278.792 355.041 278.668 355.238 278.62L355.267 278.613Z" fill="#0C0C0C"/>
<path d="M400.167 295.162C384.587 289.362 379.418 278.604 377.825 270.598C376.795 265.259 376.891 259.763 378.108 254.463L378.59 254.595C377.392 259.827 377.3 265.25 378.319 270.519C379.89 278.394 384.987 288.98 400.341 294.694L400.167 295.162Z" fill="#0C0C0C"/>
<path d="M577.538 177.96L587.768 145.273C587.993 144.555 588.365 143.892 588.86 143.325C589.356 142.759 589.964 142.301 590.645 141.983C591.327 141.664 592.068 141.49 592.82 141.473C593.572 141.457 594.32 141.597 595.015 141.884C596.283 142.456 597.292 143.478 597.849 144.751C598.406 146.025 598.47 147.46 598.028 148.778L595.834 155.787L612.85 136.912C614.705 134.78 618.35 133.351 620.599 135.59C621.523 136.395 622.146 137.489 622.368 138.694C622.59 139.898 622.397 141.143 621.82 142.223C621.845 142.236 621.868 142.251 621.889 142.268C621.903 142.284 621.916 142.301 621.927 142.318L624.787 139.031C625.318 138.423 625.977 137.94 626.717 137.618C627.458 137.297 628.261 137.145 629.067 137.173C629.874 137.201 630.664 137.409 631.381 137.781C632.097 138.154 632.721 138.681 633.207 139.325C633.953 140.355 634.323 141.609 634.254 142.878C634.186 144.148 633.684 145.355 632.831 146.298L631.614 147.698C631.638 147.753 631.652 147.81 631.656 147.869C632.698 147.115 633.975 146.756 635.257 146.856C636.539 146.956 637.744 147.509 638.656 148.416C639.625 149.438 640.173 150.787 640.19 152.195C640.207 153.603 639.693 154.965 638.75 156.01L635.726 159.484C635.804 159.466 635.885 159.465 635.962 159.484C636.04 159.502 636.112 159.539 636.172 159.59C636.241 159.655 636.29 159.739 636.311 159.831C637.426 159.418 638.645 159.381 639.782 159.728C640.919 160.075 641.911 160.785 642.604 161.75C643.313 162.779 643.653 164.017 643.57 165.263C643.487 166.509 642.986 167.691 642.147 168.616L616.634 197.929C613.065 202.029 608.352 204.97 603.1 206.375C597.849 207.78 592.297 207.585 587.157 205.815C582.725 204.288 579.063 201.093 576.949 196.909C574.835 192.725 574.436 187.882 575.836 183.408L577.538 177.96Z" fill="#E98862"/>
<g opacity="0.2">
<path opacity="0.2" d="M605.071 160.99C605.17 161.076 605.299 161.12 605.43 161.111C605.561 161.103 605.683 161.043 605.771 160.945L621.927 142.974C622.016 142.876 622.062 142.746 622.054 142.613C622.047 142.481 621.988 142.357 621.889 142.268C621.791 142.179 621.661 142.133 621.528 142.14C621.396 142.147 621.272 142.207 621.183 142.305L605.025 160.276C604.936 160.375 604.89 160.505 604.897 160.637C604.904 160.769 604.963 160.894 605.062 160.982L605.071 160.99Z" fill="#0C0C0C"/>
</g>
<g opacity="0.2">
<path opacity="0.2" d="M612.801 168.335C612.9 168.421 613.029 168.465 613.16 168.456C613.291 168.448 613.413 168.388 613.501 168.29L631.531 148.234C631.62 148.136 631.665 148.006 631.658 147.874C631.652 147.741 631.592 147.617 631.494 147.528C631.393 147.444 631.264 147.401 631.133 147.408C631.002 147.415 630.878 147.472 630.787 147.566L612.755 167.621C612.666 167.72 612.62 167.85 612.627 167.982C612.634 168.114 612.693 168.239 612.792 168.327L612.801 168.335Z" fill="#0C0C0C"/>
</g>
<g opacity="0.2">
<path opacity="0.2" d="M621.126 176.339C621.225 176.425 621.355 176.468 621.486 176.46C621.617 176.451 621.739 176.391 621.826 176.293L636.208 160.299C636.297 160.201 636.343 160.071 636.336 159.938C636.329 159.806 636.269 159.682 636.171 159.593C636.072 159.504 635.942 159.458 635.81 159.465C635.677 159.472 635.553 159.532 635.464 159.63L621.079 175.63C620.991 175.729 620.945 175.859 620.952 175.991C620.959 176.124 621.018 176.248 621.117 176.336L621.126 176.339Z" fill="#0C0C0C"/>
</g>
<path d="M179.691 118.805L212.436 276.873L323.937 389.509L265.392 444.03L154.844 317.814L154.181 317.068C150.283 312.584 147.565 307.198 146.273 301.398L108.74 134.113L179.691 118.805Z" fill="#3FCDA3"/>
<path d="M370.908 405.544C404.998 403.937 406.433 374.999 406.433 374.999C406.433 374.999 423.325 376.09 434.554 377.61C452.939 380.097 465.066 386.331 474.718 395.982C483.696 404.961 481.149 432.97 481.149 432.97L472.138 620.37H266.387L256.659 434.001C256.659 434.001 245.606 410.351 264.393 390.473C278.018 376.061 313.191 374.999 327.351 374.999C327.582 374.999 324.479 407.733 370.908 405.544Z" fill="#3FCDA3"/>
<path d="M531.078 308.231L567.944 176.385L637.657 196.599L595.04 338.546C593.091 344.98 589.39 350.744 584.352 355.194L583.652 355.807L471.363 454.507L420.636 392.646L531.078 308.231Z" fill="#3FCDA3"/>
<path d="M171.735 79.2844L173.422 80.4344C177.708 83.3577 182.527 85.4083 187.605 86.469C192.683 87.5296 197.92 87.5796 203.018 86.6161C208.115 85.6526 212.973 83.6944 217.313 80.8534C221.654 78.0124 225.392 74.3443 228.315 70.0584L244.108 46.8994C244.317 46.5939 244.463 46.2504 244.538 45.8885C244.614 45.5266 244.617 45.1534 244.549 44.7901C244.48 44.4268 244.34 44.0806 244.138 43.7713C243.935 43.462 243.674 43.1956 243.368 42.9874L181.07 0.489373C180.453 0.0687866 179.694 -0.0896278 178.961 0.0489438C178.227 0.187515 177.578 0.611735 177.157 1.22837L161.357 24.3914C158.434 28.677 156.383 33.4965 155.323 38.5746C154.262 43.6528 154.213 48.8901 155.176 53.9874C156.14 59.0848 158.098 63.9425 160.94 68.2829C163.781 72.6234 167.449 76.3617 171.735 79.2844Z" fill="#041E01"/>
<path d="M202.891 34.6884L193.428 40.0284C193.363 40.0648 193.291 40.085 193.217 40.0873C193.143 40.0896 193.07 40.0738 193.003 40.0414L183.239 35.2724C183.162 35.2353 183.077 35.2203 182.992 35.2291C182.908 35.2378 182.827 35.2699 182.76 35.3218C182.693 35.3737 182.641 35.4434 182.611 35.523C182.581 35.6025 182.574 35.6889 182.59 35.7724L184.744 46.4224C184.759 46.4951 184.756 46.5703 184.735 46.6416C184.714 46.7128 184.676 46.778 184.625 46.8314L177.073 54.6434C177.014 54.7046 176.972 54.7813 176.954 54.8647C176.936 54.9481 176.942 55.0349 176.971 55.1152C177 55.1955 177.05 55.2662 177.117 55.3193C177.184 55.3723 177.264 55.4056 177.349 55.4154L188.144 56.6594C188.218 56.6678 188.288 56.694 188.35 56.7358C188.411 56.7777 188.461 56.8338 188.496 56.8994L193.596 66.4994C193.636 66.5745 193.697 66.637 193.77 66.6797C193.844 66.7224 193.928 66.7436 194.014 66.741C194.099 66.7384 194.182 66.7121 194.253 66.665C194.324 66.6179 194.38 66.5518 194.416 66.4744L198.933 56.5924C198.964 56.5248 199.011 56.4657 199.069 56.4203C199.128 56.3748 199.197 56.3443 199.27 56.3314L209.97 54.4504C210.054 54.4356 210.132 54.3977 210.196 54.3408C210.259 54.2839 210.306 54.2103 210.33 54.1284C210.354 54.0465 210.354 53.9595 210.331 53.8773C210.308 53.7952 210.263 53.721 210.2 53.6634L202.2 46.3134C202.146 46.2631 202.104 46.2005 202.08 46.1309C202.055 46.0612 202.047 45.9866 202.057 45.9134L203.575 35.1544C203.588 35.0687 203.577 34.9811 203.543 34.9015C203.508 34.822 203.452 34.7538 203.38 34.705C203.309 34.6562 203.225 34.6288 203.138 34.6258C203.051 34.6229 202.966 34.6446 202.891 34.6884Z" fill="#FAFAFA"/>
<path d="M169.159 67.9073L177.059 73.2934L178.659 74.3814L184.959 78.6814C184.959 78.6814 142.035 117.91 144.081 165.527L125.251 152.684L123.651 151.596L103.226 137.665C148.308 122.188 169.159 67.9073 169.159 67.9073Z" fill="#041E01"/>
<path d="M97.6698 122.486L160.235 165.159C161.92 166.308 162.354 168.605 161.205 170.289L147.083 190.994C145.934 192.679 143.637 193.113 141.953 191.964L79.3875 149.291C77.703 148.142 77.2688 145.845 78.4177 144.161L92.5394 123.456C93.6883 121.772 95.9853 121.337 97.6698 122.486Z" fill="#041E01"/>
<path d="M217.083 88.2994C220.108 90.3693 223.629 91.5964 227.285 91.8546C230.941 92.1128 234.6 91.3928 237.885 89.7685C241.171 88.1443 243.965 85.6744 245.98 82.6127C247.994 79.5511 249.158 76.0081 249.35 72.348C249.542 68.6879 248.755 65.0427 247.072 61.7871C245.389 58.5314 242.869 55.7828 239.771 53.8237C236.673 51.8646 233.11 50.7657 229.447 50.64C225.784 50.5143 222.153 51.3663 218.929 53.1084C215.815 54.7895 213.185 57.2432 211.293 60.2338C209.401 63.2245 208.31 66.6515 208.124 70.1855C207.939 73.7196 208.666 77.2419 210.235 80.4141C211.803 83.5863 214.162 86.3017 217.083 88.2994ZM236.314 60.1994C238.731 61.85 240.541 64.2455 241.47 67.0209C242.399 69.7962 242.396 72.7991 241.46 75.5721C240.524 78.345 238.707 80.736 236.286 82.3805C233.865 84.025 230.973 84.833 228.05 84.6813C225.127 84.5296 222.334 83.4265 220.096 81.5402C217.859 79.6539 216.299 77.0877 215.655 74.2327C215.011 71.3778 215.318 68.3906 216.53 65.7264C217.741 63.0621 219.79 60.867 222.365 59.4754C224.533 58.3075 226.981 57.7573 229.441 57.885C231.9 58.0127 234.278 58.8132 236.314 60.1994Z" fill="#041E01"/>
<path d="M147.227 40.6624C147.975 41.1725 148.756 41.6331 149.564 42.0414C154.451 44.5094 160.117 44.9351 165.318 43.225C170.518 41.5148 174.826 37.8089 177.294 32.9224C179.762 28.0359 180.188 22.3692 178.478 17.1688C176.768 11.9684 173.062 7.66037 168.175 5.1924C163.498 2.83203 158.099 2.33816 153.072 3.81088C148.044 5.28361 143.765 8.61275 141.101 13.1235C138.437 17.6343 137.588 22.9892 138.725 28.1029C139.863 33.2166 142.902 37.7064 147.227 40.6624ZM166.451 12.5504C168.577 14.0067 170.239 16.0445 171.237 18.4203C172.235 20.796 172.528 23.409 172.08 25.9467C171.633 28.4845 170.463 30.8395 168.712 32.7302C166.961 34.6209 164.703 35.9671 162.207 36.608C159.711 37.2488 157.083 37.157 154.638 36.3437C152.193 35.5303 150.033 34.0298 148.418 32.0216C146.804 30.0134 145.801 27.5825 145.532 25.0197C145.262 22.4569 145.737 19.8707 146.898 17.5704C147.692 15.9981 148.788 14.5976 150.123 13.4488C151.458 12.3 153.007 11.4255 154.68 10.8753C156.353 10.325 158.119 10.1097 159.875 10.2416C161.632 10.3736 163.345 10.8503 164.917 11.6444C165.448 11.9126 165.96 12.2152 166.451 12.5504Z" fill="#041E01"/>
<path d="M151.551 104.499C152.121 103.717 152.419 102.771 152.401 101.804C152.383 100.836 152.049 99.9014 151.451 99.1414C151.519 99.1034 151.712 99.0594 151.64 98.9414L154.969 100.561C155.94 101.06 157.058 101.191 158.117 100.929C159.177 100.667 160.105 100.031 160.732 99.1374C161.322 98.2351 161.556 97.1459 161.388 96.081C161.221 95.0161 160.664 94.0512 159.826 93.3734C159.867 93.3604 159.889 93.3154 159.926 93.2894L161.295 93.9554C162.211 94.4214 163.261 94.5566 164.265 94.3379C165.27 94.1192 166.168 93.5602 166.808 92.7554C167.199 92.2424 167.471 91.6491 167.605 91.0182C167.738 90.3873 167.73 89.7347 167.581 89.1073C167.432 88.4799 167.145 87.8934 166.742 87.3902C166.339 86.887 165.829 86.4796 165.249 86.1974L162.092 84.6604C162.103 84.6454 162.124 84.6434 162.133 84.6254C162.142 84.6074 162.133 84.5784 162.139 84.5554C163.099 84.7799 164.106 84.6719 164.996 84.2492C165.886 83.8264 166.607 83.1139 167.039 82.2284C168.304 80.0124 166.434 77.4874 164.393 76.4944L157.719 73.8644C156.689 73.459 155.575 73.3145 154.476 73.4438C153.377 73.5731 152.327 73.9721 151.419 74.6054C143.557 80.0794 123.364 94.8664 129.88 98.0374L145.922 105.843C146.876 106.277 147.948 106.38 148.967 106.137C149.986 105.893 150.896 105.317 151.551 104.499Z" fill="#E98862"/>
<path d="M645.076 620.374H58.9459C58.6807 620.374 58.4263 620.269 58.2388 620.081C58.0513 619.894 57.9459 619.64 57.9459 619.374C57.9459 619.109 58.0513 618.855 58.2388 618.667C58.4263 618.48 58.6807 618.374 58.9459 618.374H645.076C645.341 618.374 645.596 618.48 645.783 618.667C645.971 618.855 646.076 619.109 646.076 619.374C646.076 619.64 645.971 619.894 645.783 620.081C645.596 620.269 645.341 620.374 645.076 620.374Z" fill="#292A2E"/>
<path d="M669.451 402.219L676.902 405.131L666.392 432.019L658.941 429.107L669.451 402.219Z" fill="#367CFF"/>
<path d="M65.0694 319.87L84.3296 341.375L78.3702 346.712L59.11 325.207L65.0694 319.87Z" fill="#367CFF"/>
<path d="M153.371 416.119L158.167 422.523L135.062 439.83L130.265 433.426L153.371 416.119Z" fill="#0CBC8B"/>
<path d="M500.613 187.511L521.638 207.296L516.155 213.122L495.13 193.337L500.613 187.511Z" fill="#367CFF"/>
<path d="M267.738 153.952L274.673 157.939L260.285 182.968L253.349 178.981L267.738 153.952Z" fill="#367CFF"/>
<path d="M550.626 498.199L566.032 522.613L559.267 526.883L543.86 502.469L550.626 498.199Z" fill="#0CBC8B"/>
<path d="M162.966 556.864L175.868 582.689L168.712 586.264L155.809 560.439L162.966 556.864Z" fill="#0CBC8B"/>
<path d="M58.2593 488.913L65.9214 491.21L57.6313 518.863L49.9693 516.566L58.2593 488.913Z" fill="#367CFF"/>
<path d="M618.792 565.051L623.248 571.699L599.258 587.779L594.802 581.131L618.792 565.051Z" fill="#367CFF"/>
<path d="M362.648 91.754L369.584 95.741L355.196 120.769L348.26 116.782L362.648 91.754Z" fill="#0CBC8B"/>
</svg>
