<svg width="688" height="515" viewBox="0 0 688 515" fill="none" xmlns="http://www.w3.org/2000/svg">
<path d="M636.369 318.177C636.48 388.56 613.146 456.975 570.052 512.623H66.3174C23.2237 456.975 -0.109749 388.56 0.000388117 318.177C0.000388117 142.447 142.461 0 318.192 0C493.923 0 636.369 142.447 636.369 318.177Z" fill="white"/>
<path opacity="0.1" d="M636.369 318.177C636.48 388.56 613.146 456.975 570.052 512.623H66.3174C23.2237 456.975 -0.109749 388.56 0.000388117 318.177C0.000388117 142.447 142.461 0 318.192 0C493.923 0 636.369 142.447 636.369 318.177Z" fill="#47AFE4"/>
<path d="M641.391 4.06897H388.96C364.339 4.06897 344.379 24.0286 344.379 48.65V48.651C344.379 73.2724 364.339 93.232 388.96 93.232H641.391C666.013 93.232 685.972 73.2724 685.972 48.651V48.65C685.972 24.0286 666.013 4.06897 641.391 4.06897Z" fill="white"/>
<path d="M641.391 94.112H388.96C376.94 94.0556 365.431 89.2411 356.952 80.7215C348.472 72.2019 343.711 60.6708 343.711 48.6505C343.711 36.6301 348.472 25.099 356.952 16.5795C365.431 8.05989 376.94 3.24535 388.96 3.18898H641.391C647.379 3.16089 653.314 4.31606 658.854 6.58813C664.394 8.8602 669.431 12.2044 673.675 16.4287C677.92 20.653 681.287 25.6741 683.585 31.2037C685.883 36.7333 687.066 42.6624 687.066 48.6505C687.066 54.6386 685.883 60.5677 683.585 66.0973C681.287 71.6269 677.92 76.648 673.675 80.8723C669.431 85.0965 664.394 88.4408 658.854 90.7128C653.314 92.9849 647.379 94.1401 641.391 94.112ZM388.96 4.94898C377.37 4.94898 366.255 9.55307 358.06 17.7484C349.864 25.9438 345.26 37.059 345.26 48.649C345.26 60.2389 349.864 71.3542 358.06 79.5495C366.255 87.7449 377.37 92.349 388.96 92.349H641.391C652.981 92.349 664.096 87.7449 672.292 79.5495C680.487 71.3542 685.091 60.2389 685.091 48.649C685.091 37.059 680.487 25.9438 672.292 17.7484C664.096 9.55307 652.981 4.94898 641.391 4.94898H388.96Z" fill="#262626"/>
<path d="M391.012 25.226L398.526 40.094L415.014 42.633L403.219 54.027L406.198 70.315L391.393 62.489L376.746 70.016L379.392 53.785L367.361 42.15L383.8 39.945L391.012 25.226Z" fill="#0CBC8B"/>
<path d="M452.237 25.226L459.751 40.094L476.239 42.633L464.444 54.027L467.423 70.315L452.618 62.489L437.971 70.016L440.617 53.785L428.586 42.15L445.026 39.945L452.237 25.226Z" fill="#0CBC8B"/>
<path d="M513.462 25.226L520.978 40.094L537.466 42.633L525.67 54.027L528.649 70.315L513.845 62.489L499.198 70.016L501.843 53.785L489.812 42.15L506.252 39.945L513.462 25.226Z" fill="#0CBC8B"/>
<path d="M574.687 25.226L582.202 40.094L598.69 42.633L586.894 54.027L589.873 70.315L575.069 62.489L560.422 70.016L563.068 53.785L551.036 42.15L567.476 39.945L574.687 25.226Z" fill="#0CBC8B"/>
<path opacity="0.2" d="M635.913 25.226L643.427 40.094L659.915 42.633L648.12 54.027L651.099 70.315L636.294 62.489L621.647 70.016L624.293 53.785L612.262 42.15L628.701 39.945L635.913 25.226Z" fill="#367CFF"/>
<path d="M182.158 105.337C182.158 105.337 179.441 137.509 171.987 149.067C150.528 182.34 143.813 220.08 164.355 240.223C184.897 260.366 318.145 263 329.046 217.7C338.224 179.562 320.058 175.122 316.181 143.457C314.426 129.13 309.434 99.064 309.434 99.064" fill="#0A0A0A"/>
<path d="M295.855 209.942C295.624 209.912 293.071 252.272 243.861 248.579C209.793 246.027 197.646 209.879 196.861 209.879C200.534 209.098 206.72 207.963 208.351 207.093C213.716 204.21 220.351 201.211 222.082 190.793C223.082 184.793 221.388 154.071 221.909 147.993L274.203 159.665C273.472 172.495 268.358 202.24 286.283 207.504C289.269 208.381 292.482 209.181 295.855 209.942Z" fill="#E98862"/>
<path opacity="0.5" d="M274.94 195.354C274.121 192.714 273.594 189.993 273.367 187.238C272.792 180.952 272.907 174.621 273.709 168.36C263.081 166.925 253.069 162.538 244.809 155.698C243.838 159.284 238.498 174.954 239.977 178.362C242.769 184.8 255.9 195.354 274.94 195.354Z" fill="#0C0C0C"/>
<path d="M267.493 182.152C246.843 183.781 220.317 175.062 215.279 147.512L210.732 122.654C205.694 95.1039 216.079 70.1239 242.019 65.3799C267.959 60.6359 291.432 79.4229 296.471 106.973L298.483 117.979C300.417 128.55 304.336 179.245 267.493 182.152Z" fill="#E98862"/>
<path d="M275.923 144.048L275.974 144.04C277.024 143.84 278.063 143.582 279.086 143.268C280.613 142.787 282.613 141.989 282.362 140.611C282.075 139.041 274.677 122.891 273.835 121.054C273.757 120.9 273.623 120.781 273.46 120.724C273.297 120.667 273.119 120.675 272.962 120.747C272.805 120.819 272.682 120.949 272.619 121.11C272.556 121.271 272.558 121.45 272.625 121.609C275.78 128.487 280.859 139.794 281.052 140.851C280.878 141.339 278.343 142.251 275.735 142.731C275.567 142.763 275.418 142.859 275.319 142.998C275.22 143.138 275.178 143.31 275.202 143.479C275.226 143.648 275.315 143.802 275.449 143.907C275.583 144.013 275.753 144.064 275.923 144.048Z" fill="#0C0C0C"/>
<path d="M272.014 155.905C276.243 155.382 280.291 153.872 283.83 151.498C283.978 151.403 284.082 151.252 284.12 151.08C284.157 150.908 284.125 150.727 284.03 150.579C283.934 150.431 283.784 150.326 283.611 150.289C283.439 150.251 283.259 150.284 283.111 150.379C275.453 155.301 267.869 156.059 261.179 152.569C261.043 152.494 260.904 152.428 260.762 152.369C260.596 152.308 260.413 152.316 260.253 152.39C260.093 152.464 259.968 152.598 259.908 152.764C259.847 152.93 259.854 153.113 259.928 153.273C260.002 153.433 260.137 153.557 260.303 153.618C260.355 153.64 260.443 153.687 260.564 153.751C264.081 155.592 268.068 156.342 272.014 155.905Z" fill="#0C0C0C"/>
<path d="M189.952 131.18L213.204 127.064C230.838 120.055 236.345 89.6369 236.345 89.6369C236.345 89.6369 257.583 110.592 309.434 99.0669C309.434 99.0669 299.496 26.7939 222.872 47.3199C198.165 53.9379 180.31 78.6849 182.311 111.92C183.713 135.207 189.952 131.18 189.952 131.18Z" fill="#0A0A0A"/>
<path d="M218.424 155.611C210.541 157.053 202.608 149.788 201.166 141.905C199.724 134.022 205.32 128.505 213.203 127.064L218.231 131.603L225.201 154.371L218.424 155.611Z" fill="#E98862"/>
<path d="M279.631 108.384C281.619 107.03 283.931 106.226 286.331 106.055C287.537 105.961 288.751 106.049 289.931 106.317C291.121 106.582 292.273 106.995 293.361 107.547L293.395 107.563C293.515 107.617 293.652 107.623 293.776 107.578C293.9 107.533 294.002 107.442 294.061 107.324C294.119 107.205 294.129 107.069 294.088 106.943C294.048 106.817 293.96 106.712 293.844 106.65C292.693 106.016 291.466 105.529 290.194 105.201C288.912 104.866 287.587 104.725 286.264 104.783C283.582 104.884 280.976 105.703 278.719 107.154C278.635 107.209 278.562 107.28 278.506 107.363C278.45 107.446 278.41 107.539 278.39 107.637C278.369 107.736 278.368 107.837 278.387 107.935C278.406 108.034 278.444 108.128 278.499 108.212C278.554 108.296 278.625 108.368 278.708 108.425C278.791 108.481 278.884 108.521 278.982 108.541C279.08 108.561 279.182 108.562 279.28 108.544C279.379 108.525 279.473 108.487 279.557 108.432L279.575 108.42L279.631 108.384Z" fill="#0C0C0C"/>
<path d="M258.412 110.934C255.788 110.364 253.06 110.509 250.512 111.352C249.252 111.761 248.06 112.356 246.977 113.119C245.898 113.871 244.919 114.756 244.063 115.753C244.017 115.801 243.981 115.859 243.957 115.921C243.933 115.984 243.922 116.05 243.924 116.117C243.927 116.252 243.985 116.38 244.083 116.473C244.181 116.566 244.312 116.616 244.447 116.612C244.582 116.608 244.71 116.551 244.803 116.453L244.83 116.425C245.655 115.528 246.59 114.738 247.613 114.074C248.624 113.409 249.73 112.901 250.894 112.568C253.204 111.887 255.654 111.831 257.994 112.405L258.052 112.42C258.248 112.471 258.456 112.442 258.631 112.34C258.806 112.237 258.933 112.07 258.984 111.873C259.035 111.677 259.007 111.469 258.904 111.294C258.802 111.119 258.634 110.992 258.438 110.941L258.412 110.934Z" fill="#0C0C0C"/>
<path d="M272.873 162.158C273.639 162.076 274.397 161.928 275.139 161.717C275.309 161.669 275.453 161.556 275.539 161.402C275.625 161.248 275.647 161.066 275.599 160.896C275.552 160.727 275.438 160.583 275.284 160.496C275.131 160.41 274.949 160.388 274.779 160.436C270.318 161.69 267.796 159.977 267.69 159.903C267.546 159.801 267.368 159.76 267.194 159.789C267.02 159.818 266.865 159.916 266.762 160.059C266.66 160.203 266.619 160.382 266.648 160.556C266.678 160.73 266.775 160.885 266.919 160.987C268.708 162.054 270.812 162.468 272.873 162.158Z" fill="#0C0C0C"/>
<path d="M213.226 126.684C228.906 121.164 234.265 110.497 236 102.52C237.123 97.1996 237.123 91.7033 236 86.3829L235.515 86.5069C236.621 91.758 236.617 97.1822 235.505 102.432C233.794 110.278 228.505 120.772 213.057 126.214L213.226 126.684Z" fill="#0C0C0C"/>
<path opacity="0.1" d="M255.028 145.943C258.428 145.599 260.979 143.298 260.726 140.804C260.473 138.311 257.513 136.569 254.113 136.914C250.713 137.258 248.162 139.559 248.415 142.052C248.668 144.546 251.629 146.288 255.028 145.943Z" fill="#0C0C0C"/>
<path opacity="0.1" d="M291.05 136.633C291.31 139.123 294.27 140.863 297.67 140.523C298.257 140.463 298.837 140.342 299.399 140.163C299.609 137.203 299.669 134.353 299.629 131.713C298.692 131.461 297.715 131.386 296.749 131.493C293.349 131.833 290.801 134.133 291.05 136.633Z" fill="#0C0C0C"/>
<path d="M141.271 461.628L135.366 513.916H349.465L346.163 461.299L141.271 461.628Z" fill="#262626"/>
<path d="M587.601 105.337L479.016 194.286L328.706 207.846C319.066 208.654 310.112 213.155 303.714 220.41C297.315 227.664 293.967 237.111 294.37 246.775C294.772 256.44 298.894 265.575 305.874 272.273C312.853 278.97 322.151 282.711 331.824 282.715C332.884 282.715 333.95 282.67 335.024 282.579L497.133 268.021C504.811 267.371 512.103 264.372 518.017 259.431L631.737 158.544L587.601 105.337Z" fill="#041E01"/>
<path d="M242.732 238.051C208.64 236.445 207.205 207.508 207.205 207.508C207.205 207.508 190.313 208.6 179.083 210.119C160.699 212.606 141.211 218.919 132.366 234.204C126.008 245.195 124.476 247.184 130.26 309.204C134.448 354.11 141.271 461.63 141.271 461.63L346.162 461.301C346.162 461.301 355.281 323.416 357.001 303.2C360.284 264.611 365.465 210.221 354.465 207.506C341.65 204.343 299.818 209.543 286.288 207.506C286.059 207.476 289.159 240.24 242.732 238.051Z" fill="#3FCDA3"/>
<path d="M605.862 86.794C606.161 86.1209 606.593 85.5156 607.133 85.0152C607.673 84.5147 608.309 84.1294 609.003 83.8829C609.696 83.6364 610.433 83.5339 611.168 83.5815C611.902 83.6292 612.619 83.826 613.276 84.16C614.523 84.8502 615.462 85.9885 615.902 87.3446C616.343 88.7007 616.252 90.1735 615.647 91.465L612.682 98.156L631.732 81.335C633.817 79.428 637.596 78.421 639.581 80.901C640.406 81.8055 640.9 82.9629 640.983 84.1845C641.065 85.4061 640.731 86.6196 640.035 87.627C640.061 87.6428 640.084 87.6616 640.104 87.683C640.116 87.7003 640.126 87.7183 640.135 87.737L643.352 84.796C643.944 84.2551 644.649 83.8523 645.415 83.6166C646.182 83.3809 646.991 83.3181 647.785 83.4329C648.579 83.5477 649.338 83.8371 650.006 84.2803C650.675 84.7235 651.237 85.3095 651.651 85.996C652.29 87.1053 652.525 88.4013 652.318 89.6643C652.111 90.9274 651.473 92.08 650.513 92.927L649.146 94.178C649.164 94.2361 649.172 94.2971 649.169 94.358C650.278 93.7321 651.572 93.5171 652.824 93.7508C654.076 93.9846 655.205 94.6521 656.013 95.636C656.879 96.7689 657.282 98.1883 657.141 99.6072C657.001 101.026 656.326 102.338 655.255 103.279L651.891 106.355C651.97 106.345 652.051 106.354 652.125 106.381C652.2 106.408 652.267 106.453 652.321 106.511C652.383 106.583 652.421 106.672 652.432 106.766C653.555 106.489 654.738 106.578 655.806 107.02C656.875 107.463 657.774 108.236 658.371 109.226C659.01 110.335 659.245 111.631 659.038 112.894C658.831 114.157 658.193 115.31 657.233 116.157L628.56 142.386C624.549 146.055 619.533 148.442 614.155 149.242C608.778 150.041 603.284 149.217 598.378 146.874L582.584 139.33L605.862 86.794Z" fill="#E98862"/>
<g opacity="0.2">
<path opacity="0.2" d="M621.269 104.374C621.357 104.47 621.481 104.528 621.612 104.534C621.742 104.54 621.871 104.495 621.969 104.408L640.063 88.3889C640.112 88.3454 640.152 88.2926 640.181 88.2336C640.209 88.1745 640.226 88.1104 640.23 88.0448C640.234 87.9793 640.225 87.9136 640.204 87.8515C640.182 87.7894 640.149 87.7321 640.105 87.6829C640.062 87.6337 640.009 87.5936 639.95 87.5648C639.891 87.5361 639.827 87.5192 639.761 87.5152C639.696 87.5112 639.63 87.5202 639.568 87.5416C639.506 87.563 639.449 87.5964 639.4 87.6399L621.3 103.66C621.25 103.704 621.21 103.756 621.182 103.815C621.153 103.875 621.136 103.939 621.132 104.004C621.128 104.07 621.137 104.135 621.159 104.198C621.18 104.26 621.214 104.317 621.258 104.366L621.269 104.374Z" fill="#0C0C0C"/>
</g>
<g opacity="0.2">
<path opacity="0.2" d="M628.115 112.549C628.203 112.645 628.326 112.703 628.457 112.71C628.588 112.716 628.717 112.671 628.815 112.584L649.008 94.7049C649.057 94.6614 649.097 94.6086 649.126 94.5496C649.154 94.4905 649.171 94.4264 649.175 94.3608C649.179 94.2953 649.17 94.2296 649.149 94.1675C649.128 94.1054 649.094 94.0481 649.051 93.9989C648.96 93.9035 648.837 93.8461 648.706 93.8383C648.575 93.8305 648.446 93.8729 648.345 93.9569L628.151 111.835C628.101 111.879 628.061 111.931 628.033 111.99C628.004 112.05 627.987 112.114 627.983 112.179C627.979 112.245 627.988 112.31 628.01 112.373C628.031 112.435 628.065 112.492 628.109 112.541L628.115 112.549Z" fill="#0C0C0C"/>
</g>
<g opacity="0.2">
<path opacity="0.2" d="M635.476 121.446C635.565 121.542 635.688 121.6 635.819 121.607C635.95 121.613 636.078 121.568 636.176 121.481L652.285 107.22C652.385 107.132 652.445 107.008 652.453 106.875C652.461 106.743 652.416 106.613 652.328 106.513C652.24 106.414 652.116 106.354 651.983 106.346C651.851 106.338 651.721 106.383 651.621 106.471L635.513 120.732C635.464 120.775 635.424 120.828 635.395 120.887C635.367 120.946 635.35 121.01 635.346 121.076C635.342 121.142 635.351 121.207 635.372 121.269C635.393 121.332 635.427 121.389 635.47 121.438L635.476 121.446Z" fill="#0C0C0C"/>
</g>
<path d="M599.032 81.5629L621.646 75.2249L629.657 53.1119L642.198 72.5349L665.539 72.8579L650.676 91.1999L657.091 113.513L635.364 105.425L615.988 118.892L617.422 95.5519L599.032 81.5629Z" fill="#0CBC8B"/>
<path d="M611.682 100.655L615.647 91.465C616.251 90.1735 616.342 88.7008 615.902 87.3447C615.462 85.9885 614.523 84.8503 613.275 84.16C612.619 83.826 611.902 83.6292 611.167 83.5815C610.433 83.5339 609.696 83.6365 609.002 83.883C608.309 84.1294 607.673 84.5147 607.133 85.0152C606.593 85.5157 606.161 86.1209 605.862 86.794" fill="#E98862"/>
<path d="M328.186 376.411C328.077 377.832 327.433 379.159 326.382 380.122C325.331 381.085 323.954 381.612 322.529 381.597L317.972 381.652C318.037 381.697 318.09 381.756 318.127 381.826C318.164 381.896 318.183 381.973 318.184 382.052C318.185 382.148 318.155 382.241 318.1 382.319C319.122 382.861 319.944 383.716 320.445 384.759C320.946 385.802 321.099 386.977 320.884 388.114C320.617 389.366 319.927 390.488 318.93 391.291C317.933 392.094 316.69 392.528 315.41 392.522L276.56 392.942C271.124 393.004 265.793 391.441 261.252 388.452C256.711 385.463 253.166 381.185 251.074 376.168L244.323 360.012L264.998 355.612L265.492 350.458L296.709 336.377C297.38 336.074 298.105 335.911 298.841 335.898C299.577 335.884 300.308 336.021 300.989 336.3C301.67 336.578 302.288 336.993 302.804 337.517C303.32 338.042 303.723 338.667 303.99 339.353C304.459 340.699 304.401 342.174 303.825 343.478C303.25 344.783 302.201 345.821 300.89 346.382L294.214 349.39L319.627 349.561C322.457 349.529 325.943 351.296 325.768 354.461C325.782 355.686 325.381 356.879 324.629 357.847C323.877 358.814 322.819 359.497 321.629 359.785C321.629 359.816 321.635 359.838 321.637 359.87L321.621 359.927L325.979 359.881C326.782 359.872 327.577 360.041 328.307 360.377C329.037 360.712 329.683 361.206 330.199 361.822C330.714 362.438 331.086 363.161 331.288 363.939C331.49 364.716 331.517 365.529 331.366 366.318C331.103 367.569 330.415 368.69 329.42 369.492C328.425 370.294 327.183 370.727 325.905 370.718L324.041 370.745C324.015 370.795 323.984 370.842 323.95 370.886C325.192 371.163 326.297 371.869 327.072 372.879C327.846 373.889 328.24 375.139 328.186 376.411Z" fill="#E98862"/>
<g opacity="0.2">
<path opacity="0.2" d="M296.467 359.752C296.469 359.883 296.523 360.008 296.616 360.1C296.71 360.192 296.836 360.243 296.967 360.243L321.134 360.369C321.266 360.369 321.394 360.316 321.487 360.222C321.581 360.129 321.634 360.002 321.634 359.869C321.634 359.736 321.581 359.609 321.487 359.515C321.394 359.422 321.266 359.369 321.134 359.369L296.967 359.243C296.834 359.243 296.707 359.296 296.613 359.389C296.519 359.483 296.467 359.61 296.467 359.743V359.752Z" fill="#0C0C0C"/>
</g>
<g opacity="0.2">
<path opacity="0.2" d="M296.117 370.409C296.119 370.54 296.173 370.665 296.266 370.757C296.36 370.848 296.486 370.9 296.617 370.9L323.587 371.041C323.719 371.041 323.846 370.988 323.94 370.894C324.034 370.801 324.087 370.673 324.087 370.541C324.082 370.41 324.028 370.285 323.936 370.192C323.843 370.099 323.718 370.045 323.587 370.041L296.617 369.901C296.484 369.901 296.357 369.954 296.263 370.047C296.169 370.141 296.117 370.268 296.117 370.401V370.409Z" fill="#0C0C0C"/>
</g>
<g opacity="0.2">
<path opacity="0.2" d="M295.672 381.949C295.674 382.08 295.728 382.205 295.821 382.297C295.915 382.389 296.041 382.44 296.172 382.44L317.685 382.552C317.817 382.552 317.945 382.499 318.038 382.405C318.132 382.312 318.185 382.185 318.185 382.052C318.185 381.919 318.132 381.792 318.038 381.698C317.945 381.605 317.817 381.552 317.685 381.552L296.172 381.44C296.039 381.44 295.912 381.493 295.818 381.586C295.725 381.68 295.672 381.807 295.672 381.94V381.949Z" fill="#0C0C0C"/>
</g>
<path d="M274.553 404.505L111.888 433.481C105.054 435.295 97.846 435.14 91.0963 433.034C84.3467 430.927 78.33 426.956 73.7405 421.577C69.151 416.198 66.1757 409.632 65.1577 402.635C64.1398 395.638 65.1208 388.495 67.9876 382.032L127.227 244.232C135.627 225.3 156.388 216.761 175.317 225.16C184.408 229.193 191.524 236.672 195.101 245.952C198.677 255.232 198.421 265.553 194.389 274.644L159.601 357.108L268.389 342.653L274.553 404.505Z" fill="#041E01"/>
<path d="M139.92 429.178C139.967 429.178 140.014 429.171 140.058 429.158L274.69 404.986C274.816 404.95 274.922 404.866 274.986 404.753C275.05 404.64 275.068 404.506 275.035 404.38L268.872 340.526C268.84 340.399 268.758 340.29 268.646 340.223C268.534 340.155 268.4 340.135 268.272 340.165L160.5 356.387L194.831 274.86C194.881 274.742 194.884 274.609 194.838 274.489C194.793 274.369 194.703 274.271 194.587 274.215C194.472 274.16 194.339 274.151 194.217 274.19C194.095 274.23 193.993 274.314 193.931 274.427L159.15 356.891C159.111 356.976 159.095 357.07 159.107 357.163C159.118 357.256 159.155 357.344 159.214 357.417C159.272 357.49 159.351 357.545 159.439 357.576C159.528 357.607 159.623 357.612 159.714 357.591L268.027 341.244L273.944 404.156L139.781 428.2C139.665 428.233 139.565 428.307 139.499 428.408C139.433 428.51 139.406 428.631 139.423 428.751C139.44 428.871 139.5 428.98 139.591 429.059C139.683 429.138 139.8 429.182 139.92 429.181V429.178Z" fill="#0C0C0C"/>
<path d="M146.138 359.407C146.173 359.407 146.209 359.403 146.244 359.395L159.709 357.595C159.773 357.581 159.835 357.555 159.889 357.518C159.944 357.481 159.991 357.433 160.027 357.378C160.063 357.322 160.087 357.26 160.099 357.195C160.111 357.13 160.11 357.063 160.096 356.999C160.082 356.934 160.055 356.873 160.017 356.819C159.979 356.765 159.931 356.719 159.875 356.683C159.819 356.648 159.757 356.624 159.692 356.613C159.627 356.601 159.56 356.603 159.496 356.618L146.031 358.418C145.911 358.445 145.805 358.515 145.733 358.615C145.662 358.715 145.629 358.838 145.643 358.96C145.656 359.082 145.714 359.195 145.805 359.277C145.896 359.36 146.015 359.405 146.138 359.406V359.407Z" fill="#0C0C0C"/>
<path d="M358.906 281.059C359.032 281.059 359.153 281.012 359.246 280.927C359.339 280.841 359.396 280.724 359.406 280.598L361.634 251.759C361.644 251.626 361.601 251.495 361.514 251.394C361.428 251.293 361.305 251.231 361.172 251.22C361.04 251.21 360.908 251.253 360.807 251.34C360.706 251.426 360.644 251.549 360.634 251.682L358.406 280.521C358.396 280.653 358.439 280.784 358.525 280.884C358.611 280.985 358.734 281.047 358.866 281.057C358.879 281.059 358.892 281.059 358.906 281.059Z" fill="#0C0C0C"/>
<path d="M290.741 117.844C292.534 117.844 293.989 116.39 293.989 114.596C293.989 112.802 292.534 111.348 290.741 111.348C288.947 111.348 287.493 112.802 287.493 114.596C287.493 116.39 288.947 117.844 290.741 117.844Z" fill="#0C0C0C"/>
<path d="M257.817 123.406C259.611 123.406 261.065 121.952 261.065 120.158C261.065 118.364 259.611 116.91 257.817 116.91C256.024 116.91 254.569 118.364 254.569 120.158C254.569 121.952 256.024 123.406 257.817 123.406Z" fill="#0C0C0C"/>
<path d="M60.1206 514.916H576.25C576.515 514.916 576.769 514.811 576.957 514.623C577.144 514.436 577.25 514.181 577.25 513.916C577.25 513.651 577.144 513.396 576.957 513.209C576.769 513.021 576.515 512.916 576.25 512.916H60.1206C59.8554 512.916 59.601 513.021 59.4135 513.209C59.226 513.396 59.1206 513.651 59.1206 513.916C59.1206 514.181 59.226 514.436 59.4135 514.623C59.601 514.811 59.8554 514.916 60.1206 514.916Z" fill="#292A2E"/>
</svg>
