<svg width="127" height="125" viewBox="0 0 127 125" fill="none" xmlns="http://www.w3.org/2000/svg">
<g filter="url(#filter0_d_149_849)">
<path d="M56.2113 51.7154C55.7154 50.1783 55.2692 48.6908 54.7733 47.1538C54.2775 45.6167 53.8313 44.1787 53.4346 42.7408C53.0379 41.3525 52.6908 40.0633 52.3438 38.8733H52.2446C51.7983 41.0054 51.2529 43.1375 50.5588 45.2696C49.815 47.6496 49.0713 50.1287 48.2779 52.6079C47.5838 55.1367 46.84 57.4671 46.0962 59.5496H58.6904C58.3929 58.5034 57.9963 57.2687 57.55 55.9746C57.1038 54.6408 56.6575 53.2029 56.2113 51.7154ZM101.927 0H25.0729C13.4208 0 4 9.42083 4 21.0729V94.9521C4 106.604 13.4208 116.025 25.0729 116.025H101.927C113.579 116.025 123 106.604 123 94.9521V21.0729C123 9.42083 113.579 0 101.927 0ZM76.8875 81.9613H66.5196C66.1775 82.0108 65.8304 81.7629 65.7313 81.4158L61.6654 69.615H43.2204L39.4521 81.2671C39.3529 81.7133 38.9563 82.0108 38.51 81.9662H29.1883C28.6429 81.9662 28.4942 81.6637 28.6429 81.0737L44.6087 35.105C44.7575 34.6092 44.9062 34.0638 45.1046 33.4688C45.3029 32.4275 45.4021 31.3367 45.4021 30.2458C45.3525 29.9979 45.5508 29.75 45.7988 29.7004H58.6408C59.0375 29.7004 59.2358 29.8492 59.2854 30.0971L77.3833 81.1679C77.5321 81.7084 77.3833 81.9613 76.8875 81.9613ZM93.7458 81.2175C93.7458 81.7629 93.5525 82.0108 93.1062 82.0108H83.3829C82.8871 82.0108 82.6392 81.7084 82.6392 81.2175V43.0383C82.6392 42.5425 82.8425 42.3442 83.2887 42.3442H93.1062C93.5525 42.3442 93.7458 42.5921 93.7458 43.0383V81.2175ZM92.7095 36.4438C92.124 37.0385 91.4179 37.501 90.6388 37.8003C89.8597 38.0996 89.0256 38.2288 88.1925 38.1792C86.5563 38.2288 84.9696 37.5842 83.7746 36.4438C82.6386 35.2016 82.0336 33.5644 82.0888 31.8821C82.0392 30.1963 82.6838 28.6096 83.8688 27.4692C85.0687 26.3288 86.6554 25.7337 88.2917 25.7337C90.2304 25.7337 91.708 26.3288 92.8037 27.4692C93.8946 28.6592 94.4896 30.2458 94.44 31.8821C94.4896 33.5679 93.8946 35.2042 92.7095 36.4438Z" fill="#FF5E03"/>
</g>
<defs>
<filter id="filter0_d_149_849" x="0" y="0" width="127" height="124.025" filterUnits="userSpaceOnUse" color-interpolation-filters="sRGB">
<feFlood flood-opacity="0" result="BackgroundImageFix"/>
<feColorMatrix in="SourceAlpha" type="matrix" values="0 0 0 0 0 0 0 0 0 0 0 0 0 0 0 0 0 0 127 0" result="hardAlpha"/>
<feOffset dy="4"/>
<feGaussianBlur stdDeviation="2"/>
<feComposite in2="hardAlpha" operator="out"/>
<feColorMatrix type="matrix" values="0 0 0 0 0.913725 0 0 0 0 0.533333 0 0 0 0 0.384314 0 0 0 1 0"/>
<feBlend mode="normal" in2="BackgroundImageFix" result="effect1_dropShadow_149_849"/>
<feBlend mode="normal" in="SourceGraphic" in2="effect1_dropShadow_149_849" result="shape"/>
</filter>
</defs>
</svg>
