<svg width="32" height="32" viewBox="0 0 32 32" fill="none" xmlns="http://www.w3.org/2000/svg">
<path d="M12.7461 14.2499V9.31592H16.3061C18.2521 9.31592 19.3901 10.2299 19.3901 11.7899C19.3901 13.3939 18.1821 14.2499 15.8621 14.2499H12.7461ZM12.7461 21.7739H16.5421C18.9101 21.7739 20.1621 20.8139 20.1621 19.0199C20.1621 17.2499 18.8621 16.3239 16.3901 16.3239H12.7461V21.7739Z" fill="#0A1E8A"/>
<path d="M8 0C5.87827 0 3.84344 0.842855 2.34315 2.34315C0.842855 3.84344 0 5.87827 0 8V24C0 26.1217 0.842855 28.1566 2.34315 29.6569C3.84344 31.1571 5.87827 32 8 32H24C26.1217 32 28.1566 31.1571 29.6569 29.6569C31.1571 28.1566 32 26.1217 32 24V8C32 5.87827 31.1571 3.84344 29.6569 2.34315C28.1566 0.842855 26.1217 0 24 0L8 0ZM10.12 24V7.09H16.918C20.092 7.09 22.004 8.708 22.004 11.31C22.004 13.078 20.704 14.66 19.038 14.942V15.142C21.324 15.376 22.846 17.004 22.846 19.208C22.846 22.184 20.678 24 17.07 24H10.12Z" fill="#0A1E8A"/>
</svg>
