<svg width="34" height="34" viewBox="0 0 34 34" fill="none" xmlns="http://www.w3.org/2000/svg">
<path d="M26.5576 30.7662V24.8086H27.8981C28.5894 24.8086 29.2523 25.0832 29.7411 25.572C30.2299 26.0608 30.5046 26.7238 30.5046 27.4151V28.1598C30.5046 28.851 30.2299 29.514 29.7411 30.0028C29.2523 30.4916 28.5894 30.7662 27.8981 30.7662H26.5576Z" fill="#36DA93" stroke="#FFC700" stroke-linecap="round" stroke-linejoin="round"/>
<path d="M24.015 31.3802C20.6126 33.04 16.7318 33.4396 13.0624 32.5079C9.39313 31.5762 6.17303 29.3737 3.97452 26.2917C1.77602 23.2098 0.741532 19.4481 1.05495 15.6754C1.36837 11.9026 3.00939 8.36323 5.68631 5.68631C8.36323 3.00939 11.9026 1.36837 15.6754 1.05495C19.4481 0.741532 23.2098 1.77602 26.2917 3.97452C29.3737 6.17303 31.5762 9.39313 32.5079 13.0624C33.4396 16.7318 33.04 20.6126 31.3802 24.015" fill="#36DA93"/>
<path d="M24.015 31.3802C20.6126 33.04 16.7318 33.4396 13.0624 32.5079C9.39313 31.5762 6.17303 29.3737 3.97452 26.2917C1.77602 23.2098 0.741532 19.4481 1.05495 15.6754C1.36837 11.9026 3.00939 8.36323 5.68631 5.68631C8.36323 3.00939 11.9026 1.36837 15.6754 1.05495C19.4481 0.741532 23.2098 1.77602 26.2917 3.97452C29.3737 6.17303 31.5762 9.39313 32.5079 13.0624C33.4396 16.7318 33.04 20.6126 31.3802 24.015" stroke="#FFC700" stroke-linecap="round" stroke-linejoin="round"/>
<path d="M17.1218 22.9955C20.431 22.9955 23.1137 20.3128 23.1137 17.0036C23.1137 13.6944 20.431 11.0117 17.1218 11.0117C13.8125 11.0117 11.1299 13.6944 11.1299 17.0036C11.1299 20.3128 13.8125 22.9955 17.1218 22.9955Z" fill="#367CFF" stroke="#FFC700" stroke-linecap="round" stroke-linejoin="round"/>
<path d="M16.9888 10.9967H31.8412H16.9888ZM11.9323 19.9861L4.50684 7.12354L11.9323 19.9861ZM22.312 19.9995L14.8858 32.862L22.312 19.9995Z" fill="#36DA93"/>
<path d="M22.312 19.9995L14.8858 32.862M16.9888 10.9967H31.8412H16.9888ZM11.9323 19.9861L4.50684 7.12354L11.9323 19.9861Z" stroke="#FFC700" stroke-linecap="round" stroke-linejoin="round"/>
<path d="M27.7867 33.0006C30.6657 33.0006 32.9996 30.6667 32.9996 27.7876C32.9996 24.9086 30.6657 22.5747 27.7867 22.5747C24.9076 22.5747 22.5737 24.9086 22.5737 27.7876C22.5737 30.6667 24.9076 33.0006 27.7867 33.0006Z" fill="#E45047" stroke="#FFC700" stroke-linecap="round" stroke-linejoin="round"/>
</svg>
