<svg width="66" height="66" viewBox="0 0 66 66" fill="none" xmlns="http://www.w3.org/2000/svg">
<path d="M32.9996 13.8C36.5342 13.8 39.3996 10.9346 39.3996 7.4C39.3996 3.86538 36.5342 1 32.9996 1C29.465 1 26.5996 3.86538 26.5996 7.4C26.5996 10.9346 29.465 13.8 32.9996 13.8Z" stroke="#36DA93" stroke-width="2" stroke-linejoin="round"/>
<path d="M32.9996 65C36.5342 65 39.3996 62.1346 39.3996 58.6C39.3996 55.0653 36.5342 52.2 32.9996 52.2C29.465 52.2 26.5996 55.0653 26.5996 58.6C26.5996 62.1346 29.465 65 32.9996 65Z" stroke="#36DA93" stroke-width="2" stroke-linejoin="round"/>
<path d="M7.4 39.4C10.9346 39.4 13.8 36.5346 13.8 33C13.8 29.4654 10.9346 26.6 7.4 26.6C3.86538 26.6 1 29.4654 1 33C1 36.5346 3.86538 39.4 7.4 39.4Z" stroke="#36DA93" stroke-width="2" stroke-linejoin="round"/>
<path d="M58.6002 39.4C62.1348 39.4 65.0002 36.5346 65.0002 33C65.0002 29.4654 62.1348 26.6 58.6002 26.6C55.0656 26.6 52.2002 29.4654 52.2002 33C52.2002 36.5346 55.0656 39.4 58.6002 39.4Z" stroke="#36DA93" stroke-width="2" stroke-linejoin="round"/>
<path d="M54.2889 18.7757C52.4184 15.982 50.0185 13.5821 47.2249 11.7117M13.8009 32.9997H52.2009H13.8009ZM33.0009 13.7997V52.1997V13.7997ZM18.7769 11.7117C15.9832 13.5821 13.5833 15.982 11.7129 18.7757L18.7769 11.7117ZM11.7129 47.2237C13.5833 50.0173 15.9832 52.4172 18.7769 54.2877L11.7129 47.2237ZM47.2249 54.2877C50.0185 52.4172 52.4184 50.0173 54.2889 47.2237L47.2249 54.2877Z" stroke="#36DA93" stroke-width="2" stroke-linecap="round" stroke-linejoin="round"/>
</svg>
