<svg width="470" height="557" viewBox="0 0 470 557" fill="none" xmlns="http://www.w3.org/2000/svg">
<path d="M384.644 442.659C384.929 442.659 385.201 442.546 385.402 442.345C385.604 442.143 385.717 441.87 385.717 441.586V433.206C385.717 428.579 387.555 424.141 390.827 420.869C394.099 417.596 398.537 415.758 403.165 415.758C407.792 415.758 412.231 417.596 415.503 420.869C418.775 424.141 420.613 428.579 420.613 433.206V441.586C420.613 441.871 420.726 442.144 420.928 442.345C421.129 442.546 421.402 442.659 421.686 442.659C421.971 442.659 422.244 442.546 422.445 442.345C422.646 442.144 422.759 441.871 422.759 441.586V433.206C422.774 430.624 422.278 428.064 421.3 425.674C420.322 423.283 418.881 421.11 417.06 419.279C415.239 417.447 413.074 415.994 410.69 415.002C408.305 414.011 405.748 413.5 403.165 413.5C400.583 413.5 398.025 414.011 395.641 415.002C393.256 415.994 391.091 417.447 389.27 419.279C387.449 421.11 386.008 423.283 385.03 425.674C384.052 428.064 383.556 430.624 383.571 433.206V441.586C383.571 441.871 383.684 442.144 383.885 442.345C384.087 442.546 384.359 442.659 384.644 442.659Z" fill="#494945"/>
<path d="M359.23 434.345H381.808V556.203H359.23V434.345Z" fill="#0CBC8B"/>
<path opacity="0.21" d="M359.23 434.345H381.808V556.203H359.23V434.345Z" fill="#041E01"/>
<path d="M381.807 434.345H469.685V556.203H381.807V434.345Z" fill="#0CBC8B"/>
<path d="M407.224 442.659C407.509 442.659 407.781 442.546 407.983 442.345C408.184 442.143 408.297 441.87 408.297 441.586V433.206C408.283 430.906 408.724 428.626 409.594 426.497C410.465 424.367 411.748 422.431 413.37 420.8C414.991 419.168 416.92 417.874 419.044 416.99C421.167 416.107 423.445 415.652 425.745 415.652C428.046 415.652 430.323 416.107 432.447 416.99C434.571 417.874 436.499 419.168 438.121 420.8C439.742 422.431 441.026 424.367 441.896 426.497C442.767 428.626 443.208 430.906 443.194 433.206V441.586C443.19 441.729 443.216 441.871 443.268 442.005C443.32 442.138 443.399 442.259 443.499 442.362C443.599 442.464 443.718 442.546 443.85 442.601C443.982 442.657 444.124 442.685 444.267 442.685C444.41 442.685 444.552 442.657 444.683 442.601C444.815 442.546 444.935 442.464 445.035 442.362C445.135 442.259 445.213 442.138 445.266 442.005C445.318 441.871 445.343 441.729 445.34 441.586V433.206C445.354 430.624 444.858 428.064 443.88 425.674C442.902 423.283 441.461 421.11 439.64 419.279C437.819 417.447 435.654 415.994 433.27 415.002C430.885 414.011 428.328 413.5 425.745 413.5C423.163 413.5 420.606 414.011 418.221 415.002C415.836 415.994 413.671 417.447 411.85 419.279C410.029 421.11 408.588 423.283 407.61 425.674C406.632 428.064 406.136 430.624 406.151 433.206V441.586C406.151 441.871 406.264 442.144 406.465 442.345C406.667 442.546 406.94 442.659 407.224 442.659Z" fill="#494945"/>
<path opacity="0.11" d="M381.808 434.345L370.519 446.503L359.23 434.345H381.808Z" fill="#041E01"/>
<path opacity="0.11" d="M381.808 556.202L370.519 544.044L359.23 556.202H381.808Z" fill="#041E01"/>
<path d="M134.905 0H321.898C337.367 0 349.907 12.5402 349.907 28.0093V467.589C349.907 483.058 337.367 495.598 321.898 495.598H134.905C119.436 495.598 106.896 483.058 106.896 467.589V28.0093C106.896 12.5402 119.436 0 134.905 0Z" fill="#292A2E"/>
<path d="M134.994 8.74609H321.81C332.433 8.74609 341.043 17.3571 341.043 27.9792V466.965C341.043 477.587 332.433 486.198 321.81 486.198H134.994C124.372 486.198 115.761 477.587 115.761 466.965V27.9792C115.761 17.3571 124.372 8.74609 134.994 8.74609Z" fill="white"/>
<path d="M274.541 5.12988H182.265V14.6782C182.265 17.4163 183.352 20.0423 185.288 21.9786C187.224 23.915 189.85 25.0031 192.588 25.0038H264.215C266.954 25.0038 269.58 23.9159 271.517 21.9795C273.453 20.0431 274.541 17.4167 274.541 14.6782V5.12988Z" fill="#292A2E"/>
<g opacity="0.15">
<path opacity="0.15" d="M135.986 156.153H320.819C323.374 156.15 325.823 155.134 327.629 153.328C329.436 151.521 330.452 149.072 330.455 146.518V49.0136C330.452 46.459 329.436 44.0097 327.629 42.2033C325.823 40.3969 323.374 39.3808 320.819 39.3779H135.986C133.432 39.3808 130.983 40.3969 129.176 42.2033C127.37 44.0097 126.354 46.459 126.351 49.0136V146.518C126.354 149.072 127.37 151.521 129.176 153.328C130.983 155.134 133.432 156.15 135.986 156.153ZM320.819 40.6532C323.035 40.656 325.16 41.5378 326.727 43.1051C328.294 44.6724 329.176 46.7973 329.178 49.0136V146.518C329.176 148.734 328.294 150.859 326.727 152.426C325.16 153.994 323.035 154.875 320.819 154.878H135.986C133.77 154.876 131.645 153.994 130.077 152.427C128.51 150.859 127.628 148.734 127.626 146.518V49.0136C127.629 46.7971 128.51 44.672 130.078 43.1047C131.645 41.5373 133.77 40.6557 135.986 40.6532H320.819Z" fill="#292A2E"/>
</g>
<g opacity="0.43">
<path opacity="0.43" d="M224.051 66.7619C220.744 66.7619 218.063 64.081 218.063 60.774C218.063 57.467 220.744 54.7861 224.051 54.7861C227.358 54.7861 230.039 57.467 230.039 60.774C230.039 64.081 227.358 66.7619 224.051 66.7619Z" fill="#36DA93"/>
<path opacity="0.43" d="M204.922 66.7619C201.615 66.7619 198.934 64.081 198.934 60.774C198.934 57.467 201.615 54.7861 204.922 54.7861C208.229 54.7861 210.91 57.467 210.91 60.774C210.91 64.081 208.229 66.7619 204.922 66.7619Z" fill="#36DA93"/>
<path opacity="0.43" d="M185.793 66.7619C182.486 66.7619 179.806 64.081 179.806 60.774C179.806 57.467 182.486 54.7861 185.793 54.7861C189.1 54.7861 191.781 57.467 191.781 60.774C191.781 64.081 189.1 66.7619 185.793 66.7619Z" fill="#36DA93"/>
<path opacity="0.43" d="M166.665 66.7619C163.358 66.7619 160.678 64.081 160.678 60.774C160.678 57.467 163.358 54.7861 166.665 54.7861C169.972 54.7861 172.653 57.467 172.653 60.774C172.653 64.081 169.972 66.7619 166.665 66.7619Z" fill="#36DA93"/>
<path opacity="0.43" d="M147.537 66.7619C144.23 66.7619 141.549 64.081 141.549 60.774C141.549 57.467 144.23 54.7861 147.537 54.7861C150.844 54.7861 153.525 57.467 153.525 60.774C153.525 64.081 150.844 66.7619 147.537 66.7619Z" fill="#36DA93"/>
</g>
<g opacity="0.15">
<path opacity="0.15" d="M141.549 79.2988H228.402V80.5741H141.549V79.2988Z" fill="#292A2E"/>
</g>
<g opacity="0.15">
<path opacity="0.15" d="M141.549 92.0508H228.402V93.326H141.549V92.0508Z" fill="#292A2E"/>
</g>
<g opacity="0.15">
<path opacity="0.15" d="M182.263 104.804H228.402V106.079H182.263V104.804Z" fill="#292A2E"/>
</g>
<g opacity="0.15">
<path opacity="0.15" d="M140.911 139.589H170.574V130.142H140.911V139.589ZM169.299 138.313H142.186V131.417H169.299V138.313Z" fill="#292A2E"/>
</g>
<path d="M182.455 130.778H210.843V138.95H182.455V130.778Z" fill="#0CBC8B"/>
<path d="M251.112 71.6686C252.49 68.1438 257.069 65.9785 265.491 63.3311C265.757 63.2476 266.586 63.0448 267.423 62.8452C267.678 62.7844 267.943 62.7809 268.2 62.835C268.456 62.8891 268.698 62.9993 268.906 63.1579C269.115 63.3165 269.286 63.5194 269.407 63.752C269.528 63.9846 269.596 64.2411 269.605 64.503C269.605 64.503 270.626 68.9447 278.12 68.9447C286.983 68.9447 288.194 64.503 288.194 64.503C288.204 64.2411 288.272 63.9846 288.393 63.752C288.514 63.5194 288.685 63.3165 288.894 63.1579C289.102 62.9993 289.344 62.8891 289.6 62.835C289.857 62.7809 290.122 62.7844 290.377 62.8452C291.215 63.0448 292.043 63.2476 292.31 63.3311C300.732 65.9785 305.31 68.1438 306.688 71.6686C311.525 84.0384 318.893 122.943 318.893 122.943L307.92 125.822L298.694 93.1755C297.377 98.0718 296.958 113.027 296.958 113.027H286.447H271.354H261.125C261.125 113.027 260.423 98.0718 259.106 93.1755L249.88 125.822L238.907 122.943C238.907 122.943 246.276 84.0384 251.112 71.6686Z" fill="#36DA93"/>
<path opacity="0.48" d="M251.112 71.6686C252.49 68.1438 257.069 65.9785 265.491 63.3311C265.757 63.2476 266.586 63.0448 267.423 62.8452C267.678 62.7844 267.943 62.7809 268.2 62.835C268.456 62.8891 268.698 62.9993 268.906 63.1579C269.115 63.3165 269.286 63.5194 269.407 63.752C269.528 63.9846 269.596 64.2411 269.605 64.503C269.605 64.503 270.626 68.9447 278.12 68.9447C286.983 68.9447 288.194 64.503 288.194 64.503C288.204 64.2411 288.272 63.9846 288.393 63.752C288.514 63.5194 288.685 63.3165 288.894 63.1579C289.102 62.9993 289.344 62.8891 289.6 62.835C289.857 62.7809 290.122 62.7844 290.377 62.8452C291.215 63.0448 292.043 63.2476 292.31 63.3311C300.732 65.9785 305.31 68.1438 306.688 71.6686C311.525 84.0384 318.893 122.943 318.893 122.943L307.92 125.822L298.694 93.1755C297.377 98.0718 296.958 113.027 296.958 113.027H286.447H271.354H261.125C261.125 113.027 260.423 98.0718 259.106 93.1755L249.88 125.822L238.907 122.943C238.907 122.943 246.276 84.0384 251.112 71.6686Z" fill="white"/>
<g opacity="0.15">
<path opacity="0.15" d="M135.986 293.452H320.819C323.373 293.45 325.823 292.434 327.629 290.627C329.435 288.821 330.452 286.372 330.455 283.817V186.312C330.451 183.758 329.435 181.309 327.629 179.503C325.822 177.697 323.373 176.681 320.819 176.678H135.986C133.432 176.681 130.983 177.697 129.177 179.503C127.37 181.309 126.354 183.758 126.351 186.312V283.817C126.354 286.372 127.37 288.821 129.176 290.627C130.983 292.434 133.432 293.45 135.986 293.452ZM320.819 177.953C323.035 177.956 325.16 178.837 326.727 180.404C328.294 181.972 329.175 184.096 329.178 186.312V283.817C329.176 286.034 328.294 288.158 326.727 289.726C325.16 291.293 323.035 292.175 320.819 292.177H135.986C133.77 292.175 131.645 291.293 130.078 289.726C128.51 288.159 127.629 286.034 127.626 283.817V186.312C127.629 184.096 128.51 181.971 130.078 180.403C131.645 178.836 133.77 177.954 135.986 177.952L320.819 177.953Z" fill="#292A2E"/>
</g>
<g opacity="0.43">
<path opacity="0.43" d="M224.051 204.062C220.744 204.062 218.063 201.381 218.063 198.074C218.063 194.767 220.744 192.086 224.051 192.086C227.358 192.086 230.039 194.767 230.039 198.074C230.039 201.381 227.358 204.062 224.051 204.062Z" fill="#36DA93"/>
<path opacity="0.43" d="M204.922 204.062C201.615 204.062 198.934 201.381 198.934 198.074C198.934 194.767 201.615 192.086 204.922 192.086C208.229 192.086 210.91 194.767 210.91 198.074C210.91 201.381 208.229 204.062 204.922 204.062Z" fill="#36DA93"/>
<path opacity="0.43" d="M185.793 204.062C182.486 204.062 179.806 201.381 179.806 198.074C179.806 194.767 182.486 192.086 185.793 192.086C189.1 192.086 191.781 194.767 191.781 198.074C191.781 201.381 189.1 204.062 185.793 204.062Z" fill="#36DA93"/>
<path opacity="0.43" d="M166.665 204.062C163.358 204.062 160.678 201.381 160.678 198.074C160.678 194.767 163.358 192.086 166.665 192.086C169.972 192.086 172.653 194.767 172.653 198.074C172.653 201.381 169.972 204.062 166.665 204.062Z" fill="#36DA93"/>
<path opacity="0.43" d="M147.537 204.062C144.23 204.062 141.549 201.381 141.549 198.074C141.549 194.767 144.23 192.086 147.537 192.086C150.844 192.086 153.525 194.767 153.525 198.074C153.525 201.381 150.844 204.062 147.537 204.062Z" fill="#36DA93"/>
</g>
<g opacity="0.15">
<path opacity="0.15" d="M141.549 216.599H228.402V217.874H141.549V216.599Z" fill="#292A2E"/>
</g>
<g opacity="0.15">
<path opacity="0.15" d="M141.549 229.351H228.402V230.626H141.549V229.351Z" fill="#292A2E"/>
</g>
<g opacity="0.15">
<path opacity="0.15" d="M182.263 242.103H228.402V243.378H182.263V242.103Z" fill="#292A2E"/>
</g>
<g opacity="0.15">
<path opacity="0.15" d="M140.911 276.887H170.574V267.44H140.911V276.887ZM169.299 275.612H142.186V268.716H169.299V275.612Z" fill="#292A2E"/>
</g>
<path d="M182.455 268.078H210.843V276.25H182.455V268.078Z" fill="#0CBC8B"/>
<path opacity="0.48" d="M251.613 214.386C253.682 211.826 258.24 210.194 263.565 208.899C265.729 208.374 267.195 208.177 267.195 208.177C268.909 212.52 274.205 215.663 278.874 215.664H279.198C283.867 215.664 288.89 212.52 290.604 208.177C290.604 208.177 292.071 208.374 294.239 208.899C299.563 210.194 304.122 211.826 306.189 214.386C309.369 218.318 313.818 233.12 313.818 233.12L300.918 238.495C300.819 238.763 300.721 239.032 300.625 239.301C300.556 239.494 300.488 239.686 300.421 239.879C300.427 239.859 300.434 239.841 300.441 239.822C300.425 239.866 300.409 239.912 300.394 239.958C298.186 246.478 296.654 253.209 295.824 260.043C295.768 260.025 262.039 260.025 261.984 260.043C261.153 253.209 259.622 246.478 257.413 239.958C257.398 239.912 257.383 239.867 257.366 239.822C257.306 239.648 257.244 239.475 257.182 239.301C257.086 239.032 256.989 238.764 256.889 238.495L243.989 233.12C243.989 233.12 248.434 218.321 251.613 214.386Z" fill="white"/>
<path d="M251.613 214.386C253.682 211.826 258.24 210.194 263.565 208.899C265.729 208.374 267.195 208.177 267.195 208.177C268.909 212.52 274.205 215.663 278.874 215.664H279.198C283.867 215.664 288.89 212.52 290.604 208.177C290.604 208.177 292.071 208.374 294.239 208.899C299.563 210.194 304.122 211.826 306.189 214.386C309.369 218.318 313.818 233.12 313.818 233.12L300.918 238.495C300.819 238.763 300.721 239.032 300.625 239.301C300.556 239.494 300.488 239.686 300.421 239.879C300.427 239.859 300.434 239.841 300.441 239.822C300.425 239.866 300.409 239.912 300.394 239.958C298.186 246.478 296.654 253.209 295.824 260.043C295.768 260.025 262.039 260.025 261.984 260.043C261.153 253.209 259.622 246.478 257.413 239.958C257.398 239.912 257.383 239.867 257.366 239.822C257.306 239.648 257.244 239.475 257.182 239.301C257.086 239.032 256.989 238.764 256.889 238.495L243.989 233.12C243.989 233.12 248.434 218.321 251.613 214.386Z" fill="#36DA93"/>
<path opacity="0.48" d="M251.613 214.386C253.682 211.826 258.24 210.194 263.565 208.899C265.729 208.374 267.195 208.177 267.195 208.177C268.909 212.52 274.205 215.663 278.874 215.664H279.198C283.867 215.664 288.89 212.52 290.604 208.177C290.604 208.177 292.071 208.374 294.239 208.899C299.563 210.194 304.122 211.826 306.189 214.386C309.369 218.318 313.818 233.12 313.818 233.12L300.918 238.495C300.819 238.763 300.721 239.032 300.625 239.301C300.556 239.494 300.488 239.686 300.421 239.879C300.427 239.859 300.434 239.841 300.441 239.822C300.425 239.866 300.409 239.912 300.394 239.958C298.186 246.478 296.654 253.209 295.824 260.043C295.768 260.025 262.039 260.025 261.984 260.043C261.153 253.209 259.622 246.478 257.413 239.958C257.398 239.912 257.383 239.867 257.366 239.822C257.306 239.648 257.244 239.475 257.182 239.301C257.086 239.032 256.989 238.764 256.889 238.495L243.989 233.12C243.989 233.12 248.434 218.321 251.613 214.386Z" fill="white"/>
<g opacity="0.15">
<path opacity="0.15" d="M135.986 428.84H320.819C323.374 428.837 325.823 427.821 327.629 426.014C329.436 424.208 330.452 421.758 330.455 419.203V321.7C330.452 319.145 329.435 316.696 327.629 314.89C325.823 313.083 323.373 312.067 320.819 312.064H135.986C133.432 312.067 130.983 313.083 129.176 314.89C127.37 316.696 126.354 319.145 126.351 321.7V419.203C126.354 421.758 127.37 424.208 129.176 426.014C130.983 427.821 133.432 428.837 135.986 428.84ZM320.819 313.34C323.035 313.342 325.16 314.224 326.728 315.791C328.295 317.358 329.177 319.483 329.179 321.7V419.203C329.177 421.42 328.295 423.545 326.728 425.113C325.161 426.68 323.036 427.562 320.819 427.565H135.986C133.77 427.562 131.645 426.68 130.077 425.113C128.51 423.545 127.628 421.42 127.626 419.203V321.7C127.629 319.483 128.51 317.358 130.078 315.791C131.645 314.224 133.77 313.342 135.986 313.34H320.819Z" fill="#292A2E"/>
</g>
<g opacity="0.43">
<path opacity="0.43" d="M224.051 339.446C220.744 339.446 218.063 336.766 218.063 333.459C218.063 330.152 220.744 327.471 224.051 327.471C227.358 327.471 230.039 330.152 230.039 333.459C230.039 336.766 227.358 339.446 224.051 339.446Z" fill="#36DA93"/>
<path opacity="0.43" d="M204.922 339.446C201.615 339.446 198.934 336.766 198.934 333.459C198.934 330.152 201.615 327.471 204.922 327.471C208.229 327.471 210.91 330.152 210.91 333.459C210.91 336.766 208.229 339.446 204.922 339.446Z" fill="#36DA93"/>
<path opacity="0.43" d="M185.793 339.446C182.486 339.446 179.806 336.766 179.806 333.459C179.806 330.152 182.486 327.471 185.793 327.471C189.1 327.471 191.781 330.152 191.781 333.459C191.781 336.766 189.1 339.446 185.793 339.446Z" fill="#36DA93"/>
<path opacity="0.43" d="M166.665 339.446C163.358 339.446 160.678 336.766 160.678 333.459C160.678 330.152 163.358 327.471 166.665 327.471C169.972 327.471 172.653 330.152 172.653 333.459C172.653 336.766 169.972 339.446 166.665 339.446Z" fill="#36DA93"/>
<path opacity="0.43" d="M147.537 339.446C144.23 339.446 141.549 336.766 141.549 333.459C141.549 330.152 144.23 327.471 147.537 327.471C150.844 327.471 153.525 330.152 153.525 333.459C153.525 336.766 150.844 339.446 147.537 339.446Z" fill="#36DA93"/>
</g>
<g opacity="0.15">
<path opacity="0.15" d="M141.549 351.984H228.402V353.26H141.549V351.984Z" fill="#292A2E"/>
</g>
<g opacity="0.15">
<path opacity="0.15" d="M141.549 364.737H228.402V366.013H141.549V364.737Z" fill="#292A2E"/>
</g>
<g opacity="0.15">
<path opacity="0.15" d="M182.263 377.488H228.402V378.764H182.263V377.488Z" fill="#292A2E"/>
</g>
<g opacity="0.15">
<path opacity="0.15" d="M140.911 412.273H170.574V402.826H140.911V412.273ZM169.299 410.998H142.186V404.101H169.299V410.998Z" fill="#292A2E"/>
</g>
<path d="M182.455 403.464H210.843V411.636H182.455V403.464Z" fill="#0CBC8B"/>
<path opacity="0.48" d="M261.124 404.095C260.782 404.094 260.445 404.016 260.139 403.865C259.832 403.715 259.563 403.497 259.353 403.227C259.143 402.958 258.997 402.644 258.926 402.31C258.855 401.976 258.861 401.63 258.943 401.298C261.233 391.776 261.407 373.851 259.431 366.147L257.244 357.621L257.248 357.581C257.21 357.289 257.238 356.992 257.331 356.713C257.424 356.434 257.579 356.179 257.784 355.968C266.053 347.482 264.964 338.767 264.964 338.767H268.528C268.297 340.82 268.431 342.899 268.925 344.906C269.818 348.428 272.193 352.338 278.214 353.277C280.128 353.563 282.073 353.563 283.986 353.277C290.007 352.338 292.383 348.428 293.275 344.906C293.769 342.899 293.904 340.82 293.672 338.767H297.235C297.235 338.767 296.147 347.482 304.416 355.968C304.622 356.179 304.776 356.433 304.869 356.712C304.962 356.992 304.991 357.288 304.952 357.58L304.982 357.62L302.795 366.146C300.819 373.85 300.994 391.778 303.283 401.298C303.366 401.629 303.371 401.975 303.3 402.31C303.229 402.644 303.083 402.957 302.873 403.227C302.663 403.496 302.395 403.714 302.088 403.865C301.781 404.015 301.444 404.094 301.103 404.094L261.124 404.095Z" fill="white"/>
<path d="M261.124 404.095C260.782 404.094 260.445 404.016 260.139 403.865C259.832 403.715 259.563 403.497 259.353 403.227C259.143 402.958 258.997 402.644 258.926 402.31C258.855 401.976 258.861 401.63 258.943 401.298C261.233 391.776 261.407 373.851 259.431 366.147L257.244 357.621L257.248 357.581C257.21 357.289 257.238 356.992 257.331 356.713C257.424 356.434 257.579 356.179 257.784 355.968C266.053 347.482 264.964 338.767 264.964 338.767H268.528C268.297 340.82 268.431 342.899 268.925 344.906C269.818 348.428 272.193 352.338 278.214 353.277C280.128 353.563 282.073 353.563 283.986 353.277C290.007 352.338 292.383 348.428 293.275 344.906C293.769 342.899 293.904 340.82 293.672 338.767H297.235C297.235 338.767 296.147 347.482 304.416 355.968C304.622 356.179 304.776 356.433 304.869 356.712C304.962 356.992 304.991 357.288 304.952 357.58L304.982 357.62L302.795 366.146C300.819 373.85 300.994 391.778 303.283 401.298C303.366 401.629 303.371 401.975 303.3 402.31C303.229 402.644 303.083 402.957 302.873 403.227C302.663 403.496 302.395 403.714 302.088 403.865C301.781 404.015 301.444 404.094 301.103 404.094L261.124 404.095Z" fill="#36DA93"/>
<path opacity="0.48" d="M261.124 404.095C260.782 404.094 260.445 404.016 260.139 403.865C259.832 403.715 259.563 403.497 259.353 403.227C259.143 402.958 258.997 402.644 258.926 402.31C258.855 401.976 258.861 401.63 258.943 401.298C261.233 391.776 261.407 373.851 259.431 366.147L257.244 357.621L257.248 357.581C257.21 357.289 257.238 356.992 257.331 356.713C257.424 356.434 257.579 356.179 257.784 355.968C266.053 347.482 264.964 338.767 264.964 338.767H268.528C268.297 340.82 268.431 342.899 268.925 344.906C269.818 348.428 272.193 352.338 278.214 353.277C280.128 353.563 282.073 353.563 283.986 353.277C290.007 352.338 292.383 348.428 293.275 344.906C293.769 342.899 293.904 340.82 293.672 338.767H297.235C297.235 338.767 296.147 347.482 304.416 355.968C304.622 356.179 304.776 356.433 304.869 356.712C304.962 356.992 304.991 357.288 304.952 357.58L304.982 357.62L302.795 366.146C300.819 373.85 300.994 391.778 303.283 401.298C303.366 401.629 303.371 401.975 303.3 402.31C303.229 402.644 303.083 402.957 302.873 403.227C302.663 403.496 302.395 403.714 302.088 403.865C301.781 404.015 301.444 404.094 301.103 404.094L261.124 404.095Z" fill="white"/>
<path d="M54.6607 529.245C54.6607 529.245 57.5395 544.165 71.5116 544.999C85.4836 545.833 82.4537 556.962 82.4537 556.962H29.0605V530.286L54.6607 529.245Z" fill="#36DA93"/>
<path d="M38.192 257.027C38.192 257.027 38.3597 252.54 38.324 262.716C38.192 300.674 37.5333 344.029 35.924 369.399C33.3372 410.184 26.7041 538.769 26.7041 538.769L61.7895 538.474L95.7954 255.484L38.192 257.027Z" fill="#262626"/>
<path d="M77.8123 301.784C77.8123 301.784 79.2667 329.329 79.5339 335.795C80.1575 350.751 80.3742 366.235 80.3742 383.791L85.9043 337.768C85.9043 337.768 81.8599 323.346 77.8123 301.784Z" fill="#0A0A0A"/>
<path d="M117.122 529.245C117.122 529.245 120.001 544.165 133.973 544.999C147.945 545.833 144.915 556.962 144.915 556.962H91.5219V530.286L117.122 529.245Z" fill="#36DA93"/>
<path d="M134.11 259.974C134.11 259.974 137.218 389.701 136.763 396.042L123.714 537.784L89.2092 538.422L92.5714 390.913C92.5714 390.913 90.2001 350.223 80.3687 312.44C75.3386 293.048 72.3113 273.191 71.3343 253.181L134.11 259.974Z" fill="#262626"/>
<path d="M37.8105 257.024L37.6963 257.031C37.6963 257.031 37.7788 254.817 37.8105 257.024Z" fill="#333333"/>
<path d="M139.049 187.97C138.325 196.47 134.806 249.506 134.11 259.977H38.2281C37.6861 250.533 35.2543 209.238 33.2005 190.771C31.2399 173.148 27.3931 164.325 30.2127 159.116C34.8201 150.601 47.4104 145.68 55.9953 144.518C61.2377 143.808 69.1218 143.299 69.1218 143.299C69.1218 143.299 69.7901 156.802 85.7107 157.555C107.38 158.576 105.933 143.299 106.04 143.299C109.551 143.299 129.993 144.95 134.512 148.429C142.414 154.513 140.585 169.953 139.049 187.97Z" fill="#36DA93"/>
<path d="M140.374 177.315C140.455 177.315 140.533 177.284 140.593 177.228C140.652 177.172 140.688 177.096 140.692 177.015L141.466 163.516C141.471 163.431 141.442 163.349 141.386 163.285C141.329 163.222 141.25 163.184 141.166 163.179C141.082 163.175 141 163.204 140.937 163.26C140.874 163.316 140.835 163.395 140.829 163.479L140.056 176.978C140.051 177.062 140.08 177.145 140.136 177.208C140.192 177.271 140.271 177.31 140.356 177.314L140.374 177.315Z" fill="#0C0C0C"/>
<path d="M17.5026 259.418C14.6825 259.418 11.9043 258.736 9.40441 257.431C6.90448 256.126 4.75685 254.236 3.14431 251.923C1.53176 249.609 0.502029 246.94 0.142761 244.143C-0.216507 241.346 0.105324 238.504 1.08085 235.858C2.07107 233.171 25.2936 171.677 29.7142 160.283L62.4487 173.546C59.962 179.952 50.957 204.236 43.7214 223.797L55.7417 222.491L59.5253 257.296L19.3969 259.316C18.7678 259.384 18.1354 259.418 17.5026 259.418Z" fill="#36DA93"/>
<path d="M117.464 142.132C117.357 142.118 114.415 153.186 91.4632 151.464C75.5738 150.273 71.6971 139.457 71.335 139.457C73.0482 139.093 75.8302 138.715 76.5915 138.31C79.0935 136.966 80.9157 135.329 81.8333 131.817C82.5506 129.07 82.9172 118.496 82.9172 113.191L107.368 118.686C107.027 124.67 104.641 138.543 113.002 140.999C114.392 141.404 115.89 141.778 117.464 142.132Z" fill="#E98862"/>
<path d="M106.521 130.45C96.8814 131.21 84.4995 127.141 82.1474 114.281L80.0254 102.676C77.6732 89.8161 82.521 78.1553 94.6299 75.9409C106.738 73.7264 117.696 82.4962 120.047 95.3564L120.987 100.494C121.889 105.429 123.719 129.093 106.521 130.45Z" fill="#E98862"/>
<path d="M115.458 118.643C113.729 109.949 112.935 104.149 113.027 98.03C115.464 93.7579 114.823 88.8483 114.269 86.7288C115.947 87.7951 117.921 88.3012 119.905 88.1743C119.905 88.1743 115.875 71.9992 102.176 67.6468C99.6571 66.6662 93.2255 65.4279 84.6859 66.5992C77.4228 67.5952 59.5186 73.0264 56.9605 93.1828V93.1943C56.8763 93.8625 55.1567 112.434 51.732 121.345C47.1246 133.324 40.6567 137.046 40.8205 150.867C41.0316 168.644 73.7138 171.011 93.4238 169.68C113.134 168.35 124.14 161.869 124.284 149.057C124.441 134.703 118.921 136.036 115.458 118.643Z" fill="#0A0A0A"/>
<path d="M36.1832 191.125L38.5391 259.966L37.9018 259.988L35.546 191.147L36.1832 191.125Z" fill="#0C0C0C"/>
<path d="M244.178 112.436L233.874 124.606L234.512 122.516C234.704 121.838 234.632 121.112 234.309 120.484C233.987 119.857 233.439 119.375 232.775 119.137C232.428 119.026 232.062 118.986 231.699 119.021C231.337 119.056 230.985 119.165 230.666 119.34C230.346 119.516 230.066 119.754 229.842 120.041C229.618 120.329 229.455 120.659 229.362 121.011L224.652 138.748C224.057 140.987 224.361 143.37 225.499 145.388C226.636 147.407 228.517 148.901 230.741 149.551C233.322 150.307 236.07 150.275 238.633 149.458C241.196 148.642 243.457 147.079 245.125 144.969L252.667 135.399C253.068 134.91 253.288 134.296 253.29 133.663C253.291 133.03 253.073 132.416 252.673 131.925C252.304 131.489 251.804 131.182 251.248 131.05C250.691 130.919 250.107 130.968 249.581 131.192C249.573 131.162 249.559 131.133 249.54 131.109C249.52 131.084 249.496 131.063 249.469 131.048C249.441 131.033 249.411 131.023 249.379 131.02C249.348 131.017 249.316 131.02 249.286 131.03L250.683 129.264C251.111 128.746 251.338 128.091 251.32 127.419C251.303 126.748 251.043 126.105 250.589 125.61C250.124 125.134 249.499 124.849 248.836 124.808C248.172 124.768 247.517 124.976 246.998 125.392C246.994 125.364 246.986 125.336 246.972 125.311L247.546 124.587C247.92 124.091 248.125 123.487 248.13 122.866C248.134 122.244 247.939 121.638 247.573 121.136C247.125 120.596 246.483 120.252 245.785 120.179C245.087 120.106 244.388 120.31 243.838 120.746L243.801 120.709L248.13 115.596C248.353 115.334 248.519 115.029 248.619 114.701C248.72 114.372 248.752 114.027 248.715 113.685C248.677 113.343 248.57 113.013 248.401 112.714C248.231 112.415 248.003 112.154 247.729 111.947C247.185 111.563 246.516 111.401 245.857 111.491C245.198 111.582 244.598 111.92 244.178 112.436Z" fill="#E98862"/>
<path opacity="0.2" d="M243.944 121.03C243.934 121.057 243.919 121.083 243.899 121.105L239.637 126.023C239.59 126.063 239.531 126.086 239.469 126.086C239.408 126.087 239.348 126.065 239.301 126.024C239.255 125.984 239.224 125.928 239.215 125.867C239.207 125.806 239.22 125.744 239.254 125.692L243.517 120.775C243.556 120.73 243.609 120.701 243.668 120.692C243.726 120.682 243.786 120.694 243.837 120.724C243.887 120.755 243.926 120.802 243.945 120.858C243.964 120.914 243.964 120.975 243.942 121.03H243.944Z" fill="#0C0C0C"/>
<path opacity="0.2" d="M246.992 125.507C246.982 125.534 246.967 125.558 246.948 125.58L243.628 129.47C243.582 129.509 243.524 129.53 243.463 129.53C243.403 129.53 243.344 129.508 243.298 129.469C243.252 129.429 243.222 129.375 243.212 129.315C243.203 129.255 243.215 129.194 243.246 129.143L246.567 125.253C246.606 125.211 246.659 125.184 246.717 125.176C246.774 125.168 246.832 125.18 246.882 125.21C246.932 125.24 246.97 125.285 246.99 125.339C247.01 125.394 247.012 125.453 246.994 125.508L246.992 125.507Z" fill="#0C0C0C"/>
<path opacity="0.2" d="M249.584 131.36C249.573 131.388 249.557 131.415 249.536 131.437L247.925 133.239C247.905 133.27 247.879 133.296 247.848 133.316C247.817 133.335 247.782 133.348 247.745 133.353C247.709 133.358 247.671 133.355 247.636 133.344C247.601 133.333 247.569 133.315 247.541 133.29C247.514 133.266 247.492 133.235 247.477 133.202C247.463 133.168 247.455 133.131 247.456 133.094C247.457 133.058 247.466 133.021 247.482 132.988C247.498 132.955 247.521 132.926 247.55 132.903L249.161 131.101C249.202 131.061 249.254 131.036 249.311 131.029C249.368 131.022 249.425 131.035 249.474 131.065C249.522 131.094 249.56 131.14 249.58 131.193C249.6 131.247 249.601 131.305 249.584 131.36Z" fill="#0C0C0C"/>
<path d="M193.317 227.024C196.561 227.024 199.749 226.186 202.573 224.589C205.396 222.993 207.759 220.694 209.432 217.915L251.125 148.651L218.894 129.25L187.199 181.905L134.512 148.43L112.191 178.358L183.136 224.031C186.172 225.985 189.707 227.024 193.317 227.024Z" fill="#36DA93"/>
<path d="M138.516 195.608C138.587 195.608 138.656 195.584 138.712 195.54C138.769 195.496 138.808 195.434 138.825 195.365C138.842 195.295 138.835 195.222 138.805 195.157C138.776 195.092 138.725 195.039 138.662 195.006L129.558 190.309C129.483 190.27 129.395 190.263 129.315 190.289C129.234 190.314 129.167 190.371 129.128 190.446C129.089 190.521 129.082 190.609 129.108 190.689C129.133 190.77 129.19 190.837 129.265 190.876L138.369 195.573C138.414 195.596 138.465 195.608 138.516 195.608Z" fill="#0C0C0C"/>
<path d="M283.462 556.203H306.04L315.179 463.676H292.601L283.462 556.203Z" fill="#36DA93"/>
<path opacity="0.21" d="M283.462 556.203H306.04L315.179 463.676H292.601L283.462 556.203Z" fill="#0A0A0A"/>
<path d="M306.04 556.203H393.917L384.779 463.676H315.179L306.04 556.203Z" fill="#36DA93"/>
<path d="M349.978 501.536C352.551 501.536 355.099 501.029 357.476 500.044C359.853 499.059 362.013 497.616 363.833 495.797C365.652 493.977 367.095 491.817 368.08 489.44C369.065 487.062 369.572 484.514 369.571 481.941V473.56C369.575 473.417 369.55 473.275 369.497 473.142C369.445 473.008 369.367 472.887 369.267 472.785C369.167 472.682 369.047 472.601 368.915 472.545C368.783 472.49 368.642 472.461 368.499 472.461C368.356 472.461 368.214 472.49 368.082 472.545C367.95 472.601 367.831 472.682 367.731 472.785C367.631 472.887 367.552 473.008 367.5 473.142C367.448 473.275 367.422 473.417 367.426 473.56V481.94C367.426 486.567 365.588 491.005 362.315 494.278C359.043 497.55 354.605 499.388 349.978 499.388C345.35 499.388 340.912 497.55 337.64 494.278C334.368 491.005 332.529 486.567 332.529 481.94V473.56C332.529 473.276 332.416 473.003 332.215 472.801C332.014 472.6 331.741 472.487 331.456 472.487C331.172 472.487 330.899 472.6 330.697 472.801C330.496 473.003 330.383 473.276 330.383 473.56V481.94C330.389 487.135 332.455 492.116 336.128 495.79C339.802 499.463 344.782 501.53 349.978 501.536Z" fill="white"/>
<path opacity="0.08" d="M315.179 463.676L302.714 475.834L292.601 463.676H315.179Z" fill="#0A0A0A"/>
<path opacity="0.08" d="M306.041 556.203L295.957 544.045L283.463 556.203H306.041Z" fill="#0A0A0A"/>
</svg>
