<svg width="607" height="674" viewBox="0 0 607 674" fill="none" xmlns="http://www.w3.org/2000/svg">
<path opacity="0.05" d="M53.123 50.0293H180.755C182.929 50.0293 184.691 51.7916 184.691 53.9656V142.089C184.691 144.263 182.929 146.025 180.755 146.025H53.123C50.9491 146.025 49.1868 144.263 49.1868 142.089V53.9656C49.1868 51.7916 50.9491 50.0293 53.123 50.0293Z" fill="#292A2E"/>
<path opacity="0.05" d="M127.627 79.154C122.212 79.154 117.822 74.7642 117.822 69.3491C117.822 63.934 122.212 59.5442 127.627 59.5442C133.042 59.5442 137.432 63.934 137.432 69.3491C137.432 74.7642 133.042 79.154 127.627 79.154Z" fill="#292A2E"/>
<path opacity="0.05" d="M123.931 114.222L95.5068 82.5129C93.7324 80.5332 91.249 79.3329 88.5953 79.1724C85.9417 79.0119 83.3318 79.9041 81.3317 81.6555L49.1873 109.799V142.104C49.1873 143.144 49.6005 144.141 50.3359 144.877C51.0714 145.612 52.0689 146.025 53.109 146.025H88.0431" fill="#292A2E"/>
<path opacity="0.1" d="M88.0425 146.026L149.674 91.4062C151.495 89.7921 153.838 88.8897 156.271 88.8653C158.705 88.8408 161.065 89.6958 162.918 91.273L184.689 109.8V142.479C184.689 142.945 184.598 143.406 184.419 143.836C184.241 144.267 183.98 144.658 183.65 144.987C183.321 145.317 182.93 145.578 182.499 145.756C182.069 145.934 181.608 146.026 181.142 146.026H88.0425Z" fill="#292A2E"/>
<path opacity="0.05" d="M382.319 55.5757H497.117C499.072 55.5757 500.657 57.1607 500.657 59.1159V138.379C500.657 140.334 499.072 141.919 497.117 141.919H382.319C380.364 141.919 378.779 140.334 378.779 138.379V59.1159C378.779 57.1607 380.364 55.5757 382.319 55.5757Z" fill="#292A2E"/>
<path opacity="0.05" d="M449.331 81.7709C444.46 81.7709 440.512 77.8226 440.512 72.9521C440.512 68.0816 444.46 64.1333 449.331 64.1333C454.201 64.1333 458.149 68.0816 458.149 72.9521C458.149 77.8226 454.201 81.7709 449.331 81.7709Z" fill="#292A2E"/>
<path opacity="0.05" d="M446.006 113.313L420.441 84.793C418.845 83.0123 416.611 81.9327 414.224 81.7883C411.838 81.6439 409.49 82.4464 407.691 84.0217L378.779 109.336V138.388C378.779 139.324 379.15 140.221 379.812 140.883C380.473 141.544 381.371 141.916 382.306 141.916H413.727" fill="#292A2E"/>
<path opacity="0.1" d="M413.727 141.923L469.162 92.7985C470.8 91.3467 472.908 90.5351 475.096 90.5132C477.285 90.4912 479.408 91.2602 481.075 92.6789L500.652 109.343V138.736C500.652 139.582 500.316 140.394 499.718 140.992C499.12 141.59 498.308 141.926 497.462 141.926L413.727 141.923Z" fill="#292A2E"/>
<path opacity="0.05" d="M6.29285 280.016H204.196C207.566 280.016 210.299 282.748 210.299 286.119V422.762C210.299 426.133 207.566 428.866 204.196 428.866H6.29285C2.92207 428.866 0.189514 426.133 0.189514 422.762V286.119C0.189514 282.748 2.92207 280.016 6.29285 280.016Z" fill="#292A2E"/>
<path opacity="0.05" d="M121.817 325.177C113.42 325.177 106.614 318.37 106.614 309.974C106.614 301.577 113.42 294.771 121.817 294.771C130.213 294.771 137.02 301.577 137.02 309.974C137.02 318.37 130.213 325.177 121.817 325.177Z" fill="#292A2E"/>
<path opacity="0.05" d="M116.083 379.551L72.0094 330.385C69.2581 327.315 65.4076 325.454 61.2931 325.205C57.1785 324.956 53.1318 326.34 50.0306 329.055L0.188049 372.695V422.785C0.188293 424.398 0.829102 425.945 1.96959 427.085C3.11008 428.225 4.65686 428.866 6.26963 428.866H60.4372" fill="#292A2E"/>
<path opacity="0.1" d="M60.4386 428.866L156.005 344.174C158.829 341.671 162.462 340.272 166.235 340.234C170.008 340.196 173.668 341.522 176.542 343.967L210.299 372.699V423.37C210.299 424.092 210.157 424.807 209.881 425.475C209.604 426.142 209.199 426.748 208.689 427.259C208.178 427.77 207.572 428.175 206.905 428.451C206.237 428.727 205.522 428.87 204.8 428.87L60.4386 428.866Z" fill="#292A2E"/>
<path opacity="0.05" d="M393.321 409.346H594.311C597.735 409.346 600.51 412.121 600.51 415.544V554.319C600.51 557.743 597.735 560.518 594.311 560.518H393.321C389.897 560.518 387.122 557.743 387.122 554.319V415.544C387.122 412.121 389.897 409.346 393.321 409.346Z" fill="#292A2E"/>
<path opacity="0.05" d="M510.647 455.211C502.12 455.211 495.207 448.298 495.207 439.77C495.207 431.243 502.12 424.33 510.647 424.33C519.175 424.33 526.088 431.243 526.088 439.77C526.088 448.298 519.175 455.211 510.647 455.211Z" fill="#292A2E"/>
<path opacity="0.05" d="M504.824 510.434L460.063 460.494C457.268 457.377 453.358 455.488 449.179 455.235C445.001 454.982 440.891 456.387 437.741 459.145L387.121 503.465V554.337C387.121 555.148 387.281 555.951 387.591 556.7C387.902 557.45 388.356 558.131 388.93 558.704C389.503 559.278 390.184 559.732 390.934 560.043C391.683 560.353 392.486 560.513 393.297 560.513H448.312" fill="#292A2E"/>
<path opacity="0.1" d="M448.311 560.518L545.369 474.505C548.237 471.963 551.926 470.542 555.758 470.504C559.591 470.466 563.308 471.812 566.226 474.296L600.51 503.466V554.928C600.51 556.41 599.921 557.83 598.874 558.877C597.827 559.925 596.406 560.513 594.925 560.513L448.311 560.518Z" fill="#292A2E"/>
<path d="M82.7716 565.189C82.9899 565.189 83.1992 565.102 83.3535 564.948C84.5136 563.787 86.4033 542.51 91.4952 479.159C93.5798 453.237 95.5465 428.752 96.9831 413.872C97.0855 412.81 97.497 412.686 97.6329 412.645C99.5988 412.053 105.577 416.767 108.915 420.893C109.054 421.057 109.252 421.159 109.466 421.179C109.68 421.199 109.893 421.135 110.06 420.999C110.228 420.864 110.335 420.669 110.36 420.456C110.386 420.242 110.327 420.028 110.196 419.857C107.988 417.128 100.794 409.972 97.1589 411.066C96.4266 411.286 95.5166 411.923 95.3463 413.711C93.9097 428.603 91.9411 453.095 89.8565 479.024C86.7623 517.521 83.2574 561.135 82.1055 563.882C82.0174 564.005 81.9649 564.15 81.9538 564.301C81.9427 564.452 81.9734 564.603 82.0425 564.737C82.1116 564.872 82.2164 564.985 82.3455 565.064C82.4746 565.143 82.623 565.185 82.7743 565.185L82.7716 565.189Z" fill="#494949"/>
<path d="M99.0991 441.18C85.4405 430.232 80.9134 413.19 88.9875 403.118C97.0617 393.045 114.68 393.755 128.338 404.703C141.997 415.652 146.524 432.693 138.45 442.766C130.376 452.839 112.758 452.129 99.0991 441.18Z" fill="#0CBC8B"/>
<path opacity="0.2" d="M99.0991 441.18C85.4405 430.232 80.9134 413.19 88.9875 403.118C97.0617 393.045 114.68 393.755 128.338 404.703C141.997 415.652 146.524 432.693 138.45 442.766C130.376 452.839 112.758 452.129 99.0991 441.18Z" fill="white"/>
<path d="M134.62 445.327C134.698 445.327 134.775 445.305 134.841 445.263C134.907 445.221 134.959 445.161 134.992 445.09C135.025 445.019 135.038 444.94 135.028 444.863C135.018 444.785 134.986 444.712 134.937 444.652L96.0101 397.71C95.9404 397.626 95.8401 397.573 95.7313 397.563C95.6225 397.553 95.5142 397.586 95.43 397.656C95.3459 397.726 95.2929 397.826 95.2827 397.935C95.2725 398.044 95.306 398.152 95.3757 398.236L134.307 445.179C134.345 445.225 134.393 445.262 134.447 445.288C134.501 445.314 134.56 445.327 134.62 445.327Z" fill="white"/>
<path d="M74.2831 555.128C74.3757 555.128 74.4676 555.112 74.555 555.082C74.7611 555.01 74.9303 554.859 75.0253 554.663C75.1204 554.466 75.1334 554.24 75.0617 554.034L60.4414 511.986C60.0113 510.75 59.2779 509.642 58.3084 508.764C57.3389 507.885 56.1644 507.264 54.8926 506.958C53.6208 506.651 52.2924 506.668 51.029 507.008C49.7657 507.348 48.608 508 47.662 508.904L39.9318 516.288C39.8537 516.363 39.791 516.452 39.7474 516.551C39.7038 516.65 39.6801 516.756 39.6776 516.864C39.6752 516.973 39.6941 517.08 39.7332 517.181C39.7723 517.282 39.8309 517.374 39.9055 517.452C39.9802 517.53 40.0696 517.593 40.1685 517.636C40.2674 517.68 40.3739 517.703 40.482 517.706C40.59 517.708 40.6975 517.689 40.7983 517.65C40.8991 517.611 40.9911 517.553 41.0693 517.478L48.7995 510.094C49.5464 509.38 50.4606 508.866 51.4582 508.597C52.4557 508.329 53.5047 508.315 54.5089 508.558C55.5131 508.8 56.4405 509.291 57.2057 509.985C57.971 510.679 58.5497 511.554 58.8889 512.529L73.5109 554.584C73.5682 554.743 73.6731 554.88 73.8112 554.978C73.9494 555.075 74.1142 555.127 74.2831 555.128Z" fill="#494949"/>
<path d="M18.3278 539.564C8.20558 531.552 8.80719 513.93 19.6716 500.204C30.5359 486.478 47.5489 481.846 57.6712 489.859C67.7934 497.871 67.1917 515.493 56.3273 529.219C45.463 542.944 28.45 547.576 18.3278 539.564Z" fill="#0CBC8B"/>
<path d="M89.415 562.509C89.6002 562.509 89.7799 562.446 89.925 562.331C90.07 562.216 90.172 562.055 90.2144 561.875L114.752 459.276C114.919 458.576 115.276 457.937 115.784 457.427C116.291 456.917 116.93 456.557 117.628 456.387C118.327 456.216 119.059 456.242 119.745 456.46C120.43 456.679 121.041 457.083 121.512 457.626L129.076 466.367C129.219 466.532 129.421 466.634 129.639 466.65C129.856 466.666 130.072 466.594 130.237 466.452C130.402 466.309 130.504 466.106 130.519 465.888C130.535 465.671 130.464 465.456 130.321 465.29L122.758 456.55C122.089 455.776 121.22 455.203 120.246 454.892C119.272 454.581 118.231 454.544 117.238 454.787C116.245 455.029 115.338 455.54 114.616 456.265C113.895 456.99 113.388 457.899 113.15 458.893L88.6129 561.492C88.584 561.613 88.5829 561.739 88.6097 561.861C88.6365 561.982 88.6905 562.096 88.7676 562.194C88.8447 562.291 88.943 562.37 89.055 562.424C89.167 562.479 89.2897 562.507 89.4142 562.507L89.415 562.509Z" fill="#494949"/>
<path d="M98.4662 489.167C95.4834 471.918 103.377 456.151 116.098 453.952C128.819 451.752 141.549 463.952 144.532 481.201C147.515 498.45 139.62 514.217 126.9 516.416C114.179 518.616 101.449 506.416 98.4662 489.167Z" fill="#0CBC8B"/>
<path d="M82.7712 565.188C82.8052 565.189 82.8391 565.186 82.8727 565.182C83.0894 565.155 83.2865 565.044 83.4209 564.872C83.5554 564.7 83.616 564.481 83.5897 564.265L67.9208 437.045C67.7493 435.659 67.1815 434.353 66.2857 433.282C65.3898 432.212 64.2039 431.423 62.8705 431.009C61.537 430.596 60.1126 430.577 58.7684 430.954C57.4242 431.33 56.2173 432.087 55.2927 433.133L37.3834 453.417C37.3082 453.498 37.25 453.592 37.2121 453.696C37.1742 453.799 37.1574 453.909 37.1627 454.019C37.1681 454.129 37.1955 454.237 37.2432 454.336C37.2909 454.435 37.3581 454.524 37.4407 454.597C37.5233 454.669 37.6197 454.725 37.7241 454.76C37.8285 454.795 37.9389 454.808 38.0486 454.8C38.1584 454.791 38.2654 454.76 38.3631 454.71C38.4609 454.659 38.5475 454.59 38.6178 454.505L56.5272 434.221C57.2414 433.412 58.1741 432.826 59.2131 432.535C60.2521 432.243 61.3532 432.258 62.384 432.577C63.4148 432.896 64.3315 433.507 65.0238 434.334C65.7162 435.162 66.1547 436.172 66.2867 437.243L81.9555 564.468C81.9805 564.667 82.0771 564.85 82.2273 564.982C82.3774 565.115 82.5708 565.188 82.7712 565.188Z" fill="#494949"/>
<path d="M19.015 464.692C12.7665 453.396 20.1186 437.37 35.4364 428.897C50.7542 420.423 68.2372 422.712 74.4858 434.009C80.7344 445.305 73.3822 461.332 58.0644 469.805C42.7466 478.278 25.2636 475.989 19.015 464.692Z" fill="#0CBC8B"/>
<path opacity="0.2" d="M18.3278 539.564C8.20558 531.552 8.80719 513.93 19.6716 500.204C30.5359 486.478 47.5489 481.846 57.6712 489.859C67.7934 497.871 67.1917 515.493 56.3273 529.219C45.463 542.944 28.45 547.576 18.3278 539.564Z" fill="white"/>
<path opacity="0.5" d="M98.4662 489.167C95.4834 471.918 103.377 456.151 116.098 453.951C128.819 451.752 141.549 463.952 144.532 481.201C147.515 498.45 139.62 514.217 126.9 516.416C114.179 518.616 101.449 506.416 98.4662 489.167Z" fill="white"/>
<path opacity="0.5" d="M19.015 464.692C12.7665 453.396 20.1186 437.37 35.4364 428.897C50.7542 420.423 68.2372 422.712 74.4858 434.009C80.7344 445.305 73.3822 461.332 58.0644 469.805C42.7466 478.278 25.2636 475.989 19.015 464.692Z" fill="white"/>
<path d="M62.7314 673.137H102.814L109.456 544.891H56.0897L62.7314 673.137Z" fill="#292A2E"/>
<path opacity="0.3" d="M62.7314 673.137H102.814L109.456 544.891H56.0897L62.7314 673.137Z" fill="#47AFE4"/>
<path d="M18.3269 539.972C18.3891 539.972 18.4505 539.958 18.5064 539.931C18.5623 539.904 18.6113 539.864 18.6496 539.815L57.9921 490.11C58.0256 490.068 58.0506 490.019 58.0654 489.967C58.0802 489.915 58.0845 489.861 58.0783 489.807C58.0721 489.753 58.0553 489.701 58.029 489.654C58.0027 489.607 57.9674 489.565 57.925 489.532C57.8826 489.498 57.8341 489.473 57.7821 489.459C57.7301 489.444 57.6757 489.439 57.622 489.446C57.5683 489.452 57.5164 489.469 57.4691 489.495C57.4219 489.521 57.3803 489.557 57.3468 489.599L18.0024 539.304C17.9541 539.365 17.9239 539.438 17.9153 539.515C17.9066 539.592 17.9199 539.67 17.9537 539.74C17.9874 539.809 18.0401 539.868 18.1058 539.909C18.1716 539.951 18.2475 539.972 18.3251 539.972H18.3269Z" fill="white"/>
<path d="M21.6328 468.675C21.7198 468.675 21.8045 468.647 21.8748 468.596L72.224 431.833C72.2676 431.801 72.3045 431.761 72.3326 431.715C72.3607 431.668 72.3794 431.617 72.3877 431.564C72.396 431.51 72.3937 431.456 72.3809 431.403C72.3681 431.351 72.3451 431.301 72.3133 431.258C72.2814 431.214 72.2412 431.177 72.195 431.149C72.1489 431.121 72.0976 431.102 72.0442 431.094C71.9908 431.086 71.9363 431.088 71.8838 431.101C71.8313 431.114 71.7818 431.137 71.7382 431.168L21.3908 467.931C21.3205 467.982 21.2682 468.054 21.2415 468.137C21.2148 468.22 21.2149 468.309 21.242 468.392C21.2691 468.474 21.3217 468.546 21.3922 468.597C21.4628 468.648 21.5476 468.675 21.6346 468.675H21.6328Z" fill="white"/>
<path d="M128.946 515.883C128.982 515.883 129.017 515.879 129.052 515.87C129.158 515.841 129.248 515.773 129.302 515.678C129.357 515.584 129.372 515.471 129.343 515.366L113.317 455.316C113.304 455.263 113.28 455.213 113.248 455.168C113.215 455.124 113.174 455.087 113.127 455.059C113.08 455.03 113.028 455.012 112.973 455.004C112.919 454.997 112.863 455 112.81 455.014C112.757 455.029 112.707 455.053 112.664 455.087C112.621 455.121 112.584 455.163 112.557 455.211C112.531 455.258 112.514 455.311 112.507 455.366C112.501 455.421 112.506 455.476 112.522 455.529L128.549 515.578C128.572 515.665 128.623 515.743 128.695 515.798C128.767 515.853 128.855 515.883 128.946 515.883Z" fill="white"/>
<path d="M173.026 0.384033H403.255C422.301 0.384033 437.741 15.8242 437.741 34.8707V576.092C437.741 595.139 422.301 610.579 403.255 610.579H173.026C153.979 610.579 138.539 595.139 138.539 576.092V34.8707C138.539 15.8242 153.979 0.384033 173.026 0.384033Z" fill="#292A2E"/>
<path d="M173.132 11.1523H403.146C416.224 11.1523 426.826 21.7543 426.826 34.8326V575.325C426.826 588.403 416.224 599.005 403.146 599.005H173.132C160.054 599.005 149.452 588.403 149.452 575.325V34.8326C149.452 21.7543 160.054 11.1523 173.132 11.1523Z" fill="white"/>
<path d="M344.95 6.70044H231.334V18.4567C231.335 21.8279 232.675 25.0606 235.059 27.4441C237.443 29.8275 240.676 31.1665 244.047 31.1665H332.234C335.606 31.1665 338.84 29.827 341.224 27.4428C343.608 25.0586 344.947 21.8249 344.947 18.4531V6.70044H344.95Z" fill="#292A2E"/>
<path d="M244.007 122.107H332.274C343.594 122.107 352.771 131.283 352.771 142.603V230.872C352.771 242.191 343.594 251.368 332.274 251.368H244.007C232.687 251.368 223.511 242.191 223.511 230.872V142.603C223.511 131.283 232.687 122.107 244.007 122.107Z" fill="white"/>
<path d="M244.008 252.275H332.275C337.95 252.268 343.39 250.011 347.402 245.999C351.415 241.987 353.671 236.546 353.678 230.872V142.603C353.671 136.929 351.414 131.489 347.402 127.477C343.39 123.464 337.95 121.207 332.275 121.201H244.008C238.334 121.207 232.894 123.464 228.882 127.477C224.869 131.489 222.613 136.929 222.606 142.603V230.872C222.612 236.546 224.869 241.987 228.882 245.999C232.894 250.011 238.334 252.268 244.008 252.275ZM332.275 123.014C337.469 123.02 342.448 125.085 346.121 128.758C349.793 132.431 351.859 137.41 351.865 142.603V230.872C351.859 236.066 349.793 241.045 346.121 244.718C342.448 248.39 337.469 250.456 332.275 250.462H244.008C238.815 250.456 233.835 248.39 230.163 244.718C226.49 241.045 224.424 236.066 224.419 230.872V142.603C224.424 137.41 226.49 132.43 230.163 128.758C233.835 125.085 238.815 123.019 244.008 123.014H332.275Z" fill="#292A2E"/>
<path opacity="0.6" d="M249.877 357.096V373.991H374.707C376.947 373.991 379.096 373.101 380.68 371.516C382.264 369.932 383.154 367.784 383.154 365.543C383.154 363.303 382.264 361.154 380.68 359.57C379.096 357.986 376.947 357.096 374.707 357.096H249.877Z" fill="#47AFE4"/>
<path d="M201.579 374.899H374.704C375.94 374.911 377.167 374.678 378.312 374.214C379.458 373.749 380.5 373.062 381.379 372.192C382.257 371.322 382.954 370.287 383.43 369.146C383.906 368.005 384.151 366.781 384.151 365.544C384.151 364.308 383.906 363.084 383.43 361.943C382.954 360.802 382.257 359.766 381.379 358.897C380.5 358.027 379.458 357.34 378.312 356.875C377.167 356.41 375.94 356.177 374.704 356.189H201.579C199.114 356.214 196.758 357.21 195.023 358.962C193.289 360.713 192.316 363.079 192.316 365.544C192.316 368.01 193.289 370.375 195.023 372.127C196.758 373.879 199.114 374.875 201.579 374.899ZM374.704 358.002C375.701 357.991 376.691 358.178 377.616 358.552C378.54 358.926 379.382 359.48 380.091 360.182C380.8 360.883 381.363 361.718 381.747 362.639C382.131 363.559 382.329 364.547 382.329 365.544C382.329 366.542 382.131 367.529 381.747 368.45C381.363 369.37 380.8 370.205 380.091 370.907C379.382 371.608 378.54 372.162 377.616 372.536C376.691 372.91 375.701 373.097 374.704 373.087H201.579C199.593 373.065 197.696 372.261 196.299 370.848C194.902 369.436 194.119 367.53 194.119 365.544C194.119 363.558 194.902 361.652 196.299 360.24C197.696 358.828 199.593 358.024 201.579 358.002H374.704Z" fill="#292A2E"/>
<path opacity="0.8" d="M227.622 431.605H348.664C355.796 431.605 361.578 437.387 361.578 444.52V479.195C361.578 486.328 355.796 492.11 348.664 492.11H227.622C220.49 492.11 214.708 486.328 214.708 479.195V444.52C214.708 437.387 220.49 431.605 227.622 431.605Z" fill="#36DA93"/>
<path d="M214.711 479.198V485.14C214.711 488.564 216.072 491.848 218.493 494.27C220.915 496.691 224.199 498.051 227.623 498.051H348.664C352.089 498.051 355.373 496.691 357.794 494.27C360.216 491.848 361.576 488.564 361.576 485.14V479.198C361.576 482.622 360.216 485.906 357.794 488.328C355.373 490.749 352.089 492.109 348.664 492.109H227.623C224.199 492.109 220.915 490.749 218.493 488.327C216.072 485.906 214.712 482.622 214.711 479.198Z" fill="#36DA93"/>
<path d="M296.212 479.732C296.719 479.732 297.208 479.551 297.593 479.221L311.447 467.348C311.659 467.167 311.833 466.945 311.959 466.697C312.085 466.448 312.161 466.178 312.182 465.9C312.204 465.622 312.17 465.342 312.084 465.078C311.997 464.813 311.859 464.567 311.678 464.356C311.496 464.144 311.275 463.97 311.027 463.844C310.778 463.718 310.507 463.642 310.229 463.621C309.952 463.599 309.672 463.633 309.407 463.719C309.142 463.806 308.897 463.944 308.686 464.125L296.392 474.661L267.786 443.362C267.598 443.157 267.371 442.99 267.119 442.872C266.866 442.754 266.593 442.687 266.315 442.674C266.037 442.662 265.758 442.704 265.496 442.799C265.235 442.894 264.994 443.04 264.788 443.228C264.582 443.416 264.416 443.642 264.298 443.895C264.18 444.147 264.113 444.42 264.1 444.699C264.088 444.977 264.13 445.255 264.225 445.517C264.32 445.779 264.466 446.02 264.654 446.226L294.645 479.042C294.844 479.26 295.086 479.434 295.356 479.552C295.626 479.671 295.918 479.732 296.212 479.732Z" fill="white"/>
<path d="M288.141 219.199C288.381 219.199 288.611 219.103 288.781 218.933C288.951 218.763 289.047 218.533 289.047 218.292V155.182C289.047 154.942 288.951 154.711 288.781 154.541C288.611 154.371 288.381 154.276 288.141 154.276C287.9 154.276 287.67 154.371 287.5 154.541C287.33 154.711 287.234 154.942 287.234 155.182V218.292C287.234 218.533 287.33 218.763 287.5 218.933C287.67 219.103 287.9 219.199 288.141 219.199Z" fill="#292A2E"/>
<path d="M256.587 187.644H319.696C319.937 187.644 320.167 187.549 320.337 187.379C320.507 187.209 320.603 186.978 320.603 186.738C320.603 186.497 320.507 186.267 320.337 186.097C320.167 185.927 319.937 185.831 319.696 185.831H256.587C256.346 185.831 256.116 185.927 255.946 186.097C255.776 186.267 255.68 186.497 255.68 186.738C255.68 186.978 255.776 187.209 255.946 187.379C256.116 187.549 256.346 187.644 256.587 187.644Z" fill="#292A2E"/>
<path d="M472.753 227.358L462.637 211.621C462.414 211.276 462.123 210.98 461.78 210.753C461.437 210.526 461.05 210.373 460.645 210.304C460.24 210.235 459.825 210.25 459.426 210.35C459.027 210.45 458.654 210.632 458.329 210.885C457.744 211.369 457.361 212.053 457.252 212.805C457.143 213.556 457.317 214.321 457.74 214.951L459.909 218.327L448.217 210.845C446.932 209.99 444.808 209.763 443.944 211.269C443.574 211.826 443.404 212.493 443.461 213.16C443.518 213.827 443.8 214.454 444.26 214.94C444.249 214.95 444.239 214.961 444.231 214.973C444.225 214.983 444.221 214.994 444.218 215.006L442.235 213.688C441.868 213.444 441.451 213.285 441.014 213.223C440.578 213.16 440.133 213.196 439.712 213.328C439.291 213.459 438.905 213.683 438.582 213.983C438.258 214.282 438.006 214.65 437.843 215.06C437.599 215.71 437.586 216.424 437.805 217.083C438.025 217.742 438.464 218.305 439.049 218.679L439.893 219.24C439.887 219.272 439.887 219.305 439.893 219.336C439.235 219.09 438.511 219.085 437.85 219.324C437.189 219.562 436.635 220.027 436.286 220.637C435.923 221.315 435.83 222.105 436.025 222.849C436.219 223.593 436.687 224.237 437.334 224.651L439.43 226.043C439.386 226.044 439.344 226.056 439.305 226.077C439.267 226.098 439.235 226.128 439.211 226.164C439.183 226.208 439.17 226.259 439.172 226.311C438.525 226.254 437.877 226.411 437.329 226.758C436.78 227.105 436.36 227.623 436.134 228.231C435.91 228.876 435.91 229.577 436.134 230.221C436.358 230.866 436.793 231.416 437.368 231.782L455.047 243.533C457.52 245.177 460.428 246.045 463.398 246.026C466.368 246.006 469.264 245.1 471.716 243.423C473.829 241.978 475.295 239.765 475.803 237.255C476.31 234.745 475.82 232.137 474.435 229.983L472.753 227.358Z" fill="#E98862"/>
<g opacity="0.2">
<path opacity="0.2" d="M455.792 222.402C455.752 222.461 455.69 222.503 455.62 222.517C455.55 222.531 455.477 222.518 455.417 222.479L444.307 215.349C444.246 215.31 444.203 215.248 444.187 215.178C444.172 215.107 444.185 215.033 444.224 214.972C444.264 214.911 444.325 214.868 444.396 214.853C444.467 214.837 444.541 214.851 444.602 214.89L455.713 222.019C455.743 222.038 455.769 222.063 455.79 222.093C455.81 222.122 455.825 222.155 455.833 222.191C455.84 222.226 455.841 222.262 455.835 222.297C455.828 222.332 455.815 222.366 455.795 222.396L455.792 222.402Z" fill="#0C0C0C"/>
</g>
<g opacity="0.2">
<path opacity="0.2" d="M452.786 227.392C452.746 227.451 452.684 227.493 452.614 227.507C452.544 227.522 452.471 227.508 452.411 227.469L440.012 219.507C439.981 219.487 439.955 219.462 439.934 219.433C439.914 219.403 439.899 219.37 439.891 219.335C439.884 219.3 439.883 219.263 439.89 219.228C439.896 219.193 439.91 219.159 439.929 219.129C439.97 219.07 440.032 219.029 440.102 219.013C440.172 218.998 440.245 219.01 440.307 219.047L452.71 227.006C452.74 227.025 452.766 227.05 452.787 227.08C452.807 227.109 452.822 227.142 452.83 227.177C452.837 227.213 452.838 227.249 452.832 227.284C452.825 227.32 452.812 227.353 452.792 227.384L452.786 227.392Z" fill="#0C0C0C"/>
</g>
<g opacity="0.2">
<path opacity="0.2" d="M449.56 232.809C449.52 232.868 449.458 232.91 449.389 232.924C449.319 232.938 449.246 232.925 449.186 232.886L439.294 226.542C439.233 226.503 439.191 226.441 439.175 226.37C439.16 226.299 439.173 226.225 439.212 226.164C439.251 226.103 439.313 226.06 439.384 226.045C439.455 226.03 439.529 226.043 439.59 226.082L449.482 232.427C449.512 232.446 449.538 232.471 449.559 232.501C449.579 232.53 449.594 232.563 449.601 232.599C449.609 232.634 449.609 232.67 449.603 232.705C449.596 232.741 449.583 232.775 449.563 232.805L449.56 232.809Z" fill="#0C0C0C"/>
</g>
<path d="M560.066 201.832L513.252 277.019L542.66 272.236L474.226 219.358L449.289 251.633L517.723 304.51C519.841 306.147 522.261 307.35 524.844 308.051C527.427 308.753 530.123 308.939 532.777 308.598C535.432 308.258 537.994 307.398 540.316 306.067C542.639 304.737 544.676 302.962 546.313 300.844C546.434 300.686 546.555 300.526 546.675 300.364L547.134 299.73L598.893 227.856L560.066 201.832Z" fill="#36DA93"/>
<path d="M573.292 640.251C573.292 640.251 569.922 657.719 553.566 658.692C537.211 659.666 540.758 672.696 540.758 672.696H603.254V641.469L573.292 640.251Z" fill="#36DA93"/>
<path d="M592.57 321.598C592.57 321.598 592.373 316.347 592.415 328.259C592.57 372.69 593.341 423.441 595.225 453.139C598.253 500.881 606.018 651.399 606.018 651.399L564.948 651.054L525.141 319.793L592.57 321.598Z" fill="#262626"/>
<path d="M546.189 373.993C546.189 373.993 544.487 406.236 544.172 413.806C543.441 431.312 543.189 449.437 543.189 469.988L536.715 416.114C536.715 416.114 541.452 399.235 546.189 373.993Z" fill="#0A0A0A"/>
<path d="M500.175 640.251C500.175 640.251 496.805 657.719 480.451 658.692C464.096 659.666 467.642 672.696 467.642 672.696H530.143V641.469L500.175 640.251Z" fill="#36DA93"/>
<path d="M480.291 325.048C480.291 325.048 476.653 476.904 477.186 484.326L492.459 650.249L532.851 650.995L528.914 478.324C528.914 478.324 531.691 430.694 543.199 386.465C549.087 363.765 552.631 340.521 553.774 317.098L480.291 325.048Z" fill="#262626"/>
<path d="M593.012 321.593L593.146 321.601C593.146 321.601 593.053 319.01 593.012 321.593Z" fill="#333333"/>
<path d="M474.507 240.758C475.354 250.709 479.474 312.791 480.289 325.049H592.523C593.157 313.991 596.003 265.655 598.408 244.038C600.703 223.409 601.014 212.733 597.713 206.635C592.319 196.665 581.775 191.256 571.725 189.895C565.588 189.065 556.359 188.47 556.359 188.47C556.359 188.47 555.579 204.279 536.944 205.157C511.578 206.354 513.271 188.469 513.146 188.469C509.037 188.469 488.291 190.403 483 194.474C471.692 203.172 472.709 219.671 474.507 240.758Z" fill="#36DA93"/>
<path d="M502.857 189.04C502.975 189.025 506.211 201.211 531.487 199.315C548.984 198.005 553.25 186.094 553.651 186.094C551.764 185.694 548.701 185.279 547.863 184.83C546.416 184.163 545.142 183.171 544.141 181.931C543.139 180.691 542.438 179.236 542.091 177.681C541.301 174.656 540.898 163.013 540.898 157.172L513.976 163.222C514.351 169.811 516.978 185.087 507.771 187.791C506.239 188.237 504.589 188.649 502.857 189.04Z" fill="#E98862"/>
<path d="M514.906 176.176C525.52 177.014 539.155 172.533 541.745 158.372L544.081 145.592C546.672 131.431 541.333 118.591 528 116.153C514.667 113.714 502.602 123.371 500.012 137.532L498.977 143.19C497.984 148.629 495.969 174.683 514.906 176.176Z" fill="#E98862"/>
<path d="M505.067 163.175C506.97 153.602 507.845 147.216 507.744 140.477C505.06 135.77 505.766 130.367 506.376 128.034C504.528 129.207 502.355 129.764 500.17 129.624C500.17 129.624 504.612 111.814 519.692 107.021C522.466 105.941 529.548 104.578 538.951 105.868C546.95 106.965 566.664 112.945 569.481 135.143V135.156C569.572 135.892 571.467 156.343 575.241 166.153C580.317 179.343 587.437 183.442 587.256 198.66C587.026 218.06 539.855 220.087 529.33 219.377C507.623 217.912 495.506 210.775 495.35 196.668C495.176 180.859 501.254 182.328 505.067 163.175Z" fill="#0A0A0A"/>
<path d="M323.272 98.3496H468.905C471.385 98.3496 473.396 100.36 473.396 102.841V222.218C473.396 224.698 471.385 226.709 468.905 226.709H323.272C320.791 226.709 318.781 224.698 318.781 222.218V102.841C318.781 100.36 320.791 98.3496 323.272 98.3496Z" fill="#47AFE4"/>
<path opacity="0.3" d="M323.272 98.3496H468.905C471.385 98.3496 473.396 100.36 473.396 102.841V222.218C473.396 224.698 471.385 226.709 468.905 226.709H323.272C320.791 226.709 318.781 224.698 318.781 222.218V102.841C318.781 100.36 320.791 98.3496 323.272 98.3496Z" fill="white"/>
<path opacity="0.8" d="M419.471 149.3C413.292 149.3 408.283 144.291 408.283 138.112C408.283 131.933 413.292 126.924 419.471 126.924C425.65 126.924 430.659 131.933 430.659 138.112C430.659 144.291 425.65 149.3 419.471 149.3Z" fill="white"/>
<path opacity="0.5" d="M404.065 190.421L371.633 154.239C369.608 151.98 366.774 150.61 363.746 150.427C360.717 150.244 357.739 151.262 355.456 153.261L318.778 185.375V226.71H363.116" fill="white"/>
<path opacity="0.8" d="M363.116 226.71L433.442 164.386C435.52 162.545 438.193 161.515 440.97 161.487C443.746 161.459 446.44 162.435 448.554 164.234L473.396 185.375V226.71" fill="white"/>
<path d="M323.273 227.391H468.905C470.274 227.389 471.587 226.844 472.555 225.875C473.524 224.907 474.069 223.594 474.071 222.225V102.841C474.07 101.471 473.525 100.157 472.557 99.1879C471.588 98.2186 470.275 97.6728 468.905 97.6699H323.273C321.902 97.6716 320.588 98.2169 319.618 99.1862C318.649 100.156 318.103 101.47 318.101 102.841V222.218C318.102 223.589 318.648 224.904 319.617 225.874C320.587 226.844 321.902 227.39 323.273 227.391ZM468.905 99.0294C469.915 99.0318 470.882 99.4343 471.596 100.149C472.309 100.863 472.711 101.831 472.712 102.841V222.218C472.71 223.227 472.308 224.194 471.594 224.907C470.881 225.621 469.914 226.022 468.905 226.025H323.273C322.263 226.024 321.295 225.622 320.58 224.909C319.866 224.195 319.463 223.228 319.461 222.218V102.841C319.462 101.83 319.865 100.861 320.579 100.147C321.294 99.4325 322.263 99.0306 323.273 99.0294H468.905Z" fill="#292A2E"/>
<path d="M383.875 227.358L373.758 211.621C373.536 211.275 373.244 210.979 372.901 210.752C372.558 210.525 372.172 210.372 371.766 210.303C371.361 210.234 370.946 210.25 370.547 210.35C370.148 210.45 369.775 210.632 369.45 210.884C368.865 211.368 368.481 212.052 368.372 212.804C368.263 213.555 368.437 214.32 368.86 214.951L371.03 218.326L359.338 210.844C358.053 209.989 355.928 209.763 355.065 211.268C354.695 211.826 354.525 212.492 354.582 213.159C354.639 213.826 354.921 214.454 355.381 214.94C355.37 214.95 355.36 214.961 355.351 214.972C355.346 214.983 355.342 214.994 355.339 215.005L353.356 213.687C352.989 213.443 352.572 213.284 352.135 213.222C351.699 213.16 351.254 213.196 350.833 213.327C350.412 213.459 350.026 213.682 349.703 213.982C349.379 214.282 349.127 214.65 348.964 215.059C348.72 215.71 348.707 216.424 348.926 217.083C349.146 217.741 349.585 218.305 350.17 218.678L351.014 219.239C351.009 219.271 351.009 219.304 351.014 219.336C350.356 219.089 349.633 219.085 348.972 219.323C348.311 219.561 347.757 220.027 347.408 220.636C347.046 221.314 346.952 222.104 347.147 222.848C347.341 223.593 347.809 224.236 348.456 224.65L350.552 226.043C350.508 226.044 350.466 226.055 350.428 226.076C350.389 226.097 350.357 226.127 350.333 226.163C350.305 226.207 350.292 226.258 350.294 226.31C349.647 226.253 348.999 226.41 348.451 226.757C347.902 227.104 347.482 227.622 347.256 228.23C347.032 228.875 347.032 229.576 347.255 230.221C347.479 230.865 347.914 231.415 348.49 231.782L366.169 243.532C368.642 245.177 371.55 246.045 374.52 246.025C377.49 246.005 380.386 245.099 382.838 243.423C384.951 241.977 386.417 239.764 386.925 237.254C387.432 234.745 386.942 232.136 385.557 229.982L383.875 227.358Z" fill="#E98862"/>
<g opacity="0.2">
<path opacity="0.2" d="M366.917 222.401C366.877 222.46 366.815 222.502 366.745 222.516C366.675 222.531 366.602 222.517 366.542 222.478L355.432 215.349C355.401 215.329 355.375 215.304 355.355 215.275C355.334 215.245 355.32 215.212 355.312 215.177C355.305 215.142 355.304 215.106 355.31 215.07C355.317 215.035 355.33 215.001 355.35 214.971C355.369 214.941 355.394 214.915 355.424 214.894C355.453 214.874 355.486 214.86 355.521 214.852C355.556 214.844 355.593 214.844 355.628 214.85C355.663 214.856 355.697 214.87 355.727 214.889L366.838 222.018C366.868 222.038 366.894 222.063 366.915 222.092C366.935 222.122 366.95 222.155 366.958 222.19C366.965 222.225 366.966 222.261 366.96 222.296C366.953 222.332 366.94 222.365 366.92 222.395L366.917 222.401Z" fill="#0C0C0C"/>
</g>
<g opacity="0.2">
<path opacity="0.2" d="M363.91 227.391C363.871 227.451 363.809 227.492 363.739 227.507C363.669 227.521 363.596 227.507 363.536 227.468L351.136 219.506C351.106 219.487 351.08 219.462 351.059 219.432C351.038 219.403 351.024 219.369 351.016 219.334C351.009 219.299 351.008 219.263 351.014 219.227C351.021 219.192 351.034 219.158 351.054 219.128C351.095 219.069 351.157 219.028 351.227 219.013C351.297 218.998 351.37 219.01 351.432 219.047L363.832 227.002C363.862 227.022 363.888 227.047 363.909 227.076C363.93 227.106 363.944 227.139 363.952 227.174C363.959 227.209 363.96 227.246 363.954 227.281C363.947 227.317 363.934 227.35 363.914 227.38L363.91 227.391Z" fill="#0C0C0C"/>
</g>
<g opacity="0.2">
<path opacity="0.2" d="M360.68 232.809C360.64 232.868 360.579 232.909 360.509 232.924C360.439 232.938 360.366 232.924 360.307 232.886L350.415 226.541C350.354 226.502 350.311 226.44 350.296 226.369C350.28 226.299 350.293 226.225 350.333 226.164C350.372 226.103 350.434 226.06 350.504 226.045C350.575 226.029 350.649 226.043 350.71 226.082L360.601 232.426C360.631 232.445 360.658 232.471 360.678 232.5C360.699 232.529 360.714 232.563 360.721 232.598C360.729 232.633 360.73 232.669 360.723 232.705C360.717 232.74 360.703 232.774 360.684 232.804L360.68 232.809Z" fill="#0C0C0C"/>
</g>
<path d="M479.69 198.255L424.999 276.138L453.781 272.236L385.348 219.358L360.41 251.633L428.845 304.51C433.073 307.778 438.415 309.254 443.721 308.622C449.026 307.99 453.872 305.299 457.213 301.129L457.63 300.608L517.079 226.297L479.69 198.255Z" fill="#36DA93"/>
</svg>
