<svg width="153" height="227" viewBox="0 0 153 227" fill="none" xmlns="http://www.w3.org/2000/svg">
<path d="M38.1133 227C59.1279 227 76.1832 210.051 76.1832 189.167V151.333H38.1133C17.0988 151.333 0.043457 168.283 0.043457 189.167C0.043457 210.051 17.0988 227 38.1133 227Z" fill="#0ACF83"/>
<path d="M0.043457 113.5C0.043457 92.616 17.0988 75.6667 38.1133 75.6667H76.1832V151.333H38.1133C17.0988 151.333 0.043457 134.384 0.043457 113.5Z" fill="#A259FF"/>
<path d="M0.043457 37.8333C0.043457 16.9493 17.0988 0 38.1133 0H76.1832V75.6667H38.1133C17.0988 75.6667 0.043457 58.7173 0.043457 37.8333Z" fill="#F24E1E"/>
<path d="M76.1831 0H114.253C135.268 0 152.323 16.9493 152.323 37.8333C152.323 58.7173 135.268 75.6667 114.253 75.6667H76.1831V0Z" fill="#FF7262"/>
<path d="M152.323 113.5C152.323 134.384 135.268 151.333 114.253 151.333C93.2384 151.333 76.1831 134.384 76.1831 113.5C76.1831 92.616 93.2384 75.6667 114.253 75.6667C135.268 75.6667 152.323 92.616 152.323 113.5Z" fill="#1ABCFE"/>
</svg>
