<svg width="32" height="32" viewBox="0 0 32 32" fill="none" xmlns="http://www.w3.org/2000/svg">
<path d="M7.185 21.5886C10.6543 21.825 11.3957 21.7393 11.3957 22.4414C11.3957 23.87 6.71357 23.8743 6.71357 22.55C6.71429 22.1864 6.94857 21.8786 7.185 21.5886ZM9.18143 13.2571C6.875 13.2571 6.77071 16.4336 9.12786 16.4336C11.45 16.4336 11.3929 13.2571 9.18143 13.2571ZM32 3.42857V28.5714C32 29.4807 31.6388 30.3528 30.9958 30.9958C30.3528 31.6388 29.4807 32 28.5714 32H3.42857C2.51926 32 1.64719 31.6388 1.00421 30.9958C0.361223 30.3528 0 29.4807 0 28.5714L0 3.42857C0 2.51926 0.361223 1.64719 1.00421 1.00421C1.64719 0.361224 2.51926 0 3.42857 0H28.5714C29.4807 0 30.3528 0.361224 30.9958 1.00421C31.6388 1.64719 32 2.51926 32 3.42857ZM15.7857 8.37929C15.7857 9.41429 16.3843 10.0136 17.4186 10.0136C18.4714 10.0136 19.0707 9.41429 19.0707 8.37929C19.0707 7.34429 18.4729 6.78571 17.42 6.78571C16.3857 6.78571 15.7857 7.34571 15.7857 8.37929ZM14.2271 11.6429H10.6879C8.90214 11.175 4.86214 11.2964 4.86214 14.9821C4.86214 16.325 5.53357 17.2679 6.42286 17.7043C5.30214 18.7307 4.77143 19.2143 4.77143 19.9C4.77143 20.3907 4.97071 20.8443 5.57 21.0971C4.93429 21.6971 4.57 22.1314 4.57 22.9486C4.57143 24.3821 5.82357 25.2143 9.10857 25.2143C12.2671 25.2143 14.0993 24.035 14.0993 21.9479C14.0993 19.3286 12.0829 19.425 7.33 19.135L7.92857 18.1757C9.14286 18.5143 13.2279 18.6207 13.2279 15.145C13.2279 14.31 12.8829 13.7293 12.5564 13.3114L14.2264 13.1843L14.2271 11.6429ZM20.2514 19.4886L19.3229 19.3614C19.05 19.325 19.0321 19.29 19.0321 18.9979V11.4657H15.275L15.0757 12.935C16.2007 13.3314 16.29 13.2821 16.29 13.6614V19C16.29 19.4014 16.2679 19.3271 15.0757 19.4907V20.9236H20.2486L20.2514 19.4886ZM27.4286 20.2143L26.9379 18.6164C24.0143 19.7143 24.2343 17.73 24.2343 17.4214V13.0843H26.9379V11.2693H24.3793C24.1743 11.2693 24.2364 11.4493 24.2364 8.51H22.5093C22.31 10.4886 21.675 11.2871 20.0807 11.4686V13.0843C21.5429 13.0843 21.4964 13.0236 21.4964 13.2657V18.0207C21.4964 20.0721 22.3129 20.9429 24.4729 20.9429C25.505 20.9429 26.6479 20.5979 27.4286 20.2143Z" fill="#0A1E8A"/>
</svg>
