<svg width="32" height="37" viewBox="0 0 32 37" fill="none" xmlns="http://www.w3.org/2000/svg">
<path d="M0 0L2.87856 32.5626L15.9978 36.2873L29.0647 32.5626L32 0H0ZM25.9507 7.72414L25.7413 9.78274L25.6672 10.6332H10.341L10.6987 14.7417H25.3139L25.17 15.8016L24.2453 26.365L24.1712 27.0716L16.0153 29.3221V29.3351H15.9629L15.9498 29.3395V29.3351H15.9455L7.71978 27.0672L7.22257 20.7605H11.1959L11.4794 23.9531L15.9455 25.1612H15.9629L20.4116 23.9575L20.9088 18.7848H15.9498V18.7804H7.01322L6.01881 7.72414L5.94466 6.6643H26.0204L25.9507 7.72414Z" fill="#F19408"/>
</svg>
