<svg width="165" height="231" viewBox="0 0 165 231" fill="none" xmlns="http://www.w3.org/2000/svg">
<path d="M164.916 45.3692L149.924 212.29L82.5331 230.858L15.3282 212.315L0.351562 45.3692H164.916Z" fill="#E44D26"/>
<path d="M82.6338 216.665L137.089 201.661L149.9 59.0191H82.6338V216.665Z" fill="#F16529"/>
<path d="M53.4886 99.9703H82.6329V79.495H30.9736L31.4665 84.9881L36.5303 141.413H82.6329V120.937H55.3715L53.4886 99.9703ZM58.1318 151.651H37.4508L40.3369 183.8L82.5381 195.443L82.6329 195.417V174.114L82.5426 174.138L59.5987 167.98L58.1318 151.651Z" fill="#EBEBEB"/>
<path d="M15.6621 6.10352e-05H26.1316V10.2803H35.709V6.10352e-05H46.1792V31.1313H35.7097V20.7068H26.1323V31.1313H15.6628V6.10352e-05H15.6621ZM59.9463 10.3239H50.7308V6.10352e-05H79.6391V10.3239H70.4178V31.1313H59.9482V10.3239H59.9476H59.9463ZM84.2268 6.10352e-05H95.1434L101.859 10.9388L108.567 6.10352e-05H119.488V31.1313H109.061V15.701L101.859 26.7698H101.678L94.4706 15.701V31.1313H84.2268V6.10352e-05ZM124.699 6.10352e-05H135.171V20.8414H149.894V31.1313H124.698V6.10352e-05H124.699Z" fill="black"/>
<path d="M82.5622 141.413H107.931L105.539 167.968L82.5615 174.131V195.433L124.796 183.8L125.106 180.34L129.948 126.436L130.45 120.937H82.5622V141.413ZM82.5622 99.9203V99.9703H132.325L132.738 95.3684L133.677 84.9881L134.169 79.495H82.5622V99.9209V99.9203Z" fill="white"/>
</svg>
