<svg width="127" height="127" viewBox="0 0 127 127" fill="none" xmlns="http://www.w3.org/2000/svg">
<g filter="url(#filter0_d_149_861)">
<path d="M112.216 0H14.7844C11.925 0.0026257 9.18346 1.13968 7.16157 3.16157C5.13968 5.18346 4.00263 7.92499 4 10.7844L4 108.216C4.00263 111.075 5.13968 113.817 7.16157 115.838C9.18346 117.86 11.925 118.997 14.7844 119H112.216C115.075 118.997 117.817 117.86 119.838 115.838C121.86 113.817 122.997 111.075 123 108.216V10.7844C122.997 7.92499 121.86 5.18346 119.838 3.16157C117.817 1.13968 115.075 0.0026257 112.216 0ZM43.7658 23.1405C45.616 23.2095 47.3675 23.9929 48.6521 25.3263C49.9367 26.6596 50.6544 28.439 50.6544 30.2905C50.6544 32.1419 49.9367 33.9213 48.6521 35.2547C47.3675 36.588 45.616 37.3715 43.7658 37.4404V37.5743C41.8525 37.5743 40.0175 36.8142 38.6645 35.4612C37.3115 34.1082 36.5515 32.2732 36.5515 30.3599C36.5515 28.4465 37.3115 26.6115 38.6645 25.2585C40.0175 23.9056 41.8525 23.1455 43.7658 23.1455V23.1405ZM92.4368 91.6399C91.0081 91.8073 89.56 91.6577 88.1956 91.2018C86.8312 90.7458 85.5841 89.9948 84.5431 89.002C83.502 88.0092 82.6926 86.7992 82.1724 85.458C81.6522 84.1168 81.4341 82.6774 81.5335 81.2423V81.2274C81.5335 79.3333 81.8062 77.5087 82.3119 75.7782L82.2772 75.917L85.7976 63.2981C86.1447 62.2023 86.343 60.9379 86.343 59.6339V59.4504V59.4603C86.4228 58.5889 86.3107 57.7105 86.0148 56.8869C85.7188 56.0634 85.2462 55.3146 84.63 54.6932C84.0138 54.0718 83.269 53.5929 82.4479 53.29C81.6269 52.9871 80.7495 52.8677 79.8774 52.9401H79.8972C74.8744 52.9401 71.5672 56.5448 69.8566 63.5014L63.0091 90.9457H51.0447L53.1867 82.3183C51.8312 85.0121 49.7839 87.2973 47.2546 88.9396C44.7254 90.5819 41.805 91.5224 38.7926 91.6647H38.7579C37.3267 91.84 35.8744 91.6899 34.5093 91.2257C33.1442 90.7614 31.9015 89.995 30.8738 88.9836C29.8462 87.9722 29.0601 86.7418 28.5743 85.3842C28.0884 84.0267 27.9153 82.5769 28.0678 81.1431L28.0628 81.1828C28.0826 79.2639 28.3157 77.4145 28.7421 75.6344L28.7074 75.803L34.1615 53.5401H25.6977L28.2661 44.1193H48.5953L40.5628 75.8526C40.1463 77.3054 39.8785 78.9763 39.819 80.7068V80.7415C39.819 82.7744 40.8107 83.3694 42.3825 83.7165C45.1689 83.7103 47.8845 82.838 50.1533 81.2203C52.4222 79.6026 54.132 77.3196 55.046 74.6874L55.0758 74.5932L60.3316 53.5202H51.7884L54.3668 44.2234H72.8118L70.4317 54.9334C71.9078 51.8411 74.1223 49.1596 76.88 47.1258C79.6376 45.0919 82.8535 43.7682 86.2439 43.2714L86.3579 43.2565C88.1217 43.2655 89.8633 43.6497 91.4673 44.3834C93.0712 45.1171 94.5007 46.1836 95.6609 47.5121C96.821 48.8406 97.6853 50.4008 98.1963 52.0889C98.7074 53.777 98.8534 55.5546 98.6248 57.3035L98.6298 57.239V57.2588C98.6298 60.0405 98.1935 62.718 97.3902 65.2318L97.4398 65.0484L94.0185 77.3252C93.7282 78.3833 93.5618 79.4715 93.5227 80.568V80.5977C93.5227 82.7496 94.4152 83.7958 95.9721 83.7958C97.529 83.7958 99.6165 82.6058 101.922 76.0608L106.598 77.8458C103.846 87.584 98.7835 91.6003 92.4666 91.6003L92.4368 91.6399Z" fill="#EA0505"/>
</g>
<defs>
<filter id="filter0_d_149_861" x="0" y="0" width="127" height="127" filterUnits="userSpaceOnUse" color-interpolation-filters="sRGB">
<feFlood flood-opacity="0" result="BackgroundImageFix"/>
<feColorMatrix in="SourceAlpha" type="matrix" values="0 0 0 0 0 0 0 0 0 0 0 0 0 0 0 0 0 0 127 0" result="hardAlpha"/>
<feOffset dy="4"/>
<feGaussianBlur stdDeviation="2"/>
<feComposite in2="hardAlpha" operator="out"/>
<feColorMatrix type="matrix" values="0 0 0 0 0.916667 0 0 0 0 0.0190972 0 0 0 0 0.0190972 0 0 0 1 0"/>
<feBlend mode="normal" in2="BackgroundImageFix" result="effect1_dropShadow_149_861"/>
<feBlend mode="normal" in="SourceGraphic" in2="effect1_dropShadow_149_861" result="shape"/>
</filter>
</defs>
</svg>
