<svg width="24" height="24" viewBox="0 0 24 24" fill="none" xmlns="http://www.w3.org/2000/svg">
<path d="M1.52383 5.42175C-0.600919 8.47275 -0.335419 12.4373 1.28533 15.6758C1.32433 15.7575 1.36333 15.8318 1.40233 15.906C1.42558 15.957 1.45333 16.0073 1.48033 16.0545C1.49384 16.083 1.50964 16.1103 1.52758 16.1363C1.55458 16.191 1.58233 16.2375 1.60933 16.2885L1.76533 16.554C1.79233 16.605 1.82383 16.6515 1.85533 16.6988C1.91008 16.7925 1.97608 16.8863 2.03083 16.98C2.05783 17.019 2.08183 17.058 2.10883 17.097C2.20633 17.2493 2.31208 17.3978 2.42158 17.5425C2.49958 17.6483 2.57758 17.7533 2.66008 17.859C2.68708 17.8943 2.71858 17.9333 2.74633 17.9722L2.96908 18.2415C2.99608 18.273 3.02008 18.3083 3.05083 18.339C3.14833 18.456 3.25408 18.5738 3.35533 18.687C3.35533 18.6908 3.35908 18.6908 3.35908 18.6945C3.48808 18.855 3.62833 19.0028 3.78508 19.1363C3.86683 19.218 3.94558 19.3005 4.03108 19.3785L4.13233 19.476C4.24183 19.5818 4.35133 19.683 4.46833 19.7843C4.47208 19.7843 4.47208 19.7843 4.47583 19.788L4.53058 19.8353C4.63183 19.9253 4.73758 20.0153 4.84333 20.097L4.96858 20.2028C5.05033 20.2695 5.14033 20.3355 5.22658 20.4023L5.36308 20.508C5.45683 20.5785 5.55433 20.6445 5.64808 20.715C5.68333 20.7383 5.71858 20.766 5.75758 20.7855L5.78458 20.8088L6.06583 20.9963L6.18658 21.0743C6.33133 21.168 6.47983 21.258 6.62383 21.348C6.66658 21.3675 6.70558 21.3908 6.74458 21.4148C6.85408 21.477 6.96733 21.54 7.07683 21.5985C7.13533 21.6338 7.19758 21.6608 7.26058 21.6923C7.33483 21.735 7.41283 21.774 7.49083 21.8175C7.51149 21.822 7.53125 21.8298 7.54933 21.8408L7.64308 21.888C7.76383 21.9465 7.88908 22.005 8.01808 22.0598C8.04133 22.0718 8.06908 22.0793 8.09608 22.095C8.24083 22.1573 8.38108 22.2203 8.53333 22.2788C8.56483 22.2863 8.60008 22.3058 8.63458 22.3178C8.77108 22.3688 8.91208 22.419 9.04858 22.47L9.09583 22.4858C9.25183 22.5405 9.40033 22.587 9.55708 22.638C9.59233 22.6455 9.63133 22.6613 9.66658 22.6695C9.82708 22.7205 9.97933 22.7753 10.1391 22.806C20.4006 24.6773 23.3811 16.638 23.3811 16.638C20.8768 19.8998 16.4316 20.7593 12.2211 19.8023C12.0651 19.767 11.9128 19.716 11.7523 19.6695C11.5648 19.6148 11.3736 19.5525 11.1861 19.4895L11.1238 19.4663C10.9911 19.419 10.8583 19.3688 10.7256 19.3178C10.6903 19.302 10.6513 19.2908 10.6161 19.275C10.4705 19.2176 10.326 19.1576 10.1826 19.095C10.1511 19.083 10.1278 19.068 10.0963 19.056C9.97558 19.0013 9.85408 18.9465 9.73333 18.888C9.69733 18.8712 9.66205 18.853 9.62758 18.8333C9.53383 18.7905 9.44008 18.7395 9.34633 18.6923C9.28408 18.6608 9.22108 18.63 9.16258 18.5985L8.82283 18.411C8.78642 18.3866 8.7486 18.3643 8.70958 18.3443C8.56108 18.2543 8.41633 18.1643 8.27233 18.075C8.23333 18.0518 8.19433 18.024 8.15533 17.997C8.04966 17.9302 7.94538 17.8612 7.84258 17.79C7.80782 17.7667 7.77404 17.7419 7.74133 17.7158C7.63996 17.6489 7.5409 17.5786 7.44433 17.505C7.40158 17.4698 7.35808 17.4383 7.31158 17.4038C7.22533 17.337 7.13608 17.271 7.04983 17.1968L6.92908 17.103C6.81583 17.013 6.70633 16.9193 6.59683 16.8218C6.58483 16.8098 6.57358 16.8022 6.55783 16.7903L6.21433 16.4775L6.11308 16.3838C6.03133 16.2975 5.94883 16.2195 5.86333 16.1378L5.76583 16.0365C5.66005 15.9314 5.55726 15.8234 5.45758 15.7125L5.44183 15.6968C5.33608 15.5835 5.23483 15.462 5.12908 15.345C5.10208 15.3135 5.07808 15.2783 5.05108 15.2475L4.82458 14.97C4.70806 14.8228 4.59478 14.673 4.48483 14.5208C2.14858 11.3333 1.30483 6.9345 3.17233 3.3255L1.52383 5.42175ZM8.10958 2.8515C6.57058 5.0625 6.65608 8.01525 7.85533 10.3515C8.05483 10.7423 8.28133 11.121 8.53108 11.484C8.76133 11.8125 9.01558 12.2025 9.32383 12.4688C9.42958 12.5895 9.54658 12.7073 9.66733 12.828L9.75733 12.918C9.87058 13.0275 9.98758 13.137 10.1091 13.242L10.1248 13.2578C10.2576 13.3748 10.3941 13.488 10.5388 13.5975C10.5703 13.6208 10.6011 13.6485 10.6326 13.6718C10.7736 13.7775 10.9138 13.8825 11.0586 13.9845L11.0743 13.9965C11.1366 14.0393 11.2033 14.0828 11.2738 14.1255C11.3008 14.145 11.3323 14.1683 11.3638 14.184C11.4696 14.2545 11.5746 14.3168 11.6803 14.3835C11.6998 14.391 11.7118 14.3993 11.7276 14.4068C11.8176 14.4615 11.9188 14.5125 12.0126 14.5628C12.0441 14.5823 12.0748 14.598 12.1101 14.6175C12.1768 14.649 12.2428 14.6843 12.3051 14.7188L12.3403 14.7308C12.4731 14.7975 12.6096 14.8598 12.7468 14.922C12.8875 14.9837 13.0295 15.0422 13.1728 15.0975C13.2238 15.1133 13.2703 15.1328 13.3176 15.1485C13.4188 15.1875 13.5283 15.2228 13.6303 15.258L13.7668 15.3008C13.9153 15.348 14.0638 15.4065 14.2161 15.4298C22.1383 16.7423 23.9698 10.6448 23.9698 10.6448C22.3176 13.02 19.1263 14.1525 15.7198 13.2698C15.5676 13.2308 15.4191 13.1835 15.2706 13.137C15.2233 13.125 15.1806 13.11 15.1341 13.098C15.0328 13.059 14.9233 13.0238 14.8258 12.9885L14.6811 12.9338C14.5678 12.8865 14.4546 12.8475 14.3451 12.7973C14.3098 12.7815 14.2783 12.774 14.2551 12.7583C14.1147 12.6969 13.9755 12.6331 13.8373 12.567L13.6303 12.4575L13.5133 12.399C13.4231 12.3527 13.3345 12.3032 13.2478 12.2505C13.2266 12.2396 13.2059 12.2278 13.1856 12.2153C13.0798 12.1485 12.9711 12.0863 12.8691 12.0158C12.8351 11.9974 12.8025 11.9766 12.7716 11.9535L12.5646 11.8208C12.4198 11.7195 12.2796 11.61 12.1348 11.508C12.1057 11.4796 12.0743 11.4535 12.0411 11.43C10.5448 10.2503 9.36508 8.64075 8.80258 6.8205C8.21308 4.926 8.34583 2.80125 9.36133 1.0785L8.10958 2.8515ZM13.6491 0.93C12.7431 2.262 12.6531 3.918 13.2778 5.38725C13.9416 6.94575 15.3013 8.17275 16.8831 8.75025C16.9498 8.77725 17.0121 8.7975 17.0781 8.82075L17.1643 8.84775C17.2581 8.87475 17.3518 8.91 17.4456 8.934C21.8203 9.77775 23.0038 6.684 23.3248 6.231C22.2816 7.72725 20.5356 8.0865 18.3913 7.56675C18.0017 7.46355 17.6223 7.32471 17.2581 7.152C16.8788 6.966 16.5178 6.74505 16.1796 6.492C14.2573 5.03475 13.0701 2.26125 14.3241 0L13.6491 0.93Z" fill="#E98862"/>
</svg>
