<svg width="32" height="29" viewBox="0 0 32 29" fill="none" xmlns="http://www.w3.org/2000/svg">
<path d="M9.74563 10.0711L15.8169 6.56583C15.8916 6.52271 15.9763 6.5 16.0625 6.5C16.1487 6.5 16.2335 6.52271 16.3081 6.56583L22.3794 10.0711C22.4541 10.1142 22.516 10.1762 22.5592 10.2509C22.6023 10.3256 22.625 10.4102 22.625 10.4965V17.507C22.625 17.6824 22.5313 17.8445 22.3794 17.9324L16.3081 21.4376C16.2335 21.4807 16.1487 21.5034 16.0625 21.5034C15.9763 21.5034 15.8916 21.4807 15.8169 21.4376L9.74563 17.9324C9.67096 17.8892 9.60896 17.8272 9.56585 17.7526C9.52273 17.6779 9.50002 17.5932 9.5 17.507V10.4963C9.50013 10.3208 9.59375 10.1588 9.74563 10.071" fill="#8080F2"/>
<path d="M31.8021 13.4272L24.5404 0.793752C24.2766 0.337001 23.7894 0 23.2619 0H8.7382C8.2107 0 7.7232 0.337001 7.45945 0.793752L0.197813 13.3993C-0.0659376 13.8562 -0.0659376 14.4328 0.197813 14.8897L7.45945 27.4196C7.7232 27.8763 8.2107 28.1098 8.7382 28.1098H23.2617C23.7892 28.1098 24.2766 27.8833 24.5402 27.4264L31.802 14.8762C32.066 14.4195 32.066 13.8839 31.802 13.4272H31.8021ZM25.789 19.5022C25.789 19.6878 25.6772 19.8597 25.5162 19.9527L16.2663 25.2893C16.1867 25.3349 16.0965 25.3589 16.0047 25.3589C15.9129 25.3589 15.8227 25.3349 15.7431 25.2893L6.48608 19.9527C6.3252 19.8597 6.21257 19.6879 6.21257 19.502V8.82852C6.21257 8.64264 6.32358 8.47102 6.48458 8.37802L15.734 3.04126C15.8136 2.99555 15.9037 2.9715 15.9955 2.9715C16.0873 2.9715 16.1775 2.99555 16.2571 3.04126L25.5146 8.37802C25.6757 8.47102 25.789 8.64264 25.789 8.82852V19.502V19.5022Z" fill="#4B32C3"/>
</svg>
