<svg width="34" height="35" viewBox="0 0 34 35" fill="none" xmlns="http://www.w3.org/2000/svg">
<path d="M33 1L29 30L17 34L5 30L1 1H33Z" fill="#DA3636" stroke="white" stroke-width="2" stroke-linecap="round" stroke-linejoin="round"/>
<path d="M8 9H14V25L10 23L8 9ZM26 9H21C20.7348 9 20.4804 9.10536 20.2929 9.29289C20.1054 9.48043 20 9.73478 20 10V16C20 16.2652 20.1054 16.5196 20.2929 16.7071C20.4804 16.8946 20.7348 17 21 17H23.846C23.9891 17 24.1306 17.0308 24.2608 17.0902C24.3911 17.1496 24.507 17.2362 24.6009 17.3443C24.6947 17.4524 24.7643 17.5794 24.8049 17.7166C24.8454 17.8539 24.856 17.9983 24.836 18.14L24 24L20 25" fill="#DA3636"/>
<path d="M26 9H21C20.7348 9 20.4804 9.10536 20.2929 9.29289C20.1054 9.48043 20 9.73478 20 10V16C20 16.2652 20.1054 16.5196 20.2929 16.7071C20.4804 16.8946 20.7348 17 21 17H23.846C23.9891 17 24.1306 17.0308 24.2608 17.0902C24.3911 17.1496 24.507 17.2362 24.6009 17.3443C24.6947 17.4524 24.7643 17.5794 24.8049 17.7166C24.8454 17.8539 24.856 17.9983 24.836 18.14L24 24L20 25M8 9H14V25L10 23L8 9Z" stroke="white" stroke-width="2" stroke-linecap="round" stroke-linejoin="round"/>
</svg>
