<svg width="544" height="545" viewBox="0 0 544 545" fill="none" xmlns="http://www.w3.org/2000/svg">
<path d="M102.596 360.072H235.258C240.659 360.072 245.037 364.451 245.037 369.852V441.795C245.037 447.196 240.659 451.574 235.258 451.574H102.596C97.1946 451.574 92.8161 447.196 92.8161 441.795V369.852C92.8161 364.451 97.1946 360.072 102.596 360.072Z" fill="white"/>
<path opacity="0.1" d="M102.596 360.072H235.258C240.659 360.072 245.037 364.451 245.037 369.852V441.795C245.037 447.196 240.659 451.574 235.258 451.574H102.596C97.1946 451.574 92.8161 447.196 92.8161 441.795V369.852C92.8161 364.451 97.1946 360.072 102.596 360.072Z" fill="#36DA93"/>
<path d="M134.746 409.133H146.492C147.207 409.133 147.787 409.713 147.787 410.428V436.464C147.787 437.179 147.207 437.759 146.492 437.759H134.746C134.031 437.759 133.451 437.179 133.451 436.464V410.428C133.451 409.713 134.031 409.133 134.746 409.133Z" fill="white"/>
<path d="M106.438 386.871H118.185C118.9 386.871 119.479 387.451 119.479 388.166V436.465C119.479 437.18 118.9 437.76 118.185 437.76H106.438C105.723 437.76 105.143 437.18 105.143 436.465V388.166C105.143 387.451 105.723 386.871 106.438 386.871Z" fill="white"/>
<path d="M219.668 409.133H231.414C232.129 409.133 232.709 409.713 232.709 410.428V436.464C232.709 437.179 232.129 437.759 231.414 437.759H219.668C218.953 437.759 218.373 437.179 218.373 436.464V410.428C218.373 409.713 218.953 409.133 219.668 409.133Z" fill="white"/>
<path d="M191.36 376.748H203.106C203.822 376.748 204.401 377.328 204.401 378.043V436.465C204.401 437.18 203.822 437.76 203.106 437.76H191.36C190.645 437.76 190.065 437.18 190.065 436.465V378.043C190.065 377.328 190.645 376.748 191.36 376.748Z" fill="white"/>
<path d="M163.052 402.717H174.799C175.514 402.717 176.094 403.297 176.094 404.012V436.464C176.094 437.179 175.514 437.759 174.799 437.759H163.052C162.337 437.759 161.758 437.179 161.758 436.464V404.012C161.758 403.297 162.337 402.717 163.052 402.717Z" fill="white"/>
<path d="M341.354 304.106H509.726C516.582 304.106 522.139 309.664 522.139 316.519V407.827C522.139 414.682 516.582 420.239 509.726 420.239H341.354C334.499 420.239 328.942 414.682 328.942 407.827V316.519C328.942 309.664 334.499 304.106 341.354 304.106Z" fill="white"/>
<path opacity="0.1" d="M341.354 304.106H509.726C516.582 304.106 522.139 309.664 522.139 316.519V407.827C522.139 414.682 516.582 420.239 509.726 420.239H341.354C334.499 420.239 328.942 414.682 328.942 407.827V316.519C328.942 309.664 334.499 304.106 341.354 304.106Z" fill="#36DA93"/>
<path d="M382.159 366.377H397.068C397.975 366.377 398.711 367.113 398.711 368.02V401.065C398.711 401.973 397.975 402.708 397.068 402.708H382.159C381.251 402.708 380.516 401.973 380.516 401.065V368.02C380.516 367.113 381.251 366.377 382.159 366.377Z" fill="white"/>
<path d="M346.23 338.121H361.139C362.046 338.121 362.782 338.857 362.782 339.764V401.065C362.782 401.973 362.046 402.709 361.139 402.709H346.23C345.323 402.709 344.587 401.973 344.587 401.065V339.764C344.587 338.857 345.323 338.121 346.23 338.121Z" fill="white"/>
<path d="M489.94 366.377H504.849C505.756 366.377 506.492 367.113 506.492 368.02V401.065C506.492 401.973 505.756 402.708 504.849 402.708H489.94C489.033 402.708 488.297 401.973 488.297 401.065V368.02C488.297 367.113 489.033 366.377 489.94 366.377Z" fill="white"/>
<path d="M454.013 325.273H468.922C469.83 325.273 470.565 326.009 470.565 326.917V401.065C470.565 401.972 469.83 402.708 468.922 402.708H454.013C453.106 402.708 452.37 401.972 452.37 401.065V326.917C452.37 326.009 453.106 325.273 454.013 325.273Z" fill="white"/>
<path d="M418.085 358.233H432.993C433.901 358.233 434.637 358.969 434.637 359.877V401.065C434.637 401.973 433.901 402.708 432.993 402.708H418.085C417.177 402.708 416.441 401.973 416.441 401.065V359.877C416.441 358.969 417.177 358.233 418.085 358.233Z" fill="white"/>
<path d="M22.1315 0H215.505C223.378 0 229.761 6.38236 229.761 14.2554V119.123C229.761 126.996 223.378 133.378 215.505 133.378H22.1315C14.2584 133.378 7.87601 126.996 7.87601 119.123V14.2554C7.87601 6.38236 14.2584 0 22.1315 0Z" fill="white"/>
<path opacity="0.1" d="M22.1315 0H215.505C223.378 0 229.761 6.38236 229.761 14.2554V119.123C229.761 126.996 223.378 133.378 215.505 133.378H22.1315C14.2584 133.378 7.87601 126.996 7.87601 119.123V14.2554C7.87601 6.38236 14.2584 0 22.1315 0Z" fill="#36DA93"/>
<path d="M68.9962 71.5176H86.1186C87.1609 71.5176 88.0059 72.3625 88.0059 73.4048V111.357C88.0059 112.399 87.1609 113.244 86.1186 113.244H68.9962C67.9539 113.244 67.1089 112.399 67.1089 111.357V73.4048C67.1089 72.3625 67.9539 71.5176 68.9962 71.5176Z" fill="white"/>
<path d="M27.7335 39.0654H44.8559C45.8982 39.0654 46.7432 39.9104 46.7432 40.9527V111.357C46.7432 112.399 45.8982 113.244 44.8559 113.244H27.7335C26.6912 113.244 25.8463 112.399 25.8463 111.357V40.9527C25.8463 39.9104 26.6912 39.0654 27.7335 39.0654Z" fill="white"/>
<path d="M192.782 71.5176H209.905C210.947 71.5176 211.792 72.3625 211.792 73.4048V111.357C211.792 112.399 210.947 113.244 209.905 113.244H192.782C191.74 113.244 190.895 112.399 190.895 111.357V73.4048C190.895 72.3625 191.74 71.5176 192.782 71.5176Z" fill="white"/>
<path d="M151.52 24.3101H168.642C169.684 24.3101 170.529 25.155 170.529 26.1973V111.356C170.529 112.399 169.684 113.244 168.642 113.244H151.52C150.477 113.244 149.632 112.399 149.632 111.356V26.1973C149.632 25.155 150.477 24.3101 151.52 24.3101Z" fill="white"/>
<path d="M110.258 62.1641H127.38C128.423 62.1641 129.268 63.009 129.268 64.0513V111.356C129.268 112.398 128.423 113.243 127.38 113.243H110.258C109.216 113.243 108.371 112.398 108.371 111.356V64.0513C108.371 63.009 109.216 62.1641 110.258 62.1641Z" fill="white"/>
<path d="M442.024 110.088H536.357C540.197 110.088 543.311 113.202 543.311 117.042V168.199C543.311 172.04 540.197 175.153 536.357 175.153H442.024C438.183 175.153 435.07 172.04 435.07 168.199V117.042C435.07 113.202 438.183 110.088 442.024 110.088Z" fill="white"/>
<path opacity="0.3" d="M442.024 110.088H536.357C540.197 110.088 543.311 113.202 543.311 117.042V168.199C543.311 172.04 540.197 175.153 536.357 175.153H442.024C438.183 175.153 435.07 172.04 435.07 168.199V117.042C435.07 113.202 438.183 110.088 442.024 110.088Z" fill="#36DA93"/>
<path d="M464.885 144.976H473.238C473.746 144.976 474.158 145.388 474.158 145.897V164.411C474.158 164.919 473.746 165.331 473.238 165.331H464.885C464.376 165.331 463.964 164.919 463.964 164.411V145.897C463.964 145.388 464.376 144.976 464.885 144.976Z" fill="white"/>
<path d="M444.756 129.146H453.109C453.617 129.146 454.029 129.558 454.029 130.066V164.411C454.029 164.919 453.617 165.331 453.109 165.331H444.756C444.247 165.331 443.835 164.919 443.835 164.411V130.066C443.835 129.558 444.247 129.146 444.756 129.146Z" fill="white"/>
<path d="M525.27 144.976H533.623C534.132 144.976 534.544 145.388 534.544 145.897V164.411C534.544 164.919 534.132 165.331 533.623 165.331H525.27C524.762 165.331 524.35 164.919 524.35 164.411V145.897C524.35 145.388 524.762 144.976 525.27 144.976Z" fill="white"/>
<path d="M505.141 121.948H513.495C514.003 121.948 514.415 122.36 514.415 122.868V164.411C514.415 164.92 514.003 165.332 513.495 165.332H505.141C504.633 165.332 504.221 164.92 504.221 164.411V122.868C504.221 122.36 504.633 121.948 505.141 121.948Z" fill="white"/>
<path d="M485.014 140.414H493.367C493.875 140.414 494.287 140.826 494.287 141.334V164.411C494.287 164.919 493.875 165.331 493.367 165.331H485.014C484.505 165.331 484.093 164.919 484.093 164.411V141.334C484.093 140.826 484.505 140.414 485.014 140.414Z" fill="white"/>
<path d="M453.375 340.708L72.3748 340.708C63.0184 340.708 55.4336 333.123 55.4336 323.767L55.4336 44.8171C55.4336 35.4608 63.0184 27.876 72.3748 27.876L453.375 27.876C462.731 27.876 470.316 35.4608 470.316 44.8171L470.316 323.767C470.316 333.123 462.731 340.708 453.375 340.708Z" fill="white"/>
<path d="M470.881 323.767V44.8169C470.876 40.1756 469.03 35.726 465.748 32.4442C462.466 29.1623 458.016 27.3163 453.375 27.311H72.3749C67.7336 27.3163 63.284 29.1623 60.0021 32.4442C56.7203 35.726 54.8742 40.1756 54.869 44.8169V323.767C54.8742 328.408 56.7203 332.857 60.0021 336.139C63.284 339.421 67.7336 341.267 72.3749 341.272H453.375C458.016 341.267 462.466 339.421 465.748 336.139C469.03 332.857 470.876 328.408 470.881 323.767ZM453.375 28.4404C457.717 28.4455 461.879 30.1725 464.949 33.2426C468.019 36.3127 469.746 40.4751 469.751 44.8169V323.767C469.747 328.108 468.02 332.271 464.949 335.341C461.879 338.411 457.717 340.138 453.375 340.143H72.3749C68.0331 340.138 63.8704 338.411 60.8003 335.341C57.7301 332.271 56.0032 328.108 55.9984 323.767V44.8169C56.0034 40.4751 57.7303 36.3125 60.8004 33.2424C63.8705 30.1723 68.0331 28.4454 72.3749 28.4404H453.375Z" fill="#292A2E"/>
<path d="M470.315 44.8156V61.8624H55.4353V44.8156C55.4353 40.3226 57.2201 36.0135 60.3972 32.8365C63.5743 29.6594 67.8834 27.8745 72.3764 27.8745H453.374C457.867 27.8745 462.176 29.6594 465.353 32.8365C468.531 36.0135 470.315 40.3226 470.315 44.8156Z" fill="#292A2E"/>
<path d="M77.8504 78.0605H239.508C243.476 78.0605 246.692 81.2773 246.692 85.2453V199.602C246.692 203.57 243.476 206.787 239.508 206.787H77.8504C73.8824 206.787 70.6657 203.57 70.6657 199.602V85.2453C70.6657 81.2773 73.8824 78.0605 77.8504 78.0605Z" fill="white"/>
<path opacity="0.15" d="M77.8504 78.0605H239.508C243.476 78.0605 246.692 81.2773 246.692 85.2453V199.602C246.692 203.57 243.476 206.787 239.508 206.787H77.8504C73.8824 206.787 70.6657 203.57 70.6657 199.602V85.2453C70.6657 81.2773 73.8824 78.0605 77.8504 78.0605Z" fill="#36DA93"/>
<path d="M215.097 94.1235H229.068C229.717 94.1235 230.243 94.6497 230.243 95.2987V189.549C230.243 190.198 229.717 190.724 229.068 190.724H215.097C214.448 190.724 213.921 190.198 213.921 189.549V95.2987C213.921 94.6497 214.448 94.1235 215.097 94.1235Z" fill="#FAFAFA"/>
<path opacity="0.6" d="M230.243 141.476H213.923V189.549C213.923 189.861 214.047 190.16 214.267 190.38C214.488 190.601 214.787 190.724 215.098 190.724H229.068C229.38 190.724 229.679 190.601 229.899 190.38C230.119 190.16 230.243 189.861 230.243 189.549V141.476Z" fill="#36DA93"/>
<path d="M183.395 94.1235H197.367C198.016 94.1235 198.542 94.6497 198.542 95.2987V189.549C198.542 190.198 198.016 190.724 197.367 190.724H183.395C182.746 190.724 182.22 190.198 182.22 189.549V95.2987C182.22 94.6497 182.746 94.1235 183.395 94.1235Z" fill="#FAFAFA"/>
<path opacity="0.6" d="M198.542 128.087H182.222V189.549C182.222 189.86 182.346 190.159 182.566 190.38C182.787 190.6 183.085 190.724 183.397 190.724H197.367C197.679 190.724 197.977 190.6 198.198 190.38C198.418 190.159 198.542 189.86 198.542 189.549V128.087Z" fill="#36DA93"/>
<path d="M88.29 94.1235H102.261C102.91 94.1235 103.437 94.6497 103.437 95.2987V189.549C103.437 190.198 102.91 190.724 102.261 190.724H88.29C87.641 190.724 87.1148 190.198 87.1148 189.549V95.2987C87.1148 94.6497 87.641 94.1235 88.29 94.1235Z" fill="#FAFAFA"/>
<path opacity="0.6" d="M103.437 114.58H87.1165V189.55C87.1165 189.861 87.2403 190.16 87.4607 190.381C87.6811 190.601 87.98 190.725 88.2917 190.725H102.261C102.572 190.725 102.871 190.601 103.092 190.381C103.312 190.16 103.436 189.861 103.436 189.55V114.58H103.437Z" fill="#36DA93"/>
<path d="M151.693 94.1235H165.665C166.314 94.1235 166.84 94.6497 166.84 95.2987V189.549C166.84 190.198 166.314 190.724 165.665 190.724H151.693C151.044 190.724 150.518 190.198 150.518 189.549V95.2987C150.518 94.6497 151.044 94.1235 151.693 94.1235Z" fill="#FAFAFA"/>
<path opacity="0.6" d="M166.84 163.13H150.52V189.549C150.52 189.861 150.644 190.159 150.864 190.38C151.084 190.6 151.383 190.724 151.695 190.724H165.665C165.976 190.724 166.275 190.6 166.496 190.38C166.716 190.159 166.84 189.861 166.84 189.549V163.13Z" fill="#36DA93"/>
<path d="M119.991 94.1235H133.963C134.612 94.1235 135.138 94.6497 135.138 95.2987V189.549C135.138 190.198 134.612 190.724 133.963 190.724H119.991C119.342 190.724 118.816 190.198 118.816 189.549V95.2987C118.816 94.6497 119.342 94.1235 119.991 94.1235Z" fill="#FAFAFA"/>
<path opacity="0.6" d="M135.14 146.25H118.82V189.549C118.82 189.86 118.943 190.159 119.164 190.38C119.384 190.6 119.683 190.724 119.995 190.724H133.963C134.117 190.724 134.27 190.693 134.413 190.634C134.555 190.575 134.685 190.489 134.794 190.38C134.903 190.27 134.989 190.141 135.048 189.998C135.108 189.856 135.138 189.703 135.138 189.549V146.25H135.14Z" fill="#36DA93"/>
<path opacity="0.15" d="M80.9502 219.388H238.352C244.032 219.388 248.637 223.992 248.637 229.673V314.904C248.637 320.584 244.032 325.189 238.352 325.189H80.9502C75.2699 325.189 70.6652 320.584 70.6652 314.904V229.673C70.6652 223.992 75.2699 219.388 80.9502 219.388Z" fill="#36DA93"/>
<path d="M142.177 245.815C140.066 245.815 138.354 244.103 138.354 241.992C138.354 239.881 140.066 238.169 142.177 238.169C144.288 238.169 146 239.881 146 241.992C146 244.103 144.288 245.815 142.177 245.815Z" fill="#36DA93"/>
<path d="M142.177 265.304C140.066 265.304 138.354 263.593 138.354 261.481C138.354 259.37 140.066 257.658 142.177 257.658C144.288 257.658 146 259.37 146 261.481C146 263.593 144.288 265.304 142.177 265.304Z" fill="#262626"/>
<path d="M142.177 284.793C140.066 284.793 138.354 283.081 138.354 280.97C138.354 278.858 140.066 277.146 142.177 277.146C144.288 277.146 146 278.858 146 280.97C146 283.081 144.288 284.793 142.177 284.793Z" fill="white"/>
<path opacity="0.5" d="M142.177 304.281C140.066 304.281 138.354 302.569 138.354 300.458C138.354 298.346 140.066 296.635 142.177 296.635C144.288 296.635 146 298.346 146 300.458C146 302.569 144.288 304.281 142.177 304.281Z" fill="#36DA93"/>
<path d="M89.1227 241.991C89.1227 242.565 89.3505 243.115 89.7561 243.52C90.1618 243.926 90.7119 244.154 91.2855 244.154H128.033C128.544 244.163 129.043 243.997 129.446 243.682C129.849 243.367 130.132 242.924 130.247 242.426C130.312 242.111 130.305 241.786 130.228 241.475C130.151 241.163 130.006 240.872 129.803 240.623C129.599 240.375 129.344 240.174 129.053 240.037C128.763 239.899 128.446 239.828 128.125 239.828H91.2855C91.0015 239.828 90.7202 239.884 90.4577 239.993C90.1953 240.101 89.9568 240.261 89.756 240.461C89.5551 240.662 89.3958 240.901 89.2872 241.163C89.1785 241.426 89.1226 241.707 89.1227 241.991Z" fill="white"/>
<path d="M89.1221 261.48C89.1221 262.053 89.35 262.603 89.7556 263.009C90.1612 263.415 90.7113 263.642 91.2849 263.642H128.011C128.31 263.647 128.608 263.591 128.886 263.479C129.164 263.366 129.417 263.199 129.629 262.987C129.841 262.775 130.009 262.522 130.122 262.244C130.235 261.967 130.291 261.669 130.287 261.369C130.258 260.815 130.018 260.293 129.615 259.912C129.213 259.53 128.679 259.317 128.125 259.317H91.2849C91.0009 259.317 90.7197 259.373 90.4573 259.482C90.1949 259.59 89.9565 259.75 89.7556 259.95C89.5548 260.151 89.3955 260.39 89.2868 260.652C89.1781 260.914 89.1221 261.196 89.1221 261.48Z" fill="white"/>
<path d="M89.1219 280.97C89.1219 281.543 89.3497 282.094 89.7554 282.499C90.161 282.905 90.7111 283.133 91.2847 283.133H128.347C128.863 283.133 129.357 282.928 129.721 282.564C130.085 282.199 130.29 281.705 130.29 281.19V280.75C130.29 280.235 130.085 279.741 129.721 279.377C129.357 279.012 128.863 278.808 128.347 278.808H91.2847C91.0007 278.808 90.7195 278.863 90.4571 278.972C90.1947 279.081 89.9562 279.24 89.7554 279.441C89.5545 279.642 89.3952 279.88 89.2865 280.142C89.1778 280.405 89.1219 280.686 89.1219 280.97Z" fill="white"/>
<path d="M89.1225 300.459C89.1225 301.033 89.3504 301.583 89.756 301.988C90.1616 302.394 90.7118 302.622 91.2854 302.622H128.025C128.537 302.631 129.036 302.465 129.441 302.151C129.845 301.837 130.13 301.394 130.247 300.895C130.311 300.581 130.305 300.256 130.228 299.944C130.151 299.633 130.006 299.342 129.803 299.093C129.6 298.845 129.344 298.644 129.054 298.507C128.764 298.369 128.447 298.298 128.126 298.298H91.2865C91.0025 298.298 90.7213 298.353 90.4588 298.462C90.1963 298.57 89.9578 298.729 89.7568 298.93C89.5559 299.131 89.3964 299.369 89.2876 299.631C89.1788 299.894 89.1227 300.175 89.1225 300.459Z" fill="white"/>
<path d="M213.908 271.225C213.907 275.886 212.461 280.431 209.769 284.235C207.077 288.039 203.272 290.915 198.878 292.467L205.058 307.539C213.558 304.336 220.664 298.252 225.139 290.348C229.614 282.443 231.174 273.219 229.547 264.283C227.92 255.347 223.209 247.264 216.236 241.444C209.262 235.624 200.467 232.435 191.384 232.434V248.705C197.357 248.705 203.085 251.077 207.31 255.301C211.534 259.524 213.907 265.252 213.908 271.225Z" fill="#36DA93"/>
<path d="M152.589 271.225H168.861C168.861 265.251 171.233 259.522 175.457 255.298C179.681 251.074 185.41 248.701 191.384 248.701V232.43C181.095 232.43 171.227 236.517 163.951 243.793C156.676 251.068 152.589 260.936 152.589 271.225Z" fill="#262626"/>
<path d="M152.588 271.225C152.589 280.015 155.574 288.545 161.055 295.418C166.536 302.291 174.187 307.099 182.757 309.056L185.514 292.973C180.734 291.681 176.513 288.851 173.502 284.92C170.492 280.989 168.86 276.176 168.859 271.225H152.588Z" fill="white"/>
<path opacity="0.5" d="M182.758 309.056C190.181 310.738 197.933 310.21 205.059 307.537L198.878 292.466C194.576 293.976 189.919 294.153 185.515 292.974L182.758 309.056Z" fill="#36DA93"/>
<path opacity="0.15" d="M271.22 78.0605H444.94C450.554 78.0605 455.104 82.6114 455.104 88.2252V315.024C455.104 320.638 450.554 325.189 444.94 325.189H271.22C265.606 325.189 261.055 320.638 261.055 315.024V88.2252C261.055 82.6114 265.606 78.0605 271.22 78.0605Z" fill="#36DA93"/>
<path d="M305.578 174.509C305.578 185.786 308.922 196.809 315.187 206.186C321.452 215.562 330.356 222.87 340.775 227.185C351.193 231.501 362.657 232.63 373.717 230.43C384.777 228.23 394.936 222.8 402.91 214.826C410.884 206.852 416.314 196.693 418.514 185.633C420.714 174.573 419.585 163.11 415.269 152.691C410.954 142.273 403.646 133.368 394.27 127.103C384.894 120.839 373.87 117.495 362.594 117.495V174.509H305.578Z" fill="#FAFAFA"/>
<path opacity="0.6" d="M298.588 167.104H355.601V110.089C340.48 110.089 325.978 116.097 315.286 126.789C304.595 137.481 298.588 151.983 298.588 167.104Z" fill="#36DA93"/>
<path opacity="0.6" d="M421.715 263.869C419.604 263.869 417.892 262.157 417.892 260.046C417.892 257.934 419.604 256.223 421.715 256.223C423.826 256.223 425.538 257.934 425.538 260.046C425.538 262.157 423.826 263.869 421.715 263.869Z" fill="#36DA93"/>
<path d="M421.715 283.358C419.604 283.358 417.892 281.646 417.892 279.535C417.892 277.424 419.604 275.712 421.715 275.712C423.826 275.712 425.538 277.424 425.538 279.535C425.538 281.646 423.826 283.358 421.715 283.358Z" fill="#FAFAFA"/>
<path opacity="0.6" d="M290.732 260.047C290.732 260.621 290.959 261.171 291.365 261.577C291.771 261.982 292.321 262.21 292.894 262.21H407.571C408.082 262.219 408.581 262.053 408.984 261.738C409.388 261.423 409.67 260.98 409.786 260.481C409.85 260.167 409.843 259.842 409.766 259.53C409.689 259.218 409.544 258.928 409.34 258.679C409.137 258.43 408.881 258.23 408.591 258.093C408.301 257.955 407.984 257.884 407.663 257.884H292.894C292.61 257.884 292.329 257.94 292.067 258.048C291.804 258.157 291.566 258.317 291.365 258.517C291.164 258.718 291.005 258.957 290.896 259.219C290.787 259.482 290.731 259.763 290.732 260.047Z" fill="#36DA93"/>
<path d="M290.732 279.534C290.732 280.108 290.96 280.658 291.365 281.063C291.771 281.469 292.321 281.697 292.895 281.697H407.549C407.849 281.701 408.147 281.645 408.425 281.533C408.703 281.42 408.956 281.253 409.168 281.041C409.38 280.829 409.548 280.577 409.661 280.299C409.774 280.021 409.83 279.723 409.826 279.423C409.797 278.869 409.556 278.348 409.154 277.966C408.752 277.584 408.218 277.371 407.663 277.371H292.895C292.611 277.371 292.329 277.427 292.067 277.536C291.805 277.644 291.566 277.804 291.365 278.005C291.164 278.205 291.005 278.444 290.896 278.706C290.788 278.969 290.732 279.25 290.732 279.534Z" fill="white"/>
<path d="M471.675 483.986C471.736 483.986 471.796 483.974 471.852 483.951C471.909 483.927 471.96 483.893 472.003 483.85C472.657 483.196 473.723 471.196 476.594 435.469C477.77 420.85 478.88 407.042 479.69 398.651C479.746 398.051 479.98 397.981 480.056 397.959C481.165 397.625 484.536 400.283 486.419 402.611C486.457 402.659 486.504 402.698 486.558 402.727C486.611 402.757 486.67 402.775 486.731 402.781C486.791 402.788 486.853 402.782 486.911 402.765C486.97 402.748 487.024 402.719 487.072 402.681C487.119 402.642 487.159 402.595 487.188 402.541C487.217 402.488 487.235 402.429 487.242 402.368C487.248 402.308 487.242 402.246 487.225 402.188C487.208 402.129 487.179 402.075 487.141 402.028C485.899 400.488 481.839 396.453 479.789 397.069C479.481 397.175 479.215 397.377 479.03 397.646C478.846 397.915 478.753 398.236 478.765 398.561C477.955 406.96 476.845 420.772 475.669 435.395C473.924 457.105 471.947 481.701 471.298 483.251C471.248 483.32 471.219 483.402 471.213 483.487C471.207 483.572 471.224 483.657 471.263 483.732C471.302 483.808 471.361 483.872 471.433 483.916C471.506 483.961 471.59 483.984 471.675 483.985V483.986Z" fill="#494949"/>
<path d="M480.882 414.05C473.179 407.875 470.626 398.265 475.18 392.584C479.733 386.903 489.669 387.304 497.372 393.478C505.075 399.653 507.628 409.263 503.074 414.944C498.521 420.625 488.585 420.224 480.882 414.05Z" fill="#0CBC8B"/>
<path opacity="0.2" d="M480.882 414.05C473.179 407.875 470.626 398.265 475.18 392.584C479.733 386.903 489.669 387.304 497.372 393.478C505.075 399.653 507.628 409.263 503.074 414.944C498.521 420.625 488.585 420.224 480.882 414.05Z" fill="white"/>
<path d="M500.916 416.388C500.96 416.387 501.003 416.375 501.04 416.351C501.077 416.328 501.107 416.294 501.125 416.254C501.144 416.214 501.151 416.17 501.146 416.126C501.14 416.083 501.122 416.041 501.094 416.007L479.141 389.534C479.102 389.487 479.045 389.457 478.984 389.451C478.923 389.445 478.862 389.464 478.814 389.504C478.767 389.543 478.737 389.6 478.731 389.661C478.726 389.722 478.744 389.783 478.784 389.831L500.737 416.304C500.759 416.33 500.786 416.351 500.817 416.366C500.848 416.38 500.882 416.388 500.916 416.388Z" fill="white"/>
<path d="M466.888 478.311C466.962 478.311 467.035 478.293 467.1 478.259C467.166 478.225 467.223 478.176 467.266 478.115C467.309 478.055 467.336 477.985 467.347 477.912C467.357 477.839 467.35 477.764 467.326 477.694L459.081 453.98C458.839 453.283 458.425 452.658 457.878 452.162C457.332 451.666 456.669 451.316 455.952 451.143C455.234 450.969 454.485 450.979 453.772 451.171C453.06 451.363 452.407 451.73 451.873 452.24L447.513 456.404C447.427 456.49 447.378 456.606 447.376 456.728C447.374 456.849 447.421 456.967 447.505 457.055C447.589 457.143 447.704 457.194 447.826 457.198C447.947 457.202 448.065 457.158 448.155 457.075L452.514 452.911C452.936 452.509 453.451 452.218 454.014 452.067C454.576 451.916 455.168 451.908 455.735 452.045C456.301 452.181 456.824 452.458 457.256 452.849C457.687 453.241 458.014 453.734 458.205 454.284L466.45 478.002C466.482 478.093 466.541 478.171 466.62 478.226C466.698 478.281 466.792 478.311 466.888 478.311Z" fill="#494949"/>
<path d="M435.333 469.533C429.624 465.014 429.964 455.076 436.091 447.335C442.218 439.595 451.813 436.982 457.521 441.501C463.23 446.02 462.89 455.958 456.763 463.698C450.636 471.439 441.042 474.051 435.333 469.533Z" fill="#0CBC8B"/>
<path d="M475.423 482.473C475.527 482.473 475.628 482.438 475.71 482.373C475.792 482.308 475.85 482.218 475.874 482.117L489.71 424.256C489.804 423.861 490.005 423.5 490.292 423.213C490.578 422.925 490.938 422.722 491.332 422.626C491.726 422.53 492.139 422.545 492.525 422.668C492.912 422.791 493.257 423.019 493.522 423.326L497.788 428.255C497.827 428.303 497.876 428.343 497.93 428.372C497.985 428.401 498.045 428.418 498.107 428.424C498.169 428.429 498.231 428.422 498.29 428.403C498.349 428.384 498.404 428.353 498.451 428.312C498.498 428.272 498.536 428.222 498.563 428.167C498.591 428.111 498.607 428.05 498.611 427.988C498.614 427.927 498.605 427.864 498.585 427.806C498.564 427.748 498.532 427.694 498.49 427.648L494.224 422.718C493.847 422.282 493.357 421.959 492.807 421.784C492.258 421.609 491.672 421.588 491.112 421.725C490.552 421.862 490.04 422.15 489.634 422.559C489.227 422.967 488.941 423.48 488.807 424.04L474.971 481.901C474.957 481.96 474.955 482.022 474.964 482.082C474.974 482.142 474.995 482.2 475.027 482.252C475.059 482.303 475.101 482.349 475.15 482.384C475.2 482.42 475.255 482.446 475.315 482.46C475.35 482.469 475.386 482.473 475.423 482.473Z" fill="#494949"/>
<path d="M480.529 441.112C478.847 431.384 483.299 422.493 490.473 421.252C497.647 420.012 504.827 426.892 506.509 436.62C508.191 446.347 503.739 455.239 496.565 456.48C489.391 457.72 482.212 450.84 480.529 441.112Z" fill="#0CBC8B"/>
<path d="M471.675 483.985C471.694 483.985 471.713 483.984 471.732 483.982C471.854 483.967 471.965 483.904 472.041 483.807C472.117 483.71 472.151 483.587 472.136 483.465L463.3 411.718C463.204 410.937 462.884 410.2 462.378 409.595C461.873 408.991 461.204 408.546 460.452 408.313C459.7 408.08 458.897 408.069 458.138 408.282C457.38 408.495 456.699 408.922 456.178 409.512L446.078 420.951C446.038 420.997 446.007 421.05 445.987 421.108C445.967 421.165 445.959 421.226 445.962 421.287C445.966 421.348 445.982 421.408 446.009 421.462C446.035 421.517 446.073 421.566 446.118 421.607C446.164 421.647 446.217 421.678 446.275 421.698C446.332 421.718 446.393 421.726 446.454 421.722C446.515 421.718 446.575 421.703 446.629 421.676C446.684 421.649 446.733 421.612 446.774 421.566L456.874 410.127C457.277 409.671 457.803 409.341 458.389 409.176C458.975 409.012 459.596 409.02 460.177 409.2C460.758 409.38 461.275 409.724 461.666 410.191C462.056 410.658 462.304 411.227 462.378 411.831L471.215 483.577C471.229 483.69 471.283 483.793 471.368 483.868C471.453 483.944 471.562 483.985 471.675 483.985Z" fill="#494949"/>
<path d="M435.72 427.309C432.196 420.938 436.342 411.9 444.981 407.122C453.619 402.343 463.479 403.634 467.003 410.005C470.527 416.376 466.381 425.414 457.742 430.192C449.103 434.971 439.244 433.68 435.72 427.309Z" fill="#0CBC8B"/>
<path opacity="0.2" d="M435.333 469.533C429.624 465.014 429.964 455.076 436.091 447.335C442.218 439.595 451.813 436.982 457.521 441.501C463.23 446.02 462.89 455.958 456.763 463.698C450.636 471.439 441.042 474.051 435.333 469.533Z" fill="white"/>
<path opacity="0.5" d="M480.529 441.112C478.847 431.384 483.299 422.493 490.473 421.252C497.647 420.012 504.827 426.892 506.509 436.62C508.191 446.347 503.739 455.239 496.565 456.48C489.391 457.72 482.212 450.84 480.529 441.112Z" fill="white"/>
<path opacity="0.5" d="M435.72 427.309C432.196 420.938 436.342 411.9 444.981 407.122C453.619 402.343 463.479 403.634 467.003 410.005C470.527 416.376 466.381 425.414 457.742 430.192C449.103 434.971 439.244 433.68 435.72 427.309Z" fill="white"/>
<path d="M460.373 544.862H482.978L486.724 472.537H456.627L460.373 544.862Z" fill="#292A2E"/>
<path opacity="0.3" d="M460.373 544.862H482.978L486.724 472.537H456.627L460.373 544.862Z" fill="white"/>
<path d="M435.332 469.762C435.367 469.763 435.402 469.755 435.433 469.74C435.465 469.724 435.493 469.702 435.514 469.674L457.703 441.643C457.722 441.619 457.736 441.592 457.744 441.562C457.752 441.533 457.755 441.502 457.751 441.472C457.748 441.442 457.738 441.413 457.724 441.386C457.709 441.359 457.689 441.336 457.665 441.317C457.641 441.298 457.614 441.284 457.585 441.276C457.555 441.267 457.525 441.265 457.494 441.268C457.464 441.272 457.435 441.281 457.408 441.296C457.381 441.311 457.358 441.331 457.339 441.354L435.15 469.386C435.112 469.435 435.095 469.496 435.102 469.557C435.109 469.618 435.14 469.674 435.188 469.712C435.229 469.745 435.28 469.762 435.332 469.762Z" fill="white"/>
<path d="M437.194 429.554C437.244 429.554 437.291 429.538 437.331 429.509L465.724 408.777C465.75 408.759 465.772 408.737 465.789 408.711C465.805 408.685 465.817 408.655 465.822 408.625C465.827 408.594 465.826 408.563 465.819 408.533C465.812 408.502 465.799 408.474 465.781 408.449C465.762 408.424 465.739 408.403 465.713 408.387C465.686 408.371 465.657 408.36 465.626 408.356C465.595 408.351 465.564 408.353 465.534 408.361C465.504 408.369 465.476 408.383 465.451 408.402L437.057 429.134C437.018 429.163 436.988 429.204 436.973 429.251C436.958 429.297 436.958 429.348 436.973 429.394C436.989 429.441 437.018 429.481 437.058 429.51C437.098 429.539 437.145 429.554 437.194 429.554Z" fill="white"/>
<path d="M497.716 456.176C497.736 456.177 497.757 456.174 497.776 456.169C497.836 456.153 497.886 456.114 497.917 456.061C497.948 456.008 497.956 455.945 497.941 455.886L488.902 422.021C488.886 421.962 488.847 421.912 488.794 421.881C488.742 421.851 488.679 421.842 488.62 421.857C488.561 421.872 488.51 421.911 488.479 421.964C488.449 422.017 488.44 422.08 488.455 422.139L497.492 456.004C497.506 456.054 497.535 456.097 497.575 456.128C497.615 456.16 497.665 456.176 497.716 456.176Z" fill="white"/>
<path d="M381.933 519.521C381.933 519.521 379.383 532.737 367.01 533.476C354.637 534.215 357.319 544.07 357.319 544.07H404.605V520.443L381.933 519.521Z" fill="#36DA93"/>
<path d="M407.812 278.43C407.812 278.43 404.275 274.458 404.306 283.47C404.423 317.086 406.692 527.955 406.692 527.955L375.618 527.694L356.795 277.064L407.812 278.43Z" fill="#262626"/>
<path d="M328.871 519.521C328.871 519.521 326.321 532.737 313.947 533.474C301.573 534.21 304.256 544.068 304.256 544.068H351.544V520.443L328.871 519.521Z" fill="#36DA93"/>
<path d="M322.861 281.041C322.861 281.041 318.98 395.934 319.383 401.549L323.033 527.083L353.593 527.648L358.521 397.007C358.521 397.007 361.751 360.97 370.458 327.507C374.913 310.332 377.594 292.746 378.459 275.024L322.861 281.041Z" fill="#262626"/>
<path d="M363.177 362.5L360.629 323.53C360.629 323.53 358.011 339.731 358.011 353.695C358.011 360.521 359.417 387.545 359.417 387.545L363.177 362.5Z" fill="#0A0A0A"/>
<path d="M408.149 278.426L408.251 278.432C408.251 278.432 408.176 276.473 408.149 278.426Z" fill="#333333"/>
<path d="M408.022 278.426L408.124 278.432C408.124 278.432 408.05 276.473 408.022 278.426Z" fill="#333333"/>
<path d="M237.748 185.173C237.935 184.802 238.233 184.499 238.6 184.305C238.967 184.11 239.385 184.035 239.797 184.088C239.793 184.052 239.801 184.015 239.82 183.983C239.839 183.959 239.864 183.939 239.893 183.928C239.922 183.916 239.953 183.912 239.984 183.916L238.595 182.92C238.179 182.635 237.88 182.21 237.753 181.722C237.627 181.234 237.681 180.717 237.907 180.266C238.144 179.827 238.535 179.493 239.004 179.327C239.474 179.161 239.988 179.175 240.448 179.367C240.444 179.348 240.458 179.329 240.46 179.311L239.89 178.902C239.499 178.632 239.214 178.236 239.082 177.78C238.95 177.324 238.979 176.836 239.166 176.399C239.288 176.128 239.469 175.887 239.696 175.694C239.923 175.502 240.19 175.362 240.477 175.284C240.765 175.207 241.066 175.194 241.358 175.247C241.651 175.301 241.929 175.418 242.171 175.591L243.488 176.536C243.492 176.528 243.488 176.519 243.493 176.512C243.499 176.504 243.513 176.501 243.521 176.494C243.218 176.153 243.04 175.72 243.016 175.265C242.992 174.811 243.123 174.361 243.388 173.991C244.01 172.99 245.446 173.195 246.298 173.806L254.052 179.162L252.667 176.828C252.388 176.379 252.29 175.841 252.392 175.322C252.495 174.804 252.79 174.343 253.218 174.034C253.445 173.882 253.701 173.778 253.969 173.728C254.238 173.678 254.514 173.684 254.78 173.744C255.046 173.804 255.297 173.918 255.518 174.079C255.739 174.239 255.925 174.443 256.064 174.678L263.631 187.419C264.519 188.914 264.79 190.696 264.385 192.386C263.98 194.077 262.931 195.543 261.462 196.473C259.759 197.552 257.772 198.097 255.756 198.04C253.741 197.982 251.789 197.323 250.15 196.149L238.439 187.754C238.05 187.465 237.77 187.052 237.645 186.584C237.519 186.115 237.556 185.618 237.748 185.173Z" fill="#E98862"/>
<g opacity="0.25">
<path opacity="0.25" d="M251.162 181.829C251.133 181.869 251.091 181.895 251.043 181.903C250.995 181.911 250.946 181.9 250.906 181.873L243.538 176.77C243.518 176.756 243.501 176.738 243.488 176.718C243.475 176.697 243.465 176.674 243.461 176.65C243.457 176.626 243.457 176.602 243.462 176.578C243.468 176.554 243.477 176.532 243.491 176.512C243.505 176.491 243.523 176.474 243.543 176.461C243.564 176.448 243.587 176.439 243.61 176.435C243.634 176.43 243.659 176.431 243.683 176.436C243.707 176.441 243.729 176.451 243.749 176.465L251.118 181.568C251.158 181.596 251.185 181.639 251.194 181.687C251.203 181.736 251.192 181.785 251.164 181.826L251.162 181.829Z" fill="#0C0C0C"/>
</g>
<g opacity="0.25">
<path opacity="0.25" d="M249.002 185.141C248.974 185.18 248.931 185.207 248.883 185.215C248.836 185.223 248.787 185.212 248.747 185.184L240.524 179.489C240.484 179.461 240.456 179.418 240.447 179.369C240.439 179.321 240.45 179.271 240.478 179.231C240.507 179.192 240.549 179.165 240.597 179.156C240.645 179.148 240.695 179.158 240.736 179.184L248.958 184.879C248.999 184.907 249.026 184.95 249.035 184.999C249.044 185.047 249.033 185.097 249.005 185.138L249.002 185.141Z" fill="#0C0C0C"/>
</g>
<g opacity="0.25">
<path opacity="0.25" d="M246.682 188.741C246.654 188.78 246.611 188.806 246.563 188.815C246.516 188.823 246.467 188.812 246.427 188.784L239.867 184.241C239.827 184.213 239.799 184.17 239.79 184.122C239.782 184.074 239.792 184.024 239.82 183.983C239.848 183.943 239.891 183.915 239.94 183.906C239.988 183.898 240.038 183.908 240.078 183.936L246.638 188.479C246.678 188.507 246.706 188.55 246.715 188.599C246.724 188.647 246.713 188.697 246.685 188.737L246.682 188.741Z" fill="#0C0C0C"/>
</g>
<path d="M268.098 184.517L290.324 222.37L317.444 186.798L339.967 207.103L301.505 256.916L301.253 257.271C299.713 259.379 297.662 261.061 295.293 262.158C292.923 263.255 290.314 263.73 287.71 263.54C285.106 263.349 282.594 262.499 280.409 261.069C278.225 259.638 276.441 257.676 275.224 255.366L243.619 198.13L268.098 184.517Z" fill="#36DA93"/>
<path d="M292.503 226.922C292.552 226.922 292.599 226.91 292.642 226.886C292.684 226.863 292.719 226.829 292.745 226.787C292.77 226.746 292.784 226.699 292.786 226.651C292.788 226.602 292.777 226.554 292.755 226.511L290.576 222.241C290.542 222.175 290.483 222.124 290.411 222.102C290.34 222.079 290.262 222.085 290.196 222.119C290.129 222.153 290.079 222.212 290.056 222.284C290.033 222.355 290.039 222.432 290.073 222.499L292.252 226.768C292.276 226.815 292.311 226.853 292.356 226.881C292.4 226.908 292.451 226.922 292.503 226.922Z" fill="#0C0C0C"/>
<path d="M319.008 222.153L319.687 234.109L319.123 234.141L318.444 222.185L319.008 222.153Z" fill="#0C0C0C"/>
<path d="M390.628 135.627C390.628 135.627 391.669 148.935 394.721 153.732C403.509 167.543 406.189 183.163 397.645 191.438C389.102 199.713 334.005 200.468 329.614 181.709C325.916 165.918 333.438 164.129 335.122 151.045C335.883 145.126 338.024 132.709 338.024 132.709" fill="#0A0A0A"/>
<path d="M343.64 178.711C343.734 178.699 344.79 196.212 365.136 194.685C379.22 193.63 384.243 178.686 384.565 178.686C383.047 178.364 380.489 177.896 379.815 177.534C377.598 176.343 374.853 175.103 374.138 170.796C373.726 168.311 374.425 155.613 374.21 153.101L352.59 157.927C352.892 163.231 355.006 175.529 347.595 177.706C346.362 178.066 345.034 178.396 343.64 178.711Z" fill="#E98862"/>
<path opacity="0.52" d="M352.286 172.68C352.625 171.588 352.843 170.463 352.936 169.324C353.174 166.725 353.127 164.108 352.795 161.52C357.189 160.926 361.329 159.113 364.744 156.284C365.146 157.767 367.354 164.247 366.742 165.654C365.587 168.318 360.157 172.68 352.286 172.68Z" fill="#0C0C0C"/>
<path d="M355.153 167.167C363.686 167.893 374.675 164.356 376.828 152.979L378.771 142.713C380.924 131.336 376.694 120.982 365.982 118.955C355.27 116.928 345.517 124.636 343.364 136.013L342.504 140.557C341.677 144.923 339.928 165.872 355.153 167.167Z" fill="#E98862"/>
<path d="M345.556 141.053C344.814 141.053 344.213 140.452 344.213 139.71C344.213 138.968 344.814 138.367 345.556 138.367C346.297 138.367 346.898 138.968 346.898 139.71C346.898 140.452 346.297 141.053 345.556 141.053Z" fill="#0C0C0C"/>
<path d="M359.313 142.891C358.572 142.891 357.971 142.29 357.971 141.548C357.971 140.807 358.572 140.206 359.313 140.206C360.055 140.206 360.656 140.807 360.656 141.548C360.656 142.29 360.055 142.891 359.313 142.891Z" fill="#0C0C0C"/>
<path opacity="0.52" d="M351.765 151.396L351.745 151.392C351.311 151.307 350.882 151.198 350.46 151.065C349.83 150.862 349.005 150.528 349.112 149.958C349.235 149.31 352.335 142.652 352.688 141.895C352.703 141.862 352.724 141.832 352.751 141.807C352.777 141.783 352.809 141.764 352.843 141.751C352.877 141.738 352.913 141.733 352.949 141.734C352.985 141.736 353.021 141.744 353.054 141.76C353.087 141.775 353.116 141.797 353.141 141.823C353.165 141.85 353.184 141.882 353.197 141.916C353.209 141.95 353.214 141.986 353.213 142.022C353.211 142.059 353.202 142.094 353.186 142.127C351.864 144.963 349.736 149.624 349.653 150.061C349.724 150.263 350.77 150.647 351.847 150.851C351.917 150.863 351.981 150.903 352.023 150.961C352.064 151.019 352.082 151.092 352.071 151.163C352.061 151.234 352.023 151.298 351.966 151.341C351.909 151.385 351.837 151.404 351.765 151.395V151.396Z" fill="#0C0C0C"/>
<path opacity="0.52" d="M353.351 156.305C351.603 156.078 349.934 155.444 348.477 154.453C348.416 154.413 348.373 154.351 348.358 154.279C348.343 154.208 348.357 154.134 348.396 154.073C348.436 154.011 348.499 153.969 348.57 153.954C348.642 153.939 348.716 153.953 348.777 153.992C351.93 156.047 355.064 156.379 357.838 154.952C357.894 154.922 357.952 154.894 358.011 154.87C358.08 154.845 358.156 154.849 358.222 154.88C358.288 154.911 358.339 154.967 358.364 155.035C358.388 155.104 358.385 155.18 358.354 155.246C358.323 155.312 358.267 155.363 358.198 155.388C358.177 155.397 358.142 155.416 358.09 155.444C356.631 156.196 354.981 156.496 353.351 156.305Z" fill="#0C0C0C"/>
<path d="M387.341 146.291L377.737 144.531C370.465 141.588 368.266 128.998 368.266 128.998C368.266 128.998 359.432 137.608 338.024 132.711C338.024 132.711 342.316 102.856 373.943 111.535C384.141 114.334 391.46 124.61 390.548 138.345C389.908 147.972 387.341 146.291 387.341 146.291Z" fill="#0A0A0A"/>
<path d="M375.506 156.32C378.761 156.936 382.059 153.953 382.678 150.697C383.296 147.442 380.994 145.147 377.739 144.531L375.649 146.395L372.709 155.79L375.506 156.32Z" fill="#E98862"/>
<path d="M350.725 136.451C349.775 135.837 348.678 135.491 347.549 135.448C346.993 135.423 346.436 135.482 345.898 135.623C345.364 135.759 344.85 135.963 344.368 136.228C344.3 136.262 344.248 136.321 344.223 136.393C344.198 136.464 344.203 136.543 344.236 136.611C344.269 136.679 344.327 136.732 344.399 136.757C344.47 136.783 344.549 136.779 344.617 136.746L344.638 136.737C345.084 136.518 345.556 136.355 346.042 136.254C346.523 136.151 347.016 136.121 347.506 136.166C348.477 136.247 349.41 136.584 350.209 137.142L350.235 137.161C350.281 137.195 350.333 137.219 350.388 137.232C350.443 137.245 350.5 137.247 350.556 137.239C350.612 137.23 350.666 137.21 350.714 137.18C350.763 137.151 350.805 137.112 350.838 137.066C350.872 137.02 350.896 136.968 350.909 136.913C350.922 136.858 350.924 136.8 350.916 136.744C350.907 136.688 350.887 136.634 350.857 136.586C350.828 136.538 350.789 136.496 350.743 136.462L350.725 136.451Z" fill="#0C0C0C"/>
<path d="M359.29 138.467C360.236 138.235 361.227 138.258 362.162 138.533C362.635 138.668 363.085 138.874 363.496 139.144C363.913 139.415 364.294 139.737 364.631 140.104L364.646 140.119C364.698 140.172 364.77 140.202 364.844 140.203C364.919 140.205 364.991 140.177 365.045 140.126C365.1 140.075 365.133 140.005 365.136 139.931C365.14 139.856 365.115 139.783 365.066 139.727C364.712 139.305 364.306 138.929 363.858 138.609C363.407 138.283 362.909 138.027 362.382 137.85C361.313 137.482 360.165 137.409 359.057 137.637C358.945 137.662 358.847 137.729 358.785 137.826C358.722 137.922 358.701 138.04 358.725 138.152C358.749 138.264 358.817 138.362 358.913 138.425C359.01 138.487 359.127 138.509 359.239 138.485L359.257 138.48L359.29 138.467Z" fill="#0C0C0C"/>
<path opacity="0.52" d="M352.979 158.888C352.663 158.851 352.35 158.789 352.044 158.7C351.974 158.679 351.914 158.632 351.879 158.568C351.844 158.505 351.835 158.429 351.855 158.359C351.875 158.289 351.923 158.23 351.986 158.194C352.05 158.159 352.126 158.15 352.196 158.17C354.037 158.701 355.084 158.001 355.128 157.968C355.188 157.926 355.262 157.91 355.334 157.923C355.406 157.935 355.47 157.976 355.512 158.036C355.554 158.096 355.57 158.17 355.557 158.242C355.545 158.314 355.504 158.378 355.444 158.42C354.701 158.856 353.83 159.021 352.979 158.888Z" fill="#0C0C0C"/>
<path d="M377.715 144.409L377.811 144.143C365.644 139.776 368.619 127.836 368.65 127.716L368.378 127.644C368.346 127.767 365.302 139.953 377.715 144.409Z" fill="#0C0C0C"/>
<path opacity="0.1" d="M360.442 152.187C359.038 152.036 357.99 151.078 358.1 150.048C358.211 149.018 359.44 148.305 360.844 148.456C362.248 148.607 363.297 149.565 363.186 150.595C363.075 151.625 361.847 152.338 360.442 152.187Z" fill="#0C0C0C"/>
<path opacity="0.1" d="M345.529 148.29C345.416 149.319 344.188 150.03 342.783 149.881C342.54 149.855 342.3 149.803 342.068 149.728C341.989 148.503 341.972 147.325 341.995 146.234C342.383 146.132 342.787 146.104 343.186 146.15C344.591 146.299 345.639 147.256 345.529 148.29Z" fill="#0C0C0C"/>
<path d="M318.36 217.268C319.001 224.796 322.119 271.767 322.735 281.041H404.262C404.742 272.677 410.284 236.104 412.103 219.748C413.84 204.141 417.247 196.327 414.75 191.713C410.669 184.172 399.518 179.814 391.915 178.785C387.272 178.157 380.29 177.706 380.29 177.706C380.29 177.706 379.698 189.666 365.6 190.332C346.408 191.236 347.69 177.706 347.595 177.706C344.485 177.706 326.724 179.674 322.379 182.25C310.54 189.262 317 201.316 318.36 217.268Z" fill="#36DA93"/>
<path d="M265.441 222.527L273.3 260.722C273.458 261.498 273.878 262.196 274.489 262.699C275.1 263.203 275.866 263.482 276.657 263.49L330.771 263.95C331.287 263.955 331.798 263.844 332.265 263.625C332.733 263.406 333.146 263.086 333.474 262.687C333.802 262.289 334.036 261.822 334.16 261.321C334.284 260.819 334.295 260.297 334.191 259.791L326.332 221.595C326.173 220.819 325.752 220.122 325.14 219.619C324.529 219.116 323.763 218.838 322.971 218.831L268.858 218.37C268.342 218.366 267.832 218.478 267.365 218.696C266.898 218.915 266.485 219.235 266.158 219.634C265.83 220.032 265.596 220.499 265.472 220.999C265.348 221.5 265.337 222.022 265.441 222.527Z" fill="#292A2E"/>
<path d="M315.901 249.659C315.873 250.161 316.026 250.658 316.335 251.056C316.643 251.455 317.085 251.728 317.579 251.827L319.244 252.194C319.215 252.204 319.188 252.221 319.166 252.244C319.144 252.266 319.129 252.294 319.12 252.324C319.116 252.359 319.124 252.395 319.143 252.426C318.742 252.538 318.387 252.773 318.126 253.097C317.865 253.42 317.711 253.817 317.686 254.233C317.683 254.717 317.844 255.187 318.143 255.568C318.441 255.95 318.859 256.219 319.329 256.333L333.396 259.456C334.115 259.618 334.85 259.699 335.587 259.699C337.229 259.699 338.846 259.299 340.299 258.535C341.752 257.771 342.997 256.664 343.928 255.311C344.914 253.88 345.303 252.12 345.012 250.407C344.721 248.693 343.773 247.16 342.369 246.135L330.403 237.388C330.14 237.195 329.833 237.069 329.511 237.021L330.612 242.368L330.318 242.3L330.256 242.289L321.08 240.42C320.058 240.194 318.657 240.567 318.476 241.73C318.38 242.175 318.436 242.641 318.637 243.05C318.838 243.459 319.172 243.788 319.583 243.983C319.578 243.989 319.566 243.995 319.566 244.006C319.566 244.017 319.572 244.023 319.572 244.034L317.985 243.684C317.695 243.62 317.394 243.62 317.104 243.686C316.814 243.752 316.542 243.882 316.308 244.066C316.074 244.249 315.884 244.482 315.751 244.748C315.618 245.015 315.546 245.307 315.54 245.604C315.54 246.079 315.704 246.539 316.005 246.906C316.305 247.274 316.724 247.526 317.189 247.62L317.872 247.772C317.878 247.795 317.872 247.818 317.883 247.835C317.386 247.838 316.907 248.027 316.541 248.364C316.174 248.701 315.946 249.163 315.901 249.659Z" fill="#E98862"/>
<g opacity="0.25">
<path opacity="0.25" d="M328.706 245.888C328.695 245.935 328.666 245.976 328.626 246.003C328.585 246.029 328.536 246.038 328.488 246.028L319.708 244.227C319.684 244.222 319.662 244.213 319.641 244.199C319.621 244.186 319.604 244.168 319.591 244.148C319.577 244.127 319.568 244.105 319.563 244.081C319.559 244.057 319.559 244.032 319.564 244.008C319.569 243.985 319.578 243.962 319.592 243.942C319.605 243.922 319.623 243.904 319.643 243.891C319.664 243.878 319.686 243.868 319.71 243.864C319.734 243.859 319.759 243.859 319.783 243.864L328.563 245.664C328.611 245.674 328.653 245.703 328.68 245.744C328.707 245.785 328.717 245.835 328.707 245.884L328.706 245.888Z" fill="#0C0C0C"/>
</g>
<g opacity="0.25">
<path opacity="0.25" d="M328.019 249.782C328.008 249.83 327.98 249.871 327.939 249.897C327.898 249.923 327.849 249.932 327.801 249.922L318.003 247.913C317.955 247.903 317.912 247.874 317.885 247.833C317.858 247.792 317.848 247.742 317.858 247.694C317.87 247.647 317.899 247.606 317.939 247.579C317.98 247.552 318.029 247.541 318.077 247.55L327.877 249.559C327.901 249.564 327.924 249.574 327.944 249.587C327.964 249.601 327.981 249.618 327.995 249.639C328.008 249.659 328.017 249.682 328.022 249.706C328.027 249.729 328.027 249.754 328.022 249.778L328.019 249.782Z" fill="#0C0C0C"/>
</g>
<g opacity="0.25">
<path opacity="0.25" d="M327.299 254.004C327.288 254.051 327.259 254.092 327.218 254.118C327.178 254.144 327.128 254.154 327.081 254.144L319.265 252.541C319.241 252.536 319.218 252.526 319.198 252.513C319.178 252.499 319.161 252.482 319.147 252.461C319.134 252.441 319.125 252.418 319.12 252.394C319.115 252.37 319.116 252.346 319.12 252.322C319.125 252.298 319.135 252.275 319.149 252.255C319.162 252.235 319.18 252.218 319.2 252.204C319.22 252.191 319.243 252.182 319.267 252.177C319.291 252.173 319.315 252.173 319.339 252.178L327.155 253.78C327.204 253.79 327.246 253.819 327.273 253.86C327.3 253.901 327.31 253.951 327.3 253.999L327.299 254.004Z" fill="#0C0C0C"/>
</g>
<path d="M334.266 265.022L410.583 278.814C412.964 279.072 415.373 278.776 417.621 277.947C419.868 277.119 421.893 275.781 423.536 274.038C425.18 272.296 426.397 270.196 427.093 267.904C427.789 265.612 427.944 263.19 427.547 260.828L416.866 197.323C416.53 195.314 415.801 193.391 414.721 191.664C413.641 189.937 412.231 188.44 410.572 187.257C408.913 186.075 407.037 185.232 405.052 184.775C403.067 184.318 401.011 184.257 399.003 184.595C396.994 184.933 395.071 185.663 393.345 186.744C391.619 187.826 390.122 189.237 388.942 190.897C387.761 192.556 386.919 194.433 386.463 196.418C386.008 198.404 385.948 200.459 386.288 202.468L393.573 246.184L337.621 239.158L334.266 265.022Z" fill="#36DA93"/>
<path d="M410.583 279.096C410.654 279.095 410.722 279.069 410.774 279.021C410.826 278.974 410.858 278.908 410.864 278.838C410.87 278.768 410.85 278.698 410.807 278.642C410.765 278.586 410.703 278.548 410.633 278.535L334.58 264.792L337.865 239.473L393.537 246.464C393.581 246.47 393.625 246.465 393.667 246.451C393.708 246.436 393.746 246.412 393.776 246.38C393.807 246.348 393.829 246.31 393.842 246.268C393.855 246.226 393.859 246.181 393.851 246.138L389.221 218.197C389.215 218.161 389.202 218.125 389.183 218.094C389.163 218.062 389.137 218.035 389.107 218.013C389.077 217.991 389.043 217.976 389.006 217.968C388.97 217.96 388.933 217.959 388.896 217.965C388.859 217.971 388.824 217.984 388.793 218.004C388.761 218.024 388.734 218.049 388.712 218.079C388.691 218.11 388.675 218.144 388.667 218.18C388.658 218.216 388.657 218.253 388.663 218.29L393.233 245.857L337.657 238.877C337.583 238.868 337.508 238.888 337.449 238.934C337.39 238.979 337.351 239.047 337.342 239.121L333.986 264.984C333.977 265.056 333.996 265.129 334.038 265.187C334.081 265.246 334.145 265.285 334.216 265.298L410.533 279.091C410.549 279.094 410.566 279.096 410.583 279.096Z" fill="#0C0C0C"/>
<path d="M393.616 245.907L398.525 246.692L398.436 247.251L393.527 246.465L393.616 245.907Z" fill="#0C0C0C"/>
<path d="M13.125 312.424H180.139C187.076 312.424 192.7 318.048 192.7 324.985V382.17C192.7 389.107 187.076 394.731 180.139 394.731H13.125C6.18753 394.731 0.563629 389.107 0.563629 382.17V324.985C0.563629 318.048 6.18753 312.424 13.125 312.424Z" fill="white"/>
<path opacity="0.4" d="M13.125 312.424H180.139C187.076 312.424 192.7 318.048 192.7 324.985V382.17C192.7 389.107 187.076 394.731 180.139 394.731H13.125C6.18753 394.731 0.563629 389.107 0.563629 382.17V324.985C0.563629 318.048 6.18753 312.424 13.125 312.424Z" fill="#36DA93"/>
<path d="M13.1247 395.293H180.139C183.619 395.289 186.955 393.905 189.416 391.444C191.876 388.983 193.261 385.647 193.265 382.167V324.987C193.261 321.507 191.876 318.171 189.416 315.71C186.955 313.25 183.619 311.865 180.139 311.861H13.1247C9.64468 311.865 6.30836 313.25 3.84764 315.71C1.3869 318.171 0.00268555 321.507 -0.00135803 324.987V382.169C0.00328064 385.649 1.38776 388.985 3.84843 391.445C6.3091 393.905 9.64507 395.289 13.1247 395.293ZM180.139 312.988C183.32 312.992 186.369 314.257 188.618 316.507C190.867 318.756 192.132 321.806 192.135 324.987V382.169C192.131 385.349 190.866 388.398 188.617 390.647C186.368 392.895 183.319 394.16 180.139 394.164H13.1247C9.94408 394.16 6.89478 392.895 4.64575 390.646C2.39673 388.397 1.13165 385.348 1.12807 382.167V324.987C1.13165 321.807 2.39673 318.757 4.64575 316.508C6.89478 314.259 9.94408 312.994 13.1247 312.991L180.139 312.988Z" fill="#292A2E"/>
<path d="M175.469 377.193C175.621 377.193 175.771 377.152 175.902 377.074C176.032 376.996 176.14 376.885 176.213 376.752C176.286 376.618 176.321 376.467 176.316 376.315C176.31 376.163 176.264 376.016 176.182 375.888C175.998 375.605 157.54 347.382 128.207 347.382C112.88 347.382 103.594 353.296 94.6119 359.015C86.2989 364.309 78.4461 369.31 66.2953 369.31C41.4522 369.31 21.4391 333.231 21.2403 332.867C21.1325 332.67 20.9508 332.523 20.7352 332.46C20.5196 332.397 20.2877 332.422 20.0905 332.53C19.8934 332.637 19.7471 332.819 19.6839 333.035C19.6206 333.25 19.6457 333.482 19.7534 333.679C20.5863 335.204 40.4572 371.006 66.2953 371.006C78.9396 371.006 86.9946 365.877 95.5222 360.446C104.299 354.856 113.374 349.077 128.207 349.077C156.603 349.077 174.578 376.527 174.756 376.804C174.833 376.923 174.938 377.022 175.063 377.089C175.188 377.157 175.327 377.193 175.469 377.193Z" fill="white"/>
<path d="M20.2594 336.59C18.4287 336.59 16.9446 335.105 16.9446 333.275C16.9446 331.444 18.4287 329.96 20.2594 329.96C22.0901 329.96 23.5742 331.444 23.5742 333.275C23.5742 335.105 22.0901 336.59 20.2594 336.59Z" fill="white"/>
</svg>
