<svg width="671" height="477" viewBox="0 0 671 477" fill="none" xmlns="http://www.w3.org/2000/svg">
<path d="M46.2685 8.40234H161.856C164.683 8.40234 166.974 10.6934 166.974 13.5195V81.684C166.974 84.5101 164.683 86.8012 161.856 86.8012H46.2685C43.4424 86.8012 41.1513 84.5101 41.1513 81.684V13.5195C41.1513 10.6934 43.4424 8.40234 46.2685 8.40234Z" fill="#F4F4F4"/>
<g opacity="0.04">
<path opacity="0.04" d="M46.2684 8.40234H161.859C163.212 8.40218 164.51 8.9377 165.469 9.89184C166.428 10.846 166.971 12.1411 166.978 13.494L104.066 56.4276L41.1546 13.494C41.1613 12.1419 41.703 10.8474 42.6612 9.89331C43.6194 8.93925 44.9162 8.40322 46.2684 8.40234Z" fill="#292A2E"/>
</g>
<path d="M6.45988 317.792H152.372C155.939 317.792 158.831 320.684 158.831 324.251V410.299C158.831 413.866 155.939 416.758 152.372 416.758H6.45988C2.89243 416.758 0.000411987 413.866 0.000411987 410.299V324.251C0.000411987 320.684 2.89243 317.792 6.45988 317.792Z" fill="#F4F4F4"/>
<g opacity="0.04">
<path opacity="0.04" d="M6.45743 317.792H152.371C154.079 317.792 155.717 318.468 156.928 319.672C158.139 320.876 158.823 322.511 158.832 324.219L79.417 378.415L0.00363159 324.219C0.0122986 322.512 0.695877 320.878 1.90511 319.674C3.11432 318.47 4.75093 317.793 6.45743 317.792Z" fill="#292A2E"/>
</g>
<path d="M499.925 131.936H613.895C616.682 131.936 618.94 134.194 618.94 136.981V204.191C618.94 206.978 616.682 209.237 613.895 209.237H499.925C497.138 209.237 494.879 206.978 494.879 204.191V136.981C494.879 134.194 497.138 131.936 499.925 131.936Z" fill="#F4F4F4"/>
<g opacity="0.04">
<path opacity="0.04" d="M499.925 131.936H613.895C615.229 131.935 616.509 132.463 617.455 133.404C618.401 134.345 618.935 135.622 618.942 136.956L556.912 179.29L494.881 136.958C494.887 135.624 495.421 134.347 496.367 133.405C497.312 132.464 498.591 131.936 499.925 131.936Z" fill="#292A2E"/>
</g>
<path d="M500.689 179.029C502.155 178.345 503.607 177.637 505.002 176.927C505.183 176.835 505.394 176.818 505.587 176.881C505.781 176.944 505.941 177.081 506.034 177.263C506.126 177.444 506.143 177.655 506.08 177.848C506.017 178.042 505.88 178.202 505.698 178.294C504.288 179.013 502.821 179.727 501.339 180.42C501.155 180.502 500.947 180.508 500.758 180.438C500.57 180.367 500.417 180.226 500.332 180.044C500.246 179.861 500.236 179.653 500.303 179.463C500.37 179.274 500.509 179.118 500.69 179.029H500.689Z" fill="#292A2E"/>
<path d="M478.261 187.556L478.371 187.523C479.877 187.062 481.38 186.582 482.838 186.097C483.031 186.033 483.242 186.048 483.424 186.139C483.606 186.23 483.744 186.39 483.808 186.583C483.873 186.776 483.858 186.986 483.766 187.168C483.675 187.35 483.516 187.489 483.323 187.553C481.851 188.042 480.338 188.526 478.826 188.988L478.706 189.025L478.669 189.035C478.474 189.086 478.267 189.058 478.093 188.957C477.918 188.856 477.79 188.691 477.737 188.497C477.683 188.303 477.708 188.095 477.806 187.919C477.904 187.743 478.068 187.613 478.261 187.556Z" fill="#292A2E"/>
<path d="M511.327 173.497C512.72 172.692 514.101 171.856 515.43 171.017C515.515 170.96 515.611 170.921 515.711 170.902C515.812 170.882 515.915 170.883 516.016 170.904C516.116 170.926 516.211 170.967 516.295 171.025C516.379 171.084 516.451 171.159 516.505 171.245C516.56 171.332 516.597 171.429 516.614 171.53C516.63 171.631 516.627 171.734 516.603 171.834C516.579 171.934 516.535 172.028 516.475 172.11C516.414 172.193 516.337 172.262 516.249 172.315C514.903 173.164 513.505 174.013 512.096 174.826C512.033 174.862 511.967 174.889 511.897 174.907C511.718 174.951 511.528 174.929 511.363 174.845C511.199 174.761 511.07 174.621 511.001 174.449C510.931 174.278 510.926 174.087 510.986 173.912C511.046 173.738 511.167 173.59 511.327 173.497Z" fill="#292A2E"/>
<path d="M466.7 190.985C468.262 190.533 469.806 190.082 471.332 189.634C471.428 189.603 471.53 189.592 471.631 189.602C471.732 189.612 471.83 189.642 471.919 189.69C472.008 189.739 472.086 189.804 472.149 189.884C472.212 189.963 472.258 190.054 472.285 190.152C472.343 190.347 472.32 190.557 472.223 190.736C472.126 190.915 471.961 191.048 471.766 191.106C470.239 191.556 468.692 192.008 467.127 192.46L467.099 192.467C466.905 192.513 466.7 192.482 466.528 192.38C466.356 192.277 466.232 192.112 466.18 191.919C466.128 191.726 466.154 191.52 466.252 191.346C466.349 191.172 466.511 191.042 466.703 190.985H466.7Z" fill="#292A2E"/>
<path d="M521.381 166.991C522.683 166.049 523.963 165.074 525.193 164.093C525.352 163.966 525.555 163.908 525.757 163.931C525.959 163.953 526.144 164.056 526.271 164.215C526.398 164.374 526.456 164.577 526.434 164.779C526.411 164.981 526.309 165.166 526.15 165.293C524.901 166.289 523.602 167.278 522.281 168.234C522.202 168.291 522.112 168.333 522.017 168.357C521.844 168.4 521.662 168.382 521.501 168.305C521.34 168.228 521.211 168.098 521.136 167.936C521.061 167.775 521.044 167.592 521.089 167.42C521.133 167.247 521.237 167.096 521.381 166.991Z" fill="#292A2E"/>
<path d="M489.63 183.685C491.126 183.119 492.63 182.527 494.097 181.922C494.19 181.884 494.29 181.864 494.391 181.864C494.492 181.865 494.591 181.885 494.684 181.923C494.777 181.962 494.862 182.019 494.933 182.09C495.004 182.162 495.06 182.247 495.099 182.34C495.137 182.433 495.157 182.533 495.156 182.634C495.156 182.734 495.136 182.834 495.097 182.927C495.058 183.02 495.002 183.104 494.93 183.175C494.859 183.247 494.774 183.303 494.681 183.341C493.199 183.951 491.68 184.55 490.173 185.121C490.145 185.131 490.116 185.14 490.087 185.147C489.897 185.194 489.696 185.167 489.526 185.071C489.355 184.975 489.228 184.818 489.17 184.631C489.111 184.445 489.127 184.243 489.212 184.067C489.298 183.891 489.447 183.755 489.63 183.685Z" fill="#292A2E"/>
<path d="M530.633 159.414C531.808 158.323 532.954 157.197 534.047 156.067C534.117 155.995 534.201 155.937 534.293 155.897C534.385 155.856 534.485 155.835 534.585 155.833C534.686 155.831 534.786 155.849 534.88 155.886C534.974 155.923 535.059 155.978 535.132 156.048C535.204 156.118 535.262 156.202 535.303 156.294C535.343 156.387 535.364 156.486 535.366 156.587C535.368 156.688 535.35 156.788 535.313 156.882C535.276 156.975 535.221 157.061 535.151 157.133C534.042 158.283 532.873 159.428 531.678 160.539C531.604 160.607 531.517 160.66 531.423 160.696C531.328 160.731 531.228 160.747 531.127 160.743C531.027 160.739 530.928 160.716 530.836 160.674C530.744 160.632 530.662 160.572 530.593 160.499C530.525 160.425 530.471 160.338 530.436 160.244C530.401 160.149 530.385 160.049 530.389 159.948C530.392 159.847 530.416 159.748 530.458 159.657C530.5 159.565 530.559 159.483 530.633 159.414Z" fill="#292A2E"/>
<path d="M530.679 65.2864C529.535 64.2039 528.337 63.1277 527.12 62.0883C527.043 62.0229 526.98 61.943 526.934 61.8533C526.888 61.7635 526.861 61.6656 526.853 61.5651C526.845 61.4647 526.857 61.3636 526.888 61.2678C526.919 61.1719 526.969 61.0831 527.034 61.0065C527.099 60.9298 527.179 60.8668 527.269 60.8211C527.359 60.7753 527.457 60.7476 527.557 60.7397C527.658 60.7318 527.759 60.7437 527.855 60.7748C527.95 60.8059 528.039 60.8556 528.116 60.921C529.353 61.9774 530.571 63.0723 531.734 64.1722C531.807 64.2415 531.866 64.3246 531.907 64.4166C531.948 64.5086 531.971 64.6078 531.973 64.7085C531.976 64.8092 531.959 64.9095 531.923 65.0036C531.887 65.0977 531.833 65.1838 531.763 65.2569C531.694 65.3301 531.611 65.3889 531.519 65.4299C531.427 65.471 531.328 65.4936 531.227 65.4963C531.126 65.499 531.026 65.4819 530.932 65.4459C530.838 65.4099 530.752 65.3557 530.679 65.2864Z" fill="#292A2E"/>
<path d="M551.158 95.3676C551.14 95.3738 551.122 95.3789 551.101 95.3834C550.914 95.4303 550.715 95.4043 550.545 95.3108C550.376 95.2172 550.248 95.0629 550.188 94.879C549.697 93.3907 549.136 91.8888 548.521 90.4157C548.443 90.228 548.442 90.0168 548.519 89.8286C548.596 89.6404 548.745 89.4905 548.933 89.412C549.12 89.3335 549.331 89.3327 549.52 89.4099C549.708 89.4871 549.858 89.6359 549.936 89.8236C550.567 91.3334 551.142 92.8727 551.645 94.399C551.709 94.592 551.693 94.8024 551.602 94.984C551.511 95.1656 551.351 95.3036 551.158 95.3676Z" fill="#292A2E"/>
<path d="M552.736 106.482C552.562 104.923 552.317 103.342 552.009 101.784C551.989 101.685 551.989 101.583 552.009 101.484C552.029 101.385 552.068 101.291 552.124 101.208C552.18 101.124 552.252 101.052 552.336 100.996C552.419 100.94 552.514 100.901 552.612 100.882C552.711 100.862 552.813 100.862 552.912 100.882C553.011 100.902 553.105 100.941 553.188 100.997C553.272 101.053 553.344 101.125 553.4 101.209C553.456 101.292 553.495 101.386 553.514 101.485C553.831 103.087 554.08 104.712 554.261 106.314C554.281 106.498 554.235 106.684 554.129 106.836C554.023 106.989 553.866 107.098 553.686 107.143C553.652 107.152 553.618 107.158 553.583 107.161C553.483 107.172 553.382 107.164 553.285 107.136C553.188 107.108 553.097 107.061 553.019 106.998C552.94 106.935 552.874 106.857 552.826 106.768C552.777 106.68 552.747 106.583 552.736 106.482Z" fill="#292A2E"/>
<path d="M543.172 78.83C543.343 78.7196 543.551 78.6815 543.75 78.724C543.948 78.7664 544.122 78.886 544.233 79.0564C545.123 80.4304 545.967 81.8367 546.744 83.2378C546.842 83.4159 546.866 83.6258 546.81 83.8214C546.754 84.0171 546.622 84.1824 546.444 84.2812C546.386 84.3133 546.323 84.338 546.258 84.3548C546.094 84.3955 545.921 84.3811 545.766 84.3136C545.611 84.2462 545.483 84.1295 545.401 83.9817C544.642 82.6111 543.816 81.2349 542.946 79.8903C542.836 79.7196 542.797 79.5121 542.84 79.3134C542.882 79.1146 543.002 78.9407 543.172 78.83Z" fill="#292A2E"/>
<path d="M553.067 113.604C553.075 113.404 553.161 113.214 553.307 113.076C553.453 112.938 553.647 112.863 553.848 112.866C554.049 112.87 554.24 112.952 554.381 113.096C554.522 113.239 554.601 113.432 554.602 113.633C554.572 115.254 554.469 116.896 554.298 118.513C554.288 118.613 554.257 118.711 554.209 118.799C554.161 118.888 554.096 118.966 554.018 119.029C553.939 119.092 553.849 119.14 553.753 119.168C553.656 119.197 553.555 119.206 553.455 119.195C553.354 119.185 553.257 119.155 553.169 119.106C553.08 119.058 553.002 118.993 552.939 118.915C552.875 118.837 552.828 118.747 552.8 118.65C552.771 118.553 552.762 118.452 552.772 118.352C552.938 116.779 553.038 115.182 553.067 113.604Z" fill="#292A2E"/>
<path d="M539.842 74.2017C539.757 74.2701 539.658 74.3192 539.552 74.3455C539.409 74.3813 539.259 74.375 539.119 74.3275C538.979 74.2801 538.856 74.1933 538.765 74.0778C537.79 72.851 536.754 71.6214 535.683 70.424C535.553 70.2714 535.489 70.0743 535.503 69.8747C535.516 69.6752 535.608 69.4889 535.757 69.3555C535.906 69.2222 536.101 69.1524 536.301 69.1608C536.501 69.1693 536.69 69.2555 536.827 69.401C537.918 70.621 538.974 71.8733 539.967 73.1244C540.029 73.2033 540.076 73.2937 540.103 73.3906C540.131 73.4875 540.139 73.5888 540.128 73.6889C540.116 73.789 540.085 73.8858 540.036 73.9738C539.987 74.0618 539.921 74.1393 539.842 74.2017Z" fill="#292A2E"/>
<path d="M547.651 136.6C547.737 136.415 547.892 136.272 548.083 136.202C548.274 136.132 548.485 136.141 548.67 136.227C548.855 136.312 548.998 136.468 549.067 136.659C549.137 136.85 549.129 137.061 549.043 137.246C548.367 138.7 547.62 140.161 546.822 141.59C546.72 141.763 546.554 141.889 546.361 141.941C546.167 141.993 545.961 141.967 545.786 141.869C545.611 141.772 545.481 141.609 545.424 141.417C545.368 141.225 545.388 141.018 545.482 140.84C546.262 139.446 546.989 138.021 547.651 136.6Z" fill="#292A2E"/>
<path d="M517.362 53.8064C517.475 53.6375 517.651 53.5205 517.851 53.4812C518.05 53.442 518.257 53.4836 518.426 53.5969C519.78 54.5027 521.117 55.4448 522.402 56.3913C522.483 56.4511 522.551 56.5263 522.604 56.6125C522.656 56.6988 522.69 56.7945 522.705 56.8941C522.72 56.9937 522.716 57.0953 522.691 57.1931C522.667 57.2909 522.624 57.383 522.564 57.4641C522.505 57.5452 522.429 57.6138 522.343 57.6658C522.257 57.7179 522.161 57.7525 522.062 57.7675C521.962 57.7826 521.86 57.7779 521.762 57.7538C521.665 57.7296 521.573 57.6864 521.491 57.6266C520.225 56.6936 518.906 55.7663 517.572 54.8707C517.403 54.7574 517.286 54.5817 517.246 54.3821C517.207 54.1825 517.248 53.9754 517.362 53.8064Z" fill="#292A2E"/>
<path d="M538.792 150.699C539.796 149.453 540.764 148.171 541.666 146.89C541.723 146.805 541.797 146.732 541.882 146.675C541.968 146.619 542.064 146.58 542.164 146.562C542.265 146.543 542.368 146.545 542.468 146.567C542.569 146.588 542.663 146.63 542.747 146.689C542.831 146.748 542.902 146.823 542.956 146.91C543.01 146.997 543.046 147.094 543.063 147.195C543.079 147.296 543.075 147.399 543.05 147.499C543.026 147.598 542.982 147.692 542.921 147.774C541.999 149.082 541.012 150.391 539.986 151.663C539.924 151.744 539.846 151.813 539.757 151.864C539.668 151.915 539.57 151.948 539.468 151.96C539.366 151.973 539.262 151.965 539.164 151.936C539.065 151.908 538.973 151.861 538.893 151.796C538.813 151.732 538.747 151.652 538.699 151.562C538.65 151.471 538.62 151.372 538.611 151.27C538.601 151.168 538.613 151.064 538.644 150.967C538.675 150.869 538.725 150.778 538.792 150.7V150.699Z" fill="#292A2E"/>
<path d="M551.568 125.383C551.615 125.185 551.739 125.013 551.913 124.907C552.086 124.8 552.295 124.767 552.492 124.814C552.69 124.861 552.862 124.985 552.968 125.158C553.075 125.331 553.108 125.54 553.061 125.738C552.687 127.31 552.24 128.891 551.734 130.437C551.67 130.63 551.533 130.791 551.351 130.882C551.17 130.974 550.959 130.99 550.766 130.927C550.572 130.864 550.412 130.726 550.32 130.545C550.228 130.363 550.212 130.152 550.275 129.959C550.769 128.454 551.204 126.913 551.568 125.383Z" fill="#292A2E"/>
<path d="M506.976 47.6805C507.072 47.501 507.235 47.3669 507.43 47.3077C507.625 47.2484 507.835 47.2689 508.015 47.3646C509.446 48.1283 510.873 48.9249 512.254 49.7316C512.341 49.7824 512.417 49.8499 512.478 49.9302C512.539 50.0105 512.583 50.1019 512.609 50.1994C512.634 50.2969 512.64 50.3984 512.627 50.4982C512.613 50.598 512.58 50.6942 512.529 50.7812C512.478 50.8682 512.411 50.9443 512.33 51.0052C512.25 51.0661 512.159 51.1106 512.061 51.1361C511.964 51.1617 511.862 51.1678 511.762 51.1541C511.662 51.1404 511.566 51.1072 511.479 51.0563C510.116 50.2598 508.705 49.4712 507.29 48.7188C507.111 48.6226 506.977 48.4592 506.918 48.2645C506.86 48.0699 506.88 47.8598 506.976 47.6805Z" fill="#292A2E"/>
<path d="M499.219 43.0778C499.967 43.4107 500.708 43.7477 501.442 44.0889C501.534 44.1313 501.616 44.1913 501.684 44.2655C501.752 44.3397 501.805 44.4265 501.84 44.5212C501.875 44.6158 501.89 44.7163 501.886 44.817C501.882 44.9177 501.858 45.0165 501.815 45.1079C501.773 45.1994 501.713 45.2815 501.639 45.3497C501.565 45.4179 501.478 45.4709 501.383 45.5055C501.289 45.5402 501.188 45.5558 501.087 45.5516C500.987 45.5474 500.888 45.5234 500.796 45.481C500.069 45.1413 499.335 44.8077 498.595 44.4801C498.416 44.393 498.278 44.2399 498.21 44.0531C498.142 43.8662 498.149 43.6603 498.23 43.4786C498.31 43.2968 498.458 43.1535 498.643 43.0788C498.827 43.004 499.033 43.0037 499.217 43.0778H499.219Z" fill="#292A2E"/>
<path d="M160.028 446.647C161.537 446.94 162.38 447.071 162.389 447.073C162.489 447.089 162.584 447.124 162.67 447.176C162.756 447.229 162.831 447.297 162.891 447.379C163.011 447.543 163.06 447.749 163.029 447.95C162.998 448.151 162.888 448.331 162.723 448.451C162.559 448.571 162.354 448.621 162.153 448.589C162.117 448.584 161.277 448.452 159.735 448.153C159.635 448.135 159.54 448.097 159.455 448.042C159.369 447.986 159.296 447.915 159.239 447.831C159.181 447.747 159.141 447.653 159.121 447.553C159.1 447.454 159.1 447.351 159.119 447.252C159.138 447.152 159.177 447.057 159.234 446.973C159.29 446.888 159.362 446.816 159.447 446.759C159.532 446.703 159.626 446.664 159.726 446.645C159.826 446.626 159.928 446.626 160.028 446.647Z" fill="#292A2E"/>
<path d="M44.9519 341.068C45.0827 342.658 45.2508 344.261 45.4517 345.833C45.4757 346.019 45.4305 346.207 45.3247 346.363C45.2189 346.518 45.0599 346.629 44.8777 346.674C44.8483 346.682 44.8184 346.687 44.7882 346.691C44.6883 346.704 44.5868 346.697 44.4895 346.67C44.3922 346.644 44.3011 346.599 44.2214 346.537C44.1416 346.475 44.0748 346.399 44.0247 346.311C43.9746 346.224 43.9422 346.127 43.9295 346.027C43.7257 344.433 43.5552 342.807 43.4199 341.194C43.4126 340.997 43.4818 340.804 43.6129 340.657C43.744 340.509 43.927 340.417 44.1239 340.401C44.3208 340.385 44.5164 340.445 44.6699 340.569C44.8235 340.694 44.9233 340.872 44.9485 341.068H44.9519Z" fill="#292A2E"/>
<path d="M44.5869 333.889C44.5905 334.062 44.535 334.232 44.4296 334.37C44.3242 334.508 44.1751 334.606 44.0067 334.648C43.9511 334.662 43.8942 334.67 43.8369 334.671C43.7361 334.673 43.6359 334.655 43.5421 334.618C43.4482 334.581 43.3625 334.526 43.2899 334.457C43.2173 334.387 43.1591 334.303 43.1188 334.211C43.0785 334.118 43.0568 334.019 43.055 333.918C43.0239 332.325 43.025 330.691 43.0584 329.063C43.0626 328.86 43.1473 328.666 43.2941 328.525C43.4409 328.384 43.6376 328.308 43.8411 328.312C44.0445 328.316 44.238 328.401 44.3789 328.547C44.5199 328.694 44.5967 328.891 44.5926 329.094C44.5558 330.702 44.5558 332.314 44.5869 333.889Z" fill="#292A2E"/>
<path d="M45.8043 310.621C45.681 310.651 45.552 310.651 45.4288 310.62C45.3057 310.588 45.1923 310.527 45.0988 310.441C45.0053 310.355 44.9346 310.247 44.8931 310.127C44.8516 310.007 44.8406 309.878 44.8611 309.753C45.1187 308.17 45.4058 306.564 45.7143 304.979C45.7553 304.782 45.8725 304.608 46.0405 304.497C46.2085 304.385 46.4137 304.344 46.6117 304.382C46.8098 304.421 46.9846 304.536 47.0985 304.702C47.2124 304.869 47.2561 305.073 47.2201 305.272C46.915 306.842 46.6314 308.433 46.3761 310C46.3521 310.148 46.2851 310.286 46.1835 310.396C46.0818 310.506 45.95 310.585 45.8043 310.621Z" fill="#292A2E"/>
<path d="M73.8947 404.567C73.9652 404.494 74.0491 404.437 74.1418 404.397C74.2345 404.358 74.3342 404.337 74.435 404.336C74.5358 404.335 74.6358 404.354 74.7292 404.392C74.8227 404.43 74.9077 404.486 74.9794 404.556C76.1117 405.669 77.2881 406.777 78.4679 407.847C78.6186 407.983 78.7089 408.174 78.7188 408.378C78.7287 408.581 78.6575 408.78 78.5208 408.931C78.3841 409.081 78.1931 409.172 77.9899 409.182C77.7866 409.191 77.5877 409.12 77.437 408.983C76.2424 407.901 75.0536 406.779 73.9049 405.651C73.833 405.581 73.7756 405.497 73.7361 405.404C73.6967 405.311 73.6759 405.212 73.675 405.111C73.674 405.01 73.693 404.91 73.7307 404.817C73.7684 404.724 73.8241 404.638 73.8947 404.567Z" fill="#292A2E"/>
<path d="M93.5995 419.635C94.9169 420.519 96.2722 421.399 97.6297 422.249C97.8024 422.357 97.925 422.529 97.9707 422.728C98.0163 422.926 97.9813 423.135 97.8732 423.307C97.765 423.48 97.5928 423.603 97.3942 423.648C97.1957 423.694 96.9872 423.659 96.8145 423.551C95.4439 422.692 94.0745 421.803 92.7441 420.91C92.6605 420.854 92.5887 420.782 92.5329 420.698C92.4771 420.614 92.4384 420.52 92.419 420.421C92.3996 420.322 92.3998 420.22 92.4197 420.122C92.4396 420.023 92.4787 419.929 92.5349 419.845C92.5911 419.762 92.6632 419.69 92.7471 419.634C92.831 419.578 92.925 419.54 93.0239 419.52C93.1227 419.501 93.2244 419.501 93.3232 419.521C93.422 419.541 93.5159 419.58 93.5995 419.636V419.635Z" fill="#292A2E"/>
<path d="M48.748 298.233C48.7266 298.333 48.6854 298.428 48.6268 298.512C48.5683 298.596 48.4935 298.667 48.4069 298.722C48.3204 298.777 48.2238 298.813 48.1228 298.83C48.0218 298.847 47.9185 298.843 47.8189 298.819C47.7193 298.796 47.6255 298.752 47.543 298.692C47.4605 298.631 47.3909 298.555 47.3384 298.467C47.2859 298.379 47.2514 298.281 47.2371 298.18C47.2228 298.079 47.2289 297.975 47.2551 297.876C47.6271 296.323 48.0279 294.743 48.444 293.178C48.4973 292.982 48.626 292.815 48.8018 292.714C48.9776 292.613 49.1863 292.586 49.3822 292.638C49.5781 292.691 49.7453 292.819 49.8472 292.994C49.9492 293.169 49.9775 293.378 49.9261 293.574C49.514 295.124 49.1165 296.692 48.748 298.233Z" fill="#292A2E"/>
<path d="M58.4219 271.113C58.4781 271.029 58.5503 270.957 58.6342 270.902C58.7182 270.846 58.8123 270.807 58.9111 270.788C59.01 270.768 59.1117 270.769 59.2105 270.789C59.3093 270.808 59.4032 270.848 59.4868 270.904C59.5704 270.96 59.6422 271.032 59.698 271.116C59.7537 271.2 59.7924 271.294 59.8118 271.393C59.8312 271.492 59.831 271.594 59.811 271.692C59.7911 271.791 59.7519 271.885 59.6957 271.969C58.8029 273.299 57.9509 274.658 57.1634 276.009C57.1139 276.098 57.0471 276.177 56.9668 276.24C56.8866 276.303 56.7945 276.35 56.6961 276.377C56.5976 276.404 56.4948 276.411 56.3935 276.398C56.2923 276.385 56.1947 276.351 56.1064 276.3C56.0182 276.249 55.9411 276.18 55.8797 276.098C55.8183 276.017 55.7738 275.924 55.7488 275.825C55.7238 275.726 55.7189 275.623 55.7342 275.522C55.7496 275.421 55.7849 275.324 55.8382 275.237C56.6415 273.857 57.5105 272.47 58.4219 271.113Z" fill="#292A2E"/>
<path d="M82.8581 412.636C82.9863 412.479 83.1719 412.378 83.3742 412.357C83.5765 412.336 83.7789 412.395 83.9371 412.523C85.1656 413.515 86.44 414.505 87.7256 415.467C87.8824 415.591 87.9845 415.772 88.0102 415.97C88.036 416.168 87.9833 416.369 87.8634 416.529C87.7436 416.689 87.5659 416.796 87.3683 416.827C87.1708 416.858 86.969 416.811 86.8057 416.695C85.5036 415.722 84.2162 414.72 82.973 413.716C82.8946 413.653 82.8293 413.574 82.7811 413.486C82.7329 413.397 82.7026 413.3 82.692 413.2C82.6813 413.1 82.6904 412.998 82.7189 412.902C82.7474 412.805 82.7948 412.715 82.8581 412.636Z" fill="#292A2E"/>
<path d="M52.4883 281.711C52.5724 281.526 52.7267 281.381 52.9171 281.31C53.1076 281.238 53.3186 281.245 53.5039 281.329C53.6892 281.413 53.8335 281.568 53.9051 281.758C53.9766 281.949 53.9696 282.16 53.8855 282.345C53.2288 283.792 52.6168 285.275 52.0671 286.753C51.9924 286.939 51.8482 287.088 51.6652 287.169C51.4822 287.25 51.2749 287.256 51.0874 287.186C50.8999 287.116 50.7471 286.976 50.6614 286.795C50.5757 286.615 50.5639 286.408 50.6286 286.218C51.1908 284.707 51.8169 283.19 52.4883 281.711Z" fill="#292A2E"/>
<path d="M48.6735 364.001C48.7692 363.97 48.8701 363.958 48.9706 363.965C49.0711 363.973 49.1691 364 49.2591 364.045C49.349 364.09 49.4291 364.153 49.4948 364.229C49.5606 364.306 49.6107 364.394 49.6422 364.49C50.1409 366.002 50.6821 367.517 51.2522 368.993C51.3255 369.183 51.3204 369.394 51.238 369.58C51.1556 369.766 51.0027 369.912 50.8129 369.985C50.7831 369.996 50.7527 370.006 50.7218 370.014C50.5404 370.059 50.3486 370.036 50.1827 369.95C50.0167 369.864 49.8879 369.72 49.8205 369.546C49.2413 368.046 48.6911 366.507 48.185 364.97C48.1535 364.874 48.1411 364.773 48.1486 364.673C48.1561 364.573 48.1832 364.475 48.2286 364.385C48.274 364.295 48.3366 364.214 48.413 364.149C48.4893 364.083 48.5778 364.033 48.6735 364.001Z" fill="#292A2E"/>
<path d="M45.0997 353.221C45.0776 353.122 45.0758 353.02 45.0945 352.92C45.1131 352.82 45.1518 352.726 45.2082 352.641C45.2645 352.557 45.3374 352.485 45.4224 352.43C45.5074 352.374 45.6028 352.337 45.7027 352.319C45.9022 352.28 46.1093 352.321 46.2784 352.434C46.4475 352.547 46.5648 352.723 46.6045 352.922C46.9158 354.488 47.268 356.06 47.6507 357.595C47.677 357.693 47.6835 357.796 47.6697 357.896C47.656 357.997 47.6223 358.094 47.5706 358.182C47.519 358.27 47.4503 358.347 47.3687 358.407C47.2871 358.468 47.1942 358.512 47.0954 358.537C46.9966 358.562 46.8938 358.567 46.7932 358.551C46.6925 358.536 46.596 358.5 46.5092 358.447C46.4223 358.394 46.3469 358.324 46.2873 358.241C46.2278 358.159 46.1853 358.065 46.1623 357.966C45.7734 356.408 45.4156 354.811 45.0997 353.221Z" fill="#292A2E"/>
<path d="M53.0624 375.219C53.1533 375.175 53.2519 375.15 53.3526 375.145C53.4533 375.139 53.554 375.154 53.649 375.188C53.7441 375.221 53.8315 375.274 53.9063 375.341C53.981 375.409 54.0417 375.491 54.0848 375.582C54.7641 377.012 55.4916 378.447 56.2462 379.849C56.294 379.937 56.3238 380.035 56.334 380.135C56.3441 380.235 56.3345 380.336 56.3055 380.433C56.2765 380.529 56.2289 380.619 56.1652 380.697C56.1015 380.775 56.0231 380.84 55.9343 380.888C55.8456 380.936 55.7483 380.966 55.648 380.976C55.5478 380.986 55.4465 380.976 55.35 380.947C55.2535 380.918 55.1636 380.871 55.0856 380.807C55.0075 380.743 54.9427 380.665 54.8949 380.576C54.1284 379.152 53.389 377.694 52.6983 376.241C52.6111 376.057 52.6005 375.846 52.6688 375.654C52.737 375.463 52.8786 375.306 53.0624 375.219Z" fill="#292A2E"/>
<path d="M44.3631 322.594C44.2452 322.623 44.1221 322.624 44.0038 322.596C43.8856 322.568 43.7756 322.513 43.6828 322.435C43.5901 322.356 43.5172 322.257 43.4701 322.145C43.4231 322.033 43.4031 321.912 43.412 321.791C43.5337 320.201 43.6877 318.576 43.8694 316.96C43.8949 316.76 43.9978 316.579 44.1561 316.454C44.3143 316.33 44.5152 316.272 44.7153 316.295C44.9154 316.317 45.0987 316.417 45.2257 316.573C45.3526 316.73 45.4131 316.93 45.394 317.13C45.2145 318.728 45.0622 320.335 44.9411 321.906C44.9291 322.067 44.8669 322.22 44.7631 322.344C44.6594 322.467 44.5194 322.555 44.3631 322.594Z" fill="#292A2E"/>
<path d="M65.8221 395.611C65.9001 395.547 65.9898 395.499 66.0863 395.47C66.1828 395.441 66.284 395.431 66.3843 395.441C66.4845 395.451 66.5818 395.481 66.6706 395.529C66.7594 395.576 66.8379 395.641 66.9017 395.719C67.9043 396.945 68.9528 398.169 70.0154 399.358C70.0826 399.433 70.1343 399.521 70.1677 399.616C70.201 399.711 70.2153 399.812 70.2098 399.912C70.2042 400.013 70.1789 400.111 70.1352 400.202C70.0915 400.293 70.0305 400.374 69.9554 400.442C69.8803 400.509 69.7927 400.561 69.6976 400.594C69.6025 400.627 69.5018 400.642 69.4011 400.636C69.3005 400.63 69.202 400.605 69.1112 400.561C69.0203 400.518 68.939 400.457 68.8718 400.382C67.7928 399.175 66.7296 397.934 65.7123 396.69C65.6486 396.612 65.6009 396.523 65.5719 396.426C65.543 396.329 65.5333 396.228 65.5435 396.128C65.5537 396.028 65.5836 395.93 65.6314 395.842C65.6792 395.753 65.744 395.675 65.8221 395.611Z" fill="#292A2E"/>
<path d="M58.8219 385.801C58.9069 385.747 59.0017 385.71 59.101 385.692C59.2003 385.675 59.3021 385.677 59.4005 385.699C59.499 385.721 59.5922 385.762 59.6747 385.82C59.7573 385.877 59.8276 385.951 59.8816 386.036C60.7308 387.367 61.6282 388.703 62.5515 390.008C62.6118 390.09 62.6551 390.183 62.6789 390.282C62.7028 390.381 62.7066 390.484 62.6903 390.585C62.674 390.685 62.6378 390.782 62.5838 390.868C62.5299 390.954 62.4593 391.029 62.3762 391.088C62.293 391.147 62.1989 391.189 62.0995 391.211C62 391.233 61.8972 391.235 61.7969 391.217C61.6966 391.199 61.6009 391.161 61.5153 391.106C61.4298 391.051 61.3561 390.979 61.2987 390.895C60.3612 389.569 59.4491 388.212 58.5875 386.861C58.4781 386.689 58.4413 386.481 58.4853 386.283C58.5292 386.084 58.6503 385.911 58.8219 385.801Z" fill="#292A2E"/>
<path d="M148.325 443.904C149.884 444.324 151.454 444.726 152.991 445.099C153.089 445.123 153.181 445.166 153.263 445.226C153.344 445.285 153.413 445.36 153.465 445.446C153.518 445.532 153.553 445.628 153.568 445.727C153.584 445.827 153.579 445.928 153.555 446.026C153.532 446.124 153.489 446.216 153.429 446.298C153.37 446.379 153.295 446.448 153.209 446.5C153.123 446.553 153.027 446.588 152.928 446.603C152.828 446.619 152.727 446.614 152.629 446.591C151.08 446.215 149.497 445.809 147.925 445.386C147.828 445.36 147.737 445.315 147.657 445.253C147.577 445.192 147.51 445.115 147.46 445.028C147.41 444.94 147.377 444.844 147.364 444.744C147.351 444.644 147.358 444.543 147.384 444.445C147.411 444.348 147.456 444.257 147.517 444.177C147.579 444.097 147.655 444.03 147.743 443.98C147.83 443.93 147.926 443.897 148.026 443.884C148.126 443.871 148.228 443.878 148.325 443.904Z" fill="#292A2E"/>
<path d="M90.7328 242.831C90.5566 242.875 90.3705 242.855 90.2077 242.775C90.0449 242.694 89.9159 242.559 89.8435 242.392C89.7711 242.226 89.7601 242.039 89.8125 241.865C89.8648 241.691 89.9771 241.541 90.1293 241.442C91.4642 240.578 92.8467 239.711 94.2371 238.865C94.4111 238.76 94.62 238.728 94.8178 238.776C95.0156 238.824 95.1861 238.949 95.2918 239.123C95.3975 239.297 95.4297 239.506 95.3814 239.704C95.3331 239.902 95.2082 240.072 95.0342 240.178C93.6551 241.015 92.2856 241.876 90.9637 242.73C90.8928 242.776 90.8148 242.81 90.7328 242.831Z" fill="#292A2E"/>
<path d="M136.805 440.431C138.315 440.935 139.857 441.429 141.391 441.903C141.487 441.933 141.577 441.981 141.654 442.046C141.732 442.11 141.796 442.189 141.843 442.278C141.89 442.367 141.919 442.465 141.928 442.565C141.938 442.665 141.927 442.767 141.897 442.863C141.868 442.959 141.819 443.049 141.755 443.126C141.691 443.204 141.612 443.268 141.523 443.315C141.434 443.362 141.336 443.391 141.236 443.4C141.135 443.41 141.034 443.399 140.938 443.369C139.393 442.895 137.839 442.396 136.319 441.889C136.126 441.824 135.966 441.686 135.875 441.504C135.784 441.322 135.77 441.111 135.834 440.918C135.898 440.725 136.037 440.565 136.219 440.474C136.401 440.384 136.612 440.369 136.805 440.433L136.805 440.431Z" fill="#292A2E"/>
<path d="M114.491 431.469C115.929 432.154 117.399 432.831 118.861 433.481C119.04 433.568 119.177 433.721 119.246 433.908C119.314 434.095 119.307 434.301 119.226 434.483C119.145 434.664 118.997 434.808 118.813 434.882C118.629 434.957 118.423 434.957 118.238 434.883C116.766 434.227 115.282 433.545 113.833 432.854C113.649 432.767 113.508 432.61 113.44 432.418C113.372 432.227 113.383 432.016 113.47 431.832C113.558 431.648 113.714 431.507 113.906 431.439C114.098 431.371 114.309 431.382 114.493 431.469H114.491Z" fill="#292A2E"/>
<path d="M103.824 425.934C105.203 426.712 106.623 427.488 108.043 428.237C108.223 428.332 108.358 428.494 108.419 428.689C108.479 428.883 108.46 429.094 108.365 429.274C108.27 429.454 108.107 429.589 107.913 429.649C107.718 429.71 107.508 429.69 107.328 429.595C105.894 428.84 104.461 428.057 103.069 427.271C102.892 427.171 102.762 427.004 102.708 426.808C102.653 426.612 102.679 426.403 102.779 426.225C102.879 426.048 103.046 425.918 103.242 425.864C103.438 425.809 103.647 425.835 103.824 425.935V425.934Z" fill="#292A2E"/>
<path d="M63.542 266.474C63.3859 266.513 63.2215 266.502 63.0721 266.442C62.9227 266.383 62.7957 266.278 62.7092 266.142C62.6226 266.007 62.5808 265.848 62.5897 265.687C62.5987 265.526 62.6579 265.373 62.759 265.248C63.7593 264.011 64.8236 262.767 65.9207 261.552C66.0588 261.408 66.2479 261.322 66.4478 261.315C66.6476 261.308 66.8425 261.378 66.9909 261.512C67.1394 261.646 67.2297 261.833 67.2426 262.033C67.2554 262.232 67.1899 262.429 67.0598 262.581C65.9808 263.776 64.9352 264.997 63.9518 266.212C63.8476 266.342 63.7036 266.434 63.542 266.474Z" fill="#292A2E"/>
<path d="M125.511 436.289C126.977 436.878 128.487 437.462 129.998 438.026C130.184 438.101 130.333 438.245 130.414 438.428C130.495 438.612 130.501 438.819 130.431 439.007C130.361 439.194 130.22 439.347 130.039 439.433C129.858 439.518 129.651 439.529 129.462 439.464C127.939 438.898 126.418 438.307 124.939 437.714C124.843 437.678 124.755 437.623 124.68 437.553C124.606 437.483 124.546 437.398 124.505 437.305C124.463 437.211 124.441 437.11 124.439 437.007C124.438 436.905 124.456 436.803 124.494 436.708C124.533 436.613 124.589 436.527 124.662 436.454C124.734 436.381 124.82 436.324 124.914 436.285C125.009 436.245 125.11 436.226 125.213 436.227C125.315 436.227 125.417 436.249 125.511 436.289Z" fill="#292A2E"/>
<path d="M71.7237 257.632C71.5589 257.674 71.3849 257.66 71.2288 257.593C71.0727 257.525 70.9435 257.407 70.8615 257.258C70.7795 257.109 70.7492 256.937 70.7756 256.769C70.8019 256.601 70.8833 256.447 71.007 256.33C72.1546 255.235 73.3615 254.133 74.5951 253.056C74.7484 252.922 74.9487 252.854 75.1517 252.868C75.3547 252.882 75.544 252.976 75.6779 253.129C75.8117 253.282 75.8792 253.482 75.8654 253.685C75.8517 253.888 75.7579 254.078 75.6046 254.212C74.388 255.274 73.198 256.36 72.0668 257.438C71.9713 257.532 71.853 257.599 71.7237 257.632Z" fill="#292A2E"/>
<path d="M80.8792 249.789C80.7083 249.831 80.528 249.814 80.3686 249.739C80.2091 249.665 80.0801 249.538 80.0032 249.379C79.9263 249.221 79.9062 249.041 79.9462 248.869C79.9862 248.698 80.0839 248.546 80.223 248.438C81.4764 247.468 82.7864 246.492 84.1157 245.538C84.1971 245.474 84.2907 245.427 84.3908 245.4C84.491 245.373 84.5956 245.366 84.6984 245.38C84.8011 245.395 84.8999 245.43 84.9887 245.484C85.0775 245.537 85.1545 245.608 85.2151 245.693C85.2756 245.777 85.3185 245.873 85.3411 245.974C85.3636 246.075 85.3653 246.18 85.3462 246.282C85.3271 246.384 85.2875 246.481 85.2299 246.567C85.1722 246.654 85.0977 246.727 85.0107 246.784C83.6962 247.727 82.4009 248.691 81.1611 249.65C81.0778 249.715 80.9818 249.763 80.8792 249.789Z" fill="#292A2E"/>
<path d="M502.192 23.2729L501.82 48.0192L410.754 0.65918L502.192 23.2729Z" fill="#0CBC8B"/>
<path opacity="0.2" d="M502.192 23.2729L501.82 48.0192L410.754 0.65918L502.192 23.2729Z" fill="#0A0A0A"/>
<path d="M497.463 30.5823L501.82 48.0195L432.146 10.4199L497.463 30.5823Z" fill="#0CBC8B"/>
<path opacity="0.1" d="M497.463 30.5823L501.82 48.0195L432.146 10.4199L497.463 30.5823Z" fill="#0A0A0A"/>
<path d="M510.678 9.89432L410.754 0.65918L480.894 60.6579L497.463 30.5821L410.754 0.65918L502.192 23.2729L510.678 9.89432Z" fill="#0CBC8B"/>
<path d="M516.611 202.086L298.013 341.174L79.415 202.086L298.088 0L516.611 202.086Z" fill="#292A2E"/>
<path d="M121.776 29.5166H474.25V414.744H121.776V29.5166Z" fill="white"/>
<path d="M121.209 415.311H474.816V28.9502H121.209V415.311ZM473.684 414.178H122.341V30.0824H473.684L473.684 414.178Z" fill="#292A2E"/>
<path d="M368.02 64.0605H440.332V136.372H368.02V64.0605Z" fill="white"/>
<path d="M367.454 136.939H440.898V63.4941H367.454V136.939ZM439.765 135.807H368.586V64.6264H439.766L439.765 135.807Z" fill="#292A2E"/>
<path d="M154.346 164.718H440.331V165.85H154.346V164.718Z" fill="#292A2E"/>
<path d="M154.346 191.846H440.331V192.978H154.346V191.846Z" fill="#292A2E"/>
<path d="M154.346 218.975H440.331V220.107H154.346V218.975Z" fill="#292A2E"/>
<path d="M154.346 246.103H440.331V247.235H154.346V246.103Z" fill="#292A2E"/>
<path d="M154.346 273.231H440.331V274.364H154.346V273.231Z" fill="#292A2E"/>
<path d="M154.346 300.359H440.331V301.492H154.346V300.359Z" fill="#292A2E"/>
<path d="M79.415 474.498H516.611V202.085L298.013 335.512L79.415 202.085V474.498Z" fill="#367CFF"/>
<path opacity="0.83" d="M79.415 474.498H516.611V202.085L298.013 335.512L79.415 202.085V474.498Z" fill="white"/>
<path d="M632.661 465.072L633.885 472.827C634.017 473.667 634.443 474.433 635.087 474.989C635.731 475.544 636.551 475.854 637.401 475.862L668.578 476.164C669.026 476.168 669.462 476.02 669.814 475.744C670.167 475.467 670.415 475.08 670.518 474.644C670.62 474.208 670.572 473.75 670.38 473.345C670.188 472.941 669.864 472.613 669.462 472.417L650.744 463.298L632.661 465.072Z" fill="#E98862"/>
<path d="M596.191 425.537C596.191 425.537 596.402 471.29 563.292 475.526L532.121 446.997L512.795 408.45L585.132 416.433L596.191 425.537Z" fill="#262626"/>
<path d="M597.083 423.046L597.182 423.072C597.182 423.072 597.504 421.133 597.083 423.046Z" fill="#333333"/>
<path d="M471.645 290.533C471.651 290.513 471.671 290.503 471.684 290.486L471.371 289.856C471.152 289.433 471.085 288.948 471.183 288.482C471.281 288.016 471.536 287.599 471.907 287.3C472.143 287.117 472.416 286.989 472.708 286.925C472.999 286.861 473.301 286.862 473.592 286.929C473.883 286.996 474.156 287.126 474.39 287.311C474.624 287.496 474.815 287.73 474.947 287.997L475.67 289.454C475.677 289.448 475.678 289.439 475.686 289.434C475.694 289.43 475.708 289.434 475.718 289.434C475.61 288.991 475.657 288.524 475.849 288.11C476.042 287.696 476.369 287.36 476.778 287.157C477.797 286.563 478.974 287.419 479.439 288.361L483.785 296.751L483.655 294.033C483.62 293.505 483.786 292.982 484.121 292.571C484.455 292.16 484.933 291.891 485.458 291.819C485.73 291.791 486.006 291.819 486.267 291.901C486.528 291.984 486.769 292.118 486.977 292.297C487.184 292.475 487.353 292.694 487.473 292.94C487.593 293.186 487.662 293.454 487.675 293.728L488.382 308.568C488.465 310.308 487.866 312.013 486.712 313.319C485.558 314.626 483.94 315.431 482.202 315.563C480.187 315.717 478.171 315.265 476.414 314.266C474.657 313.266 473.239 311.765 472.34 309.955C472.34 309.955 471.012 289.76 471.645 290.533Z" fill="#E98862"/>
<path d="M484.197 266.113L488.148 266.781C489.656 267.036 490.672 268.466 490.417 269.974L484.788 303.24C484.533 304.748 483.103 305.764 481.595 305.509L477.644 304.841C476.136 304.585 475.12 303.156 475.375 301.647L481.004 268.382C481.259 266.873 482.689 265.857 484.197 266.113Z" fill="#292A2E"/>
<path d="M495.053 252.12L496.26 252.325C503.737 253.59 508.772 260.676 507.507 268.153C506.242 275.63 499.155 280.665 491.679 279.4L490.472 279.196C482.995 277.931 477.96 270.844 479.225 263.367C480.49 255.891 487.577 250.855 495.053 252.12Z" fill="#0CBC8B"/>
<path d="M448.96 266.74L451.537 267.976L454.466 250.665L451.717 250.761C451.49 253.226 451.156 255.817 450.704 258.485C450.214 261.386 449.623 264.16 448.96 266.74Z" fill="#36DA93"/>
<path d="M441.339 256.904C440.764 260.301 441.008 263.178 441.882 263.326C441.984 263.333 442.088 263.316 442.183 263.277C442.278 263.238 442.363 263.177 442.431 263.099C443.198 262.394 444.044 260.162 444.504 257.441C444.931 254.914 444.907 252.677 444.504 251.635C444.366 251.276 444.184 251.059 443.959 251.021C443.09 250.869 441.914 253.504 441.339 256.904Z" fill="#36DA93"/>
<path d="M450.692 258.541C450.696 258.522 450.699 258.504 450.701 258.484C452.57 247.445 451.087 235.485 449.336 230.934C456.193 237.882 466.172 244.969 475.545 247.846C479.326 249.006 483.953 250.063 490.98 251.243L486.338 278.687C479.313 277.49 474.597 276.967 470.644 276.819C460.85 276.451 449.094 279.86 440.335 284.168C443.486 280.445 448.821 269.636 450.688 258.599L450.692 258.541Z" fill="#0CBC8B"/>
<path d="M481.778 248.213L496.322 250.674C496.871 250.767 497.24 251.286 497.147 251.835L492.374 280.047C492.281 280.595 491.761 280.964 491.213 280.872L476.669 278.411C476.12 278.318 475.751 277.798 475.844 277.25L480.617 249.038C480.71 248.489 481.23 248.12 481.778 248.213Z" fill="#292A2E"/>
<path opacity="0.1" d="M481.778 248.213L496.322 250.674C496.871 250.767 497.24 251.286 497.147 251.835L492.374 280.047C492.281 280.595 491.761 280.964 491.213 280.872L476.669 278.411C476.12 278.318 475.751 277.798 475.844 277.25L480.617 249.038C480.71 248.489 481.23 248.12 481.778 248.213Z" fill="white"/>
<path d="M436.872 256.144C434.36 270.989 435.423 283.544 439.241 284.19C440.002 284.319 440.812 283.967 441.641 283.2C441.645 283.2 441.646 283.197 441.65 283.2C445.003 280.121 448.694 270.372 450.708 258.488C452.576 247.448 452.467 237.682 450.716 233.129C450.115 231.561 449.319 230.612 448.338 230.446C444.518 229.797 439.383 241.304 436.872 256.144Z" fill="#0CBC8B"/>
<path opacity="0.3" d="M436.872 256.144C434.36 270.989 435.423 283.544 439.241 284.19C440.002 284.319 440.812 283.967 441.641 283.2C441.645 283.2 441.646 283.197 441.65 283.2C445.003 280.121 448.694 270.372 450.708 258.488C452.576 247.448 452.467 237.682 450.716 233.129C450.115 231.561 449.319 230.612 448.338 230.446C444.518 229.797 439.383 241.304 436.872 256.144Z" fill="#0C0C0C"/>
<path opacity="0.6" d="M443.962 251.033L441.88 263.339L448.96 266.736C449.623 264.156 450.214 261.382 450.705 258.482C451.157 255.814 451.492 253.222 451.717 250.758L443.962 251.033Z" fill="white"/>
<path d="M441.339 256.904C440.764 260.301 441.008 263.178 441.882 263.326C441.984 263.333 442.088 263.316 442.183 263.277C442.278 263.238 442.363 263.177 442.431 263.099C443.198 262.394 444.044 260.162 444.504 257.441C444.931 254.914 444.907 252.677 444.504 251.635C444.366 251.276 444.184 251.059 443.959 251.021C443.09 250.869 441.914 253.504 441.339 256.904Z" fill="white"/>
<path d="M482.921 295.83C482.755 295.449 482.474 295.128 482.117 294.914C481.76 294.699 481.346 294.6 480.931 294.631C480.936 294.606 480.935 294.58 480.928 294.556C480.921 294.532 480.908 294.51 480.89 294.492C480.873 294.474 480.851 294.461 480.827 294.453C480.803 294.445 480.778 294.443 480.753 294.448L482.2 293.528C482.631 293.266 482.954 292.857 483.108 292.376C483.262 291.895 483.236 291.375 483.036 290.911C482.823 290.46 482.451 290.104 481.991 289.911C481.53 289.719 481.015 289.705 480.545 289.871C480.549 289.851 480.537 289.831 480.535 289.811L481.13 289.433C481.536 289.185 481.843 288.804 482.001 288.355C482.158 287.906 482.156 287.416 481.993 286.969C481.886 286.69 481.718 286.439 481.502 286.233C481.286 286.028 481.026 285.873 480.743 285.779C480.46 285.686 480.159 285.656 479.863 285.693C479.567 285.73 479.282 285.832 479.03 285.992L477.659 286.864C477.656 286.856 477.659 286.847 477.655 286.84C477.651 286.832 477.636 286.829 477.629 286.82C477.951 286.496 478.153 286.073 478.202 285.619C478.252 285.165 478.146 284.708 477.901 284.323C477.335 283.287 475.886 283.411 474.999 283.975L472.343 285.968C471.934 286.275 471.607 286.68 471.391 287.144C471.175 287.609 471.078 288.12 471.107 288.631C471.358 293.058 472.289 304.604 475.119 302.805L482.087 298.375C482.492 298.107 482.795 297.709 482.947 297.248C483.098 296.786 483.089 296.286 482.921 295.83Z" fill="#E98862"/>
<path d="M493.729 304.528L502.963 354.495L526.567 318.117L544.6 339.302L506.99 390.673L506.671 390.971C504.735 392.732 502.382 393.971 499.834 394.571C497.287 395.171 494.628 395.113 492.109 394.402C489.59 393.691 487.294 392.35 485.437 390.506C483.579 388.662 482.222 386.376 481.492 383.862L466.003 308.976L493.729 304.528Z" fill="#36DA93"/>
<path d="M504.243 359.41C504.269 359.41 504.295 359.406 504.319 359.399C504.391 359.379 504.453 359.331 504.49 359.266C504.526 359.201 504.536 359.124 504.516 359.052L503.236 354.42C503.216 354.347 503.168 354.286 503.103 354.249C503.037 354.212 502.96 354.202 502.888 354.222C502.815 354.242 502.754 354.29 502.717 354.355C502.68 354.421 502.67 354.498 502.69 354.57L503.971 359.202C503.987 359.261 504.023 359.314 504.072 359.352C504.121 359.389 504.181 359.41 504.243 359.41Z" fill="#0C0C0C"/>
<path d="M606.771 276.59C606.771 276.59 606.459 289.968 609.017 295.062C616.38 309.728 617.468 325.576 608.111 332.966C598.753 340.355 543.723 335.513 541.245 316.36C539.16 300.236 546.843 299.215 549.851 286.339C551.209 280.512 554.606 268.345 554.606 268.345" fill="#0A0A0A"/>
<path d="M553.919 312.159C554.014 312.166 551.527 329.578 571.815 332.173C585.86 333.972 593.8 320.306 594.12 320.371C592.693 319.749 590.342 318.68 589.686 318.284C587.204 316.783 585.303 314.897 585.468 310.523C585.562 308.002 588.808 295.67 589.099 293.16L566.894 293.548C566.123 298.819 565.725 311.321 558.009 311.968C556.723 312.072 555.352 312.13 553.919 312.159Z" fill="#E98862"/>
<path opacity="0.52" d="M563.624 307.975C564.176 306.971 564.617 305.91 564.938 304.81C565.694 302.306 566.175 299.726 566.37 297.117C570.805 297.419 575.236 296.472 579.159 294.383C579.255 295.92 580.122 302.726 579.236 303.988C577.564 306.368 571.354 309.559 563.624 307.975Z" fill="#0C0C0C"/>
<path d="M568.189 304.449C576.624 306.038 587.947 303.625 591.246 292.497L594.226 282.455C597.527 271.327 594.359 260.571 583.88 257.462C573.402 254.354 562.894 261.051 559.594 272.181L558.275 276.627C557.006 280.896 553.136 301.612 568.189 304.449Z" fill="#E98862"/>
<path opacity="0.52" d="M566.409 288.371L566.389 288.366C565.965 288.237 565.548 288.084 565.141 287.909C564.533 287.643 563.744 287.225 563.909 286.669C564.097 286.034 567.864 279.706 568.293 278.989C568.33 278.926 568.391 278.881 568.462 278.863C568.533 278.845 568.608 278.856 568.671 278.894C568.734 278.931 568.779 278.992 568.797 279.063C568.815 279.134 568.804 279.209 568.767 279.272C567.161 281.966 564.564 286.399 564.438 286.826C564.488 287.035 565.492 287.525 566.546 287.837C566.613 287.859 566.669 287.905 566.703 287.967C566.737 288.028 566.747 288.101 566.729 288.169C566.712 288.237 566.669 288.296 566.61 288.334C566.55 288.372 566.478 288.385 566.409 288.372V288.371Z" fill="#0C0C0C"/>
<path opacity="0.52" d="M567.494 293.431C565.774 293.028 564.173 292.226 562.82 291.09C562.792 291.067 562.768 291.039 562.751 291.007C562.734 290.975 562.723 290.941 562.719 290.905C562.715 290.869 562.718 290.832 562.728 290.797C562.739 290.763 562.756 290.73 562.778 290.702C562.801 290.674 562.829 290.651 562.861 290.633C562.893 290.616 562.928 290.605 562.964 290.601C563 290.597 563.036 290.601 563.071 290.611C563.106 290.621 563.138 290.638 563.166 290.661C566.103 293.029 569.195 293.679 572.106 292.539C572.165 292.514 572.226 292.492 572.287 292.474C572.358 292.456 572.433 292.467 572.496 292.505C572.559 292.543 572.604 292.604 572.622 292.674C572.639 292.745 572.628 292.821 572.591 292.883C572.553 292.946 572.492 292.991 572.421 293.009C572.399 293.016 572.361 293.032 572.308 293.053C570.777 293.655 569.1 293.787 567.494 293.431Z" fill="#0C0C0C"/>
<path d="M602.411 286.893L593.014 284.162C586.059 280.489 585.145 267.71 585.145 267.71C585.145 267.71 575.464 275.401 554.607 268.345C554.607 268.345 561.917 239.005 592.579 250.871C602.466 254.697 608.723 265.689 606.42 279.295C604.801 288.83 602.411 286.893 602.411 286.893Z" fill="#0A0A0A"/>
<path d="M589.589 295.693C592.773 296.638 596.365 293.995 597.31 290.813C598.255 287.631 596.195 285.107 593.008 284.162L590.734 285.809L586.849 294.881L589.589 295.693Z" fill="#E98862"/>
<path d="M566.888 273.363C566.003 272.655 564.944 272.198 563.822 272.041C563.27 271.959 562.709 271.962 562.158 272.048C561.612 272.13 561.08 272.281 560.572 272.496C560.501 272.523 560.443 272.577 560.411 272.646C560.379 272.714 560.376 272.793 560.402 272.865C560.428 272.936 560.481 272.995 560.55 273.027C560.618 273.06 560.697 273.064 560.769 273.038L560.79 273.031C561.257 272.858 561.744 272.744 562.24 272.691C562.73 272.638 563.225 272.658 563.709 272.752C564.669 272.931 565.565 273.361 566.306 273.998L566.329 274.019C566.371 274.059 566.421 274.091 566.475 274.111C566.53 274.132 566.588 274.141 566.646 274.139C566.704 274.137 566.761 274.123 566.813 274.098C566.866 274.073 566.913 274.038 566.952 273.994C566.99 273.951 567.02 273.9 567.039 273.845C567.057 273.79 567.065 273.732 567.06 273.674C567.056 273.616 567.04 273.56 567.014 273.508C566.987 273.456 566.95 273.411 566.906 273.373L566.888 273.363Z" fill="#0C0C0C"/>
<path d="M574.866 276.367C575.834 276.232 576.82 276.355 577.725 276.724C578.183 276.907 578.61 277.158 578.993 277.469C579.381 277.781 579.729 278.14 580.027 278.539L580.041 278.556C580.088 278.613 580.156 278.65 580.23 278.658C580.304 278.667 580.378 278.646 580.437 278.601C580.496 278.557 580.536 278.491 580.547 278.417C580.559 278.344 580.542 278.269 580.5 278.208C580.189 277.751 579.823 277.335 579.409 276.97C578.991 276.6 578.521 276.295 578.013 276.065C576.984 275.589 575.847 275.4 574.719 275.515C574.608 275.531 574.507 275.59 574.438 275.679C574.369 275.768 574.338 275.88 574.35 275.992C574.362 276.104 574.418 276.206 574.504 276.278C574.591 276.35 574.702 276.385 574.815 276.376H574.833L574.866 276.367Z" fill="#0C0C0C"/>
<path opacity="0.52" d="M566.859 295.968C566.547 295.9 566.241 295.805 565.945 295.685C565.909 295.674 565.875 295.655 565.846 295.63C565.817 295.605 565.794 295.574 565.777 295.54C565.761 295.505 565.752 295.468 565.75 295.43C565.749 295.391 565.756 295.353 565.77 295.318C565.785 295.283 565.806 295.251 565.833 295.224C565.861 295.197 565.893 295.177 565.929 295.163C565.965 295.15 566.003 295.144 566.041 295.146C566.079 295.148 566.116 295.158 566.151 295.175C567.933 295.89 569.049 295.296 569.094 295.271C569.158 295.235 569.234 295.226 569.304 295.246C569.374 295.266 569.434 295.313 569.47 295.377C569.505 295.441 569.514 295.516 569.495 295.586C569.475 295.657 569.428 295.716 569.364 295.752C568.579 296.111 567.694 296.187 566.859 295.968Z" fill="#0C0C0C"/>
<path d="M593.003 284.039L593.125 283.784C581.428 278.191 585.611 266.586 585.655 266.473L585.39 266.373C585.345 266.49 581.074 278.336 593.003 284.039Z" fill="#0C0C0C"/>
<path opacity="0.1" d="M574.936 290.084C573.55 289.79 572.601 288.729 572.816 287.712C573.031 286.696 574.329 286.109 575.715 286.403C577.1 286.696 578.049 287.758 577.834 288.774C577.619 289.791 576.321 290.377 574.936 290.084Z" fill="#0C0C0C"/>
<path opacity="0.1" d="M560.506 284.645C560.288 285.66 558.991 286.245 557.605 285.954C557.366 285.903 557.132 285.827 556.908 285.728C556.953 284.499 557.055 283.322 557.191 282.235C557.589 282.173 557.995 282.186 558.388 282.273C559.772 282.563 560.72 283.626 560.506 284.645Z" fill="#0C0C0C"/>
<path d="M561.067 276.825C560.323 276.825 559.721 276.223 559.721 275.479C559.721 274.736 560.323 274.133 561.067 274.133C561.81 274.133 562.413 274.736 562.413 275.479C562.413 276.223 561.81 276.825 561.067 276.825Z" fill="#0C0C0C"/>
<path d="M574.334 280.478C573.591 280.478 572.988 279.875 572.988 279.131C572.988 278.388 573.591 277.785 574.334 277.785C575.078 277.785 575.681 278.388 575.681 279.131C575.681 279.875 575.078 280.478 574.334 280.478Z" fill="#0C0C0C"/>
<path d="M521.333 344.938C520.448 352.46 514.056 399.218 512.795 408.449L596.191 425.538C598.346 417.42 607.822 381.936 612.9 366.239C617.746 351.261 622.326 343.641 621.152 336.371C619.781 327.885 608.577 324.487 601.317 321.946C596.884 320.394 590.116 318.549 590.116 318.549C590.116 318.549 587.128 330.177 573.148 327.993C554.118 325.02 558.1 311.989 558.007 311.969C554.953 311.347 539.721 310.308 534.935 311.964C521.895 316.464 523.208 328.994 521.333 344.938Z" fill="#36DA93"/>
<path d="M520.487 350.011L521.048 350.093L516.822 379.143L516.262 379.062L520.487 350.011Z" fill="#0C0C0C"/>
<path d="M628.276 469.975L655.546 462.386C642.93 417.053 622.448 342.493 621.198 335.411C621.302 336.081 621.347 336.759 621.332 337.437L593.029 337.037C592.989 339.825 592.966 341.509 610.874 406.926C619.472 438.334 628.189 469.662 628.276 469.975Z" fill="#36DA93"/>
<path d="M600.469 364.285L606.186 390.034L605.633 390.157L599.917 364.408L600.469 364.285Z" fill="#0C0C0C"/>
<path d="M539.711 416.078C539.711 416.078 465.35 377.662 444.752 370.556C439.417 368.716 429.667 367.022 421.31 371.908C396.381 386.484 330.548 445.836 330.548 445.836L346.54 469.733L433.507 407.451C433.507 407.451 475.178 437.179 512.796 450.255L550.767 445.768L539.711 416.078Z" fill="#262626"/>
<path d="M320.771 452.749C320.771 452.749 307.452 450.584 306.349 438.206C305.246 425.827 295.446 428.808 295.446 428.808L296.843 476.192L320.517 475.496L320.771 452.749Z" fill="#36DA93"/>
<path d="M563.294 475.523C563.294 475.523 567.271 475.257 558.241 475.555C524.556 476.665 313.053 476.11 313.053 476.11L312.946 444.382L563.222 426.624L563.294 475.523Z" fill="#262626"/>
<path d="M473.324 433.18C473.336 433.181 473.348 433.181 473.36 433.18L498.028 430.071C498.065 430.067 498.101 430.055 498.133 430.036C498.166 430.018 498.194 429.993 498.217 429.964C498.24 429.935 498.257 429.901 498.266 429.865C498.276 429.829 498.279 429.792 498.274 429.755C498.27 429.718 498.259 429.682 498.24 429.649C498.222 429.617 498.197 429.588 498.168 429.565C498.138 429.542 498.104 429.526 498.068 429.516C498.032 429.507 497.995 429.504 497.958 429.51L473.289 432.619C473.214 432.623 473.144 432.658 473.094 432.714C473.044 432.77 473.019 432.844 473.023 432.919C473.028 432.994 473.062 433.065 473.119 433.114C473.175 433.164 473.249 433.19 473.324 433.185V433.18Z" fill="white"/>
<path d="M332.711 443.046H332.732L392.005 438.846C392.08 438.841 392.15 438.806 392.199 438.749C392.248 438.692 392.273 438.618 392.268 438.543C392.263 438.468 392.228 438.398 392.171 438.349C392.114 438.3 392.04 438.275 391.965 438.28L332.692 442.479C332.617 442.482 332.546 442.514 332.495 442.569C332.443 442.624 332.416 442.697 332.419 442.772C332.421 442.847 332.453 442.918 332.508 442.969C332.563 443.021 332.636 443.048 332.711 443.046Z" fill="white"/>
</svg>
