<svg width="32" height="35" viewBox="0 0 32 35" fill="none" xmlns="http://www.w3.org/2000/svg">
<path fill-rule="evenodd" clip-rule="evenodd" d="M32 9.33661L16 0L0 9.33661V25.5188L2.47631 26.9637L7.53969 24.9157C8.22107 24.6398 8.80458 24.1667 9.21549 23.5572C9.62639 22.9476 9.84599 22.2293 9.84615 21.4942V8.81231H12.3077V21.4942C12.3075 22.7196 11.9415 23.9171 11.2565 24.9332C10.5715 25.9493 9.59869 26.7378 8.46277 27.1975L5.16431 28.5317L16 34.8554L32 25.5212V9.33661ZM14.7692 13.7354C14.7692 12.4297 15.2879 11.1775 16.2112 10.2542C17.1344 9.33099 18.3866 8.81231 19.6923 8.81231H22.5649C25.056 8.81231 27.0769 10.8308 27.0769 13.3243V13.7354H24.6154V13.3243C24.6154 13.055 24.5623 12.7884 24.4593 12.5396C24.3563 12.2909 24.2052 12.0648 24.0148 11.8744C23.8244 11.684 23.5984 11.533 23.3496 11.4299C23.1008 11.3269 22.8342 11.2738 22.5649 11.2738H19.6923C19.0395 11.2738 18.4134 11.5332 17.9517 11.9948C17.4901 12.4564 17.2308 13.0825 17.2308 13.7354C17.2308 14.3882 17.4901 15.0143 17.9517 15.476C18.4134 15.9376 19.0395 16.1969 19.6923 16.1969H22.1538C23.4595 16.1969 24.7117 16.7156 25.635 17.6389C26.5582 18.5621 27.0769 19.8143 27.0769 21.12C27.0769 22.4257 26.5582 23.6779 25.635 24.6011C24.7117 25.5244 23.4595 26.0431 22.1538 26.0431H19.6923C18.3866 26.0431 17.1344 25.5244 16.2112 24.6011C15.2879 23.6779 14.7692 22.4257 14.7692 21.12H17.2308C17.2308 21.7728 17.4901 22.3989 17.9517 22.8606C18.4134 23.3222 19.0395 23.5815 19.6923 23.5815H22.1538C22.8067 23.5815 23.4328 23.3222 23.8944 22.8606C24.356 22.3989 24.6154 21.7728 24.6154 21.12C24.6154 20.4672 24.356 19.8411 23.8944 19.3794C23.4328 18.9178 22.8067 18.6585 22.1538 18.6585H19.6923C18.3866 18.6585 17.1344 18.1398 16.2112 17.2165C15.2879 16.2933 14.7692 15.0411 14.7692 13.7354Z" fill="#25A970"/>
</svg>
