<svg width="66" height="72" viewBox="0 0 66 72" fill="none" xmlns="http://www.w3.org/2000/svg">
<path d="M33.0002 70.0839C38.2966 70.0839 47.3548 63.1755 47.3548 35.542C47.3548 7.90839 38.2982 1 33.0002 1C27.7037 1 18.6455 8.37389 18.6455 35.542C18.6455 62.71 27.7037 70.0839 33.0002 70.0839Z" stroke="#47AFE4" stroke-width="2" stroke-linecap="round" stroke-linejoin="round"/>
<path d="M1.92111 53.6351C4.56933 58.2604 15.3152 62.5518 40.1788 48.0771C65.0424 33.6024 66.7284 22.0736 64.0802 17.4483C61.432 12.8229 50.2684 8.77494 25.8225 23.0062C1.3816 37.2375 -0.72546 49.0097 1.92276 53.6351H1.92111Z" stroke="#47AFE4" stroke-width="2" stroke-linecap="round" stroke-linejoin="round"/>
<path d="M1.92045 17.4483C-0.727763 22.0736 0.958214 33.6024 25.8219 48.0771C50.6855 62.5518 61.4313 58.2604 64.0812 53.6351C66.7294 49.0097 64.624 37.2359 40.1781 23.0062C15.7323 8.77494 4.56867 12.8229 1.91881 17.4483H1.92045Z" stroke="#47AFE4" stroke-width="2" stroke-linecap="round" stroke-linejoin="round"/>
</svg>
