<svg width="119" height="117" viewBox="0 0 119 117" fill="none" xmlns="http://www.w3.org/2000/svg">
<path d="M48.8396 40.2617C47.005 39.5179 45.0217 39.2204 42.9888 39.27C41.6996 39.27 40.5592 39.27 39.6171 39.3196C38.6254 39.27 37.9313 39.3196 37.5842 39.3692V56.0292C38.2783 56.0788 38.9229 56.1283 39.5179 56.1283H42.1458C44.0796 56.1283 46.0133 55.8308 47.8479 55.2358C49.4346 54.7896 50.8229 53.8475 51.9138 52.6079C52.955 51.3683 53.4508 49.6825 53.4508 47.5008C53.5004 45.9638 53.1038 44.4267 52.3104 43.0879C51.4837 41.8005 50.2678 40.8104 48.8396 40.2617ZM97.9271 0H21.0729C9.42083 0 0 9.42083 0 21.0729V94.9471C0 106.599 9.42083 116.02 21.0729 116.02H97.9271C109.579 116.02 119 106.599 119 94.9471V21.0729C119 9.42083 109.579 0 97.9271 0ZM61.28 57.7646C59.3017 60.5413 56.525 62.6238 53.3021 63.8138C49.9304 65.0533 46.2117 65.4996 42.1458 65.4996C40.9558 65.4996 40.1625 65.4996 39.6667 65.45C39.1708 65.4004 38.4767 65.4004 37.5346 65.4004V81.3117C37.5842 81.6588 37.3362 81.9613 36.9892 82.0108H27.37C26.9733 82.0108 26.775 81.8075 26.775 81.3613V30.345C26.775 29.9979 26.9238 29.7996 27.2708 29.7996C28.1138 29.7996 28.9071 29.7996 30.0475 29.75C31.2375 29.7004 32.4771 29.7004 33.8158 29.6508C35.1546 29.6013 36.5925 29.6013 38.1296 29.5517C39.6667 29.5021 41.1542 29.5021 42.6417 29.5021C46.7075 29.5021 50.0792 29.9979 52.8558 31.0392C55.335 31.8821 57.6158 33.2704 59.5 35.105C61.0867 36.6917 62.3262 38.6254 63.1196 40.7575C63.8584 42.84 64.255 44.9721 64.255 47.2033C64.26 51.4675 63.2683 54.9879 61.28 57.7646ZM96.4396 77.0525C95.0513 79.0358 93.1125 80.568 90.8863 81.4704C88.4567 82.5067 85.4817 83.0471 81.9067 83.0471C79.6308 83.0471 77.3946 82.8538 75.1683 82.4075C73.4329 82.1051 71.6975 81.5646 70.1108 80.8208C69.7638 80.6275 69.5109 80.2804 69.5605 79.8837V71.2562C69.5605 71.1124 69.615 70.9091 69.7637 70.81C69.9075 70.7108 70.0612 70.7604 70.21 70.8595C72.1437 72 74.1767 72.7983 76.3583 73.2891C78.2375 73.785 80.2209 74.0329 82.2092 74.0329C84.0933 74.0329 85.4321 73.78 86.3246 73.3338C87.1179 72.9867 87.6633 72.1438 87.6633 71.2513C87.6633 70.5521 87.2667 69.9125 86.4733 69.2679C85.68 68.6283 84.0487 67.8845 81.6191 66.9325C79.0904 66.04 76.7649 64.85 74.5783 63.3675C73.0268 62.2563 71.7386 60.8174 70.805 59.1529C70.0169 57.5841 69.627 55.8455 69.6695 54.0905C69.6695 51.9584 70.2645 49.9255 71.3603 48.0909C72.5999 46.1075 74.4295 44.5209 76.5616 43.5292C78.8871 42.3442 81.8125 41.7987 85.3329 41.7987C87.3658 41.7987 89.4483 41.9475 91.4813 42.245C92.9688 42.4433 94.4067 42.84 95.7454 43.3854C95.9388 43.435 96.1421 43.6333 96.2412 43.8317C96.2908 44.03 96.3404 44.2283 96.3404 44.4267V52.5088C96.3404 52.7071 96.2412 52.9054 96.0925 53.0046C95.6462 53.1037 95.3983 53.1037 95.2 53.0046C93.7125 52.2112 92.1258 51.6658 90.44 51.3187C88.6054 50.9221 86.7708 50.6742 84.8867 50.6742C83.895 50.6246 82.8537 50.7733 81.9067 51.0213C81.2671 51.17 80.7167 51.5171 80.3696 52.0129C80.1217 52.4096 79.973 52.9054 79.973 53.3517C79.973 53.7979 80.1713 54.2442 80.4737 54.6408C80.92 55.1862 81.51 55.6325 82.1596 55.9796C83.295 56.5746 84.49 57.12 85.675 57.6158C88.3575 58.5083 90.9358 59.7479 93.3158 61.2354C94.9521 62.2717 96.2908 63.665 97.228 65.3508C98.0213 66.9276 98.418 68.6729 98.3684 70.453C98.4229 72.7883 97.7288 75.1138 96.4396 77.0525Z" fill="#0A1E8A"/>
</svg>
