<svg width="127" height="125" viewBox="0 0 127 125" fill="none" xmlns="http://www.w3.org/2000/svg">
<g filter="url(#filter0_d_149_845)">
<path d="M52.8396 40.2617C51.005 39.5179 49.0217 39.2204 46.9888 39.27C45.6996 39.27 44.5592 39.27 43.6171 39.3196C42.6254 39.27 41.9313 39.3196 41.5842 39.3692V56.0292C42.2783 56.0788 42.9229 56.1283 43.5179 56.1283H46.1458C48.0796 56.1283 50.0133 55.8308 51.8479 55.2358C53.4346 54.7896 54.8229 53.8475 55.9138 52.6079C56.955 51.3683 57.4508 49.6825 57.4508 47.5008C57.5004 45.9638 57.1038 44.4267 56.3104 43.0879C55.4837 41.8005 54.2678 40.8104 52.8396 40.2617ZM101.927 0H25.0729C13.4208 0 4 9.42083 4 21.0729V94.9471C4 106.599 13.4208 116.02 25.0729 116.02H101.927C113.579 116.02 123 106.599 123 94.9471V21.0729C123 9.42083 113.579 0 101.927 0ZM65.28 57.7646C63.3017 60.5412 60.525 62.6238 57.3021 63.8138C53.9304 65.0533 50.2117 65.4996 46.1458 65.4996C44.9558 65.4996 44.1625 65.4996 43.6667 65.45C43.1708 65.4004 42.4767 65.4004 41.5346 65.4004V81.3117C41.5842 81.6588 41.3363 81.9613 40.9892 82.0108H31.37C30.9733 82.0108 30.775 81.8075 30.775 81.3613V30.345C30.775 29.9979 30.9237 29.7996 31.2708 29.7996C32.1138 29.7996 32.9071 29.7996 34.0475 29.75C35.2375 29.7004 36.4771 29.7004 37.8158 29.6508C39.1546 29.6013 40.5925 29.6013 42.1296 29.5517C43.6667 29.5021 45.1542 29.5021 46.6417 29.5021C50.7075 29.5021 54.0792 29.9979 56.8558 31.0392C59.335 31.8821 61.6158 33.2704 63.5 35.105C65.0867 36.6917 66.3262 38.6254 67.1196 40.7575C67.8584 42.84 68.255 44.9721 68.255 47.2033C68.26 51.4675 67.2683 54.9879 65.28 57.7646ZM100.44 77.0525C99.0513 79.0358 97.1125 80.568 94.8863 81.4704C92.4567 82.5067 89.4817 83.0471 85.9067 83.0471C83.6308 83.0471 81.3946 82.8538 79.1683 82.4075C77.4329 82.105 75.6975 81.5646 74.1108 80.8208C73.7638 80.6275 73.5109 80.2804 73.5605 79.8837V71.2562C73.5605 71.1124 73.615 70.9091 73.7637 70.81C73.9075 70.7108 74.0612 70.7604 74.21 70.8595C76.1438 72 78.1767 72.7983 80.3583 73.2891C82.2375 73.785 84.2209 74.0329 86.2092 74.0329C88.0933 74.0329 89.4321 73.78 90.3246 73.3338C91.1179 72.9867 91.6633 72.1438 91.6633 71.2513C91.6633 70.5521 91.2667 69.9125 90.4733 69.2679C89.68 68.6283 88.0487 67.8845 85.6191 66.9325C83.0904 66.04 80.7649 64.85 78.5783 63.3675C77.0268 62.2563 75.7386 60.8174 74.805 59.1529C74.0169 57.5841 73.627 55.8455 73.6695 54.0905C73.6695 51.9584 74.2645 49.9255 75.3603 48.0909C76.5999 46.1075 78.4295 44.5209 80.5616 43.5292C82.8871 42.3442 85.8125 41.7987 89.3329 41.7987C91.3658 41.7987 93.4483 41.9475 95.4813 42.245C96.9688 42.4433 98.4067 42.84 99.7454 43.3854C99.9388 43.435 100.142 43.6333 100.241 43.8317C100.291 44.03 100.34 44.2283 100.34 44.4267V52.5088C100.34 52.7071 100.241 52.9054 100.092 53.0046C99.6462 53.1037 99.3983 53.1037 99.2 53.0046C97.7125 52.2113 96.1258 51.6658 94.44 51.3187C92.6054 50.9221 90.7708 50.6742 88.8867 50.6742C87.895 50.6246 86.8537 50.7733 85.9067 51.0213C85.2671 51.17 84.7167 51.5171 84.3696 52.0129C84.1217 52.4096 83.973 52.9054 83.973 53.3517C83.973 53.7979 84.1713 54.2442 84.4737 54.6408C84.92 55.1862 85.51 55.6325 86.1596 55.9796C87.295 56.5746 88.49 57.12 89.675 57.6158C92.3575 58.5083 94.9358 59.7479 97.3158 61.2354C98.9521 62.2717 100.291 63.665 101.228 65.3508C102.021 66.9276 102.418 68.6729 102.368 70.453C102.423 72.7883 101.729 75.1138 100.44 77.0525Z" fill="#0A1E8A"/>
</g>
<defs>
<filter id="filter0_d_149_845" x="0" y="0" width="127" height="124.02" filterUnits="userSpaceOnUse" color-interpolation-filters="sRGB">
<feFlood flood-opacity="0" result="BackgroundImageFix"/>
<feColorMatrix in="SourceAlpha" type="matrix" values="0 0 0 0 0 0 0 0 0 0 0 0 0 0 0 0 0 0 127 0" result="hardAlpha"/>
<feOffset dy="4"/>
<feGaussianBlur stdDeviation="2"/>
<feComposite in2="hardAlpha" operator="out"/>
<feColorMatrix type="matrix" values="0 0 0 0 0.038368 0 0 0 0 0.118896 0 0 0 0 0.541667 0 0 0 1 0"/>
<feBlend mode="normal" in2="BackgroundImageFix" result="effect1_dropShadow_149_845"/>
<feBlend mode="normal" in="SourceGraphic" in2="effect1_dropShadow_149_845" result="shape"/>
</filter>
</defs>
</svg>
