<svg width="64" height="64" viewBox="0 0 64 64" fill="none" xmlns="http://www.w3.org/2000/svg">
<path d="M27.9983 9.99922C25.0024 9.99922 22.2306 10.9392 19.9508 12.5391C19.8028 10.2472 19.2788 8.25932 18.3149 6.49943C21.3595 4.81451 24.7912 3.95319 28.2707 4.00059C31.7502 4.048 35.1571 5.00249 38.1548 6.76973C41.1524 8.53698 43.6371 11.0558 45.3632 14.0774C47.0893 17.0989 47.9972 20.5185 47.997 23.9983H57.0004C58.8561 23.9983 60.6359 24.7352 61.9485 26.0471C63.261 27.3589 63.9989 29.1382 64 30.9939V52.9925C64.0005 53.9124 63.8197 54.8233 63.468 55.6733C63.1162 56.5232 62.6003 57.2955 61.9499 57.946C61.2994 58.5964 60.5272 59.1123 59.6772 59.4641C58.8273 59.8158 57.9163 59.9966 56.9964 59.9961H34.9978C33.1414 59.9961 31.361 59.2586 30.0484 57.946C28.7357 56.6333 27.9983 54.8529 27.9983 52.9965V43.9971C25.216 44.0006 22.4637 43.4216 19.9188 42.2972C19.9708 40.9373 19.9988 39.5094 19.9988 37.9975V37.7495C19.9988 37.0815 19.9988 36.3136 19.9868 35.4816C22.3357 37.1226 25.1328 38.001 27.9983 37.9975V30.9979C27.9983 27.1341 31.1341 23.9983 34.9978 23.9983H41.9974C41.9974 20.2855 40.5225 16.7248 37.8971 14.0995C35.2718 11.4741 31.7111 9.99922 27.9983 9.99922ZM47.0811 29.998C46.1117 33.0693 44.4165 35.8619 42.1391 38.1392C39.8618 40.4166 37.0692 42.1117 33.9979 43.0812V52.9965C33.9979 53.5485 34.4458 53.9965 34.9978 53.9965H56.9964C57.2616 53.9965 57.516 53.8911 57.7035 53.7036C57.891 53.5161 57.9964 53.2617 57.9964 52.9965V30.9979C57.9964 30.7327 57.891 30.4784 57.7035 30.2908C57.516 30.1033 57.2616 29.998 56.9964 29.998H47.0811ZM40.6495 29.998H34.9978C34.7326 29.998 34.4783 30.1033 34.2907 30.2908C34.1032 30.4784 33.9979 30.7327 33.9979 30.9979V36.6496C36.9131 35.2619 39.2618 32.9131 40.6495 29.998ZM10.3234 0.499808C10.6553 0.790198 10.882 1.1822 10.9681 1.61479C11.0542 2.04738 10.9949 2.49629 10.7993 2.89166C10.7655 3.00868 10.748 3.12982 10.7473 3.25164C10.7473 3.50362 10.8113 3.98359 11.4153 4.58355C11.7073 4.87554 11.9313 5.08352 12.1752 5.31151C12.3752 5.4955 12.5872 5.68748 12.8552 5.95147C13.3752 6.44744 13.9231 7.0314 14.4151 7.76335C15.435 9.29526 15.999 11.2111 15.999 13.999C15.999 17.4108 14.7351 20.3186 12.7632 22.1025L13.0192 22.3984C14.1391 23.7744 14.7911 25.5582 15.1991 27.3181C15.999 30.7979 15.999 34.9817 15.999 37.8975V37.9975C15.999 49.1448 14.4831 55.4684 12.8152 59.0841C11.9753 60.904 11.0833 62.064 10.3114 62.7919C9.99751 63.093 9.65145 63.3586 9.27942 63.5839C9.10908 63.6864 8.93125 63.776 8.74745 63.8519C8.74745 63.8519 8.29548 63.9958 7.9995 63.9958C7.70352 63.9958 7.25155 63.8519 7.25155 63.8519C7.06575 63.7804 6.88755 63.6907 6.71958 63.5839C6.34755 63.3586 6.00149 63.093 5.68764 62.7919C4.91569 62.06 4.02375 60.904 3.1838 59.0841C1.51591 55.4684 0 49.1448 0 37.9975V37.8975C0 34.9777 1.78803e-07 30.7979 0.79995 27.3181C1.20792 25.5582 1.85988 23.7744 2.97981 22.3984C3.05981 22.2984 3.1478 22.1985 3.2358 22.1025C1.26392 20.3186 0 17.4108 0 13.999C0 12.695 0.347978 11.1391 0.827948 9.70323C1.30792 8.26332 1.97988 6.77542 2.75583 5.57549C3.67977 4.01559 4.97969 2.70767 5.98763 1.82773C6.54022 1.34174 7.11692 0.883858 7.71552 0.455811L7.89151 0.335819C8.25827 0.091341 8.69552 -0.0251227 9.1353 0.00453327C9.57508 0.0341893 9.99274 0.208303 10.3234 0.499808Z" fill="#36DA93"/>
</svg>
