<svg width="119" height="125" viewBox="0 0 119 125" fill="none" xmlns="http://www.w3.org/2000/svg">
<path d="M56.6834 66.3512L58.3277 66.8993C58.3277 66.8993 62.4383 66.0771 62.9863 66.0771C63.5344 66.0771 63.5344 66.6252 62.9863 67.1733C62.4383 67.7214 60.52 69.3656 58.8758 69.3656C57.2315 69.3656 56.1354 68.5435 55.0392 68.5435H52.2988" stroke="#FF7262" stroke-width="2" stroke-linecap="round" stroke-linejoin="round"/>
<path d="M55.5873 62.2414V60.0491C55.5873 59.9037 55.645 59.7643 55.7478 59.6615C55.8506 59.5587 55.99 59.501 56.1354 59.501H62.7123C62.8576 59.501 62.9971 59.5587 63.0998 59.6615C63.2026 59.7643 63.2604 59.9037 63.2604 60.0491V64.4337M52.2988 65.2558C52.8469 64.7077 53.9431 63.8856 55.0392 63.8856C56.1354 63.8856 58.7387 64.9817 59.1498 65.5298C59.5608 66.0779 58.3277 66.9 58.3277 66.9L52.2988 65.2558Z" stroke="#FF7262" stroke-width="2" stroke-linecap="round" stroke-linejoin="round"/>
<path d="M58.0537 59.501H60.7941V61.9673H58.0537V59.501Z" stroke="#FF7262" stroke-width="2" stroke-linecap="round" stroke-linejoin="round"/>
<circle cx="59.4237" cy="64.9804" r="58.1923" stroke="#FF7262" stroke-width="2"/>
<circle cx="57.7789" cy="64.9801" r="24.4615" stroke="#FF7262" stroke-width="30"/>
<circle cx="59.4233" cy="15.6538" r="14.3462" fill="#FAFAFA" stroke="#FF7262" stroke-width="2"/>
<path d="M53.0781 7.77734C54.3281 7.77734 55.36 8.4349 56.1738 9.75C56.9941 11.0586 57.4043 12.722 57.4043 14.7402C57.4043 16.8105 56.9941 18.4935 56.1738 19.7891C55.36 21.0846 54.3021 21.7324 53 21.7324C51.6784 21.7324 50.6172 21.0977 49.8164 19.8281C49.0156 18.5586 48.6152 16.8757 48.6152 14.7793C48.6152 12.709 49.0286 11.026 49.8555 9.73047C50.6823 8.42839 51.7565 7.77734 53.0781 7.77734ZM53.0977 9.63281H53C52.2513 9.63281 51.6556 10.0951 51.2129 11.0195C50.7767 11.9375 50.5586 13.1842 50.5586 14.7598C50.5586 16.3743 50.7734 17.6406 51.2031 18.5586C51.6328 19.4766 52.2253 19.9355 52.9805 19.9355C53.7357 19.9355 54.3314 19.4766 54.7676 18.5586C55.2038 17.6406 55.4219 16.3939 55.4219 14.8184C55.4219 13.2363 55.2103 11.9766 54.7871 11.0391C54.3704 10.1016 53.8073 9.63281 53.0977 9.63281ZM65.0996 7.77734H65.9004V15.4336H67.4238V17.0938H65.9004V21.5957H63.9961V17.0938H58.2246V16.2539L65.0996 7.77734ZM63.9961 15.4336V11.4785L60.8418 15.4336H63.9961Z" fill="#FF7262"/>
</svg>
