<svg width="119" height="125" viewBox="0 0 119 125" fill="none" xmlns="http://www.w3.org/2000/svg">
<path d="M55.0039 68.504C54.8429 68.5043 54.6875 68.4453 54.5672 68.3383L51.2393 65.38L54.752 62.2573C54.8829 62.1453 55.0526 62.0891 55.2245 62.1009C55.3964 62.1127 55.5568 62.1914 55.6712 62.3203C55.7857 62.4491 55.845 62.6177 55.8364 62.7898C55.8278 62.9619 55.7521 63.1237 55.6254 63.2405L53.2189 65.38L55.4406 67.3544C55.5404 67.443 55.6109 67.5598 55.6428 67.6894C55.6746 67.8189 55.6663 67.9552 55.6189 68.0799C55.5715 68.2046 55.4873 68.312 55.3775 68.3878C55.2676 68.4635 55.1373 68.5041 55.0039 68.504ZM60.8869 68.5027L64.3997 65.38L61.0718 62.4217C60.9414 62.3059 60.7703 62.2466 60.5962 62.2569C60.4221 62.2672 60.2592 62.3462 60.1434 62.4766C60.0276 62.607 59.9683 62.7781 59.9786 62.9522C59.9889 63.1263 60.068 63.2891 60.1983 63.4049L62.42 65.38L60.0135 67.5188C59.8831 67.6346 59.8039 67.7975 59.7936 67.9717C59.7832 68.1459 59.8425 68.317 59.9583 68.4475C60.0741 68.5779 60.237 68.6571 60.4112 68.6674C60.5853 68.6778 60.7565 68.6185 60.8869 68.5027ZM57.8103 69.4347L59.1256 61.5424C59.1425 61.4561 59.1418 61.3674 59.1238 61.2814C59.1057 61.1954 59.0706 61.1138 59.0205 61.0416C58.9704 60.9694 58.9064 60.908 58.8322 60.8609C58.7579 60.8139 58.675 60.7822 58.5883 60.7678C58.5017 60.7533 58.413 60.7564 58.3275 60.7767C58.242 60.7971 58.1615 60.8345 58.0907 60.8865C58.0198 60.9385 57.9602 61.0042 57.9152 61.0797C57.8702 61.1552 57.8408 61.2389 57.8287 61.326L56.5133 69.2183C56.4965 69.3045 56.4971 69.3933 56.5152 69.4793C56.5332 69.5653 56.5683 69.6468 56.6184 69.719C56.6685 69.7912 56.7326 69.8527 56.8068 69.8997C56.881 69.9468 56.9639 69.9784 57.0506 69.9929C57.1373 70.0074 57.226 70.0043 57.3115 69.9839C57.3969 69.9635 57.4775 69.9262 57.5483 69.8742C57.6191 69.8221 57.6788 69.7564 57.7238 69.6809C57.7688 69.6055 57.7982 69.5217 57.8103 69.4347Z" fill="#8DDBE0"/>
<circle cx="59.4609" cy="65.1435" r="58.1923" stroke="#8DDBE0" stroke-width="2"/>
<circle cx="57.816" cy="65.1432" r="24.4615" stroke="#8DDBE0" stroke-width="30"/>
<circle cx="59.4614" cy="15.8169" r="14.3462" fill="#FAFAFA" stroke="#8DDBE0" stroke-width="2"/>
<path d="M53.0781 7.94043C54.3281 7.94043 55.36 8.59798 56.1738 9.91309C56.9941 11.2217 57.4043 12.8851 57.4043 14.9033C57.4043 16.9736 56.9941 18.6566 56.1738 19.9521C55.36 21.2477 54.3021 21.8955 53 21.8955C51.6784 21.8955 50.6172 21.2607 49.8164 19.9912C49.0156 18.7217 48.6152 17.0387 48.6152 14.9424C48.6152 12.8721 49.0286 11.1891 49.8555 9.89355C50.6823 8.59147 51.7565 7.94043 53.0781 7.94043ZM53.0977 9.7959H53C52.2513 9.7959 51.6556 10.2581 51.2129 11.1826C50.7767 12.1006 50.5586 13.3473 50.5586 14.9229C50.5586 16.5374 50.7734 17.8037 51.2031 18.7217C51.6328 19.6396 52.2253 20.0986 52.9805 20.0986C53.7357 20.0986 54.3314 19.6396 54.7676 18.7217C55.2038 17.8037 55.4219 16.557 55.4219 14.9814C55.4219 13.3994 55.2103 12.1396 54.7871 11.2021C54.3704 10.2646 53.8073 9.7959 53.0977 9.7959ZM64.1426 8.07715L64.3379 7.94043L65.5195 9.43457C64.4779 10.1051 63.612 10.8376 62.9219 11.6318C62.2383 12.4261 61.7109 13.3604 61.3398 14.4346C62.0625 14.0635 62.7819 13.8779 63.498 13.8779C64.5723 13.8779 65.4772 14.2588 66.2129 15.0205C66.9486 15.7822 67.3164 16.7165 67.3164 17.8232C67.3164 18.9626 66.916 19.9294 66.1152 20.7236C65.3145 21.5179 64.3411 21.915 63.1953 21.915C61.9128 21.915 60.8743 21.4658 60.0801 20.5674C59.2923 19.6624 58.8984 18.4808 58.8984 17.0225C58.8984 15.9287 59.1003 14.8415 59.5039 13.7607C59.9141 12.6735 60.5 11.6579 61.2617 10.7139C62.0299 9.76335 62.9902 8.88444 64.1426 8.07715ZM60.9199 16.4561C60.8678 16.762 60.8418 17.1038 60.8418 17.4814C60.8418 18.2497 61.0632 18.8812 61.5059 19.376C61.9551 19.8708 62.528 20.1182 63.2246 20.1182C63.8496 20.1182 64.3639 19.9066 64.7676 19.4834C65.1777 19.0602 65.3828 18.5264 65.3828 17.8818C65.3828 17.2243 65.1647 16.6937 64.7285 16.29C64.2988 15.8799 63.7292 15.6748 63.0195 15.6748C62.6549 15.6748 62.3229 15.7301 62.0234 15.8408C61.7305 15.9515 61.3626 16.1566 60.9199 16.4561Z" fill="#8DDBE0"/>
</svg>
