<svg width="120" height="125" viewBox="0 0 120 125" fill="none" xmlns="http://www.w3.org/2000/svg">
<path fill-rule="evenodd" clip-rule="evenodd" d="M52.876 59.7187C52.876 59.3698 53.0146 59.0353 53.2612 58.7886C53.5079 58.5419 53.8425 58.4033 54.1914 58.4033H61.3883L64.276 61.291V70.2418C64.276 70.5906 64.1374 70.9252 63.8907 71.1719C63.644 71.4186 63.3095 71.5572 62.9606 71.5572H54.1914C53.8425 71.5572 53.5079 71.4186 53.2612 71.1719C53.0146 70.9252 52.876 70.5906 52.876 70.2418V59.7187ZM55.5067 61.911H58.1375V62.7879H55.5067V61.911ZM61.6452 64.5418H55.5067V65.4187H61.6452V64.5418ZM61.6452 67.1726H59.0144V68.0495H61.6452V67.1726Z" fill="#36DA93"/>
<circle cx="60.0009" cy="64.9804" r="58.1923" stroke="#36DA93" stroke-width="2"/>
<circle cx="58.3561" cy="64.9801" r="24.4615" stroke="#36DA93" stroke-width="30"/>
<circle cx="60.0005" cy="15.6538" r="14.3462" fill="#FAFAFA" stroke="#36DA93" stroke-width="2"/>
<path d="M54.0781 7.77734C55.3281 7.77734 56.36 8.4349 57.1738 9.75C57.9941 11.0586 58.4043 12.722 58.4043 14.7402C58.4043 16.8105 57.9941 18.4935 57.1738 19.7891C56.36 21.0846 55.3021 21.7324 54 21.7324C52.6784 21.7324 51.6172 21.0977 50.8164 19.8281C50.0156 18.5586 49.6152 16.8757 49.6152 14.7793C49.6152 12.709 50.0286 11.026 50.8555 9.73047C51.6823 8.42839 52.7565 7.77734 54.0781 7.77734ZM54.0977 9.63281H54C53.2513 9.63281 52.6556 10.0951 52.2129 11.0195C51.7767 11.9375 51.5586 13.1842 51.5586 14.7598C51.5586 16.3743 51.7734 17.6406 52.2031 18.5586C52.6328 19.4766 53.2253 19.9355 53.9805 19.9355C54.7357 19.9355 55.3314 19.4766 55.7676 18.5586C56.2038 17.6406 56.4219 16.3939 56.4219 14.8184C56.4219 13.2363 56.2103 11.9766 55.7871 11.0391C55.3704 10.1016 54.8073 9.63281 54.0977 9.63281ZM63.1211 19.7109H68.3164V21.5957H59.6836V21.459L60.5039 20.4922C61.7865 18.9036 62.8053 17.556 63.5605 16.4492C64.3223 15.3424 64.8171 14.5059 65.0449 13.9395C65.2793 13.373 65.3965 12.8132 65.3965 12.2598C65.3965 11.4915 65.1784 10.8763 64.7422 10.4141C64.306 9.94531 63.7266 9.71094 63.0039 9.71094C62.457 9.71094 61.9167 9.8737 61.3828 10.1992C60.8555 10.5182 60.3802 10.9707 59.957 11.5566V9.07617C61.0182 8.21029 62.112 7.77734 63.2383 7.77734C64.4297 7.77734 65.4095 8.17448 66.1777 8.96875C66.9525 9.76302 67.3398 10.7721 67.3398 11.9961C67.3398 12.543 67.2422 13.1289 67.0469 13.7539C66.8581 14.3724 66.5195 15.0885 66.0312 15.9023C65.543 16.7096 64.7129 17.8132 63.541 19.2129L63.1211 19.7109Z" fill="#36DA93"/>
</svg>
