<svg width="120" height="125" viewBox="0 0 120 125" fill="none" xmlns="http://www.w3.org/2000/svg">
<path d="M55.5949 73.2024C57.1076 73.2024 58.3353 71.9748 58.3353 70.4621V67.7217H55.5949C54.0822 67.7217 52.8545 68.9494 52.8545 70.4621C52.8545 71.9748 54.0822 73.2024 55.5949 73.2024Z" fill="#0ACF83"/>
<path d="M52.8545 64.9806C52.8545 63.4679 54.0822 62.2402 55.5949 62.2402H58.3353V67.721H55.5949C54.0822 67.721 52.8545 66.4933 52.8545 64.9806Z" fill="#A259FF"/>
<path d="M52.8545 59.5002C52.8545 57.9875 54.0822 56.7598 55.5949 56.7598H58.3353V62.2405H55.5949C54.0822 62.2405 52.8545 61.0128 52.8545 59.5002Z" fill="#F24E1E"/>
<path d="M58.335 56.7598H61.0753C62.588 56.7598 63.8157 57.9875 63.8157 59.5002C63.8157 61.0128 62.588 62.2405 61.0753 62.2405H58.335V56.7598Z" fill="#FF7262"/>
<path d="M63.8157 64.9806C63.8157 66.4933 62.588 67.721 61.0753 67.721C59.5627 67.721 58.335 66.4933 58.335 64.9806C58.335 63.4679 59.5627 62.2402 61.0753 62.2402C62.588 62.2402 63.8157 63.4679 63.8157 64.9806Z" fill="#1ABCFE"/>
<circle cx="59.9794" cy="64.9804" r="58.1923" stroke="#0A1E8A" stroke-width="2"/>
<circle cx="58.3346" cy="64.9801" r="24.4615" stroke="#0A1E8A" stroke-width="30"/>
<circle cx="59.9799" cy="15.6538" r="14.3462" fill="#FAFAFA" stroke="#0A1E8A" stroke-width="2"/>
<path d="M55.0781 8.18164C56.3281 8.18164 57.36 8.83919 58.1738 10.1543C58.9941 11.4629 59.4043 13.1263 59.4043 15.1445C59.4043 17.2148 58.9941 18.8978 58.1738 20.1934C57.36 21.4889 56.3021 22.1367 55 22.1367C53.6784 22.1367 52.6172 21.502 51.8164 20.2324C51.0156 18.9629 50.6152 17.2799 50.6152 15.1836C50.6152 13.1133 51.0286 11.4303 51.8555 10.1348C52.6823 8.83268 53.7565 8.18164 55.0781 8.18164ZM55.0977 10.0371H55C54.2513 10.0371 53.6556 10.4993 53.2129 11.4238C52.7767 12.3418 52.5586 13.5885 52.5586 15.1641C52.5586 16.7786 52.7734 18.0449 53.2031 18.9629C53.6328 19.8809 54.2253 20.3398 54.9805 20.3398C55.7357 20.3398 56.3314 19.8809 56.7676 18.9629C57.2038 18.0449 57.4219 16.7982 57.4219 15.2227C57.4219 13.6406 57.2103 12.3809 56.7871 11.4434C56.3704 10.5059 55.8073 10.0371 55.0977 10.0371ZM64.043 8.35742H65.9961V22H64.043V8.35742Z" fill="#0A1E8A"/>
</svg>
