<svg width="119" height="125" viewBox="0 0 119 125" fill="none" xmlns="http://www.w3.org/2000/svg">
<path d="M64.1933 66.1193L63.4248 64.9071L63.8807 63.5467C63.9107 63.4567 63.9088 63.3591 63.8751 63.2704C63.8415 63.1818 63.7782 63.1074 63.696 63.06L62.4525 62.3431L62.2238 60.9266C62.2084 60.8329 62.1612 60.7474 62.0902 60.6845C62.0191 60.6215 61.9286 60.585 61.8337 60.581L60.3994 60.5249L59.5389 59.3764C59.482 59.3004 59.4006 59.2465 59.3084 59.2238C59.2163 59.2011 59.1191 59.2111 59.0335 59.252L57.7378 59.8682L56.4417 59.2515C56.3559 59.211 56.2588 59.2013 56.1667 59.2241C56.0747 59.2469 55.9933 59.3007 55.9362 59.3764L55.0757 60.5249L53.6414 60.581C53.5466 60.5848 53.4561 60.6212 53.3851 60.6841C53.3141 60.747 53.2671 60.8325 53.2518 60.9261L53.0232 62.3426L51.7796 63.0595C51.6974 63.1068 51.634 63.1811 51.6002 63.2698C51.5665 63.3585 51.5644 63.4562 51.5945 63.5462L52.0503 64.9066L51.2823 66.1193C51.2317 66.1996 51.2103 66.2949 51.2218 66.3891C51.2333 66.4833 51.277 66.5707 51.3456 66.6364L52.3812 67.6295L52.2648 69.0592C52.2571 69.1538 52.2822 69.2482 52.3361 69.3264C52.3899 69.4045 52.4691 69.4617 52.5603 69.4882L53.9389 69.8854L54.4999 71.2063C54.5368 71.2939 54.6029 71.3659 54.687 71.4101C54.771 71.4543 54.8678 71.4679 54.9608 71.4486L56.3673 71.1603L57.4773 72.0694C57.5526 72.1306 57.6452 72.1625 57.7378 72.1625C57.8304 72.1625 57.9225 72.1306 57.9984 72.0694L59.1083 71.1603L60.5148 71.4486C60.7055 71.4891 60.8993 71.3864 60.9757 71.2063L61.5367 69.8854L62.9154 69.4882C63.0066 69.4618 63.0858 69.4046 63.1397 69.3264C63.1935 69.2482 63.2187 69.1538 63.2108 69.0592L63.0945 67.6295L64.1301 66.6364C64.1986 66.5707 64.2423 66.4833 64.2538 66.3891C64.2654 66.2949 64.244 66.1996 64.1933 66.1193ZM60.7111 64.1407L57.8319 68.4541C57.7231 68.615 57.5547 68.7228 57.3872 68.7228C57.2203 68.7228 57.0336 68.6292 56.9147 68.5098L54.801 66.3622C54.7317 66.2911 54.6929 66.1958 54.6929 66.0965C54.6929 65.9973 54.7317 65.902 54.801 65.8309L55.3226 65.2997C55.3567 65.2654 55.3974 65.2381 55.4421 65.2195C55.4869 65.2009 55.5349 65.1913 55.5834 65.1913C55.6318 65.1913 55.6798 65.2009 55.7246 65.2195C55.7693 65.2381 55.81 65.2654 55.8442 65.2997L57.2198 66.6971L59.4883 63.2983C59.5152 63.2578 59.5499 63.223 59.5903 63.196C59.6308 63.1691 59.6762 63.1504 59.724 63.1412C59.7718 63.1319 59.8209 63.1323 59.8685 63.1423C59.9161 63.1522 59.9612 63.1716 60.0013 63.1992L60.6129 63.6196C60.7814 63.7359 60.8249 63.9702 60.7111 64.1407Z" fill="#A259FF"/>
<circle cx="59.4403" cy="65.2402" r="58.1923" stroke="#A259FF" stroke-width="2"/>
<circle cx="57.7955" cy="65.2399" r="24.4615" stroke="#A259FF" stroke-width="30"/>
<circle cx="59.4409" cy="15.9135" r="14.3462" fill="#FAFAFA" stroke="#A259FF" stroke-width="2"/>
<path d="M55.0781 8.03711C56.3281 8.03711 57.36 8.69466 58.1738 10.0098C58.9941 11.3184 59.4043 12.9818 59.4043 15C59.4043 17.0703 58.9941 18.7533 58.1738 20.0488C57.36 21.3444 56.3021 21.9922 55 21.9922C53.6784 21.9922 52.6172 21.3574 51.8164 20.0879C51.0156 18.8184 50.6152 17.1354 50.6152 15.0391C50.6152 12.9688 51.0286 11.2858 51.8555 9.99023C52.6823 8.68815 53.7565 8.03711 55.0781 8.03711ZM55.0977 9.89258H55C54.2513 9.89258 53.6556 10.3548 53.2129 11.2793C52.7767 12.1973 52.5586 13.444 52.5586 15.0195C52.5586 16.6341 52.7734 17.9004 53.2031 18.8184C53.6328 19.7363 54.2253 20.1953 54.9805 20.1953C55.7357 20.1953 56.3314 19.7363 56.7676 18.8184C57.2038 17.9004 57.4219 16.6536 57.4219 15.0781C57.4219 13.4961 57.2103 12.2363 56.7871 11.2988C56.3704 10.3613 55.8073 9.89258 55.0977 9.89258ZM62.0215 8.21289H68.0762V9.95117H63.7988V13.3984C63.9355 13.3854 64.0755 13.3789 64.2188 13.3789C65.5404 13.3789 66.6276 13.7826 67.4805 14.5898C68.3333 15.3906 68.7598 16.4128 68.7598 17.6562C68.7598 18.9388 68.3366 19.9837 67.4902 20.791C66.6504 21.5918 65.5599 21.9922 64.2188 21.9922C63.112 21.9922 62.0378 21.7253 60.9961 21.1914V19.1797C61.9792 19.8177 62.9395 20.1367 63.877 20.1367C64.6973 20.1367 65.3841 19.8991 65.9375 19.4238C66.4974 18.9421 66.7773 18.3529 66.7773 17.6562C66.7773 16.9336 66.4746 16.3314 65.8691 15.8496C65.2637 15.3613 64.5085 15.1172 63.6035 15.1172C62.8288 15.1172 62.3014 15.1823 62.0215 15.3125V8.21289Z" fill="#A259FF"/>
</svg>
