<svg width="120" height="125" viewBox="0 0 120 125" fill="none" xmlns="http://www.w3.org/2000/svg">
<path d="M60.3941 63.9889L59.6234 64.6951C58.5803 65.6511 57.3934 65.0011 57.0106 64.5849C56.3195 63.8296 56.3734 62.6606 57.1236 61.9721L59.2252 60.0479H59.0556C57.5706 60.0479 56.1422 60.6375 55.0915 61.6869L52.62 61.6947C52.1678 61.6947 51.7979 62.0643 51.7979 62.5163V66.6217C51.7979 67.0736 52.1678 67.4448 52.5968 67.4448L55.5333 67.4433L57.8584 69.5453C58.5649 70.12 59.599 70.0106 60.1706 69.3076L60.6361 69.6994C61.0441 70.0102 61.6478 69.9691 61.9818 69.5614L62.788 68.5697L62.9261 68.6853C63.2793 68.9679 63.7965 68.9166 64.0822 68.5633L64.3282 68.2594C64.6128 67.9074 64.5589 67.3923 64.2074 67.1069L60.3941 63.9889ZM67.418 61.6947L64.9517 61.6914C63.8989 60.6391 62.471 60.0503 60.9824 60.0503L60.7615 60.0479C60.556 60.0479 60.3602 60.13 60.206 60.268L57.6811 62.5733L57.676 62.5836C57.2444 62.9895 57.2546 63.6266 57.6195 64.0223C57.8667 64.292 58.5186 64.5777 59.0615 64.0929C59.0615 64.0897 59.0679 64.0897 59.0711 64.0865L61.1264 62.2085C61.2934 62.0576 61.5534 62.0673 61.7076 62.2342C61.8617 62.4011 61.8489 62.6612 61.6819 62.8153L61.0108 63.4285L64.7514 66.4627C65.0628 66.7194 65.2524 67.0661 65.3197 67.4384L67.418 67.4392C67.8702 67.4392 68.2402 67.0697 68.2402 66.6176V62.5168C68.2402 62.062 67.8728 61.6947 67.418 61.6947Z" fill="#47AFE4"/>
<circle cx="60.0195" cy="64.9804" r="58.1923" stroke="#47AFE4" stroke-width="2"/>
<circle cx="58.3746" cy="64.9801" r="24.4615" stroke="#47AFE4" stroke-width="30"/>
<circle cx="60.02" cy="15.6538" r="14.3462" fill="#FAFAFA" stroke="#47AFE4" stroke-width="2"/>
<path d="M54.1357 8.18164C55.3857 8.18164 56.4176 8.83919 57.2314 10.1543C58.0518 11.4629 58.4619 13.1263 58.4619 15.1445C58.4619 17.2148 58.0518 18.8978 57.2314 20.1934C56.4176 21.4889 55.3597 22.1367 54.0576 22.1367C52.736 22.1367 51.6748 21.502 50.874 20.2324C50.0732 18.9629 49.6729 17.2799 49.6729 15.1836C49.6729 13.1133 50.0863 11.4303 50.9131 10.1348C51.7399 8.83268 52.8141 8.18164 54.1357 8.18164ZM54.1553 10.0371H54.0576C53.3089 10.0371 52.7132 10.4993 52.2705 11.4238C51.8343 12.3418 51.6162 13.5885 51.6162 15.1641C51.6162 16.7786 51.8311 18.0449 52.2607 18.9629C52.6904 19.8809 53.2829 20.3398 54.0381 20.3398C54.7933 20.3398 55.389 19.8809 55.8252 18.9629C56.2614 18.0449 56.4795 16.7982 56.4795 15.2227C56.4795 13.6406 56.2679 12.3809 55.8447 11.4434C55.4281 10.5059 54.8649 10.0371 54.1553 10.0371ZM62.6611 14.0605H62.7783C63.6312 14.0605 64.279 13.8848 64.7217 13.5332C65.1709 13.1816 65.3955 12.6706 65.3955 12C65.3955 11.3945 65.1774 10.903 64.7412 10.5254C64.3115 10.1478 63.7451 9.95898 63.042 9.95898C62.3324 9.95898 61.5446 10.1803 60.6787 10.623V8.75781C61.473 8.36068 62.3389 8.16211 63.2764 8.16211C64.5329 8.16211 65.5225 8.49089 66.2451 9.14844C66.9743 9.80599 67.3389 10.7044 67.3389 11.8438C67.3389 12.5339 67.1989 13.1165 66.9189 13.5918C66.639 14.0605 66.193 14.4642 65.5811 14.8027C66.1149 15.0111 66.5055 15.2682 66.7529 15.5742C67.0003 15.8737 67.1924 16.2383 67.3291 16.668C67.4658 17.0977 67.5342 17.5534 67.5342 18.0352C67.5342 19.2266 67.137 20.2129 66.3428 20.9941C65.5485 21.7689 64.5459 22.1562 63.335 22.1562C62.2998 22.1562 61.3005 21.9056 60.3369 21.4043V19.2754C61.3656 19.9199 62.3649 20.2422 63.335 20.2422C63.9925 20.2422 64.5199 20.0469 64.917 19.6562C65.3206 19.2656 65.5225 18.748 65.5225 18.1035C65.5225 17.5632 65.3564 17.0911 65.0244 16.6875C64.8291 16.4596 64.611 16.2936 64.3701 16.1895C64.1357 16.0788 63.6247 15.9746 62.8369 15.877L62.6611 15.8574V14.0605Z" fill="#47AFE4"/>
</svg>
