<svg width="604" height="668" viewBox="0 0 604 668" fill="none" xmlns="http://www.w3.org/2000/svg">
<path d="M46.3619 188.796L213.606 188.796C216.785 188.796 219.834 187.548 222.082 185.326C224.33 183.104 225.592 180.09 225.592 176.948L225.592 56.5984C225.592 53.4577 224.33 50.4455 222.083 48.2246C219.837 46.0038 216.789 44.7561 213.612 44.7561L46.3562 44.7561C43.1789 44.7561 40.1316 46.0038 37.8849 48.2246C35.6382 50.4455 34.376 53.4577 34.376 56.5984L34.376 176.948C34.376 180.09 35.6388 183.104 37.8866 185.326C40.1344 187.548 43.183 188.796 46.3619 188.796Z" fill="white"/>
<path d="M226.094 176.947V56.5976C226.094 53.3255 224.779 50.1875 222.438 47.8738C220.097 45.5601 216.923 44.2603 213.613 44.2603H46.3569C43.0467 44.2603 39.8721 45.5601 37.5314 47.8738C35.1908 50.1875 33.8758 53.3255 33.8758 56.5976V176.947C33.8758 178.568 34.1988 180.173 34.8264 181.671C35.4539 183.168 36.3736 184.529 37.5331 185.675C38.6926 186.821 40.0691 187.73 41.584 188.351C43.099 188.971 44.7227 189.29 46.3625 189.29H213.607C215.247 189.29 216.871 188.971 218.386 188.351C219.9 187.73 221.277 186.821 222.436 185.675C223.596 184.529 224.516 183.168 225.143 181.671C225.771 180.173 226.094 178.568 226.094 176.947ZM213.613 45.2503C216.657 45.2511 219.576 46.447 221.728 48.575C223.88 50.7029 225.089 53.5887 225.089 56.5976V176.947C225.089 179.958 223.879 182.846 221.725 184.975C219.571 187.104 216.65 188.3 213.604 188.3H46.3625C43.3165 188.3 40.3952 187.104 38.2413 184.975C36.0875 182.846 34.8774 179.958 34.8774 176.947V56.5976C34.8774 53.5881 36.0869 50.7019 38.2397 48.5738C40.3925 46.4458 43.3124 45.2503 46.3569 45.2503H213.613Z" fill="#292A2E"/>
<path d="M225.593 56.596V66.6238H34.3788V56.596C34.3788 53.4552 35.641 50.4431 37.8878 48.2222C40.1345 46.0013 43.1817 44.7537 46.3591 44.7537H213.613C215.187 44.7537 216.744 45.06 218.198 45.6551C219.651 46.2503 220.972 47.1226 222.084 48.2222C223.197 49.3219 224.079 50.6274 224.681 52.0642C225.283 53.501 225.593 55.0409 225.593 56.596Z" fill="#292A2E"/>
<path d="M160.29 82.8334H169.313C169.419 82.8334 169.521 82.7917 169.597 82.7174C169.672 82.6432 169.714 82.5424 169.714 82.4374C169.714 82.3324 169.672 82.2316 169.597 82.1574C169.521 82.0831 169.419 82.0414 169.313 82.0414H160.29C160.184 82.0414 160.082 82.0831 160.007 82.1574C159.932 82.2316 159.89 82.3324 159.89 82.4374C159.89 82.5424 159.932 82.6432 160.007 82.7174C160.082 82.7917 160.184 82.8334 160.29 82.8334Z" fill="#292A2E"/>
<path d="M175.82 82.8335H179.234C179.34 82.8335 179.442 82.7918 179.517 82.7175C179.593 82.6433 179.635 82.5425 179.635 82.4375C179.635 82.3325 179.593 82.2318 179.517 82.1575C179.442 82.0832 179.34 82.0415 179.234 82.0415H175.82C175.714 82.0415 175.612 82.0832 175.537 82.1575C175.462 82.2318 175.419 82.3325 175.419 82.4375C175.419 82.5425 175.462 82.6433 175.537 82.7175C175.612 82.7918 175.714 82.8335 175.82 82.8335Z" fill="#36DA93"/>
<path d="M175.82 89.9776H179.234C179.34 89.9776 179.442 89.9358 179.517 89.8616C179.593 89.7873 179.635 89.6866 179.635 89.5816C179.635 89.4765 179.593 89.3758 179.517 89.3015C179.442 89.2273 179.34 89.1855 179.234 89.1855H175.82C175.714 89.1855 175.612 89.2273 175.537 89.3015C175.462 89.3758 175.419 89.4765 175.419 89.5816C175.419 89.6866 175.462 89.7873 175.537 89.8616C175.612 89.9358 175.714 89.9776 175.82 89.9776Z" fill="#36DA93"/>
<path d="M175.82 97.1216H179.234C179.34 97.1216 179.442 97.0799 179.517 97.0056C179.593 96.9314 179.635 96.8306 179.635 96.7256C179.635 96.6206 179.593 96.5198 179.517 96.4456C179.442 96.3713 179.34 96.3296 179.234 96.3296H175.82C175.714 96.3296 175.612 96.3713 175.537 96.4456C175.462 96.5198 175.419 96.6206 175.419 96.7256C175.419 96.8306 175.462 96.9314 175.537 97.0056C175.612 97.0799 175.714 97.1216 175.82 97.1216Z" fill="#36DA93"/>
<path d="M175.82 104.266H179.234C179.34 104.266 179.442 104.224 179.517 104.15C179.593 104.075 179.635 103.975 179.635 103.87C179.635 103.764 179.593 103.664 179.517 103.59C179.442 103.515 179.34 103.474 179.234 103.474H175.82C175.714 103.474 175.612 103.515 175.537 103.59C175.462 103.664 175.419 103.764 175.419 103.87C175.419 103.975 175.462 104.075 175.537 104.15C175.612 104.224 175.714 104.266 175.82 104.266Z" fill="#36DA93"/>
<path d="M175.82 111.41H179.234C179.34 111.41 179.442 111.368 179.517 111.294C179.593 111.219 179.635 111.119 179.635 111.014C179.635 110.909 179.593 110.808 179.517 110.734C179.442 110.659 179.34 110.618 179.234 110.618H175.82C175.714 110.618 175.612 110.659 175.537 110.734C175.462 110.808 175.419 110.909 175.419 111.014C175.419 111.119 175.462 111.219 175.537 111.294C175.612 111.368 175.714 111.41 175.82 111.41Z" fill="#36DA93"/>
<path d="M175.82 118.554H179.234C179.34 118.554 179.442 118.512 179.517 118.438C179.593 118.363 179.635 118.263 179.635 118.158C179.635 118.053 179.593 117.952 179.517 117.878C179.442 117.803 179.34 117.762 179.234 117.762H175.82C175.714 117.762 175.612 117.803 175.537 117.878C175.462 117.952 175.419 118.053 175.419 118.158C175.419 118.263 175.462 118.363 175.537 118.438C175.612 118.512 175.714 118.554 175.82 118.554Z" fill="#36DA93"/>
<path d="M175.82 125.698H179.234C179.34 125.698 179.442 125.656 179.517 125.582C179.593 125.508 179.635 125.407 179.635 125.302C179.635 125.197 179.593 125.096 179.517 125.022C179.442 124.947 179.34 124.906 179.234 124.906H175.82C175.714 124.906 175.612 124.947 175.537 125.022C175.462 125.096 175.419 125.197 175.419 125.302C175.419 125.407 175.462 125.508 175.537 125.582C175.612 125.656 175.714 125.698 175.82 125.698Z" fill="#36DA93"/>
<path d="M175.82 132.842H179.234C179.34 132.842 179.442 132.8 179.517 132.726C179.593 132.652 179.635 132.551 179.635 132.446C179.635 132.341 179.593 132.24 179.517 132.166C179.442 132.092 179.34 132.05 179.234 132.05H175.82C175.714 132.05 175.612 132.092 175.537 132.166C175.462 132.24 175.419 132.341 175.419 132.446C175.419 132.551 175.462 132.652 175.537 132.726C175.612 132.8 175.714 132.842 175.82 132.842Z" fill="#36DA93"/>
<path d="M175.82 139.986H179.234C179.34 139.986 179.442 139.944 179.517 139.87C179.593 139.796 179.635 139.695 179.635 139.59C179.635 139.485 179.593 139.384 179.517 139.31C179.442 139.236 179.34 139.194 179.234 139.194H175.82C175.714 139.194 175.612 139.236 175.537 139.31C175.462 139.384 175.419 139.485 175.419 139.59C175.419 139.695 175.462 139.796 175.537 139.87C175.612 139.944 175.714 139.986 175.82 139.986Z" fill="#36DA93"/>
<path d="M175.82 147.13H179.234C179.34 147.13 179.442 147.088 179.517 147.014C179.593 146.94 179.635 146.839 179.635 146.734C179.635 146.629 179.593 146.528 179.517 146.454C179.442 146.38 179.34 146.338 179.234 146.338H175.82C175.714 146.338 175.612 146.38 175.537 146.454C175.462 146.528 175.419 146.629 175.419 146.734C175.419 146.839 175.462 146.94 175.537 147.014C175.612 147.088 175.714 147.13 175.82 147.13Z" fill="#36DA93"/>
<path d="M175.82 154.274H179.234C179.34 154.274 179.442 154.232 179.517 154.158C179.593 154.084 179.635 153.983 179.635 153.878C179.635 153.773 179.593 153.672 179.517 153.598C179.442 153.524 179.34 153.482 179.234 153.482H175.82C175.714 153.482 175.612 153.524 175.537 153.598C175.462 153.672 175.419 153.773 175.419 153.878C175.419 153.983 175.462 154.084 175.537 154.158C175.612 154.232 175.714 154.274 175.82 154.274Z" fill="#36DA93"/>
<path d="M175.82 161.418H179.234C179.34 161.418 179.442 161.376 179.517 161.302C179.593 161.228 179.635 161.127 179.635 161.022C179.635 160.917 179.593 160.816 179.517 160.742C179.442 160.668 179.34 160.626 179.234 160.626H175.82C175.714 160.626 175.612 160.668 175.537 160.742C175.462 160.816 175.419 160.917 175.419 161.022C175.419 161.127 175.462 161.228 175.537 161.302C175.612 161.376 175.714 161.418 175.82 161.418Z" fill="#36DA93"/>
<path d="M175.82 168.562H179.234C179.34 168.562 179.442 168.52 179.517 168.446C179.593 168.372 179.635 168.271 179.635 168.166C179.635 168.061 179.593 167.96 179.517 167.886C179.442 167.812 179.34 167.77 179.234 167.77H175.82C175.714 167.77 175.612 167.812 175.537 167.886C175.462 167.96 175.419 168.061 175.419 168.166C175.419 168.271 175.462 168.372 175.537 168.446C175.612 168.52 175.714 168.562 175.82 168.562Z" fill="#36DA93"/>
<path d="M175.82 175.707H179.234C179.34 175.707 179.442 175.665 179.517 175.591C179.593 175.517 179.635 175.416 179.635 175.311C179.635 175.206 179.593 175.105 179.517 175.031C179.442 174.957 179.34 174.915 179.234 174.915H175.82C175.714 174.915 175.612 174.957 175.537 175.031C175.462 175.105 175.419 175.206 175.419 175.311C175.419 175.416 175.462 175.517 175.537 175.591C175.612 175.665 175.714 175.707 175.82 175.707Z" fill="#36DA93"/>
<path d="M153.079 89.9773H161.301C161.407 89.9773 161.509 89.9356 161.584 89.8613C161.659 89.7871 161.701 89.6863 161.701 89.5813C161.701 89.4763 161.659 89.3756 161.584 89.3013C161.509 89.227 161.407 89.1853 161.301 89.1853H153.079C152.973 89.1853 152.871 89.227 152.796 89.3013C152.721 89.3756 152.678 89.4763 152.678 89.5813C152.678 89.6863 152.721 89.7871 152.796 89.8613C152.871 89.9356 152.973 89.9773 153.079 89.9773Z" fill="#292A2E"/>
<path d="M160.29 132.842H169.313C169.419 132.842 169.521 132.8 169.597 132.726C169.672 132.651 169.714 132.551 169.714 132.446C169.714 132.341 169.672 132.24 169.597 132.166C169.521 132.091 169.419 132.05 169.313 132.05H160.29C160.184 132.05 160.082 132.091 160.007 132.166C159.932 132.24 159.89 132.341 159.89 132.446C159.89 132.551 159.932 132.651 160.007 132.726C160.082 132.8 160.184 132.842 160.29 132.842Z" fill="#292A2E"/>
<path d="M153.079 139.986H161.301C161.407 139.986 161.509 139.944 161.584 139.87C161.659 139.795 161.701 139.695 161.701 139.59C161.701 139.485 161.659 139.384 161.584 139.31C161.509 139.235 161.407 139.194 161.301 139.194H153.079C152.973 139.194 152.871 139.235 152.796 139.31C152.721 139.384 152.678 139.485 152.678 139.59C152.678 139.695 152.721 139.795 152.796 139.87C152.871 139.944 152.973 139.986 153.079 139.986Z" fill="#292A2E"/>
<path d="M106.605 97.1214H155.69C155.796 97.1214 155.898 97.0796 155.973 97.0054C156.049 96.9311 156.091 96.8304 156.091 96.7254C156.091 96.6203 156.049 96.5196 155.973 96.4453C155.898 96.3711 155.796 96.3293 155.69 96.3293H106.605C106.499 96.3293 106.397 96.3711 106.322 96.4453C106.247 96.5196 106.204 96.6203 106.204 96.7254C106.204 96.8304 106.247 96.9311 106.322 97.0054C106.397 97.0796 106.499 97.1214 106.605 97.1214Z" fill="#292A2E"/>
<path d="M63.2674 97.1214H97.9295C98.0357 97.1214 98.1376 97.0796 98.2127 97.0054C98.2878 96.9311 98.3301 96.8304 98.3301 96.7254C98.3301 96.6203 98.2878 96.5196 98.2127 96.4453C98.1376 96.3711 98.0357 96.3293 97.9295 96.3293H63.2674C63.1612 96.3293 63.0593 96.3711 62.9841 96.4453C62.909 96.5196 62.8668 96.6203 62.8668 96.7254C62.8668 96.8304 62.909 96.9311 62.9841 97.0054C63.0593 97.0796 63.1612 97.1214 63.2674 97.1214Z" fill="#0CBC8B"/>
<path d="M44.6662 97.1214H55.2908C55.397 97.1214 55.4989 97.0796 55.574 97.0054C55.6492 96.9311 55.6914 96.8304 55.6914 96.7254C55.6914 96.6203 55.6492 96.5196 55.574 96.4453C55.4989 96.3711 55.397 96.3293 55.2908 96.3293H44.6662C44.56 96.3293 44.458 96.3711 44.3829 96.4453C44.3078 96.5196 44.2656 96.6203 44.2656 96.7254C44.2656 96.8304 44.3078 96.9311 44.3829 97.0054C44.458 97.0796 44.56 97.1214 44.6662 97.1214Z" fill="#292A2E"/>
<path d="M82.5675 111.409H155.69C155.796 111.409 155.898 111.368 155.973 111.293C156.049 111.219 156.091 111.118 156.091 111.013C156.091 110.908 156.049 110.808 155.973 110.733C155.898 110.659 155.796 110.617 155.69 110.617H82.5675C82.4612 110.617 82.3594 110.659 82.2842 110.733C82.2091 110.808 82.1668 110.908 82.1668 111.013C82.1668 111.118 82.2091 111.219 82.2842 111.293C82.3594 111.368 82.4612 111.409 82.5675 111.409Z" fill="#292A2E"/>
<path d="M63.2678 111.409H73.8923C73.9986 111.409 74.1005 111.368 74.1756 111.293C74.2507 111.219 74.293 111.118 74.293 111.013C74.293 110.908 74.2507 110.808 74.1756 110.733C74.1005 110.659 73.9986 110.617 73.8923 110.617H63.2678C63.1615 110.617 63.0596 110.659 62.9845 110.733C62.9093 110.808 62.8672 110.908 62.8672 111.013C62.8672 111.118 62.9093 111.219 62.9845 111.293C63.0596 111.368 63.1615 111.409 63.2678 111.409Z" fill="#36DA93"/>
<path d="M146.667 104.266H155.69C155.796 104.266 155.898 104.224 155.973 104.15C156.049 104.075 156.091 103.975 156.091 103.87C156.091 103.764 156.049 103.664 155.973 103.59C155.898 103.515 155.796 103.474 155.69 103.474H146.667C146.561 103.474 146.459 103.515 146.384 103.59C146.309 103.664 146.267 103.764 146.267 103.87C146.267 103.975 146.309 104.075 146.384 104.15C146.459 104.224 146.561 104.266 146.667 104.266Z" fill="#0CBC8B"/>
<path d="M87.3059 104.266H137.993C138.099 104.266 138.201 104.224 138.276 104.15C138.351 104.075 138.394 103.975 138.394 103.87C138.394 103.764 138.351 103.664 138.276 103.59C138.201 103.515 138.099 103.474 137.993 103.474H87.3059C87.1997 103.474 87.0978 103.515 87.0226 103.59C86.9475 103.664 86.9053 103.764 86.9053 103.87C86.9053 103.975 86.9475 104.075 87.0226 104.15C87.0978 104.224 87.1997 104.266 87.3059 104.266Z" fill="#36DA93"/>
<path d="M44.5961 104.266H77.658C77.7642 104.266 77.8661 104.224 77.9413 104.15C78.0164 104.075 78.0586 103.975 78.0586 103.87C78.0586 103.764 78.0164 103.664 77.9413 103.59C77.8661 103.515 77.7642 103.474 77.658 103.474H44.5977C44.4914 103.474 44.3895 103.515 44.3144 103.59C44.2393 103.664 44.197 103.764 44.197 103.87C44.197 103.975 44.2393 104.075 44.3144 104.15C44.3895 104.224 44.4914 104.266 44.5977 104.266H44.5961Z" fill="#292A2E"/>
<path d="M106.605 118.554H155.69C155.796 118.554 155.898 118.512 155.973 118.438C156.049 118.363 156.091 118.263 156.091 118.158C156.091 118.053 156.049 117.952 155.973 117.878C155.898 117.803 155.796 117.762 155.69 117.762H106.605C106.499 117.762 106.397 117.803 106.322 117.878C106.247 117.952 106.204 118.053 106.204 118.158C106.204 118.263 106.247 118.363 106.322 118.438C106.397 118.512 106.499 118.554 106.605 118.554Z" fill="#292A2E"/>
<path d="M79.2924 118.554H97.9295C98.0357 118.554 98.1376 118.512 98.2127 118.438C98.2878 118.363 98.3301 118.263 98.3301 118.158C98.3301 118.053 98.2878 117.952 98.2127 117.878C98.1376 117.803 98.0357 117.762 97.9295 117.762H79.2924C79.1862 117.762 79.0842 117.803 79.0091 117.878C78.934 117.952 78.8918 118.053 78.8918 118.158C78.8918 118.263 78.934 118.363 79.0091 118.438C79.0842 118.512 79.1862 118.554 79.2924 118.554Z" fill="#0CBC8B"/>
<path d="M44.6666 118.554H71.3162C71.4224 118.554 71.5243 118.512 71.5994 118.438C71.6746 118.363 71.7168 118.263 71.7168 118.158C71.7168 118.053 71.6746 117.952 71.5994 117.878C71.5243 117.803 71.4224 117.762 71.3162 117.762H44.6666C44.5604 117.762 44.4585 117.803 44.3833 117.878C44.3082 117.952 44.266 118.053 44.266 118.158C44.266 118.263 44.3082 118.363 44.3833 118.438C44.4585 118.512 44.5604 118.554 44.6666 118.554Z" fill="#292A2E"/>
<path d="M146.667 125.698H155.69C155.796 125.698 155.898 125.656 155.973 125.582C156.049 125.507 156.091 125.407 156.091 125.302C156.091 125.197 156.049 125.096 155.973 125.022C155.898 124.947 155.796 124.906 155.69 124.906H146.667C146.561 124.906 146.459 124.947 146.384 125.022C146.309 125.096 146.267 125.197 146.267 125.302C146.267 125.407 146.309 125.507 146.384 125.582C146.459 125.656 146.561 125.698 146.667 125.698Z" fill="#36DA93"/>
<path d="M87.3059 125.698H137.993C138.099 125.698 138.201 125.656 138.276 125.582C138.351 125.507 138.394 125.407 138.394 125.302C138.394 125.197 138.351 125.096 138.276 125.022C138.201 124.947 138.099 124.906 137.993 124.906H87.3059C87.1997 124.906 87.0978 124.947 87.0226 125.022C86.9475 125.096 86.9053 125.197 86.9053 125.302C86.9053 125.407 86.9475 125.507 87.0226 125.582C87.0978 125.656 87.1997 125.698 87.3059 125.698Z" fill="#0CBC8B"/>
<path d="M108.208 154.274H157.294C157.4 154.274 157.502 154.232 157.577 154.158C157.652 154.084 157.694 153.983 157.694 153.878C157.694 153.773 157.652 153.672 157.577 153.598C157.502 153.524 157.4 153.482 157.294 153.482H108.208C108.102 153.482 108 153.524 107.925 153.598C107.85 153.672 107.808 153.773 107.808 153.878C107.808 153.983 107.85 154.084 107.925 154.158C108 154.232 108.102 154.274 108.208 154.274Z" fill="#292A2E"/>
<path d="M64.871 154.274H99.533C99.6392 154.274 99.7411 154.232 99.8162 154.158C99.8914 154.084 99.9336 153.983 99.9336 153.878C99.9336 153.773 99.8914 153.672 99.8162 153.598C99.7411 153.524 99.6392 153.482 99.533 153.482H64.871C64.7647 153.482 64.6628 153.524 64.5877 153.598C64.5125 153.672 64.4703 153.773 64.4703 153.878C64.4703 153.983 64.5125 154.084 64.5877 154.158C64.6628 154.232 64.7647 154.274 64.871 154.274Z" fill="#36DA93"/>
<path d="M132.246 147.13H157.294C157.4 147.13 157.502 147.088 157.577 147.014C157.652 146.939 157.694 146.839 157.694 146.734C157.694 146.629 157.652 146.528 157.577 146.454C157.502 146.379 157.4 146.338 157.294 146.338H132.246C132.14 146.338 132.038 146.379 131.963 146.454C131.888 146.528 131.845 146.629 131.845 146.734C131.845 146.839 131.888 146.939 131.963 147.014C132.038 147.088 132.14 147.13 132.246 147.13Z" fill="#0CBC8B"/>
<path d="M88.909 147.13H123.571C123.677 147.13 123.779 147.088 123.854 147.014C123.929 146.939 123.972 146.839 123.972 146.734C123.972 146.629 123.929 146.528 123.854 146.454C123.779 146.379 123.677 146.338 123.571 146.338H88.909C88.8028 146.338 88.7009 146.379 88.6257 146.454C88.5506 146.528 88.5084 146.629 88.5084 146.734C88.5084 146.839 88.5506 146.939 88.6257 147.014C88.7009 147.088 88.8028 147.13 88.909 147.13Z" fill="#36DA93"/>
<path d="M46.1996 147.13H79.2615C79.3677 147.13 79.4697 147.088 79.5448 147.014C79.6199 146.939 79.6621 146.839 79.6621 146.734C79.6621 146.629 79.6199 146.528 79.5448 146.454C79.4697 146.379 79.3677 146.338 79.2615 146.338H46.2012C46.0949 146.338 45.9931 146.379 45.9179 146.454C45.8428 146.528 45.8006 146.629 45.8006 146.734C45.8006 146.839 45.8428 146.939 45.9179 147.014C45.9931 147.088 46.0949 147.13 46.2012 147.13H46.1996Z" fill="#292A2E"/>
<path d="M84.171 168.563H157.294C157.4 168.563 157.502 168.521 157.577 168.447C157.652 168.372 157.694 168.272 157.694 168.167C157.694 168.062 157.652 167.961 157.577 167.887C157.502 167.812 157.4 167.771 157.294 167.771H84.171C84.0647 167.771 83.9629 167.812 83.8877 167.887C83.8126 167.961 83.7704 168.062 83.7704 168.167C83.7704 168.272 83.8126 168.372 83.8877 168.447C83.9629 168.521 84.0647 168.563 84.171 168.563Z" fill="#36DA93"/>
<path d="M64.8713 168.563H75.4959C75.6021 168.563 75.704 168.521 75.7791 168.447C75.8542 168.372 75.8965 168.272 75.8965 168.167C75.8965 168.062 75.8542 167.961 75.7791 167.887C75.704 167.812 75.6021 167.771 75.4959 167.771H64.8713C64.765 167.771 64.6631 167.812 64.588 167.887C64.5129 167.961 64.4707 168.062 64.4707 168.167C64.4707 168.272 64.5129 168.372 64.588 168.447C64.6631 168.521 64.765 168.563 64.8713 168.563Z" fill="#292A2E"/>
<path d="M148.271 161.419H157.294C157.4 161.419 157.502 161.377 157.577 161.303C157.652 161.228 157.694 161.128 157.694 161.023C157.694 160.918 157.652 160.817 157.577 160.743C157.502 160.668 157.4 160.627 157.294 160.627H148.271C148.165 160.627 148.063 160.668 147.988 160.743C147.912 160.817 147.87 160.918 147.87 161.023C147.87 161.128 147.912 161.228 147.988 161.303C148.063 161.377 148.165 161.419 148.271 161.419Z" fill="#36DA93"/>
<path d="M88.9095 161.419H139.596C139.703 161.419 139.805 161.377 139.88 161.303C139.955 161.228 139.997 161.128 139.997 161.023C139.997 160.918 139.955 160.817 139.88 160.743C139.805 160.668 139.703 160.627 139.596 160.627H88.9095C88.8032 160.627 88.7013 160.668 88.6262 160.743C88.551 160.817 88.5088 160.918 88.5088 161.023C88.5088 161.128 88.551 161.228 88.6262 161.303C88.7013 161.377 88.8032 161.419 88.9095 161.419Z" fill="#292A2E"/>
<path d="M46.1996 161.419H79.2615C79.3677 161.419 79.4697 161.377 79.5448 161.303C79.6199 161.228 79.6621 161.128 79.6621 161.023C79.6621 160.918 79.6199 160.817 79.5448 160.743C79.4697 160.668 79.3677 160.627 79.2615 160.627H46.2012C46.0949 160.627 45.9931 160.668 45.9179 160.743C45.8428 160.817 45.8006 160.918 45.8006 161.023C45.8006 161.128 45.8428 161.228 45.9179 161.303C45.9931 161.377 46.0949 161.419 46.2012 161.419H46.1996Z" fill="#0CBC8B"/>
<path d="M108.208 175.707H157.294C157.4 175.707 157.502 175.665 157.577 175.591C157.652 175.517 157.694 175.416 157.694 175.311C157.694 175.206 157.652 175.105 157.577 175.031C157.502 174.957 157.4 174.915 157.294 174.915H108.208C108.102 174.915 108 174.957 107.925 175.031C107.85 175.105 107.808 175.206 107.808 175.311C107.808 175.416 107.85 175.517 107.925 175.591C108 175.665 108.102 175.707 108.208 175.707Z" fill="#0CBC8B"/>
<path d="M80.8959 175.707H99.533C99.6392 175.707 99.7411 175.665 99.8162 175.591C99.8914 175.517 99.9336 175.416 99.9336 175.311C99.9336 175.206 99.8914 175.105 99.8162 175.031C99.7411 174.957 99.6392 174.915 99.533 174.915H80.8959C80.7897 174.915 80.6878 174.957 80.6126 175.031C80.5375 175.105 80.4953 175.206 80.4953 175.311C80.4953 175.416 80.5375 175.517 80.6126 175.591C80.6878 175.665 80.7897 175.707 80.8959 175.707Z" fill="#292A2E"/>
<path d="M46.2702 175.707H72.9197C73.0259 175.707 73.1278 175.665 73.2029 175.591C73.2781 175.517 73.3203 175.416 73.3203 175.311C73.3203 175.206 73.2781 175.105 73.2029 175.031C73.1278 174.957 73.0259 174.915 72.9197 174.915H46.2702C46.1639 174.915 46.062 174.957 45.9869 175.031C45.9117 175.105 45.8695 175.206 45.8695 175.311C45.8695 175.416 45.9117 175.517 45.9869 175.591C46.062 175.665 46.1639 175.707 46.2702 175.707Z" fill="#36DA93"/>
<path d="M183.039 183.351C183.145 183.351 183.247 183.31 183.322 183.235C183.397 183.161 183.439 183.06 183.439 182.955V70.3621C183.439 70.257 183.397 70.1563 183.322 70.0821C183.247 70.0078 183.145 69.9661 183.039 69.9661C182.933 69.9661 182.831 70.0078 182.756 70.0821C182.68 70.1563 182.638 70.257 182.638 70.3621V182.955C182.638 183.06 182.68 183.161 182.756 183.235C182.831 183.31 182.933 183.351 183.039 183.351Z" fill="#292A2E"/>
<path d="M48.8644 62.8355C45.3145 62.8355 42.4368 59.9909 42.4368 56.4819C42.4368 52.9729 45.3145 50.1283 48.8644 50.1283C52.4142 50.1283 55.292 52.9729 55.292 56.4819C55.292 59.9909 52.4142 62.8355 48.8644 62.8355Z" fill="white"/>
<path d="M201.362 75.3091H218.711C218.817 75.3091 218.919 75.2674 218.994 75.1931C219.069 75.1189 219.111 75.0181 219.111 74.9131C219.111 74.8081 219.069 74.7073 218.994 74.6331C218.919 74.5588 218.817 74.5171 218.711 74.5171H201.362C201.256 74.5171 201.154 74.5588 201.079 74.6331C201.004 74.7073 200.961 74.8081 200.961 74.9131C200.961 75.0181 201.004 75.1189 201.079 75.1931C201.154 75.2674 201.256 75.3091 201.362 75.3091Z" fill="#292A2E"/>
<path d="M206.589 83.1199H218.711C218.817 83.1199 218.919 83.0782 218.994 83.0039C219.069 82.9296 219.111 82.8289 219.111 82.7239C219.111 82.6189 219.069 82.5181 218.994 82.4439C218.919 82.3696 218.817 82.3279 218.711 82.3279H206.589C206.482 82.3279 206.38 82.3696 206.305 82.4439C206.23 82.5181 206.188 82.6189 206.188 82.7239C206.188 82.8289 206.23 82.9296 206.305 83.0039C206.38 83.0782 206.482 83.1199 206.589 83.1199Z" fill="#292A2E"/>
<path d="M195.928 90.9309H218.711C218.817 90.9309 218.919 90.8892 218.994 90.815C219.069 90.7407 219.111 90.64 219.111 90.5349C219.111 90.4299 219.069 90.3292 218.994 90.2549C218.919 90.1806 218.817 90.1389 218.711 90.1389H195.928C195.822 90.1389 195.72 90.1806 195.645 90.2549C195.57 90.3292 195.527 90.4299 195.527 90.5349C195.527 90.64 195.57 90.7407 195.645 90.815C195.72 90.8892 195.822 90.9309 195.928 90.9309Z" fill="#292A2E"/>
<path d="M191.676 98.7419H210.698C210.804 98.7419 210.906 98.7001 210.981 98.6259C211.056 98.5516 211.099 98.4509 211.099 98.3458C211.099 98.2408 211.056 98.1401 210.981 98.0658C210.906 97.9916 210.804 97.9498 210.698 97.9498H191.676C191.57 97.9498 191.468 97.9916 191.393 98.0658C191.318 98.1401 191.276 98.2408 191.276 98.3458C191.276 98.4509 191.318 98.5516 191.393 98.6259C191.468 98.7001 191.57 98.7419 191.676 98.7419Z" fill="#292A2E"/>
<path d="M200.875 106.554H210.698C210.804 106.554 210.906 106.512 210.981 106.438C211.056 106.363 211.099 106.263 211.099 106.158C211.099 106.053 211.056 105.952 210.981 105.878C210.906 105.803 210.804 105.762 210.698 105.762H200.875C200.768 105.762 200.667 105.803 200.591 105.878C200.516 105.952 200.474 106.053 200.474 106.158C200.474 106.263 200.516 106.363 200.591 106.438C200.667 106.512 200.768 106.554 200.875 106.554Z" fill="#292A2E"/>
<path d="M193.349 114.365H210.698C210.804 114.365 210.906 114.323 210.981 114.249C211.056 114.174 211.099 114.074 211.099 113.969C211.099 113.863 211.056 113.763 210.981 113.688C210.906 113.614 210.804 113.573 210.698 113.573H193.349C193.243 113.573 193.141 113.614 193.066 113.688C192.991 113.763 192.949 113.863 192.949 113.969C192.949 114.074 192.991 114.174 193.066 114.249C193.141 114.323 193.243 114.365 193.349 114.365Z" fill="#292A2E"/>
<path d="M205.334 122.175H218.711C218.817 122.175 218.919 122.134 218.994 122.059C219.069 121.985 219.111 121.884 219.111 121.779C219.111 121.674 219.069 121.574 218.994 121.499C218.919 121.425 218.817 121.383 218.711 121.383H205.334C205.228 121.383 205.126 121.425 205.051 121.499C204.975 121.574 204.933 121.674 204.933 121.779C204.933 121.884 204.975 121.985 205.051 122.059C205.126 122.134 205.228 122.175 205.334 122.175Z" fill="#292A2E"/>
<path d="M209.932 129.986H218.711C218.817 129.986 218.919 129.944 218.994 129.87C219.069 129.795 219.111 129.695 219.111 129.59C219.111 129.485 219.069 129.384 218.994 129.31C218.919 129.235 218.817 129.194 218.711 129.194H209.932C209.826 129.194 209.724 129.235 209.649 129.31C209.574 129.384 209.532 129.485 209.532 129.59C209.532 129.695 209.574 129.795 209.649 129.87C209.724 129.944 209.826 129.986 209.932 129.986Z" fill="#292A2E"/>
<path d="M176.365 73.6331V73.7756L171.357 75.6131C171.285 75.642 171.224 75.6913 171.181 75.7549C171.138 75.8184 171.116 75.8932 171.116 75.9695V76.1042C171.115 76.1637 171.129 76.2225 171.157 76.2751C171.185 76.3278 171.226 76.3725 171.277 76.4052C171.327 76.4405 171.386 76.4627 171.448 76.4696C171.51 76.4766 171.572 76.468 171.63 76.4447L177.286 74.2588C177.357 74.2309 177.417 74.1828 177.46 74.1208C177.503 74.0587 177.526 73.9854 177.526 73.9103V73.5063C177.527 73.431 177.504 73.3572 177.461 73.2949C177.418 73.2326 177.357 73.1848 177.286 73.1578L171.63 70.9639C171.584 70.9484 171.535 70.9403 171.486 70.9402C171.411 70.9417 171.339 70.9637 171.277 71.0035C171.226 71.0378 171.185 71.084 171.157 71.138C171.129 71.1919 171.115 71.2518 171.116 71.3124V71.4471C171.115 71.5227 171.137 71.5969 171.18 71.6594C171.223 71.7219 171.285 71.7695 171.357 71.7956L176.365 73.6331Z" fill="#36DA93"/>
<path d="M166.437 69.3482L169.434 78.4169C169.458 78.4926 169.506 78.5587 169.571 78.6056C169.636 78.6526 169.714 78.678 169.795 78.6783C169.853 78.6792 169.91 78.6659 169.962 78.6397C170.014 78.6134 170.058 78.575 170.091 78.5278C170.127 78.481 170.151 78.4266 170.162 78.3688C170.173 78.3111 170.171 78.2517 170.154 78.1952L167.158 69.1344C167.133 69.0573 167.084 68.9899 167.018 68.9417C166.952 68.8934 166.872 68.8667 166.79 68.8651C166.732 68.8649 166.675 68.8785 166.623 68.9046C166.572 68.9308 166.527 68.9689 166.493 69.0156C166.458 69.0624 166.434 69.1171 166.424 69.1751C166.414 69.233 166.419 69.2925 166.437 69.3482Z" fill="#36DA93"/>
<path d="M159.08 73.5064V73.9103C159.079 73.9847 159.101 74.0578 159.142 74.1199C159.183 74.1821 159.243 74.2305 159.313 74.2588L164.977 76.4448C165.033 76.4678 165.094 76.4762 165.155 76.4693C165.215 76.4624 165.273 76.4403 165.322 76.4052C165.373 76.3729 165.415 76.3285 165.445 76.2759C165.474 76.2233 165.49 76.1643 165.49 76.1042V75.9696C165.491 75.8921 165.467 75.8164 165.423 75.7526C165.378 75.6888 165.315 75.6402 165.242 75.6132L160.234 73.7757V73.6331L165.242 71.7956C165.315 71.7714 165.379 71.7245 165.424 71.6618C165.469 71.599 165.492 71.5238 165.49 71.4471V71.3125C165.49 71.2513 165.474 71.1911 165.445 71.1372C165.416 71.0834 165.373 71.0375 165.322 71.0036C165.26 70.9638 165.188 70.9419 165.114 70.9402C165.067 70.9397 165.021 70.9477 164.977 70.964L159.313 73.1579C159.242 73.1853 159.182 73.2335 159.141 73.2959C159.099 73.3582 159.078 73.4317 159.08 73.5064Z" fill="#36DA93"/>
<path d="M272.363 0.727539H554.583V279.698H272.363V0.727539Z" fill="#F4F4F4"/>
<path d="M554.584 0.727539H557.818V279.698H554.584V0.727539Z" fill="#F4F4F4"/>
<path opacity="0.05" d="M554.584 0.727539H557.818V279.698H554.584V0.727539Z" fill="#292A2E"/>
<path opacity="0.05" d="M486.214 192.961V119.973H425.73V162.378H332.04V237.46H292.22V279.698H332.04H339.711H541.007V192.961H486.214Z" fill="#292A2E"/>
<path opacity="0.34" d="M433.494 127.898H477.539V135.823H433.494V127.898Z" fill="#FFFFFA"/>
<path opacity="0.34" d="M433.494 144.32H477.539V152.245H433.494V144.32Z" fill="#FFFFFA"/>
<path opacity="0.34" d="M433.494 160.742H477.539V168.667H433.494V160.742Z" fill="#FFFFFA"/>
<path opacity="0.34" d="M525.078 200.653H533.196V208.578H525.078V200.653Z" fill="#FFFFFA"/>
<path opacity="0.34" d="M525.078 217.075H533.196V225H525.078V217.075Z" fill="#FFFFFA"/>
<path opacity="0.34" d="M525.078 233.498H533.196V241.423H525.078V233.498Z" fill="#FFFFFA"/>
<path opacity="0.34" d="M510.059 200.653H518.178V208.578H510.059V200.653Z" fill="#FFFFFA"/>
<path opacity="0.34" d="M510.059 217.075H518.178V225H510.059V217.075Z" fill="#FFFFFA"/>
<path opacity="0.34" d="M510.059 233.498H518.178V241.423H510.059V233.498Z" fill="#FFFFFA"/>
<path opacity="0.34" d="M495.447 200.653H503.565V208.578H495.447V200.653Z" fill="#FFFFFA"/>
<path opacity="0.34" d="M495.447 217.075H503.565V225H495.447V217.075Z" fill="#FFFFFA"/>
<path opacity="0.34" d="M495.447 233.498H503.565V241.423H495.447V233.498Z" fill="#FFFFFA"/>
<path d="M554.583 138.648H497.795V0.727539H493.099V138.648H339.711V0.727539H335.014V138.648H272.363V143.29H335.014V279.698H339.711V143.29H493.099V279.698H497.795V143.29H554.583V138.648Z" fill="white"/>
<path d="M261.12 279.362H565.825V288.639H261.12V279.362Z" fill="#F4F4F4"/>
<path opacity="0.1" d="M261.12 279.362H565.825V288.639H261.12V279.362Z" fill="#292A2E"/>
<path opacity="0.1" d="M565.825 279.362H570.225V288.639H565.825V279.362Z" fill="#292A2E"/>
<path opacity="0.1" d="M565.825 279.362H570.225V288.639H565.825V279.362Z" fill="#292A2E"/>
<path d="M557.818 12.6047L272.363 12.6047V5.707L557.818 5.707V12.6047Z" fill="white"/>
<path d="M557.818 25.4894L272.363 25.4894V18.5916L557.818 18.5916V25.4894Z" fill="white"/>
<path d="M557.818 38.3733L272.363 38.3733V31.4756L557.818 31.4756V38.3733Z" fill="white"/>
<path d="M557.818 51.2571L272.363 51.2571V44.3593L557.818 44.3593V51.2571Z" fill="white"/>
<path d="M557.818 64.1401L272.363 64.1401V57.2424L557.818 57.2424V64.1401Z" fill="white"/>
<path d="M527.499 71.9202H523.221V0.727524H527.499V71.9202Z" fill="white"/>
<path d="M525.721 82.1445C522.476 82.1445 519.844 79.5435 519.844 76.335C519.844 73.1265 522.476 70.5255 525.721 70.5255C528.967 70.5255 531.599 73.1265 531.599 76.335C531.599 79.5435 528.967 82.1445 525.721 82.1445Z" fill="white"/>
<path d="M555.325 667.466L556.898 667.166L532.303 425.575L530.73 425.874L555.325 667.466Z" fill="#494949"/>
<path d="M463.744 667.466L465.317 667.166L440.723 425.575L439.149 425.874L463.744 667.466Z" fill="#494949"/>
<path d="M261.309 667.466L259.736 667.166L284.331 425.575L285.904 425.874L261.309 667.466Z" fill="#494949"/>
<path d="M352.89 667.466L351.316 667.166L375.911 425.575L377.484 425.874L352.89 667.466Z" fill="#494949"/>
<path d="M385.506 319.249L387.095 319.459L372.727 425.831L371.138 425.622L385.506 319.249Z" fill="#494949"/>
<path d="M550.424 319.248L552.013 319.458L537.645 425.83L536.056 425.62L550.424 319.248Z" fill="#494949"/>
<path d="M371.279 417.935H532.587C536.939 417.935 540.467 421.422 540.467 425.724V425.725C540.467 430.027 536.939 433.514 532.587 433.514H371.279C366.927 433.514 363.399 430.027 363.399 425.725V425.724C363.399 421.422 366.927 417.935 371.279 417.935Z" fill="#292A2E"/>
<path opacity="0.8" d="M371.279 417.935H532.587C536.939 417.935 540.467 421.422 540.467 425.724V425.725C540.467 430.027 536.939 433.514 532.587 433.514H371.279C366.927 433.514 363.399 430.027 363.399 425.725V425.724C363.399 421.422 366.927 417.935 371.279 417.935Z" fill="white"/>
<path d="M371.279 434.306H532.585C533.725 434.306 534.854 434.084 535.907 433.653C536.961 433.221 537.918 432.589 538.724 431.792C539.53 430.995 540.169 430.049 540.606 429.008C541.042 427.967 541.267 426.851 541.267 425.724C541.267 424.597 541.042 423.481 540.606 422.44C540.169 421.399 539.53 420.453 538.724 419.656C537.918 418.859 536.961 418.227 535.907 417.796C534.854 417.365 533.725 417.143 532.585 417.143H371.279C370.138 417.143 369.01 417.365 367.956 417.796C366.903 418.227 365.946 418.859 365.14 419.656C364.334 420.453 363.694 421.399 363.258 422.44C362.822 423.481 362.597 424.597 362.597 425.724C362.597 426.851 362.822 427.967 363.258 429.008C363.694 430.049 364.334 430.995 365.14 431.792C365.946 432.589 366.903 433.221 367.956 433.653C369.01 434.084 370.138 434.306 371.279 434.306ZM532.585 418.727C533.515 418.727 534.435 418.908 535.294 419.259C536.153 419.611 536.933 420.126 537.591 420.776C538.248 421.426 538.769 422.197 539.125 423.046C539.481 423.895 539.664 424.805 539.664 425.724C539.664 426.643 539.481 427.553 539.125 428.402C538.769 429.251 538.248 430.022 537.591 430.672C536.933 431.322 536.153 431.837 535.294 432.189C534.435 432.541 533.515 432.722 532.585 432.722H371.279C370.349 432.722 369.428 432.541 368.57 432.189C367.711 431.837 366.93 431.322 366.273 430.672C365.616 430.022 365.094 429.251 364.738 428.402C364.383 427.553 364.2 426.643 364.2 425.724C364.2 424.805 364.383 423.895 364.738 423.046C365.094 422.197 365.616 421.426 366.273 420.776C366.93 420.126 367.711 419.611 368.57 419.259C369.428 418.908 370.349 418.727 371.279 418.727H532.585Z" fill="#292A2E"/>
<path d="M282.745 417.935H444.052C448.405 417.935 451.933 421.422 451.933 425.724V425.725C451.933 430.027 448.405 433.514 444.052 433.514H282.745C278.393 433.514 274.865 430.027 274.865 425.725V425.724C274.865 421.422 278.393 417.935 282.745 417.935Z" fill="white"/>
<path d="M282.745 434.306H444.052C445.192 434.306 446.321 434.084 447.374 433.653C448.427 433.221 449.384 432.589 450.191 431.792C450.997 430.995 451.636 430.049 452.073 429.008C452.509 427.967 452.733 426.851 452.733 425.724C452.733 424.597 452.509 423.481 452.073 422.44C451.636 421.399 450.997 420.453 450.191 419.656C449.384 418.859 448.427 418.227 447.374 417.796C446.321 417.365 445.192 417.143 444.052 417.143H282.745C281.604 417.143 280.476 417.365 279.422 417.796C278.369 418.227 277.412 418.859 276.606 419.656C275.8 420.453 275.16 421.399 274.724 422.44C274.288 423.481 274.063 424.597 274.063 425.724C274.063 426.851 274.288 427.967 274.724 429.008C275.16 430.049 275.8 430.995 276.606 431.792C277.412 432.589 278.369 433.221 279.422 433.653C280.476 434.084 281.604 434.306 282.745 434.306ZM444.052 418.727C444.982 418.727 445.902 418.908 446.761 419.259C447.62 419.611 448.4 420.126 449.058 420.776C449.715 421.426 450.236 422.197 450.592 423.046C450.948 423.895 451.131 424.805 451.131 425.724C451.131 426.643 450.948 427.553 450.592 428.402C450.236 429.251 449.715 430.022 449.058 430.672C448.4 431.322 447.62 431.837 446.761 432.189C445.902 432.541 444.982 432.722 444.052 432.722H282.745C281.815 432.722 280.894 432.541 280.035 432.189C279.177 431.837 278.396 431.322 277.739 430.672C277.082 430.022 276.56 429.251 276.204 428.402C275.849 427.553 275.665 426.643 275.665 425.724C275.665 424.805 275.849 423.895 276.204 423.046C276.56 422.197 277.082 421.426 277.739 420.776C278.396 420.126 279.177 419.611 280.035 419.259C280.894 418.908 281.815 418.727 282.745 418.727H444.052Z" fill="#292A2E"/>
<path d="M394.344 319.352H550.785C553.343 319.352 555.814 318.432 557.736 316.764C559.657 315.095 560.899 312.792 561.23 310.285L571.578 231.733C571.771 230.265 571.646 228.772 571.209 227.356C570.773 225.939 570.035 224.631 569.047 223.518C568.058 222.406 566.841 221.514 565.476 220.904C564.111 220.293 562.63 219.978 561.132 219.978H404.692C402.134 219.978 399.664 220.898 397.742 222.566C395.82 224.235 394.578 226.537 394.248 229.044L383.901 307.597C383.707 309.065 383.833 310.558 384.269 311.974C384.705 313.391 385.442 314.699 386.431 315.811C387.419 316.924 388.636 317.815 390.001 318.426C391.365 319.037 392.846 319.352 394.344 319.352Z" fill="#292A2E"/>
<path opacity="0.8" d="M394.344 319.352H550.785C553.343 319.352 555.814 318.432 557.736 316.764C559.657 315.095 560.899 312.792 561.23 310.285L571.578 231.733C571.771 230.265 571.646 228.772 571.209 227.356C570.773 225.939 570.035 224.631 569.047 223.518C568.058 222.406 566.841 221.514 565.476 220.904C564.111 220.293 562.63 219.978 561.132 219.978H404.692C402.134 219.978 399.664 220.898 397.742 222.566C395.82 224.235 394.578 226.537 394.248 229.044L383.901 307.597C383.707 309.065 383.833 310.558 384.269 311.974C384.705 313.391 385.442 314.699 386.431 315.811C387.419 316.924 388.636 317.815 390.001 318.426C391.365 319.037 392.846 319.352 394.344 319.352Z" fill="white"/>
<path d="M394.344 320.144H550.785C553.536 320.138 556.191 319.146 558.258 317.352C560.325 315.557 561.663 313.083 562.024 310.387L572.372 231.835C572.58 230.255 572.445 228.649 571.975 227.125C571.506 225.6 570.713 224.192 569.649 222.995C568.585 221.798 567.275 220.838 565.806 220.181C564.338 219.524 562.744 219.185 561.132 219.185H404.692C401.941 219.191 399.286 220.183 397.22 221.978C395.153 223.772 393.815 226.246 393.454 228.942L383.106 307.495C382.897 309.075 383.033 310.681 383.502 312.205C383.972 313.729 384.765 315.137 385.828 316.334C386.892 317.531 388.202 318.49 389.67 319.148C391.139 319.805 392.732 320.144 394.344 320.144ZM561.132 220.769C562.516 220.769 563.884 221.061 565.145 221.625C566.406 222.189 567.53 223.013 568.443 224.041C569.357 225.069 570.038 226.277 570.441 227.586C570.844 228.895 570.96 230.274 570.781 231.63L560.433 310.183C560.123 312.497 558.974 314.622 557.2 316.163C555.425 317.703 553.145 318.555 550.784 318.56H394.344C392.96 318.56 391.592 318.268 390.332 317.703C389.071 317.139 387.947 316.316 387.034 315.288C386.121 314.26 385.44 313.051 385.037 311.743C384.634 310.434 384.518 309.056 384.697 307.699L395.043 229.147C395.353 226.833 396.502 224.708 398.276 223.168C400.051 221.627 402.33 220.775 404.692 220.77L561.132 220.769Z" fill="#292A2E"/>
<path d="M385.5 319.352H541.941C544.499 319.352 546.969 318.432 548.891 316.763C550.813 315.095 552.055 312.792 552.385 310.285L562.736 231.733C562.929 230.265 562.804 228.772 562.367 227.356C561.931 225.939 561.194 224.631 560.205 223.519C559.217 222.406 558 221.515 556.635 220.904C555.27 220.294 553.79 219.978 552.292 219.978H395.847C393.29 219.978 390.819 220.898 388.898 222.566C386.976 224.234 385.734 226.537 385.404 229.044L375.056 307.597C374.862 309.065 374.988 310.558 375.424 311.974C375.861 313.391 376.598 314.699 377.586 315.811C378.575 316.924 379.792 317.815 381.157 318.426C382.521 319.036 384.002 319.352 385.5 319.352Z" fill="white"/>
<path d="M385.5 320.144H541.942C544.692 320.138 547.347 319.146 549.414 317.352C551.481 315.557 552.819 313.083 553.18 310.387L563.528 231.835C563.736 230.255 563.601 228.649 563.131 227.125C562.662 225.601 561.869 224.193 560.805 222.996C559.741 221.799 558.431 220.839 556.963 220.182C555.494 219.525 553.901 219.185 552.289 219.185H395.849C393.098 219.191 390.443 220.183 388.376 221.978C386.309 223.772 384.971 226.246 384.609 228.942L374.261 307.495C374.053 309.075 374.189 310.681 374.658 312.205C375.128 313.729 375.921 315.137 376.985 316.334C378.049 317.531 379.358 318.49 380.827 319.147C382.295 319.804 383.889 320.144 385.5 320.144ZM552.289 220.769C553.673 220.77 555.041 221.062 556.301 221.626C557.561 222.191 558.686 223.015 559.598 224.043C560.511 225.07 561.192 226.279 561.595 227.588C561.998 228.896 562.114 230.275 561.935 231.631L551.591 310.183C551.281 312.497 550.132 314.622 548.357 316.162C546.583 317.703 544.303 318.555 541.942 318.56H385.5C384.116 318.56 382.748 318.268 381.488 317.704C380.227 317.14 379.102 316.316 378.189 315.289C377.276 314.261 376.595 313.052 376.192 311.743C375.788 310.435 375.672 309.056 375.851 307.699L386.199 229.147C386.509 226.833 387.658 224.708 389.433 223.168C391.207 221.627 393.487 220.775 395.849 220.77L552.289 220.769Z" fill="#292A2E"/>
<path d="M263.893 337.288L265.487 337.447L231.709 667.997L230.114 667.838L263.893 337.288Z" fill="#494949"/>
<path d="M402.358 99.3844C402.358 99.3844 391.963 91.6281 389.387 73.7743C387.392 59.9511 400.293 68.9066 400.293 68.9066C400.293 68.9066 398.954 58.9389 406.302 59.9282C413.649 60.9174 417.76 71.388 417.76 71.388" fill="#0C0C0C"/>
<path d="M444.272 61.0948C444.272 61.0948 480.724 64.9607 467.546 113.784L464.32 113.998L457.773 114.432" fill="#0C0C0C"/>
<path d="M408.464 164.776C408.624 164.756 410.403 193.923 444.685 191.383C468.418 189.625 476.88 164.735 477.424 164.735C474.865 164.198 471.703 163.382 470.446 163.102C467.707 162.473 465.227 161.036 463.335 158.98C461.443 156.924 460.229 154.347 459.855 151.592C459.16 147.458 460.336 126.305 459.976 122.121L423.545 130.159C424.054 138.994 427.617 159.477 415.132 163.102C413.052 163.702 410.814 164.253 408.464 164.776Z" fill="#E98862"/>
<path opacity="0.52" d="M423.033 154.731C423.604 152.913 423.971 151.039 424.129 149.142C424.529 144.813 424.449 140.454 423.889 136.142C431.294 135.155 438.269 132.134 444.024 127.423C444.7 129.892 448.42 140.683 447.389 143.03C445.446 147.467 436.298 154.731 423.033 154.731Z" fill="#0C0C0C"/>
<path d="M430.552 148.958C444.925 147.684 462.127 138.708 462.375 119.423L462.599 102.022C462.847 82.7377 452.801 66.9756 434.432 66.7444C416.063 66.5139 402.132 81.9742 401.884 101.259L401.785 108.962C401.798 111.608 401.993 114.25 402.369 116.869C403.311 123.799 404.773 134.336 409.53 141.463C414.023 148.192 421.371 149.771 430.552 148.958Z" fill="#E98862"/>
<path d="M423.884 131.332C420.918 131.465 417.962 130.907 415.255 129.703C415.199 129.679 415.148 129.645 415.105 129.602C415.063 129.559 415.029 129.508 415.006 129.453C414.984 129.397 414.972 129.337 414.973 129.277C414.974 129.217 414.986 129.157 415.01 129.102C415.034 129.047 415.069 128.996 415.112 128.954C415.156 128.912 415.207 128.879 415.264 128.857C415.32 128.834 415.381 128.823 415.441 128.824C415.502 128.824 415.562 128.837 415.618 128.86C421.451 131.32 426.748 130.959 430.936 127.819C431.02 127.753 431.108 127.691 431.199 127.634C431.305 127.586 431.424 127.579 431.535 127.613C431.645 127.648 431.739 127.722 431.797 127.822C431.854 127.921 431.873 128.038 431.847 128.15C431.822 128.262 431.755 128.361 431.66 128.426C431.626 128.447 431.573 128.489 431.5 128.547C429.298 130.204 426.647 131.174 423.884 131.332Z" fill="#0C0C0C"/>
<path d="M424.024 135.675C423.488 135.707 422.95 135.695 422.416 135.637C422.294 135.624 422.182 135.564 422.105 135.469C422.028 135.375 421.992 135.254 422.005 135.133C422.018 135.012 422.079 134.902 422.174 134.825C422.27 134.749 422.392 134.713 422.514 134.726C425.725 135.063 427.257 133.609 427.322 133.547C427.409 133.461 427.526 133.412 427.649 133.412C427.772 133.412 427.89 133.46 427.977 133.546C428.064 133.632 428.113 133.748 428.113 133.87C428.113 133.991 428.065 134.108 427.978 134.194C426.873 135.124 425.475 135.648 424.024 135.675Z" fill="#0C0C0C"/>
<path d="M407.95 112.671C406.7 112.671 405.687 111.669 405.687 110.434C405.687 109.199 406.7 108.197 407.95 108.197C409.2 108.197 410.213 109.199 410.213 110.434C410.213 111.669 409.2 112.671 407.95 112.671Z" fill="#0C0C0C"/>
<path d="M430.055 111.3C428.805 111.3 427.792 110.298 427.792 109.063C427.792 107.828 428.805 106.826 430.055 106.826C431.304 106.826 432.317 107.828 432.317 109.063C432.317 110.298 431.304 111.3 430.055 111.3Z" fill="#0C0C0C"/>
<path d="M461.158 125.284C466.74 125.354 471.341 119.507 471.414 113.989C471.487 108.471 466.999 105.371 461.417 105.302L458.493 108.962L456.36 125.223L461.158 125.284Z" fill="#E98862"/>
<path d="M455.607 116.417C455.607 116.417 453.721 89.1293 445.351 87.4439C439.776 86.3216 426.256 94.1389 413.734 91.7778C408.255 90.7482 403.054 92.0851 402.525 94.6434C402.316 95.6564 398.903 81.0998 407.482 70.0558C414.313 61.2604 436.666 58.7774 446.835 61.6603C474.994 69.6455 462.568 106.502 462.568 106.502L461.312 115.91L455.607 116.417Z" fill="#0C0C0C"/>
<path d="M420.512 124.891H420.476C418.677 124.873 415.662 124.644 415.674 123.314C415.686 122.211 418.859 110.344 419.222 108.995C419.257 108.883 419.334 108.788 419.438 108.731C419.541 108.674 419.663 108.659 419.778 108.689C419.893 108.719 419.991 108.792 420.052 108.892C420.114 108.993 420.134 109.113 420.108 109.227C418.698 114.483 416.599 122.574 416.59 123.325C416.764 123.642 418.622 123.968 420.485 123.987C420.603 123.99 420.715 124.036 420.798 124.118C420.881 124.2 420.93 124.31 420.933 124.426C420.937 124.543 420.895 124.656 420.817 124.742C420.738 124.829 420.629 124.882 420.512 124.892V124.891Z" fill="#0C0C0C"/>
<path d="M414.372 98.3049C412.482 97.7905 410.486 97.7905 408.595 98.3049C407.667 98.5516 406.781 98.935 405.967 99.4422C405.163 99.9387 404.426 100.534 403.773 101.213C403.647 101.333 403.575 101.497 403.57 101.669C403.565 101.841 403.629 102.008 403.748 102.134C403.866 102.261 404.03 102.336 404.204 102.345C404.378 102.353 404.548 102.294 404.679 102.179L404.72 102.145C405.325 101.591 405.998 101.115 406.723 100.728C407.434 100.342 408.201 100.066 408.996 99.9071C410.561 99.5826 412.186 99.6725 413.705 100.168L413.769 100.19C414.02 100.277 414.295 100.263 414.535 100.15C414.775 100.037 414.96 99.8337 415.048 99.586C415.137 99.3382 415.122 99.0658 415.008 98.8286C414.893 98.5915 414.688 98.4091 414.437 98.3215L414.372 98.3049Z" fill="#0C0C0C"/>
<path d="M427.757 99.4288C429.196 98.7378 430.793 98.4348 432.389 98.5505C433.198 98.6025 433.995 98.7755 434.752 99.0637C435.522 99.3526 436.252 99.7358 436.925 100.204L436.968 100.233C437.113 100.324 437.288 100.357 437.456 100.325C437.625 100.292 437.774 100.197 437.873 100.059C437.973 99.9202 438.014 99.7493 437.989 99.5814C437.964 99.4135 437.875 99.2616 437.739 99.1572C437 98.5697 436.189 98.0769 435.325 97.6903C434.45 97.2955 433.521 97.0322 432.567 96.9094C430.624 96.6475 428.645 96.9096 426.841 97.6682C426.596 97.7732 426.404 97.9699 426.306 98.215C426.209 98.46 426.214 98.7334 426.32 98.975C426.426 99.2166 426.625 99.4065 426.873 99.5031C427.121 99.5996 427.398 99.5948 427.642 99.4898L427.697 99.4637L427.757 99.4288Z" fill="#0C0C0C"/>
<path d="M417.064 79.5212C412.932 78.6679 410.612 73.1027 411.883 67.0911C413.153 61.0795 417.533 56.8979 421.665 57.7513C425.797 58.6046 428.116 64.1698 426.846 70.1814C425.575 76.193 421.196 80.3746 417.064 79.5212Z" fill="#0C0C0C"/>
<path d="M186.613 626.22C186.613 626.22 182.317 648.232 161.467 649.459C140.616 650.686 145.137 667.106 145.137 667.106H224.816V627.755L186.613 626.22Z" fill="#36DA93"/>
<path d="M338.198 612.321C338.198 612.321 344.173 633.948 326.011 644.146C307.85 654.344 319.239 667.105 319.239 667.105L390.736 632.336L373.164 597.026L338.198 612.321Z" fill="#36DA93"/>
<path d="M382.483 606.212L322.19 418.194H431.48C453.434 418.194 462.586 399.791 462.586 378.091C462.586 356.391 441.004 337.369 419.051 337.369H271.549C258.159 337.369 243.146 345.463 235.797 356.528C228.448 367.592 230.435 384.737 235.759 396.882L332.309 628.681" fill="#262626"/>
<path opacity="0.8" d="M382.483 606.212L322.19 418.194H431.48C453.434 418.194 462.586 399.791 462.586 378.091C462.586 356.391 441.004 337.369 419.051 337.369H271.549C258.159 337.369 243.146 345.463 235.797 356.528C228.448 367.592 230.435 384.737 235.759 396.882L332.309 628.681" fill="#0A0A0A"/>
<path d="M229.4 646.662L330.215 418.194L462.588 418.185C493.605 415.781 507.811 398.978 507.359 377.283C506.913 355.863 495.941 334.706 474.369 334.706H295.953C279.992 335.03 267.435 352.465 261.514 367.119L177.703 632.675" fill="#262626"/>
<path d="M516.386 334.968C516.386 334.968 522.265 372.863 512.947 393.932C501.313 420.235 457.703 418.185 457.703 418.185L460.16 334.706L516.386 334.968Z" fill="#262626"/>
<path d="M257.72 334.223L351.226 315.07C355.122 314.272 358.752 312.515 361.78 309.963C364.807 307.41 367.134 304.144 368.546 300.467L405.323 204.669C406.443 201.794 406.977 198.728 406.895 195.649C406.813 192.569 406.116 189.536 404.844 186.723C403.573 183.91 401.751 181.374 399.485 179.259C397.219 177.144 394.552 175.493 391.638 174.399C388.724 173.306 385.62 172.793 382.505 172.889C379.39 172.985 376.325 173.689 373.486 174.959C370.646 176.23 368.089 178.042 365.96 180.293C363.832 182.543 362.174 185.187 361.082 188.073L328.911 271.869L248.117 288.418C248.117 288.418 256.099 334.554 257.72 334.223Z" fill="#36DA93"/>
<path d="M365.868 228.996C366.948 241.536 374.602 319.77 375.644 335.216H516.324C517.132 321.285 519.756 262.139 522.822 234.897C525.747 208.901 526.809 194.067 523.439 185.989C517.495 171.741 502.621 166.614 489.809 164.899C481.987 163.853 470.221 163.102 470.221 163.102C470.221 163.102 469.224 183.024 445.468 184.133C413.131 185.637 415.29 163.102 415.13 163.102C409.891 163.102 381.375 166.868 374.245 171.462C364.173 177.951 361.197 186.793 361.079 194.917C360.944 204.271 364.644 214.774 365.868 228.996Z" fill="#36DA93"/>
<path d="M371.398 292.922H371.431C371.484 292.918 371.535 292.903 371.582 292.879C371.628 292.855 371.67 292.823 371.704 292.783C371.738 292.743 371.764 292.697 371.78 292.648C371.796 292.598 371.802 292.546 371.797 292.494L368.145 249.128C368.142 249.075 368.129 249.024 368.105 248.977C368.082 248.93 368.048 248.889 368.008 248.855C367.968 248.821 367.921 248.796 367.87 248.78C367.819 248.765 367.766 248.76 367.713 248.766C367.661 248.77 367.61 248.784 367.563 248.808C367.516 248.832 367.475 248.865 367.441 248.905C367.407 248.944 367.381 248.99 367.365 249.04C367.349 249.089 367.343 249.142 367.347 249.193L370.999 292.56C371.008 292.658 371.054 292.75 371.127 292.817C371.201 292.884 371.297 292.922 371.398 292.922Z" fill="#0C0C0C"/>
<path d="M304.396 318.949L273.529 225.155C272.986 223.506 271.93 222.07 270.512 221.052C269.093 220.033 267.384 219.484 265.631 219.484H131.861C130.55 219.484 129.258 219.791 128.09 220.379C126.922 220.968 125.911 221.821 125.141 222.87C124.37 223.918 123.862 225.132 123.657 226.412C123.453 227.692 123.557 229.002 123.963 230.234L162.843 324.032C163.385 325.68 164.441 327.116 165.86 328.135C167.279 329.153 168.987 329.702 170.741 329.702H296.498C297.81 329.702 299.102 329.395 300.271 328.807C301.439 328.218 302.45 327.365 303.22 326.316C303.991 325.267 304.499 324.052 304.703 322.772C304.908 321.492 304.802 320.182 304.396 318.949Z" fill="#292A2E"/>
<path d="M304.396 318.949L273.529 225.155C272.986 223.506 271.93 222.07 270.512 221.052C269.093 220.033 267.384 219.484 265.631 219.484H131.861C130.55 219.484 129.258 219.791 128.09 220.379C126.922 220.968 125.911 221.821 125.141 222.87C124.37 223.918 123.862 225.132 123.657 226.412C123.453 227.692 123.557 229.002 123.963 230.234L162.843 324.032C163.385 325.68 164.441 327.116 165.86 328.135C167.279 329.153 168.987 329.702 170.741 329.702H296.498C297.81 329.702 299.102 329.395 300.271 328.807C301.439 328.218 302.45 327.365 303.22 326.316C303.991 325.267 304.499 324.052 304.703 322.772C304.908 321.492 304.802 320.182 304.396 318.949Z" fill="#292A2E"/>
<path d="M279.217 322.093H363.399C365.497 322.093 367.197 323.774 367.197 325.847V325.944C367.197 328.017 365.497 329.698 363.399 329.698H279.217C277.119 329.698 275.419 328.017 275.419 325.944V325.847C275.419 323.774 277.119 322.093 279.217 322.093Z" fill="#292A2E"/>
<path d="M279.217 322.093H363.399C365.497 322.093 367.197 323.774 367.197 325.847V325.944C367.197 328.017 365.497 329.698 363.399 329.698H279.217C277.119 329.698 275.419 328.017 275.419 325.944V325.847C275.419 323.774 277.119 322.093 279.217 322.093Z" fill="#292A2E"/>
<path d="M218.188 292.205C210.903 292.205 204.998 286.368 204.998 279.168C204.998 271.967 210.903 266.13 218.188 266.13C225.472 266.13 231.377 271.967 231.377 279.168C231.377 286.368 225.472 292.205 218.188 292.205Z" fill="white"/>
<path d="M311.434 296.978L332.443 289.698L329.427 289.492C328.455 289.407 327.552 288.959 326.9 288.241C326.249 287.522 325.897 286.586 325.918 285.621C325.946 285.123 326.076 284.637 326.3 284.191C326.525 283.745 326.839 283.348 327.223 283.026C327.608 282.704 328.055 282.463 328.537 282.317C329.019 282.171 329.525 282.124 330.027 282.178L367.197 286.083L366.236 297.89C365.936 301.557 364.535 305.053 362.212 307.928C359.889 310.803 356.751 312.926 353.199 314.027L337.102 318.983C336.271 319.257 335.37 319.238 334.551 318.93C333.732 318.623 333.045 318.044 332.608 317.294C332.228 316.608 332.08 315.82 332.185 315.045C332.29 314.269 332.642 313.548 333.191 312.985C333.156 312.96 333.126 312.928 333.103 312.891C333.08 312.854 333.066 312.813 333.06 312.77C333.053 312.727 333.056 312.684 333.068 312.642C333.079 312.601 333.099 312.562 333.127 312.528L330.162 313.448C329.237 313.755 328.228 313.704 327.34 313.304C326.451 312.904 325.75 312.185 325.377 311.294C325.072 310.485 325.066 309.596 325.359 308.783C325.652 307.97 326.226 307.285 326.979 306.849C326.945 306.831 326.914 306.806 326.888 306.777L325.669 307.154C324.837 307.428 323.936 307.409 323.117 307.101C322.298 306.793 321.611 306.215 321.174 305.464C320.714 304.632 320.596 303.656 320.847 302.741C321.098 301.826 321.698 301.042 322.52 300.554C322.514 300.529 322.51 300.504 322.509 300.479L313.76 303.51C313.325 303.666 312.863 303.735 312.401 303.713C311.939 303.691 311.486 303.579 311.068 303.382C310.65 303.186 310.275 302.91 309.966 302.57C309.657 302.23 309.419 301.833 309.266 301.401C309.113 300.97 309.048 300.513 309.075 300.056C309.102 299.6 309.22 299.153 309.422 298.742C309.625 298.331 309.908 297.963 310.255 297.661C310.602 297.359 311.007 297.128 311.445 296.981L311.434 296.978Z" fill="#E98862"/>
<path opacity="0.2" d="M322.841 300.814C322.882 300.814 322.922 300.807 322.961 300.794L331.423 297.751C331.51 297.72 331.581 297.656 331.62 297.573C331.659 297.489 331.663 297.395 331.631 297.309C331.599 297.223 331.534 297.153 331.45 297.114C331.366 297.076 331.27 297.072 331.183 297.103L322.72 300.146C322.642 300.173 322.578 300.227 322.536 300.297C322.495 300.367 322.481 300.45 322.495 300.529C322.509 300.609 322.552 300.682 322.614 300.734C322.677 300.786 322.757 300.814 322.839 300.814H322.841Z" fill="#0A0A0A"/>
<path opacity="0.2" d="M327.12 306.896C327.16 306.896 327.2 306.889 327.237 306.876L333.908 304.537C333.952 304.522 333.992 304.499 334.028 304.469C334.063 304.439 334.091 304.402 334.112 304.361C334.132 304.32 334.144 304.275 334.147 304.229C334.15 304.183 334.143 304.138 334.127 304.094C334.112 304.051 334.088 304.011 334.057 303.977C334.025 303.943 333.988 303.916 333.945 303.897C333.903 303.877 333.858 303.866 333.811 303.865C333.765 303.863 333.719 303.871 333.675 303.887L327.004 306.227C326.927 306.254 326.861 306.307 326.82 306.377C326.778 306.447 326.763 306.53 326.777 306.61C326.791 306.69 326.833 306.762 326.896 306.815C326.958 306.867 327.038 306.896 327.12 306.896Z" fill="#0A0A0A"/>
<path opacity="0.2" d="M333.401 313.068C333.443 313.068 333.485 313.06 333.525 313.045L336.65 311.868C336.736 311.835 336.806 311.77 336.844 311.686C336.881 311.603 336.884 311.508 336.851 311.423C336.818 311.337 336.752 311.268 336.667 311.231C336.583 311.194 336.487 311.191 336.401 311.224L333.276 312.402C333.199 312.43 333.136 312.484 333.095 312.555C333.055 312.625 333.041 312.707 333.056 312.786C333.071 312.866 333.113 312.937 333.176 312.989C333.239 313.041 333.318 313.069 333.4 313.068H333.401Z" fill="#0A0A0A"/>
<path d="M350.745 279.095L438.883 279.036L472.226 198.636L521.966 219.308L480.367 314.73L479.96 315.68C477.925 320.319 474.497 324.226 470.14 326.874C465.783 329.522 460.708 330.782 455.602 330.484L349.415 324.283L350.745 279.095Z" fill="#36DA93"/>
<path d="M457.062 330.922C462.003 330.914 466.834 329.483 470.966 326.804C475.097 324.125 478.35 320.314 480.326 315.837L480.733 314.887L516.183 233.583L515.447 233.266L479.591 315.526C477.579 320.082 474.204 323.92 469.92 326.524C465.635 329.127 460.647 330.371 455.626 330.089L349.827 323.911L351.137 279.492L439.153 279.434L464.793 217.614L464.051 217.314L438.617 278.642L350.359 278.701L349.003 324.657L349.392 324.679L455.576 330.879C456.072 330.908 456.57 330.922 457.062 330.922Z" fill="#0C0C0C"/>
<path d="M555.095 337.293L588.896 667.841L587.302 668L553.5 337.452L555.095 337.293Z" fill="#494949"/>
<path d="M415.438 337.293L449.24 667.841L447.646 668L413.844 337.452L415.438 337.293Z" fill="#494949"/>
<path d="M124.237 337.288L125.831 337.447L92.0526 667.998L90.4582 667.838L124.237 337.288Z" fill="#494949"/>
<path d="M93.7766 330.879H583.342C586.968 330.879 589.907 333.784 589.907 337.368C589.907 340.952 586.968 343.857 583.342 343.857H93.7766C90.1506 343.857 87.2111 340.952 87.2111 337.368C87.2111 333.784 90.1506 330.879 93.7766 330.879Z" fill="#292A2E"/>
<path opacity="0.8" d="M93.7766 330.879H583.342C586.968 330.879 589.907 333.784 589.907 337.368C589.907 340.952 586.968 343.857 583.342 343.857H93.7766C90.1506 343.857 87.2111 340.952 87.2111 337.368C87.2111 333.784 90.1506 330.879 93.7766 330.879Z" fill="white"/>
<path d="M93.7759 344.65H583.339C584.313 344.66 585.279 344.479 586.181 344.117C587.084 343.756 587.905 343.221 588.597 342.544C589.29 341.867 589.839 341.061 590.214 340.172C590.589 339.284 590.782 338.331 590.782 337.368C590.782 336.406 590.589 335.452 590.214 334.564C589.839 333.676 589.29 332.869 588.597 332.192C587.905 331.515 587.084 330.98 586.181 330.619C585.279 330.258 584.313 330.077 583.339 330.087H93.7759C92.8021 330.077 91.8359 330.258 90.9333 330.619C90.0306 330.98 89.2094 331.515 88.5172 332.192C87.825 332.869 87.2755 333.676 86.9005 334.564C86.5255 335.452 86.3323 336.406 86.3323 337.368C86.3323 338.331 86.5255 339.284 86.9005 340.172C87.2755 341.061 87.825 341.867 88.5172 342.544C89.2094 343.221 90.0306 343.756 90.9333 344.117C91.8359 344.479 92.8021 344.66 93.7759 344.65ZM583.339 331.671C584.101 331.662 584.858 331.803 585.565 332.085C586.273 332.367 586.916 332.786 587.458 333.316C588.001 333.845 588.432 334.477 588.726 335.172C589.02 335.868 589.171 336.614 589.171 337.368C589.171 338.122 589.02 338.868 588.726 339.564C588.432 340.26 588.001 340.891 587.458 341.421C586.916 341.951 586.273 342.369 585.565 342.651C584.858 342.934 584.101 343.074 583.339 343.066H93.7759C93.0132 343.074 92.2564 342.934 91.5492 342.651C90.842 342.369 90.1985 341.951 89.6561 341.421C89.1136 340.891 88.683 340.26 88.389 339.564C88.0951 338.868 87.9437 338.122 87.9437 337.368C87.9437 336.614 88.0951 335.868 88.389 335.172C88.683 334.477 89.1136 333.845 89.6561 333.316C90.1985 332.786 90.842 332.367 91.5492 332.085C92.2564 331.803 93.0132 331.662 93.7759 331.671H583.339Z" fill="#292A2E"/>
<path d="M93.7762 330.879H438.347C441.973 330.879 444.912 333.784 444.912 337.368C444.912 340.952 441.973 343.857 438.347 343.857H93.7762C90.1502 343.857 87.2107 340.952 87.2107 337.368C87.2107 333.784 90.1502 330.879 93.7762 330.879Z" fill="white"/>
<path d="M93.7766 344.65H438.348C440.288 344.63 442.142 343.854 443.507 342.49C444.872 341.127 445.638 339.286 445.638 337.368C445.638 335.45 444.872 333.609 443.507 332.246C442.142 330.883 440.288 330.107 438.348 330.087H93.7766C92.8027 330.077 91.8366 330.258 90.934 330.619C90.0313 330.98 89.2101 331.515 88.5179 332.192C87.8257 332.869 87.2762 333.676 86.9012 334.564C86.5261 335.452 86.333 336.406 86.333 337.368C86.333 338.331 86.5261 339.284 86.9012 340.172C87.2762 341.061 87.8257 341.867 88.5179 342.544C89.2101 343.221 90.0313 343.756 90.934 344.117C91.8366 344.479 92.8027 344.66 93.7766 344.65ZM438.348 331.671C439.865 331.688 441.313 332.296 442.38 333.363C443.446 334.43 444.044 335.869 444.044 337.368C444.044 338.868 443.446 340.307 442.38 341.373C441.313 342.44 439.865 343.048 438.348 343.066H93.7766C93.0139 343.074 92.2571 342.934 91.5499 342.651C90.8427 342.369 90.1992 341.951 89.6568 341.421C89.1143 340.891 88.6837 340.26 88.3897 339.564C88.0958 338.868 87.9444 338.122 87.9444 337.368C87.9444 336.614 88.0958 335.868 88.3897 335.172C88.6837 334.477 89.1143 333.845 89.6568 333.316C90.1992 332.786 90.8427 332.367 91.5499 332.085C92.2571 331.803 93.0139 331.662 93.7766 331.671H438.348Z" fill="#292A2E"/>
<path d="M80.572 562.621C80.6773 562.621 80.7816 562.601 80.8788 562.561C80.976 562.521 81.0643 562.462 81.1385 562.389C82.2675 561.274 84.1079 540.8 89.0645 479.842C91.0924 454.899 93.0082 431.34 94.4064 417.022C94.5057 416 94.9072 415.881 95.0386 415.842C96.9528 415.271 102.772 419.807 106.021 423.78C106.155 423.943 106.349 424.047 106.56 424.07C106.772 424.092 106.983 424.03 107.149 423.898C107.314 423.766 107.419 423.574 107.442 423.365C107.464 423.156 107.402 422.947 107.268 422.783C105.119 420.157 98.1162 413.272 94.5779 414.325C93.8648 414.537 92.9754 415.15 92.8111 416.87C91.4113 431.2 89.4956 454.766 87.4668 479.715C84.4549 516.758 81.0432 558.724 79.9214 561.367C79.8355 561.485 79.7843 561.625 79.7734 561.77C79.7624 561.915 79.7923 562.061 79.8595 562.19C79.9267 562.32 80.0288 562.429 80.1545 562.505C80.2802 562.58 80.4247 562.621 80.572 562.621Z" fill="#494949"/>
<path d="M96.4652 443.295C83.1694 432.76 78.7627 416.363 86.6225 406.67C94.4822 396.978 111.632 397.661 124.928 408.196C138.224 418.731 142.63 435.128 134.771 444.821C126.911 454.513 109.761 453.83 96.4652 443.295Z" fill="#36DA93"/>
<path opacity="0.2" d="M96.4652 443.295C83.1694 432.76 78.7627 416.363 86.6225 406.67C94.4822 396.978 111.632 397.661 124.928 408.196C138.224 418.731 142.63 435.128 134.771 444.821C126.911 454.513 109.761 453.83 96.4652 443.295Z" fill="white"/>
<path d="M131.043 447.285C131.119 447.285 131.193 447.264 131.257 447.224C131.322 447.183 131.373 447.126 131.405 447.058C131.438 446.99 131.45 446.914 131.44 446.84C131.431 446.765 131.4 446.695 131.351 446.637L93.4594 401.469C93.3915 401.388 93.2938 401.337 93.188 401.327C93.0821 401.317 92.9767 401.35 92.8949 401.417C92.8131 401.484 92.7616 401.58 92.7518 401.685C92.7419 401.79 92.7745 401.894 92.8424 401.975L130.734 447.143C130.772 447.188 130.819 447.224 130.872 447.248C130.926 447.273 130.984 447.286 131.043 447.285Z" fill="white"/>
<path d="M72.3084 552.938C72.4363 552.938 72.5622 552.908 72.6758 552.85C72.7894 552.792 72.8874 552.708 72.9614 552.605C73.0354 552.502 73.0834 552.383 73.1014 552.258C73.1194 552.133 73.1068 552.005 73.0648 551.886L58.8306 511.424C58.4115 510.236 57.6974 509.17 56.7536 508.324C55.8099 507.479 54.6666 506.882 53.4287 506.586C52.1907 506.291 50.8975 506.307 49.6676 506.634C48.4377 506.96 47.3104 507.587 46.3888 508.456L38.8635 515.561C38.7097 515.706 38.6206 515.906 38.6157 516.116C38.6108 516.326 38.6906 516.529 38.8375 516.681C38.9843 516.833 39.1862 516.921 39.3987 516.926C39.6113 516.931 39.8171 516.852 39.9708 516.707L47.4953 509.601C48.2229 508.915 49.1129 508.42 50.0839 508.163C51.0549 507.905 52.0758 507.892 53.0532 508.125C54.0305 508.358 54.9331 508.83 55.6782 509.497C56.4232 510.165 56.987 511.006 57.3178 511.945L71.5504 552.407C71.6052 552.562 71.7076 552.697 71.8435 552.792C71.9793 552.887 72.1419 552.939 72.3084 552.938Z" fill="#494949"/>
<path d="M17.8421 537.963C7.98872 530.253 8.5743 513.297 19.15 500.09C29.7258 486.882 46.2869 482.426 56.1403 490.135C65.9937 497.845 65.4081 514.801 54.8324 528.008C44.2566 541.216 27.6955 545.672 17.8421 537.963Z" fill="#36DA93"/>
<path d="M87.0343 560.04C87.2143 560.04 87.389 559.98 87.5303 559.87C87.6716 559.76 87.7712 559.606 87.8131 559.433L111.703 460.711C111.867 460.038 112.214 459.423 112.709 458.933C113.203 458.443 113.824 458.097 114.504 457.934C115.184 457.77 115.896 457.795 116.563 458.005C117.23 458.216 117.825 458.604 118.283 459.127L125.646 467.538C125.715 467.618 125.799 467.684 125.893 467.731C125.987 467.779 126.09 467.808 126.196 467.816C126.301 467.824 126.408 467.811 126.508 467.778C126.609 467.745 126.702 467.693 126.782 467.625C126.862 467.556 126.927 467.473 126.975 467.379C127.022 467.285 127.05 467.183 127.057 467.079C127.064 466.974 127.05 466.87 127.016 466.771C126.982 466.672 126.928 466.58 126.858 466.502L119.495 458.091C118.844 457.347 117.998 456.796 117.05 456.496C116.102 456.197 115.089 456.162 114.123 456.395C113.156 456.629 112.273 457.121 111.571 457.818C110.869 458.515 110.375 459.39 110.144 460.347L86.2587 559.068C86.2105 559.272 86.2459 559.486 86.357 559.664C86.468 559.842 86.6459 559.969 86.8517 560.018C86.9115 560.033 86.9728 560.04 87.0343 560.04Z" fill="#494949"/>
<path d="M95.8477 489.469C92.9441 472.872 100.629 457.701 113.011 455.584C125.394 453.468 137.786 465.207 140.69 481.804C143.593 498.402 135.909 513.572 123.526 515.689C111.143 517.806 98.7513 506.067 95.8477 489.469Z" fill="#36DA93"/>
<path d="M80.5715 562.621C80.6045 562.621 80.6374 562.619 80.6701 562.615C80.7746 562.603 80.8755 562.57 80.9672 562.519C81.0588 562.467 81.1394 562.399 81.2042 562.317C81.269 562.235 81.3168 562.141 81.3449 562.041C81.373 561.94 81.3809 561.835 81.368 561.732L66.1154 439.319C65.9492 437.986 65.3969 436.728 64.5249 435.698C63.6529 434.667 62.4984 433.907 61.2 433.509C59.9017 433.112 58.5148 433.093 57.206 433.456C55.8973 433.819 54.7224 434.548 53.8226 435.555L36.3891 455.073C36.2484 455.23 36.1768 455.437 36.19 455.646C36.2033 455.856 36.3002 456.052 36.4596 456.191C36.619 456.33 36.8277 456.401 37.0399 456.388C37.2521 456.375 37.4503 456.279 37.591 456.121L55.0245 436.604C55.7198 435.825 56.6278 435.262 57.6393 434.981C58.6508 434.701 59.7226 434.715 60.7261 435.022C61.7296 435.329 62.622 435.917 63.2959 436.713C63.9698 437.51 64.3966 438.482 64.5249 439.513L79.7767 561.925C79.8006 562.117 79.8945 562.294 80.0409 562.422C80.1873 562.55 80.376 562.621 80.5715 562.621Z" fill="#494949"/>
<path d="M18.5079 465.919C12.4253 455.049 19.582 439.628 34.4929 431.476C49.4037 423.323 66.4224 425.525 72.505 436.395C78.5876 447.265 71.4309 462.686 56.52 470.839C41.6091 478.992 24.5905 476.789 18.5079 465.919Z" fill="#36DA93"/>
<path opacity="0.2" d="M17.8421 537.963C7.98872 530.253 8.5743 513.297 19.15 500.09C29.7258 486.882 46.2869 482.426 56.1403 490.135C65.9937 497.845 65.4081 514.801 54.8324 528.008C44.2566 541.216 27.6955 545.672 17.8421 537.963Z" fill="white"/>
<path opacity="0.5" d="M95.8477 489.469C92.9441 472.872 100.629 457.701 113.011 455.584C125.394 453.468 137.786 465.207 140.69 481.804C143.593 498.402 135.909 513.572 123.526 515.689C111.143 517.806 98.7513 506.067 95.8477 489.469Z" fill="white"/>
<path opacity="0.5" d="M18.5079 465.919C12.4253 455.049 19.582 439.628 34.4929 431.476C49.4037 423.323 66.4224 425.525 72.505 436.395C78.5876 447.265 71.4309 462.686 56.52 470.839C41.6091 478.992 24.5905 476.789 18.5079 465.919Z" fill="white"/>
<path d="M61.0622 666.488H100.08L106.546 543.088H54.5969L61.0622 666.488Z" fill="#292A2E"/>
<path opacity="0.3" d="M61.0622 666.488H100.08L106.546 543.088H54.5969L61.0622 666.488Z" fill="white"/>
<path d="M17.8397 538.353C17.9001 538.353 17.9598 538.34 18.0142 538.314C18.0686 538.287 18.1163 538.25 18.1537 538.203L56.4534 490.376C56.5194 490.293 56.5496 490.188 56.5374 490.084C56.5251 489.98 56.4714 489.884 56.3881 489.819C56.3048 489.754 56.1987 489.724 56.0932 489.736C55.9876 489.748 55.8912 489.801 55.8252 489.884L17.5256 537.711C17.4787 537.769 17.4494 537.839 17.4411 537.913C17.4328 537.988 17.4458 538.062 17.4786 538.129C17.5114 538.197 17.5627 538.253 17.6265 538.293C17.6904 538.332 17.7643 538.353 17.8397 538.353Z" fill="white"/>
<path d="M21.0549 469.751C21.1402 469.75 21.223 469.723 21.2912 469.672L70.3004 434.299C70.3862 434.237 70.4437 434.144 70.4601 434.04C70.4764 433.936 70.4504 433.83 70.3877 433.745C70.325 433.66 70.2308 433.603 70.1257 433.587C70.0207 433.571 69.9135 433.597 69.8276 433.659L20.8185 469.033C20.7512 469.083 20.7015 469.152 20.6764 469.232C20.6514 469.311 20.6522 469.396 20.6788 469.475C20.7054 469.554 20.7564 469.622 20.8246 469.671C20.8928 469.72 20.9748 469.746 21.0589 469.746L21.0549 469.751Z" fill="white"/>
<path d="M125.518 515.173C125.553 515.173 125.587 515.168 125.621 515.159C125.723 515.131 125.811 515.065 125.864 514.975C125.917 514.884 125.932 514.776 125.905 514.675L110.304 456.894C110.274 456.795 110.206 456.712 110.115 456.661C110.025 456.611 109.917 456.598 109.816 456.624C109.716 456.651 109.629 456.715 109.576 456.803C109.522 456.892 109.506 456.997 109.529 457.098L125.131 514.878C125.153 514.963 125.203 515.037 125.273 515.091C125.343 515.144 125.429 515.173 125.518 515.173Z" fill="white"/>
<path d="M42.2271 667.6H603.439C603.588 667.6 603.731 667.542 603.836 667.438C603.941 667.334 604 667.193 604 667.046C604 666.899 603.941 666.758 603.836 666.654C603.731 666.55 603.588 666.491 603.439 666.491H42.2286C42.0799 666.491 41.9373 666.55 41.832 666.654C41.7269 666.758 41.6678 666.899 41.6678 667.046C41.6678 667.193 41.7269 667.334 41.832 667.438C41.9373 667.542 42.0799 667.6 42.2286 667.6H42.2271Z" fill="#292A2E"/>
<g opacity="0.65">
<path opacity="0.65" d="M42.2271 667.6H603.439C603.588 667.6 603.731 667.542 603.836 667.438C603.941 667.334 604 667.193 604 667.046C604 666.899 603.941 666.758 603.836 666.654C603.731 666.55 603.588 666.491 603.439 666.491H42.2286C42.0799 666.491 41.9373 666.55 41.832 666.654C41.7269 666.758 41.6678 666.899 41.6678 667.046C41.6678 667.193 41.7269 667.334 41.832 667.438C41.9373 667.542 42.0799 667.6 42.2286 667.6H42.2271Z" fill="#292A2E"/>
</g>
</svg>
