<svg width="127" height="127" viewBox="0 0 127 127" fill="none" xmlns="http://www.w3.org/2000/svg">
<g filter="url(#filter0_d_149_847)">
<path d="M77.8098 46.3059L63.5 31.8474L49.1903 46.3059H77.8098ZM73.9571 76.398L95.9573 51.6609H86.5265L73.9571 76.398ZM87.3446 46.3059H96.6415L82.9416 29.1848L87.3446 46.3059ZM118.24 0H8.76C6.12713 0 4 2.12713 4 4.76V114.24C4 116.873 6.12713 119 8.76 119H118.24C120.873 119 123 116.873 123 114.24V4.76C123 2.12713 120.873 0 118.24 0ZM106.147 49.4148L64.0653 96.7321C63.9165 96.8958 63.7083 96.985 63.5 96.985C63.2918 96.985 63.0835 96.8958 62.9348 96.7321L20.8534 49.4148C20.7339 49.2807 20.6654 49.1088 20.66 48.9293C20.6546 48.7498 20.7125 48.5741 20.8236 48.433L41.723 22.3125C41.8718 22.134 42.08 22.0299 42.318 22.0299H84.6523C84.8903 22.0299 85.0985 22.134 85.2473 22.3125L106.147 48.433C106.269 48.5672 106.337 48.7423 106.337 48.9239C106.337 49.1055 106.269 49.2805 106.147 49.4148ZM46.483 51.6609L63.5 85.1594L80.517 51.6609H46.483ZM44.0584 29.1848L30.3585 46.3059H39.6554L44.0584 29.1848ZM31.0427 51.6609L53.0429 76.398L40.4735 51.6609H31.0427ZM49.8596 28.1286L46.4235 41.4864L59.6325 28.1286H49.8596ZM77.1404 28.1286H67.3675L80.5765 41.4864L77.1404 28.1286Z" fill="#6009A5"/>
</g>
<defs>
<filter id="filter0_d_149_847" x="0" y="0" width="127" height="127" filterUnits="userSpaceOnUse" color-interpolation-filters="sRGB">
<feFlood flood-opacity="0" result="BackgroundImageFix"/>
<feColorMatrix in="SourceAlpha" type="matrix" values="0 0 0 0 0 0 0 0 0 0 0 0 0 0 0 0 0 0 127 0" result="hardAlpha"/>
<feOffset dy="4"/>
<feGaussianBlur stdDeviation="2"/>
<feComposite in2="hardAlpha" operator="out"/>
<feColorMatrix type="matrix" values="0 0 0 0 0.377059 0 0 0 0 0.0349826 0 0 0 0 0.645833 0 0 0 1 0"/>
<feBlend mode="normal" in2="BackgroundImageFix" result="effect1_dropShadow_149_847"/>
<feBlend mode="normal" in="SourceGraphic" in2="effect1_dropShadow_149_847" result="shape"/>
</filter>
</defs>
</svg>
