<svg width="32" height="32" viewBox="0 0 32 32" fill="none" xmlns="http://www.w3.org/2000/svg">
<path d="M14.2222 7.11111C13.2792 7.11111 12.3749 7.48571 11.7081 8.15251C11.0413 8.81931 10.6667 9.72367 10.6667 10.6667V14.2222C10.6667 15.1652 11.0413 16.0696 11.7081 16.7364C12.3749 17.4032 13.2792 17.7778 14.2222 17.7778H17.7778V21.3333H10.6667V24.8889H17.7778C18.7208 24.8889 19.6251 24.5143 20.2919 23.8475C20.9587 23.1807 21.3333 22.2763 21.3333 21.3333V17.7778C21.3333 16.8348 20.9587 15.9304 20.2919 15.2636C19.6251 14.5968 18.7208 14.2222 17.7778 14.2222H14.2222V10.6667H21.3333V7.11111H14.2222ZM3.55556 0H28.4444C29.3874 0 30.2918 0.374602 30.9586 1.0414C31.6254 1.70819 32 2.61256 32 3.55556V28.4444C32 29.3874 31.6254 30.2918 30.9586 30.9586C30.2918 31.6254 29.3874 32 28.4444 32H3.55556C2.61256 32 1.70819 31.6254 1.0414 30.9586C0.374602 30.2918 0 29.3874 0 28.4444V3.55556C0 2.61256 0.374602 1.70819 1.0414 1.0414C1.70819 0.374602 2.61256 0 3.55556 0Z" fill="#E98862"/>
</svg>
