<svg width="127" height="124" viewBox="0 0 127 124" fill="none" xmlns="http://www.w3.org/2000/svg">
<g filter="url(#filter0_d_149_843)">
<path d="M97.3902 0H29.6098C22.8177 0 16.3037 2.69759 11.5009 7.49932C6.69817 12.301 4 18.8136 4 25.6043L4 90.3957C4 97.1864 6.69817 103.699 11.5009 108.501C16.3037 113.302 22.8177 116 29.6098 116H97.3902C104.182 116 110.696 113.302 115.499 108.501C120.302 103.699 123 97.1864 123 90.3957V25.6043C123 18.8136 120.302 12.301 115.499 7.49932C110.696 2.69759 104.182 0 97.3902 0ZM67.1146 81.7503H55.7749C54.9816 81.7503 54.4163 81.7205 54.099 81.1901C53.033 79.113 51.9669 77.0508 50.9058 75.0034C49.8087 72.8969 48.678 70.808 47.5143 68.7374C46.3053 66.5943 45.1202 64.4377 43.9592 62.2682H43.8799C42.8052 64.4116 41.701 66.5401 40.5677 68.6532C39.4273 70.7798 38.2918 72.8966 37.1762 74.9985C36.0616 77.102 34.9195 79.1909 33.75 81.2644C33.5318 81.7453 33.16 81.7949 32.6245 81.7949H21.6913C21.4781 81.7949 21.3591 81.8791 21.3343 81.666C21.3056 81.471 21.3479 81.2723 21.4533 81.1058L36.8589 55.799L21.85 30.4277C21.6864 30.2145 21.6616 30.041 21.7707 29.8973C21.8294 29.8284 21.9036 29.7746 21.9872 29.7401C22.0708 29.7056 22.1615 29.6915 22.2516 29.699H33.507C33.7523 29.6888 33.9971 29.7293 34.226 29.8179C34.416 29.9271 34.5788 30.078 34.702 30.2591C35.659 32.3908 36.725 34.5174 37.8952 36.6441C39.0653 38.7708 40.2504 40.8726 41.4453 42.9497C42.6403 45.0268 43.746 47.1287 44.7575 49.2554H44.8368C45.893 47.0742 46.9689 44.9475 48.0697 42.8704C49.1704 40.7933 50.286 38.7063 51.4215 36.6044C52.5669 34.4976 53.6676 32.4056 54.7337 30.3385C54.7929 30.1391 54.9021 29.9582 55.051 29.813C55.2489 29.7144 55.4705 29.6732 55.6906 29.694H66.1478C66.2654 29.6654 66.3896 29.6842 66.4935 29.7463C66.5974 29.8085 66.6727 29.909 66.7031 30.0261C66.7239 30.1104 66.7206 30.1988 66.6934 30.2813C66.6662 30.3637 66.6163 30.4368 66.5494 30.4921L66.5543 30.512L51.7041 55.0157L67.5906 81.0364C67.6948 81.2198 67.7195 81.433 67.67 81.6362C67.6204 81.8147 67.4369 81.6957 67.1146 81.7503ZM105.2 79.6682C102.604 80.749 99.9019 81.5516 97.1373 82.0626C94.6073 82.5323 92.0401 82.7728 89.4668 82.7814C85.7936 82.8353 82.1543 82.0734 78.8113 80.5506C75.6969 79.1087 73.0931 76.7562 71.3441 73.8037C69.4219 70.359 68.482 66.453 68.6269 62.5111C68.5974 58.8479 69.5346 55.2417 71.3441 52.0562C73.2083 48.8112 75.9492 46.1568 79.2526 44.3973C83.4272 42.2162 88.1247 41.2347 92.8236 41.5617C93.25 41.5865 93.7558 41.6261 94.3408 41.6807V25.9562C94.3408 25.5844 94.4995 25.3961 94.8218 25.3961H104.877C104.989 25.3805 105.102 25.4098 105.193 25.4777C105.283 25.5455 105.342 25.6463 105.358 25.7579C105.363 25.7974 105.363 25.8374 105.358 25.8769V73.0552C105.358 73.9624 105.398 74.9439 105.477 76.0097C105.557 77.0706 105.626 78.0273 105.676 78.88C105.686 79.0442 105.646 79.2077 105.561 79.3485C105.476 79.4894 105.35 79.6009 105.2 79.6682ZM93.017 50.8566C93.4632 50.9012 93.9045 50.9805 94.3359 51.0945V72.8817C93.7643 73.0517 93.1756 73.1581 92.5806 73.199C91.8895 73.2546 91.1964 73.2811 90.5031 73.2783C89.106 73.2847 87.7169 73.0689 86.3877 72.6388C85.131 72.2432 83.9835 71.561 83.0358 70.646C82.0472 69.65 81.2846 68.453 80.7996 67.1362C80.2055 65.4993 79.9213 63.7662 79.9617 62.0253C79.8572 59.8064 80.4276 57.6079 81.5979 55.7197C82.654 54.1532 84.0969 52.8891 85.7877 52.0463C87.5231 51.1887 89.437 50.7475 91.3758 50.7673C91.9261 50.7773 92.4715 50.802 93.017 50.8566Z" fill="#F91CFE"/>
</g>
<defs>
<filter id="filter0_d_149_843" x="0" y="0" width="127" height="124" filterUnits="userSpaceOnUse" color-interpolation-filters="sRGB">
<feFlood flood-opacity="0" result="BackgroundImageFix"/>
<feColorMatrix in="SourceAlpha" type="matrix" values="0 0 0 0 0 0 0 0 0 0 0 0 0 0 0 0 0 0 127 0" result="hardAlpha"/>
<feOffset dy="4"/>
<feGaussianBlur stdDeviation="2"/>
<feComposite in2="hardAlpha" operator="out"/>
<feColorMatrix type="matrix" values="0 0 0 0 0.978074 0 0 0 0 0.107882 0 0 0 0 0.995833 0 0 0 1 0"/>
<feBlend mode="normal" in2="BackgroundImageFix" result="effect1_dropShadow_149_843"/>
<feBlend mode="normal" in="SourceGraphic" in2="effect1_dropShadow_149_843" result="shape"/>
</filter>
</defs>
</svg>
