<svg width="132" height="128" viewBox="0 0 132 128" fill="none" xmlns="http://www.w3.org/2000/svg">
<g filter="url(#filter0_d_338_4)">
<rect x="4" width="124" height="120" rx="14" fill="#1657FF"/>
</g>
<path d="M31.4148 72.7112L26.1836 74.5042L25.9023 89.1063L44.0116 82.8991C37.8007 80.9419 33.2648 77.4975 31.4148 72.7112Z" fill="#FDBD39"/>
<path d="M34.1511 57.2666L16 63.4881L26.182 74.504L31.4132 72.711C29.5687 67.9387 30.7062 62.544 34.1511 57.2666Z" fill="#F69833"/>
<path d="M64.6963 36.1962C41.5827 44.1187 26.6816 60.4666 31.4136 72.7106L115.115 44.0205C110.383 31.7764 87.8098 28.2733 64.6963 36.1955" fill="#FECF33"/>
<path d="M81.8334 80.5354C104.947 72.6129 119.876 56.3373 115.116 44.021L31.4141 72.7108C36.1742 85.027 58.7198 88.4576 81.8334 80.5354Z" fill="#EE6723"/>
<path d="M115.116 44.0203L31.4141 72.7108C33.0531 76.9513 39.3031 79.0404 48.073 79.0404C56.6225 79.0404 67.567 77.0565 78.9771 73.1455C102.091 65.223 118.353 52.3958 115.116 44.021" fill="#F69833"/>
<path d="M98.4565 37.6909C89.9065 37.6909 78.962 39.6752 67.5519 43.5859C44.4388 51.5084 28.1767 64.3356 31.4134 72.7107L115.115 44.0206C113.476 39.78 107.226 37.6909 98.4569 37.6909" fill="#FDBD39"/>
<path d="M93.8337 89.8793H93.833C91.3705 89.8793 87.7373 87.792 83.0346 83.6757C77.4705 78.8059 71.0971 71.6732 65.0886 63.5912C59.0796 55.5097 54.1421 47.4303 51.1855 40.8411C47.964 33.6601 47.5047 29.2447 49.8203 27.7178C50.3281 27.3832 50.9402 27.2139 51.639 27.2139C53.5226 27.2139 57.1925 28.5296 63.9788 34.7981L64.1272 34.9352L64.1069 35.1298C64.0606 35.5796 64.0181 36.0299 63.9796 36.4804L63.9042 37.3659L63.2382 36.7366C55.9265 29.8249 52.7078 29.0787 51.6632 29.0787C51.3652 29.0787 51.1281 29.1355 50.9582 29.2476C49.9535 29.9099 49.889 33.1528 53.0121 40.114C55.9159 46.5858 60.7815 54.5435 66.7128 62.5199C72.6444 70.4974 78.9197 77.5249 84.3846 82.3079C90.2767 87.4651 92.9322 88.0218 93.8001 88.0218C94.0997 88.0218 94.3435 87.9617 94.524 87.8422C95.5837 87.144 95.5849 83.6698 92.1021 76.1772L91.9419 75.8335L92.2923 75.6539C92.6423 75.4739 92.981 75.2969 93.2982 75.1276L93.7177 74.904L93.9107 75.3192C96.3802 80.6282 98.6888 87.3756 95.6618 89.3724C95.1517 89.7085 94.5369 89.8793 93.8337 89.8793ZM93.833 89.0601H93.8337L93.8333 89.4695V89.0601H93.833Z" fill="#EE6723"/>
<path d="M82.3948 80.3115L82.3597 80.7194C81.7753 87.5035 80.2366 95.6599 76.2249 95.9897C76.1445 95.9967 76.0609 96 75.9769 96C73.2519 96 70.6734 92.3363 68.314 85.1109C66.0812 78.2751 64.3492 69.0969 63.4359 59.2671C62.5226 49.4391 62.5363 40.1169 63.4742 33.0183C64.4972 25.2827 66.4433 21.2426 69.2593 21.011C69.3429 21.0037 69.4293 21 69.5144 21C71.4914 21 74.471 23.1001 77.521 32.8838L75.5296 33.2444C74.5113 29.9751 73.4011 27.3161 72.2992 25.489C71.28 23.799 70.289 22.8685 69.5089 22.8685C69.4832 22.8685 69.4574 22.8692 69.432 22.871C68.2113 22.9718 66.4336 25.75 65.4422 33.2488C64.5211 40.2206 64.5097 49.4028 65.4109 59.1044C66.3129 68.8074 68.0168 77.8485 70.2093 84.5623C71.191 87.5688 72.2679 90.0468 73.3238 91.7283C74.2972 93.2786 75.2394 94.1326 75.9761 94.1326C76.0019 94.1326 76.0269 94.1315 76.0523 94.1297C77.2202 94.0337 79.4214 91.1426 80.3476 80.9705L82.3948 80.3115Z" fill="#EE6723"/>
<defs>
<filter id="filter0_d_338_4" x="0" y="0" width="132" height="128" filterUnits="userSpaceOnUse" color-interpolation-filters="sRGB">
<feFlood flood-opacity="0" result="BackgroundImageFix"/>
<feColorMatrix in="SourceAlpha" type="matrix" values="0 0 0 0 0 0 0 0 0 0 0 0 0 0 0 0 0 0 127 0" result="hardAlpha"/>
<feOffset dy="4"/>
<feGaussianBlur stdDeviation="2"/>
<feComposite in2="hardAlpha" operator="out"/>
<feColorMatrix type="matrix" values="0 0 0 0 0.211765 0 0 0 0 0.486275 0 0 0 0 1 0 0 0 1 0"/>
<feBlend mode="normal" in2="BackgroundImageFix" result="effect1_dropShadow_338_4"/>
<feBlend mode="normal" in="SourceGraphic" in2="effect1_dropShadow_338_4" result="shape"/>
</filter>
</defs>
</svg>
